<svg width="80" height="80" viewBox="0 0 80 80" fill="none" xmlns="http://www.w3.org/2000/svg">
<path d="M78.5906 42.0776C78.5906 27.0985 69.2641 14.2685 56.1178 9.06184L56.9044 6.23145C57.1721 5.25014 57.0504 4.22017 56.5395 3.31996C56.0367 2.43597 55.2176 1.79528 54.2363 1.52765C39.6301 -2.51113 23.9292 1.59253 13.2726 12.2491C5.10588 20.4077 0.758915 31.2751 1.01033 42.8562C1.05899 44.9161 2.7702 46.5949 4.83824 46.5949H4.8869L7.87138 46.53C8.38231 50.5526 9.58259 54.4778 11.4236 58.103C10.2801 60.244 9.67991 62.6203 9.67991 65.0857C9.67991 73.3011 16.3626 79.9919 24.5861 79.9919C28.1383 79.9919 31.5445 78.7186 34.2208 76.4559C39.6626 77.859 45.4369 77.9482 50.9436 76.6992C53.5793 78.8403 56.8314 80 60.2782 80C68.4936 80 75.1844 73.3174 75.1844 65.0938C75.1844 63.1474 74.7951 61.2091 74.049 59.4087C77.0253 54.1129 78.5987 48.1683 78.5987 42.0858L78.5906 42.0776Z" fill="#204743"/>
<path d="M33.1259 70.6573C31.3011 73.439 28.1544 75.28 24.5779 75.28C18.9415 75.28 14.3755 70.714 14.3755 65.0776C14.3755 62.2634 15.5191 59.7088 17.36 57.8678" stroke="white" stroke-width="2" stroke-miterlimit="10"/>
<path d="M15.9652 14.9578C8.55262 22.3704 4.60305 32.2483 4.83824 42.7751L8.48774 42.694C8.27688 33.1729 11.8453 24.2357 18.5441 17.5368C27.3029 8.778 40.2059 5.40424 52.2331 8.72934L53.2063 5.2096C39.9221 1.53577 25.6485 5.26637 15.9652 14.9497V14.9578Z" stroke="white" stroke-width="2" stroke-linecap="round" stroke-linejoin="round"/>
<path d="M51.6653 69.2786C48.9566 70.1383 46.0775 70.6005 43.0849 70.6005C27.3597 70.6005 14.5621 57.8029 14.5621 42.0777C14.5621 26.3524 27.3597 13.5548 43.0849 13.5548C58.8102 13.5548 71.6078 26.3524 71.6078 42.0777C71.6078 47.8925 69.8561 53.3019 66.8554 57.8192C67.4636 58.0625 68.0232 58.468 68.4611 59.0357C68.9234 59.6358 69.1667 60.2684 69.2316 60.9091C73.0595 55.6051 75.3384 49.109 75.3384 42.0858C75.3384 24.3005 60.8702 9.82419 43.0768 9.82419C25.2835 9.82419 10.8315 24.2843 10.8315 42.0777C10.8315 59.871 25.2997 74.3311 43.0849 74.3311C46.5966 74.3311 49.9785 73.7553 53.1495 72.7172C52.0952 71.9225 51.6004 70.5843 51.6653 69.2786Z" fill="white"/>
<path d="M43.085 45.4919C44.9706 45.4919 46.4993 43.9633 46.4993 42.0776C46.4993 40.192 44.9706 38.6633 43.085 38.6633C41.1993 38.6633 39.6707 40.192 39.6707 42.0776C39.6707 43.9633 41.1993 45.4919 43.085 45.4919Z" fill="#204743" stroke="white" stroke-width="2" stroke-linecap="round" stroke-linejoin="round"/>
<path d="M51.6572 41.0477L70.0588 42.2318" stroke="white" stroke-width="2" stroke-linecap="round" stroke-linejoin="round"/>
<path d="M16.8005 38.8499L36.0374 40.0826" stroke="white" stroke-width="2" stroke-linecap="round" stroke-linejoin="round"/>
<path d="M23.9454 23.2706L37.8784 37.1143" stroke="white" stroke-width="2" stroke-linecap="round" stroke-linejoin="round"/>
<path d="M50.6516 38.1037L61.7542 30.4722" stroke="white" stroke-width="2" stroke-linecap="round" stroke-linejoin="round"/>
<path d="M23.4993 56.8378L38.0568 46.822" stroke="white" stroke-width="2" stroke-linecap="round" stroke-linejoin="round"/>
<path d="M42.8093 21.5756L43.5067 32.5565" stroke="white" stroke-width="2" stroke-linecap="round" stroke-linejoin="round"/>
<path d="M52.7602 57.9165C53.3441 57.3326 54.1876 56.927 55.0634 56.7811L47.8293 50.585L45.9397 41.4856C45.6153 39.9123 44.0744 38.8985 42.4929 39.2229C40.9196 39.5473 39.9058 41.0963 40.2302 42.6697L42.3226 52.7504C42.4524 53.383 42.793 53.9507 43.2796 54.3724L51.7221 61.5984C51.4626 60.2927 51.7464 58.9383 52.7602 57.9165Z" fill="white"/>
<path d="M60.2782 75.2881C65.9128 75.2881 70.4806 70.7203 70.4806 65.0857C70.4806 59.4511 65.9128 54.8833 60.2782 54.8833C54.6436 54.8833 50.0758 59.4511 50.0758 65.0857C50.0758 70.7203 54.6436 75.2881 60.2782 75.2881Z" stroke="white" stroke-width="2" stroke-miterlimit="10"/>
<path d="M60.2782 67.608C61.6712 67.608 62.8004 66.4787 62.8004 65.0857C62.8004 63.6928 61.6712 62.5635 60.2782 62.5635C58.8852 62.5635 57.756 63.6928 57.756 65.0857C57.756 66.4787 58.8852 67.608 60.2782 67.608Z" fill="white"/>
</svg>
