<svg width="80" height="80" viewBox="0 0 80 80" fill="none" xmlns="http://www.w3.org/2000/svg">
<path d="M59.29 27.0896H55.2744C48.907 27.0896 43.0355 30.0413 39.1879 34.7849L38.9239 33.561C39.8358 31.6731 40.4438 29.6653 40.7397 27.5935C42.2436 27.0336 43.3235 25.5937 43.3235 23.8899C43.3235 22.314 43.1555 20.7382 42.8275 19.2023C42.7076 18.6344 42.4596 18.1304 42.1316 17.6905C42.1636 17.1465 42.0916 16.5866 41.8916 16.0426C39.6439 10.1472 34.9803 5.49164 29.0769 3.25986C28.085 2.88389 27.0051 2.91589 26.0372 3.35585C25.4052 3.63582 24.8933 4.08378 24.4933 4.61973C23.0534 4.33176 21.5576 4.17977 20.0297 4.21177C14.4143 4.33176 9.21476 6.67553 5.40712 10.8191C1.59948 14.9547 -0.304335 20.3382 0.0396321 25.9697C0.663573 36.0487 8.7188 44.2639 18.7818 45.0879C19.3418 45.1359 19.9097 45.1599 20.4697 45.1599C23.4374 45.1599 26.3891 44.5119 29.0689 43.272L31.9006 44.048C31.2767 45.6318 31.1967 47.4556 32.1566 49.3435C32.9245 50.8553 34.2844 51.9832 35.8602 52.6231C36.3882 52.8391 36.9561 52.9511 37.5241 52.9511H39.2279V60.5984C39.2279 69.2696 46.2832 76.3249 54.9544 76.3249C59.7619 76.3249 64.3215 74.1011 67.2972 70.3335L68.1851 69.5655C68.9451 68.9016 69.753 68.3896 70.6089 67.8377C72.2807 66.7578 74.1846 65.5339 75.6004 63.2621C77.2563 60.5984 78.2642 57.6707 78.6481 54.335C79.512 53.2791 80 51.9512 80 50.5513V47.7996C80 36.3687 70.7289 27.0976 59.298 27.0976L59.29 27.0896Z" fill="#204743"/>
<path d="M27.6929 20.4982V21.5781L30.0527 21.6741L30.4846 19.7063C30.5566 19.4183 30.3647 19.1304 30.0767 19.0584L26.517 18.2664C26.2291 18.1944 25.9411 18.3864 25.8691 18.6744L25.7251 19.2983H26.517C27.165 19.3223 27.6929 19.8503 27.6929 20.4982Z" fill="white"/>
<path d="M26.845 20.4982H26.869C26.869 20.2822 26.7011 20.1143 26.4851 20.1143H23.5734C23.3574 20.1143 23.1894 20.2822 23.1894 20.4982V21.3861L26.845 21.5541V20.4982Z" fill="white"/>
<path d="M31.3966 22.682C31.3246 22.61 31.2286 22.562 31.1326 22.562L21.7095 22.1541L21.4935 21.3861C21.4455 21.2181 21.3015 21.1222 21.1336 21.1222H20.0777C20.0057 20.8822 19.8137 20.6902 19.5737 20.6182L18.4698 20.2582L18.0859 19.1783C17.9659 18.8184 17.7019 18.5304 17.3659 18.3384L17.1019 18.1944C16.382 17.8105 15.4701 18.0744 15.0861 18.7944L13.9822 20.7462L13.5023 21.5621C13.1663 22.1381 13.3343 22.906 13.9102 23.266L16.654 25.0418L16.75 28.0015C16.774 28.4335 17.0619 28.8174 17.4939 28.8894C18.0459 28.9614 18.5018 28.5535 18.5018 28.0255V24.1779C18.5018 23.9619 18.4058 23.7459 18.2378 23.6019L16.366 22.1381L17.1099 20.7942L17.2059 21.1062C17.2779 21.3221 17.4699 21.5141 17.6859 21.5861L19.1737 22.0661C19.2697 22.0901 19.3417 22.1141 19.4377 22.1141C19.6297 22.1141 19.8217 22.0181 19.9657 21.8741H20.9016L21.2855 23.242H19.0458C19.2137 23.4579 19.3097 23.7219 19.3577 23.9859H20.2696L19.3337 25.2418V26.5136L21.1576 24.0099H21.4455L22.5014 27.8815H19.3017V28.0255C19.3017 28.2415 19.2537 28.4575 19.1817 28.6254H23.9653C23.9653 30.2573 25.2852 31.5852 26.925 31.5852C28.5648 31.5852 29.8847 30.2653 29.8847 28.6494H30.7246C30.9166 28.6494 31.0846 28.5055 31.0846 28.3135L31.4686 22.978C31.4926 22.858 31.4686 22.762 31.3966 22.69V22.682ZM26.925 30.8332C25.7011 30.8332 24.7092 29.8493 24.7092 28.6174H29.1328C29.1088 29.8413 28.1249 30.8332 26.917 30.8332H26.925Z" fill="white"/>
<path d="M15.8861 27.9055H15.2621C15.1661 26.9936 14.6862 26.2017 13.9902 25.6657L14.5662 24.7058L13.9423 24.2979L13.3663 25.2578C12.9583 25.0658 12.4784 24.9458 11.9984 24.9458C10.1506 24.9698 8.65475 26.4336 8.65475 28.2655C8.65475 30.0973 10.1426 31.5852 11.9744 31.5852C13.6783 31.5852 15.0781 30.2893 15.2701 28.6494H16.0141C15.9421 28.4815 15.8941 28.2895 15.8941 28.0735V27.9055H15.8861ZM11.9664 30.8332C10.5506 30.8332 9.39068 29.6813 9.39068 28.2575C9.39068 26.8336 10.5426 25.6817 11.9664 25.6817C12.3264 25.6817 12.6624 25.7537 12.9503 25.8737L11.6305 28.0415C11.5585 28.1615 11.5585 28.3055 11.6305 28.4255C11.7025 28.5454 11.8225 28.6174 11.9424 28.6174H14.4702C14.3022 29.8653 13.2463 30.8252 11.9664 30.8252V30.8332ZM12.6144 27.9055L13.5743 26.2977C14.0542 26.7056 14.3902 27.2576 14.4862 27.9055H12.6144Z" fill="white"/>
<path d="M18.1899 18.0185C19.0138 18.0185 19.6777 17.3545 19.6777 16.5306C19.6777 15.7067 19.0138 15.0428 18.1899 15.0428C17.366 15.0428 16.702 15.7067 16.702 16.5306C16.702 17.3545 17.366 18.0185 18.1899 18.0185Z" fill="white"/>
<path d="M60.0338 38.8405C59.7938 38.2085 59.0899 37.8966 58.458 38.1365C57.826 38.3765 57.5141 39.0805 57.754 39.7124L59.6499 44.6799C59.8338 45.1679 60.2978 45.4638 60.7857 45.4638C60.9297 45.4638 61.0737 45.4398 61.2177 45.3839C61.8496 45.1439 62.1616 44.4399 61.9216 43.808L60.0258 38.8405H60.0338Z" fill="white"/>
<path d="M64.6334 38.8405C64.3935 38.2085 63.6895 37.8966 63.0576 38.1365C62.4256 38.3765 62.1137 39.0805 62.3536 39.7124L64.2495 44.6799C64.4334 45.1679 64.8974 45.4638 65.3854 45.4638C65.5293 45.4638 65.6733 45.4398 65.8173 45.3839C66.4493 45.1439 66.7612 44.4399 66.5213 43.808L64.6254 38.8405H64.6334Z" fill="white"/>
<path d="M67.6651 38.1365C67.0332 38.3765 66.7212 39.0805 66.9612 39.7124L68.857 44.6799C69.041 45.1679 69.5049 45.4638 69.9929 45.4638C70.1369 45.4638 70.2809 45.4398 70.4249 45.3839C71.0568 45.1439 71.3688 44.4399 71.1288 43.808L69.233 38.8405C68.993 38.2085 68.2891 37.8966 67.6571 38.1365H67.6651Z" fill="white"/>
<path d="M36.7481 41.4402C37.0761 41.1283 37.2121 40.6883 37.1161 40.2483L35.5802 33.113C37.1081 30.3773 37.868 27.2736 37.764 24.1299C37.468 14.6908 29.5488 7.21149 20.0937 7.38747C15.3421 7.49146 10.9586 9.47527 7.73487 12.9709C4.51918 16.4666 2.90333 21.0182 3.19931 25.7777C3.72726 34.2969 10.5266 41.2322 19.0298 41.9282C19.5098 41.9682 19.9897 41.9842 20.4617 41.9842C23.3574 41.9842 26.1811 41.2722 28.7249 39.8884L35.5242 41.7522C35.9562 41.8722 36.4121 41.7522 36.7401 41.4482L36.7481 41.4402ZM29.0288 38.3205C28.7089 38.2325 28.3729 38.2725 28.0769 38.4325C25.3652 39.9364 22.2855 40.5923 19.1658 40.3443C11.4465 39.7204 5.27111 33.409 4.79115 25.6817C4.52718 21.3541 5.99104 17.2185 8.91076 14.0428C11.8385 10.8671 15.8221 9.05931 20.1337 8.97132C20.2457 8.97132 20.3577 8.97132 20.4697 8.97132C28.9009 8.97132 35.9162 15.7307 36.1882 24.1859C36.2761 27.0816 35.5722 29.9373 34.1484 32.4411C33.9964 32.7131 33.9484 33.033 34.0124 33.337L35.4682 40.0964L29.0368 38.3365L29.0288 38.3205Z" fill="white"/>
<path d="M38.172 20.2103C38.436 21.4101 38.564 22.65 38.564 23.8899C38.564 24.3299 38.9159 24.6818 39.3559 24.6818C39.7958 24.6818 40.1478 24.3299 40.1478 23.8899C40.1478 22.538 40.0038 21.1862 39.7238 19.8743C39.6278 19.4503 39.2119 19.1784 38.7799 19.2664C38.356 19.3623 38.084 19.7783 38.172 20.2103Z" fill="white"/>
<path d="M27.389 7.70745C32.0205 9.45928 35.6762 13.1149 37.444 17.7385C37.564 18.0585 37.868 18.2504 38.1879 18.2504C38.2839 18.2504 38.3799 18.2344 38.4679 18.1944C38.8759 18.0425 39.0839 17.5785 38.9239 17.1705C37.0041 12.123 33.0044 8.13141 27.9489 6.21959C27.541 6.05961 27.085 6.26759 26.925 6.68355C26.773 7.09151 26.973 7.54746 27.389 7.70745Z" fill="white"/>
<path d="M59.29 30.2573H55.2743C47.3551 30.2573 40.4997 35.5048 38.3959 43.08H37.948C37.5 43.08 37.0681 43.168 36.6601 43.336C35.3882 43.864 34.6043 45.0559 34.6043 46.4317C34.6043 49.5434 35.5962 49.7754 42.4196 49.7754C42.4036 49.9914 42.3956 50.2074 42.3956 50.4233V60.5824C42.3956 67.5097 48.027 73.1412 54.9544 73.1412C59.018 73.1412 62.8096 71.1654 65.1534 67.9017L65.1694 67.9657L66.1053 67.1577C67.0332 66.3498 67.9771 65.7499 68.889 65.1579C70.4249 64.174 71.8728 63.2381 72.9127 61.5663C74.4965 59.0225 75.3764 56.1668 75.6004 52.8551C76.3443 52.3512 76.8323 51.4952 76.8323 50.5353V47.7836C76.8323 38.1205 68.969 30.2493 59.298 30.2493L59.29 30.2573ZM37.892 48.0636C36.9881 48.0556 36.1962 47.3516 36.1882 46.4477C36.1882 46.4477 36.1882 46.4397 36.1882 46.4317C36.1882 45.8638 36.4681 45.1358 37.2681 44.7999C37.484 44.7119 37.716 44.6639 37.948 44.6639H47.2111C48.539 44.6639 49.7869 45.2878 50.7228 46.4077C50.8428 46.5517 50.9627 46.7037 51.0827 46.8557C51.4427 47.3036 51.8187 47.7756 52.2586 48.2076L37.892 48.0556V48.0636ZM47.851 66.7898C46.4832 66.7898 45.1873 65.9419 45.2593 65.1019C45.3313 64.302 46.7951 63.4541 47.995 63.5261C49.1629 63.5901 50.4188 64.462 50.4188 65.1979C50.4188 65.9819 49.1069 66.7978 47.851 66.7978V66.7898ZM71.5608 60.7424C70.7049 62.1102 69.465 62.9102 68.0251 63.8381C67.1612 64.39 66.2733 64.974 65.3614 65.7259C65.3214 65.1259 65.5134 62.6382 66.1533 61.1903C66.1773 61.1343 66.2733 61.0143 66.2973 60.9663H66.7532C67.7931 60.9663 68.6411 60.2864 68.6411 59.4465V56.1748C68.6411 55.3349 67.7931 54.6549 66.7532 54.6549H66.2973V55.1269C66.2973 55.9508 65.4814 56.8387 64.7854 57.6147C63.8815 58.6146 62.2177 57.9266 62.2577 56.5748C62.2977 55.3029 62.3297 54.095 62.3297 53.775C62.3297 53.631 62.2977 53.4151 62.2577 53.1351C62.7616 53.2791 63.2816 53.3671 63.8095 53.3671H73.9766C73.7126 56.1668 72.9127 58.5906 71.5688 60.7584L71.5608 60.7424ZM75.2324 50.5433C75.2324 51.2153 74.6805 51.7672 74.0085 51.7672H63.7935C62.6976 51.7672 61.6337 51.2953 60.8658 50.4873C59.4419 48.9675 59.066 48.2316 56.2742 48.2316C54.1944 48.2316 53.3225 47.1437 52.3066 45.8798C52.1786 45.7198 52.0586 45.5678 51.9307 45.4078C50.7068 43.936 48.9869 43.088 47.2031 43.088H40.0358C42.0836 36.4247 48.203 31.8491 55.2663 31.8491H59.282C68.0731 31.8491 75.2244 39.0004 75.2244 47.7916V50.5433H75.2324Z" fill="white"/>
</svg>
