<svg width="80" height="88" viewBox="0 0 80 88" fill="none" xmlns="http://www.w3.org/2000/svg">
<path d="M39.6395 19.1983C39.6395 19.1983 39.6217 19.1983 39.6128 19.1983C34.5734 19.1983 29.6406 21.2514 26.0766 24.8066C22.4681 28.4151 20.4683 33.2234 20.4594 38.3428C20.4594 43.7111 23.5257 49.2572 26.2365 54.1544L26.3788 54.4033C28.2363 57.7362 29.8539 60.6604 30.325 63.2823H28.7785C28.3074 63.2823 27.9253 63.6645 27.9253 64.1355V77.654C27.9253 78.1251 28.3074 78.5073 28.7785 78.5073H31.2227C32.6447 81.7336 35.8621 84 39.604 84C43.3458 84 46.5721 81.7336 47.9941 78.5073H50.6072C51.0782 78.5073 51.4604 78.1251 51.4604 77.654V64.1355C51.4604 63.6645 51.0782 63.2823 50.6072 63.2823H48.9007C49.3895 60.6159 51.016 57.6829 52.8825 54.3322C55.6377 49.3816 58.7574 43.7733 58.7574 38.334C58.7574 33.2323 56.7576 28.4328 53.1491 24.8155C49.5406 21.207 44.75 19.2161 39.6573 19.1983H39.6395Z" fill="#204743" stroke="#204743" stroke-width="8" stroke-linecap="round" stroke-linejoin="round"/>
<path d="M17.8108 45.3732C17.5708 44.6533 17.0731 44.0667 16.3888 43.7289C15.7133 43.3823 14.94 43.329 14.2201 43.5689L9.11845 45.2488C7.63417 45.7376 6.81648 47.3463 7.30532 48.8395C7.54529 49.5594 8.04301 50.146 8.72738 50.4837C9.12733 50.6882 9.56284 50.7859 10.0072 50.7859C10.3094 50.7859 10.6027 50.7415 10.896 50.6437L15.9977 48.9639C16.7176 48.7239 17.3042 48.2262 17.6508 47.5418C17.9975 46.8575 18.0508 46.0931 17.8108 45.3732Z" fill="#204743" stroke="#204743" stroke-width="8" stroke-linecap="round" stroke-linejoin="round"/>
<path d="M8.97629 31.3748L14.0957 33.0101C14.3801 33.099 14.6734 33.1435 14.9667 33.1435C15.4111 33.1435 15.8555 33.0368 16.2644 32.8235C16.9398 32.4769 17.4376 31.8903 17.6687 31.1614C17.8997 30.4415 17.8375 29.6683 17.4909 28.9928C17.1443 28.3173 16.5577 27.8196 15.8289 27.5885L10.7094 25.9531C9.21626 25.4732 7.61644 26.2998 7.13649 27.7929C6.65654 29.2861 7.48312 30.8859 8.97629 31.3659V31.3748Z" fill="#204743" stroke="#204743" stroke-width="8" stroke-linecap="round" stroke-linejoin="round"/>
<path d="M24.2279 20.1404C24.8145 20.1404 25.4011 19.9627 25.9077 19.5894C26.521 19.145 26.9209 18.4784 27.0365 17.7318C27.152 16.9852 26.9654 16.2298 26.521 15.6165L23.348 11.2792C22.4237 10.0171 20.6372 9.7416 19.3751 10.6659C18.7618 11.1103 18.3619 11.7769 18.2463 12.5235C18.1308 13.2701 18.3174 14.0256 18.7618 14.6388L21.9348 18.9761C22.4948 19.7316 23.3569 20.1404 24.2279 20.1404Z" fill="#204743" stroke="#204743" stroke-width="8" stroke-linecap="round" stroke-linejoin="round"/>
<path d="M37.3465 14.2389C37.8798 14.7721 38.5908 15.0654 39.3463 15.0654H39.3551C40.1106 15.0654 40.8305 14.7632 41.3638 14.2211C41.8971 13.6789 42.1904 12.9679 42.1904 12.2035L42.1637 6.83524C42.1637 6.07977 41.8615 5.35985 41.3194 4.82657C40.7861 4.2933 40.0751 4 39.3196 4H39.3107C38.5552 4 37.8353 4.30219 37.302 4.84435C36.7688 5.38651 36.4755 6.09754 36.4755 6.8619L36.4932 12.2391C36.4932 12.9946 36.7954 13.7145 37.3376 14.2478L37.3465 14.2389Z" fill="#204743" stroke="#204743" stroke-width="8" stroke-linecap="round" stroke-linejoin="round"/>
<path d="M59.3795 10.346C58.7663 9.90158 58.0108 9.72382 57.2642 9.84825C56.5176 9.97268 55.8599 10.3726 55.4155 10.9948L52.2781 15.3588C51.8337 15.972 51.656 16.7275 51.7804 17.4741C51.9048 18.2207 52.3048 18.8784 52.9269 19.3228C53.4158 19.6783 53.9935 19.856 54.5801 19.856C54.7312 19.856 54.8911 19.8471 55.0422 19.8205C55.7888 19.696 56.4465 19.2961 56.8909 18.6739L60.0284 14.31C60.9438 13.039 60.6505 11.2614 59.3795 10.346Z" fill="#204743" stroke="#204743" stroke-width="8" stroke-linecap="round" stroke-linejoin="round"/>
<path d="M62.8014 32.3702C63.2014 32.5746 63.6369 32.6724 64.0813 32.6724C64.3835 32.6724 64.6768 32.6279 64.9701 32.5302L70.0717 30.8504C71.556 30.3615 72.3737 28.7528 71.8848 27.2596C71.6449 26.5397 71.1472 25.9531 70.4628 25.6065C69.7873 25.2599 69.0141 25.2065 68.2941 25.4465L63.1925 27.1263C61.7082 27.6152 60.8905 29.2239 61.3794 30.717C61.6193 31.437 62.117 32.0236 62.8014 32.3702Z" fill="#204743" stroke="#204743" stroke-width="8" stroke-linecap="round" stroke-linejoin="round"/>
<path d="M71.876 46.1287C71.5293 45.4532 70.9427 44.9555 70.2139 44.7244L65.0945 43.089C63.6013 42.6091 62.0015 43.4356 61.5216 44.9288C61.0416 46.422 61.8682 48.0218 63.3614 48.5017L68.4808 50.1371C68.7652 50.226 69.0585 50.2704 69.3518 50.2704C69.7962 50.2704 70.2406 50.1638 70.6494 49.9505C71.3249 49.6038 71.8226 49.0172 72.0537 48.2884C72.2848 47.5685 72.2226 46.7953 71.876 46.1198V46.1287Z" fill="#204743" stroke="#204743" stroke-width="8" stroke-linecap="round" stroke-linejoin="round"/>
<path d="M39.6129 20.0604C34.7601 20.0604 30.1117 21.9891 26.681 25.4198C23.2502 28.8506 21.3216 33.4989 21.3127 38.3517C21.3127 43.56 24.3701 49.035 27.0809 53.9322C29.214 57.7629 31.0627 61.0514 31.2938 64.1622V74.8454C31.2938 79.4316 35.0178 83.1556 39.604 83.1556C44.1901 83.1556 47.9142 79.4405 47.9142 74.8454V64.1622C48.1541 61.0781 49.9939 57.7629 52.127 53.9322C54.8378 49.0616 57.8953 43.56 57.8953 38.3517C57.8953 33.5078 55.9577 28.8594 52.5359 25.4287C49.114 22.0069 44.4657 20.0693 39.6218 20.0604H39.6129Z" fill="#204743" stroke="white" stroke-width="2" stroke-linecap="round" stroke-linejoin="round"/>
<path d="M50.5983 64.1356H28.7697V77.6541H50.5983V64.1356Z" fill="#204743" stroke="white" stroke-width="2" stroke-linecap="round" stroke-linejoin="round"/>
<path d="M17.011 45.6398C17.3576 46.6886 16.7888 47.8084 15.74 48.1551L10.6384 49.8349C9.5896 50.1815 8.46972 49.6127 8.12309 48.5639C7.77647 47.5151 8.34529 46.3953 9.39406 46.0486L14.4957 44.3688C15.5445 44.0222 16.6644 44.591 17.011 45.6398Z" fill="#204743" stroke="white" stroke-width="2" stroke-linecap="round" stroke-linejoin="round"/>
<path d="M16.8599 30.9125C16.5222 31.9613 15.4023 32.539 14.3535 32.2013L9.23407 30.5659C8.1853 30.2282 7.60758 29.1083 7.94532 28.0595C8.28307 27.0107 9.40294 26.433 10.4517 26.7708L15.5711 28.4061C16.6199 28.7439 17.1976 29.8638 16.8599 30.9125Z" fill="#204743" stroke="white" stroke-width="2" stroke-linecap="round" stroke-linejoin="round"/>
<path d="M25.4012 18.9051C24.5124 19.5539 23.2681 19.3672 22.6193 18.4784L19.4463 14.1412C18.7975 13.2524 18.9841 12.0081 19.8729 11.3592C20.7617 10.7104 22.006 10.8971 22.6548 11.7859L25.8278 16.1232C26.4766 17.0119 26.29 18.2562 25.4012 18.9051Z" fill="#204743" stroke="white" stroke-width="2" stroke-linecap="round" stroke-linejoin="round"/>
<path d="M39.3641 14.2122C38.262 14.2122 37.3643 13.3323 37.3643 12.2302L37.3465 6.85305C37.3465 5.75095 38.2264 4.85327 39.3285 4.85327C40.4306 4.85327 41.3283 5.73317 41.3283 6.83527L41.3461 12.2125C41.3461 13.3146 40.4662 14.2122 39.3641 14.2122Z" fill="#204743" stroke="white" stroke-width="2" stroke-linecap="round" stroke-linejoin="round"/>
<path d="M53.4158 18.6295C52.527 17.9896 52.3226 16.7453 52.9625 15.8476L56.0999 11.4837C56.7399 10.5949 57.9842 10.3904 58.8818 11.0304C59.7795 11.6703 59.9751 12.9146 59.3351 13.8123L56.1977 18.1762C55.5578 19.065 54.3135 19.2695 53.4158 18.6295Z" fill="#204743" stroke="white" stroke-width="2" stroke-linecap="round" stroke-linejoin="round"/>
<path d="M62.1882 30.4593C61.8415 29.4105 62.4104 28.2906 63.4591 27.944L68.5608 26.2642C69.6096 25.9176 70.7294 26.4864 71.0761 27.5352C71.4227 28.5839 70.8539 29.7038 69.8051 30.0505L64.7034 31.7303C63.6547 32.0769 62.5348 31.5081 62.1882 30.4593Z" fill="#204743" stroke="white" stroke-width="2" stroke-linecap="round" stroke-linejoin="round"/>
<path d="M62.3392 45.1865C62.677 44.1378 63.7969 43.56 64.8456 43.8978L69.9651 45.5332C71.0138 45.8709 71.5916 46.9908 71.2538 48.0395C70.9161 49.0883 69.7962 49.666 68.7474 49.3283L63.628 47.6929C62.5792 47.3552 62.0015 46.2353 62.3392 45.1865Z" fill="#204743" stroke="white" stroke-width="2" stroke-linecap="round" stroke-linejoin="round"/>
<path d="M32.8492 77.3252L50.4117 71.9569" stroke="white" stroke-width="2" stroke-linecap="round" stroke-linejoin="round"/>
<path d="M29.2763 72.4457L50.4117 65.131" stroke="white" stroke-width="2" stroke-linecap="round" stroke-linejoin="round"/>
</svg>
