<svg width="88" height="80" viewBox="0 0 88 80" fill="none" xmlns="http://www.w3.org/2000/svg">
<path d="M66.9619 61.6788C65.3621 61.6788 64.02 62.7898 63.6467 64.2741H29.5616C25.5532 64.2741 22.2913 61.0122 22.2913 57.0038C22.2913 52.9953 25.5532 49.7335 29.5616 49.7335H37.9962C42.9201 49.7335 46.9375 45.725 46.9375 40.7922C46.9375 35.8594 42.929 31.851 37.9962 31.851H33.8012V29.5668C33.8012 28.998 33.339 28.5358 32.7702 28.5358H27.8285V14.7685C27.8285 14.1996 27.3663 13.7375 26.7975 13.7375H9.70606C9.13723 13.7375 8.67506 14.1996 8.67506 14.7685V28.5358H5.03991C4.47108 28.5358 4.00891 28.998 4.00891 29.5668V43.3697C4.00891 43.9385 4.47108 44.4007 5.03991 44.4007H32.779C33.3479 44.4007 33.81 43.9385 33.81 43.3697V33.5219H38.0051C42.0136 33.5219 45.2754 36.7838 45.2754 40.7922C45.2754 44.8007 42.0136 48.0625 38.0051 48.0625H29.5705C24.6466 48.0625 20.6293 52.071 20.6293 57.0038C20.6293 61.9365 24.6377 65.945 29.5705 65.945H63.6556C64.0289 67.4293 65.371 68.5403 66.9708 68.5403C68.8639 68.5403 70.4015 67.0026 70.4015 65.1095C70.4015 63.2164 68.8639 61.6788 66.9708 61.6788H66.9619Z" fill="#204743" stroke="#204743" stroke-width="8" stroke-miterlimit="10"/>
<path d="M65.6642 58.7636C65.9753 59.1458 66.4286 59.368 66.9263 59.3768H66.9619C67.4507 59.3768 67.9129 59.1635 68.2417 58.7814C72.3302 53.893 84 37.7437 84 28.0292C84 18.3147 76.4808 11 66.9708 11C57.4607 11 49.9238 18.6436 49.9238 28.047C49.9238 31.4688 51.3814 36.0194 54.2522 41.5744C57.594 48.0092 62.3935 54.8529 65.6554 58.7547L65.6642 58.7636Z" fill="#204743" stroke="#204743" stroke-width="8" stroke-miterlimit="10"/>
<path d="M60.1093 35.0951V21.4789H67.7618V37.3704" stroke="#204743" stroke-width="1.16" stroke-linecap="round" stroke-linejoin="round"/>
<path d="M61.4958 22.9631V24.1452V22.9631Z" fill="white"/>
<path d="M61.4958 22.9631V24.1452" stroke="#204743" stroke-width="1.16" stroke-linecap="round" stroke-linejoin="round"/>
<path d="M63.0334 22.9631V24.1452V22.9631Z" fill="white"/>
<path d="M63.0334 22.9631V24.1452" stroke="#204743" stroke-width="1.16" stroke-linecap="round" stroke-linejoin="round"/>
<path d="M64.571 22.9631V24.1452V22.9631Z" fill="white"/>
<path d="M64.571 22.9631V24.1452" stroke="#204743" stroke-width="1.16" stroke-linecap="round" stroke-linejoin="round"/>
<path d="M66.1176 22.9631V24.1452V22.9631Z" fill="white"/>
<path d="M66.1176 22.9631V24.1452" stroke="#204743" stroke-width="1.16" stroke-linecap="round" stroke-linejoin="round"/>
<path d="M61.4958 25.5139V26.696V25.5139Z" fill="white"/>
<path d="M61.4958 25.5139V26.696" stroke="#204743" stroke-width="1.16" stroke-linecap="round" stroke-linejoin="round"/>
<path d="M63.0334 25.5139V26.696V25.5139Z" fill="white"/>
<path d="M63.0334 25.5139V26.696" stroke="#204743" stroke-width="1.16" stroke-linecap="round" stroke-linejoin="round"/>
<path d="M64.571 25.5139V26.696V25.5139Z" fill="white"/>
<path d="M64.571 25.5139V26.696" stroke="#204743" stroke-width="1.16" stroke-linecap="round" stroke-linejoin="round"/>
<path d="M66.1176 25.5139V26.696V25.5139Z" fill="white"/>
<path d="M66.1176 25.5139V26.696" stroke="#204743" stroke-width="1.16" stroke-linecap="round" stroke-linejoin="round"/>
<path d="M61.4958 28.0648V29.2469V28.0648Z" fill="white"/>
<path d="M61.4958 28.0648V29.2469" stroke="#204743" stroke-width="1.16" stroke-linecap="round" stroke-linejoin="round"/>
<path d="M63.0334 28.0648V29.2469V28.0648Z" fill="white"/>
<path d="M63.0334 28.0648V29.2469" stroke="#204743" stroke-width="1.16" stroke-linecap="round" stroke-linejoin="round"/>
<path d="M64.571 28.0648V29.2469V28.0648Z" fill="white"/>
<path d="M64.571 28.0648V29.2469" stroke="#204743" stroke-width="1.16" stroke-linecap="round" stroke-linejoin="round"/>
<path d="M66.1176 28.0648V29.2469V28.0648Z" fill="white"/>
<path d="M66.1176 28.0648V29.2469" stroke="#204743" stroke-width="1.16" stroke-linecap="round" stroke-linejoin="round"/>
<path d="M61.4958 30.6156V31.7977V30.6156Z" fill="white"/>
<path d="M61.4958 30.6156V31.7977" stroke="#204743" stroke-width="1.16" stroke-linecap="round" stroke-linejoin="round"/>
<path d="M63.0334 30.6156V31.7977V30.6156Z" fill="white"/>
<path d="M63.0334 30.6156V31.7977" stroke="#204743" stroke-width="1.16" stroke-linecap="round" stroke-linejoin="round"/>
<path d="M64.571 30.6156V31.7977V30.6156Z" fill="white"/>
<path d="M64.571 30.6156V31.7977" stroke="#204743" stroke-width="1.16" stroke-linecap="round" stroke-linejoin="round"/>
<path d="M66.1176 30.6156V31.7977V30.6156Z" fill="white"/>
<path d="M66.1176 30.6156V31.7977" stroke="#204743" stroke-width="1.16" stroke-linecap="round" stroke-linejoin="round"/>
<path d="M61.4958 33.1753V34.8729V33.1753Z" fill="white"/>
<path d="M61.4958 33.1753V34.8729" stroke="#204743" stroke-width="1.16" stroke-linecap="round" stroke-linejoin="round"/>
<path d="M63.0334 33.1753V34.8729V33.1753Z" fill="white"/>
<path d="M63.0334 33.1753V34.8729" stroke="#204743" stroke-width="1.16" stroke-linecap="round" stroke-linejoin="round"/>
<path d="M64.571 33.1753V34.8729V33.1753Z" fill="white"/>
<path d="M64.571 33.1753V34.8729" stroke="#204743" stroke-width="1.16" stroke-linecap="round" stroke-linejoin="round"/>
<path d="M66.1176 33.1753V34.8729V33.1753Z" fill="white"/>
<path d="M66.1176 33.1753V34.8729" stroke="#204743" stroke-width="1.16" stroke-linecap="round" stroke-linejoin="round"/>
<path d="M69.2461 30.6156V31.7977V30.6156Z" fill="white"/>
<path d="M69.2461 30.6156V31.7977" stroke="#204743" stroke-width="1.16" stroke-linecap="round" stroke-linejoin="round"/>
<path d="M70.7926 30.6156V31.7977V30.6156Z" fill="white"/>
<path d="M70.7926 30.6156V31.7977" stroke="#204743" stroke-width="1.16" stroke-linecap="round" stroke-linejoin="round"/>
<path d="M72.3302 30.6156V31.7977V30.6156Z" fill="white"/>
<path d="M72.3302 30.6156V31.7977" stroke="#204743" stroke-width="1.16" stroke-linecap="round" stroke-linejoin="round"/>
<path d="M73.8766 30.6156V31.7977V30.6156Z" fill="white"/>
<path d="M73.8766 30.6156V31.7977" stroke="#204743" stroke-width="1.16" stroke-linecap="round" stroke-linejoin="round"/>
<path d="M69.2461 33.1753V34.8729V33.1753Z" fill="white"/>
<path d="M69.2461 33.1753V34.8729" stroke="#204743" stroke-width="1.16" stroke-linecap="round" stroke-linejoin="round"/>
<path d="M70.7926 33.1753V34.8729V33.1753Z" fill="white"/>
<path d="M70.7926 33.1753V34.8729" stroke="#204743" stroke-width="1.16" stroke-linecap="round" stroke-linejoin="round"/>
<path d="M72.3302 33.1753V34.8729V33.1753Z" fill="white"/>
<path d="M72.3302 33.1753V34.8729" stroke="#204743" stroke-width="1.16" stroke-linecap="round" stroke-linejoin="round"/>
<path d="M73.8766 33.1753V34.8729V33.1753Z" fill="white"/>
<path d="M73.8766 33.1753V34.8729" stroke="#204743" stroke-width="1.16" stroke-linecap="round" stroke-linejoin="round"/>
<path d="M67.7618 36.9971V29.2913H75.3609V33.2553" stroke="#204743" stroke-width="1.16" stroke-linecap="round" stroke-linejoin="round"/>
<path d="M23.1801 29.0602H9.59051C9.30581 29.0602 9.07501 29.291 9.07501 29.5757V43.3786C9.07501 43.6633 9.30581 43.8941 9.59051 43.8941H23.1801C23.4648 43.8941 23.6956 43.6633 23.6956 43.3786V29.5757C23.6956 29.291 23.4648 29.0602 23.1801 29.0602Z" fill="#204743"/>
<path d="M23.1801 29.5757V43.3786H9.59051V29.5757H23.1801ZM23.1801 28.5447H9.59051C9.02168 28.5447 8.55951 29.0069 8.55951 29.5757V43.3786C8.55951 43.9474 9.02168 44.4096 9.59051 44.4096H23.1801C23.7489 44.4096 24.2111 43.9474 24.2111 43.3786V29.5757C24.2111 29.0069 23.7489 28.5447 23.1801 28.5447Z" fill="white"/>
<path d="M18.5051 42.3032H22.3802V42.0099H18.5051V42.3032Z" fill="white"/>
<path d="M18.5051 41.841H22.3802V41.5477H18.5051V41.841Z" fill="white"/>
<path d="M11.9014 42.3032V41.6633C12.3546 41.6188 12.7013 41.2544 12.7013 40.8189H11.9014L11.9991 41.0056L11.9014 41.1922L11.9814 41.3788L11.7592 41.5655L11.8214 41.3788L11.7236 41.1922L11.7858 41.0056L11.6614 40.8189H10.897C10.897 41.2544 11.2525 41.6188 11.6969 41.6633V42.3032L10.897 42.5254H12.7102L11.9103 42.3032H11.9014Z" fill="white"/>
<path d="M13.3945 40.8455V42.4276C13.3945 42.4276 13.4212 42.4898 13.4656 42.4898H15.341C15.341 42.4898 15.4121 42.4631 15.4121 42.4276V40.8455C15.4121 40.8455 15.3854 40.7833 15.341 40.7833H13.4656C13.4656 40.7833 13.3945 40.81 13.3945 40.8455ZM14.2567 41.4321H14.1411V41.8143C14.1411 41.8499 14.1056 41.8765 14.07 41.8765C14.0345 41.8765 13.9989 41.8499 13.9989 41.8143V41.4321H13.8834C13.8478 41.4321 13.83 41.3966 13.8478 41.3699L14.0345 41.13C14.0345 41.13 14.0789 41.1122 14.0967 41.13L14.2833 41.3699C14.2833 41.3699 14.2833 41.4321 14.2478 41.4321H14.2567ZM14.9055 41.4321H14.7899V41.8143C14.7899 41.8499 14.7633 41.8765 14.7188 41.8765C14.6744 41.8765 14.6477 41.8499 14.6477 41.8143V41.4321H14.5322C14.4966 41.4321 14.4789 41.3966 14.4966 41.3699L14.6833 41.13C14.6833 41.13 14.7277 41.1122 14.7455 41.13L14.9321 41.3699C14.9321 41.3699 14.9321 41.4321 14.8966 41.4321H14.9055ZM13.8034 42.1609C13.8034 42.1609 13.7323 42.1343 13.7323 42.0987C13.7323 42.0632 13.7678 42.0365 13.8034 42.0365H14.9944C14.9944 42.0365 15.0655 42.0632 15.0655 42.0987C15.0655 42.1343 15.0299 42.1609 14.9944 42.1609H13.8034Z" fill="white"/>
<path d="M9.59052 29.0602H5.03991C4.75521 29.0602 4.52441 29.291 4.52441 29.5757V43.3786C4.52441 43.6633 4.75521 43.8941 5.03991 43.8941H9.59052C9.87522 43.8941 10.106 43.6633 10.106 43.3786V29.5757C10.106 29.291 9.87522 29.0602 9.59052 29.0602Z" fill="white"/>
<path d="M9.5816 29.5757V43.3786H5.031V29.5757H9.5816ZM9.5816 28.5447H5.031C4.46217 28.5447 4 29.0069 4 29.5757V43.3786C4 43.9474 4.46217 44.4096 5.031 44.4096H9.5816C10.1504 44.4096 10.6126 43.9474 10.6126 43.3786V29.5757C10.6126 29.0069 10.1504 28.5447 9.5816 28.5447Z" fill="white"/>
<path d="M5.03986 29.5757L9.58157 43.3875" stroke="#204743" stroke-width="1.16" stroke-linejoin="round"/>
<path d="M5.03986 43.3875L9.58157 29.5757" stroke="#204743" stroke-width="1.16" stroke-linejoin="round"/>
<path d="M15.1632 35.0507H18.3362V29.5757H15.1632V35.0507Z" fill="white" stroke="#204743" stroke-width="1.16" stroke-miterlimit="10"/>
<path d="M32.779 29.0602H19.1894C18.9047 29.0602 18.674 29.291 18.674 29.5757V43.3786C18.674 43.6633 18.9047 43.8941 19.1894 43.8941H32.779C33.0638 43.8941 33.2945 43.6633 33.2945 43.3786V29.5757C33.2945 29.291 33.0638 29.0602 32.779 29.0602Z" fill="#204743"/>
<path d="M32.779 29.5757V43.3786H19.1894V29.5757H32.779ZM32.779 28.5447H19.1894C18.6206 28.5447 18.1584 29.0069 18.1584 29.5757V43.3786C18.1584 43.9474 18.6206 44.4096 19.1894 44.4096H32.779C33.3479 44.4096 33.81 43.9474 33.81 43.3786V29.5757C33.81 29.0069 33.3479 28.5447 32.779 28.5447Z" fill="white"/>
<path d="M28.104 42.3032H31.9791V42.0099H28.104V42.3032Z" fill="white"/>
<path d="M28.104 41.841H31.9791V41.5477H28.104V41.841Z" fill="white"/>
<path d="M21.5003 42.3032V41.6633C21.9536 41.6188 22.3002 41.2544 22.3002 40.8189H21.5003L21.5981 41.0056L21.5003 41.1922L21.5803 41.3788L21.3581 41.5655L21.4203 41.3788L21.3225 41.1922L21.3848 41.0056L21.2603 40.8189H20.496C20.496 41.2544 20.8515 41.6188 21.2959 41.6633V42.3032L20.496 42.5254H22.3091L21.5092 42.3032H21.5003Z" fill="white"/>
<path d="M23.0023 40.8455V42.4276C23.0023 42.4276 23.029 42.4898 23.0734 42.4898H24.9488C24.9488 42.4898 25.0199 42.4631 25.0199 42.4276V40.8455C25.0199 40.8455 24.9932 40.7833 24.9488 40.7833H23.0734C23.0734 40.7833 23.0023 40.81 23.0023 40.8455ZM23.8644 41.4321H23.7489V41.8143C23.7489 41.8499 23.7133 41.8765 23.6778 41.8765C23.6422 41.8765 23.6067 41.8499 23.6067 41.8143V41.4321H23.4912C23.4556 41.4321 23.4378 41.3966 23.4556 41.3699L23.6422 41.13C23.6422 41.13 23.6867 41.1122 23.7045 41.13L23.8911 41.3699C23.8911 41.3699 23.8911 41.4321 23.8556 41.4321H23.8644ZM24.5133 41.4321H24.3977V41.8143C24.3977 41.8499 24.3711 41.8765 24.3266 41.8765C24.2822 41.8765 24.2555 41.8499 24.2555 41.8143V41.4321H24.14C24.1044 41.4321 24.0866 41.3966 24.1044 41.3699L24.2911 41.13C24.2911 41.13 24.3355 41.1122 24.3533 41.13L24.5399 41.3699C24.5399 41.3699 24.5399 41.4321 24.5044 41.4321H24.5133ZM23.4112 42.1609C23.4112 42.1609 23.3401 42.1343 23.3401 42.0987C23.3401 42.0632 23.3756 42.0365 23.4112 42.0365H24.6021C24.6021 42.0365 24.6732 42.0632 24.6732 42.0987C24.6732 42.1343 24.6377 42.1609 24.6021 42.1609H23.4112Z" fill="white"/>
<path d="M19.1983 29.0602H14.6477C14.363 29.0602 14.1322 29.291 14.1322 29.5757V43.3786C14.1322 43.6633 14.363 43.8941 14.6477 43.8941H19.1983C19.483 43.8941 19.7138 43.6633 19.7138 43.3786V29.5757C19.7138 29.291 19.483 29.0602 19.1983 29.0602Z" fill="white"/>
<path d="M19.1894 29.5757V43.3786H14.6388V29.5757H19.1894ZM19.1894 28.5447H14.6388C14.07 28.5447 13.6078 29.0069 13.6078 29.5757V43.3786C13.6078 43.9474 14.07 44.4096 14.6388 44.4096H19.1894C19.7582 44.4096 20.2204 43.9474 20.2204 43.3786V29.5757C20.2204 29.0069 19.7582 28.5447 19.1894 28.5447Z" fill="white"/>
<path d="M14.6388 29.5757L19.1894 43.3875" stroke="#204743" stroke-width="1.16" stroke-linejoin="round"/>
<path d="M14.6388 43.3875L19.1894 29.5757" stroke="#204743" stroke-width="1.16" stroke-linejoin="round"/>
<path d="M24.7621 35.0507H27.9351V29.5757H24.7621V35.0507Z" fill="white"/>
<path d="M26.8153 14.2708H13.999C13.7143 14.2708 13.4835 14.5015 13.4835 14.7863V28.5892C13.4835 28.8739 13.7143 29.1047 13.999 29.1047H26.8153C27.1 29.1047 27.3308 28.8739 27.3308 28.5892V14.7863C27.3308 14.5015 27.1 14.2708 26.8153 14.2708Z" fill="#204743"/>
<path d="M26.8152 14.7774V28.5803H13.9989V14.7774H26.8152ZM26.8152 13.7552H13.9989C13.4301 13.7552 12.9679 14.2174 12.9679 14.7862V28.5892C12.9679 29.158 13.4301 29.6202 13.9989 29.6202H26.8152C27.3841 29.6202 27.8462 29.158 27.8462 28.5892V14.7862C27.8462 14.2174 27.3841 13.7552 26.8152 13.7552Z" fill="white"/>
<path d="M22.3979 27.5137H26.0598V27.2204H22.3979V27.5137Z" fill="white"/>
<path d="M22.3979 27.0515H26.0598V26.7582H22.3979V27.0515Z" fill="white"/>
<path d="M16.1764 27.5137V26.8738C16.603 26.8294 16.9319 26.465 16.9319 26.0294H16.1764L16.2742 26.2161L16.1764 26.4027L16.2564 26.5894L16.052 26.776L16.1053 26.5894L16.0075 26.4027L16.0609 26.2161L15.9453 26.0294H15.2254C15.2254 26.465 15.5543 26.8294 15.9809 26.8738V27.5137L15.2254 27.7359H16.9319L16.1764 27.5137Z" fill="white"/>
<path d="M17.5896 26.0561V27.6382C17.5896 27.6382 17.6163 27.7004 17.6518 27.7004H19.4205C19.4205 27.7004 19.4827 27.6737 19.4827 27.6382V26.0561C19.4827 26.0561 19.4561 25.9939 19.4205 25.9939H17.6518C17.6518 25.9939 17.5896 26.0206 17.5896 26.0561ZM18.3984 26.6338H18.2917V27.016C18.2917 27.0516 18.2651 27.0782 18.2295 27.0782C18.194 27.0782 18.1673 27.0516 18.1673 27.016V26.6338H18.0607C18.034 26.6338 18.0162 26.5983 18.034 26.5716L18.2118 26.3316C18.2118 26.3316 18.2562 26.3139 18.274 26.3316L18.4517 26.5716C18.4517 26.5716 18.4517 26.6338 18.4162 26.6338H18.3984ZM19.0117 26.6338H18.8961V27.016C18.8961 27.0516 18.8695 27.0782 18.8339 27.0782C18.7984 27.0782 18.7717 27.0516 18.7717 27.016V26.6338H18.665C18.6384 26.6338 18.6206 26.5983 18.6384 26.5716L18.8161 26.3316C18.8161 26.3316 18.8606 26.3139 18.8783 26.3316L19.0561 26.5716C19.0561 26.5716 19.0561 26.6338 19.0294 26.6338H19.0117ZM17.9718 27.3626C17.9718 27.3626 17.9096 27.336 17.9096 27.3004C17.9096 27.2649 17.9362 27.2382 17.9718 27.2382H19.0917C19.0917 27.2382 19.1539 27.2649 19.1539 27.3004C19.1539 27.336 19.1272 27.3626 19.0917 27.3626H17.9718Z" fill="white"/>
<path d="M13.9989 14.2708H9.70605C9.42135 14.2708 9.19055 14.5015 9.19055 14.7863V28.5892C9.19055 28.8739 9.42135 29.1047 9.70605 29.1047H13.9989C14.2836 29.1047 14.5144 28.8739 14.5144 28.5892V14.7863C14.5144 14.5015 14.2836 14.2708 13.9989 14.2708Z" fill="white"/>
<path d="M13.99 14.7774V28.5803H9.69713V14.7774H13.99ZM13.99 13.7552H9.69713C9.12831 13.7552 8.66614 14.2174 8.66614 14.7862V28.5892C8.66614 29.158 9.12831 29.6202 9.69713 29.6202H13.99C14.5588 29.6202 15.021 29.158 15.021 28.5892V14.7862C15.021 14.2174 14.5588 13.7552 13.99 13.7552Z" fill="white"/>
<path d="M9.70599 14.7773L13.99 28.5891" stroke="#204743" stroke-width="1.16" stroke-linejoin="round"/>
<path d="M9.70599 28.5891L13.99 14.7773" stroke="#204743" stroke-width="1.16" stroke-linejoin="round"/>
<path d="M19.2517 20.2523H22.2469V14.7774H19.2517V20.2523Z" fill="white"/>
<path d="M33.7922 32.6954H38.0051C42.4757 32.6954 46.1109 36.3216 46.1109 40.8011C46.1109 45.2718 42.4846 48.9069 38.0051 48.9069H29.5705C25.0999 48.9069 21.4647 52.5332 21.4647 57.0127C21.4647 61.4833 25.091 65.1184 29.5705 65.1184H67.664" stroke="white" stroke-width="1.88" stroke-linecap="round" stroke-linejoin="round"/>
<path d="M66.9618 67.7048C68.3952 67.7048 69.5571 66.5429 69.5571 65.1096C69.5571 63.6762 68.3952 62.5143 66.9618 62.5143C65.5285 62.5143 64.3666 63.6762 64.3666 65.1096C64.3666 66.5429 65.5285 67.7048 66.9618 67.7048Z" fill="#204743" stroke="white" stroke-width="1.88" stroke-linecap="round" stroke-linejoin="round"/>
<path d="M66.9708 11.8444C75.9209 11.8444 83.1645 19.1058 83.1645 28.0381C83.1645 36.9705 72.3835 52.5243 67.5929 58.2481C67.2463 58.6481 66.633 58.6303 66.3042 58.2392C63.309 54.6574 58.4651 47.9026 54.9899 41.1922C52.5368 36.455 50.7504 31.7088 50.7504 28.0559C50.7504 19.088 58.0118 11.8444 66.9619 11.8444H66.9708Z" fill="#204743" stroke="white" stroke-width="1.88" stroke-linecap="round" stroke-linejoin="round"/>
<path d="M66.9619 37.6459C72.7836 37.6459 77.5029 32.9266 77.5029 27.1049C77.5029 21.2832 72.7836 16.5638 66.9619 16.5638C61.1402 16.5638 56.4208 21.2832 56.4208 27.1049C56.4208 32.9266 61.1402 37.6459 66.9619 37.6459Z" fill="#204743" stroke="white" stroke-width="1.88" stroke-linecap="round" stroke-linejoin="round"/>
<path d="M61.4958 22.4477C61.2114 22.4477 60.9803 22.6787 60.9803 22.9632V24.1453C60.9803 24.4297 61.2114 24.6607 61.4958 24.6607C61.7803 24.6607 62.0113 24.4297 62.0113 24.1453V22.9632C62.0113 22.6787 61.7803 22.4477 61.4958 22.4477Z" fill="white"/>
<path d="M63.0334 22.4477C62.749 22.4477 62.5179 22.6787 62.5179 22.9632V24.1453C62.5179 24.4297 62.749 24.6607 63.0334 24.6607C63.3178 24.6607 63.5489 24.4297 63.5489 24.1453V22.9632C63.5489 22.6787 63.3178 22.4477 63.0334 22.4477Z" fill="white"/>
<path d="M64.571 22.4477C64.2866 22.4477 64.0555 22.6787 64.0555 22.9632V24.1453C64.0555 24.4297 64.2866 24.6607 64.571 24.6607C64.8555 24.6607 65.0865 24.4297 65.0865 24.1453V22.9632C65.0865 22.6787 64.8555 22.4477 64.571 22.4477Z" fill="white"/>
<path d="M66.1175 22.4477C65.8331 22.4477 65.6021 22.6787 65.6021 22.9632V24.1453C65.6021 24.4297 65.8331 24.6607 66.1175 24.6607C66.402 24.6607 66.633 24.4297 66.633 24.1453V22.9632C66.633 22.6787 66.402 22.4477 66.1175 22.4477Z" fill="white"/>
<path d="M61.4958 24.9985C61.2114 24.9985 60.9803 25.2296 60.9803 25.514V26.6961C60.9803 26.9805 61.2114 27.2116 61.4958 27.2116C61.7803 27.2116 62.0113 26.9805 62.0113 26.6961V25.514C62.0113 25.2296 61.7803 24.9985 61.4958 24.9985Z" fill="white"/>
<path d="M63.0334 24.9985C62.749 24.9985 62.5179 25.2296 62.5179 25.514V26.6961C62.5179 26.9805 62.749 27.2116 63.0334 27.2116C63.3178 27.2116 63.5489 26.9805 63.5489 26.6961V25.514C63.5489 25.2296 63.3178 24.9985 63.0334 24.9985Z" fill="white"/>
<path d="M64.571 24.9985C64.2866 24.9985 64.0555 25.2296 64.0555 25.514V26.6961C64.0555 26.9805 64.2866 27.2116 64.571 27.2116C64.8555 27.2116 65.0865 26.9805 65.0865 26.6961V25.514C65.0865 25.2296 64.8555 24.9985 64.571 24.9985Z" fill="white"/>
<path d="M66.1175 24.9985C65.8331 24.9985 65.6021 25.2296 65.6021 25.514V26.6961C65.6021 26.9805 65.8331 27.2116 66.1175 27.2116C66.402 27.2116 66.633 26.9805 66.633 26.6961V25.514C66.633 25.2296 66.402 24.9985 66.1175 24.9985Z" fill="white"/>
<path d="M61.4958 27.5582C61.2114 27.5582 60.9803 27.7893 60.9803 28.0737V29.2558C60.9803 29.5402 61.2114 29.7713 61.4958 29.7713C61.7803 29.7713 62.0113 29.5402 62.0113 29.2558V28.0737C62.0113 27.7893 61.7803 27.5582 61.4958 27.5582Z" fill="white"/>
<path d="M63.0334 27.5582C62.749 27.5582 62.5179 27.7893 62.5179 28.0737V29.2558C62.5179 29.5402 62.749 29.7713 63.0334 29.7713C63.3178 29.7713 63.5489 29.5402 63.5489 29.2558V28.0737C63.5489 27.7893 63.3178 27.5582 63.0334 27.5582Z" fill="white"/>
<path d="M64.571 27.5582C64.2866 27.5582 64.0555 27.7893 64.0555 28.0737V29.2558C64.0555 29.5402 64.2866 29.7713 64.571 29.7713C64.8555 29.7713 65.0865 29.5402 65.0865 29.2558V28.0737C65.0865 27.7893 64.8555 27.5582 64.571 27.5582Z" fill="white"/>
<path d="M66.1175 27.5582C65.8331 27.5582 65.6021 27.7893 65.6021 28.0737V29.2558C65.6021 29.5402 65.8331 29.7713 66.1175 29.7713C66.402 29.7713 66.633 29.5402 66.633 29.2558V28.0737C66.633 27.7893 66.402 27.5582 66.1175 27.5582Z" fill="white"/>
<path d="M61.4958 30.109C61.2114 30.109 60.9803 30.3401 60.9803 30.6245V31.8066C60.9803 32.091 61.2114 32.3221 61.4958 32.3221C61.7803 32.3221 62.0113 32.091 62.0113 31.8066V30.6245C62.0113 30.3401 61.7803 30.109 61.4958 30.109Z" fill="white"/>
<path d="M63.0334 30.109C62.749 30.109 62.5179 30.3401 62.5179 30.6245V31.8066C62.5179 32.091 62.749 32.3221 63.0334 32.3221C63.3178 32.3221 63.5489 32.091 63.5489 31.8066V30.6245C63.5489 30.3401 63.3178 30.109 63.0334 30.109Z" fill="white"/>
<path d="M64.571 30.109C64.2866 30.109 64.0555 30.3401 64.0555 30.6245V31.8066C64.0555 32.091 64.2866 32.3221 64.571 32.3221C64.8555 32.3221 65.0865 32.091 65.0865 31.8066V30.6245C65.0865 30.3401 64.8555 30.109 64.571 30.109Z" fill="white"/>
<path d="M66.1175 30.109C65.8331 30.109 65.6021 30.3401 65.6021 30.6245V31.8066C65.6021 32.091 65.8331 32.3221 66.1175 32.3221C66.402 32.3221 66.633 32.091 66.633 31.8066V30.6245C66.633 30.3401 66.402 30.109 66.1175 30.109Z" fill="white"/>
<path d="M61.4958 32.6599C61.2114 32.6599 60.9803 32.8909 60.9803 33.1753V34.8729C60.9803 35.1574 61.2114 35.3884 61.4958 35.3884C61.7803 35.3884 62.0113 35.1574 62.0113 34.8729V33.1753C62.0113 32.8909 61.7803 32.6599 61.4958 32.6599Z" fill="white"/>
<path d="M63.0334 32.6599C62.749 32.6599 62.5179 32.8909 62.5179 33.1753V34.8729C62.5179 35.1574 62.749 35.3884 63.0334 35.3884C63.3178 35.3884 63.5489 35.1574 63.5489 34.8729V33.1753C63.5489 32.8909 63.3178 32.6599 63.0334 32.6599Z" fill="white"/>
<path d="M64.571 32.6599C64.2866 32.6599 64.0555 32.8909 64.0555 33.1753V34.8729C64.0555 35.1574 64.2866 35.3884 64.571 35.3884C64.8555 35.3884 65.0865 35.1574 65.0865 34.8729V33.1753C65.0865 32.8909 64.8555 32.6599 64.571 32.6599Z" fill="white"/>
<path d="M66.1175 32.6599C65.8331 32.6599 65.6021 32.8909 65.6021 33.1753V34.8729C65.6021 35.1574 65.8331 35.3884 66.1175 35.3884C66.402 35.3884 66.633 35.1574 66.633 34.8729V33.1753C66.633 32.8909 66.402 32.6599 66.1175 32.6599Z" fill="white"/>
<path d="M69.246 30.109C68.9616 30.109 68.7305 30.3401 68.7305 30.6245V31.8066C68.7305 32.091 68.9616 32.3221 69.246 32.3221C69.5304 32.3221 69.7615 32.091 69.7615 31.8066V30.6245C69.7615 30.3401 69.5304 30.109 69.246 30.109Z" fill="white"/>
<path d="M70.7926 30.109C70.5082 30.109 70.2771 30.3401 70.2771 30.6245V31.8066C70.2771 32.091 70.5082 32.3221 70.7926 32.3221C71.077 32.3221 71.3081 32.091 71.3081 31.8066V30.6245C71.3081 30.3401 71.077 30.109 70.7926 30.109Z" fill="white"/>
<path d="M72.3302 30.109C72.0458 30.109 71.8147 30.3401 71.8147 30.6245V31.8066C71.8147 32.091 72.0458 32.3221 72.3302 32.3221C72.6146 32.3221 72.8457 32.091 72.8457 31.8066V30.6245C72.8457 30.3401 72.6146 30.109 72.3302 30.109Z" fill="white"/>
<path d="M73.8766 30.109C73.5922 30.109 73.3611 30.3401 73.3611 30.6245V31.8066C73.3611 32.091 73.5922 32.3221 73.8766 32.3221C74.1611 32.3221 74.3921 32.091 74.3921 31.8066V30.6245C74.3921 30.3401 74.1611 30.109 73.8766 30.109Z" fill="white"/>
<path d="M69.246 32.6599C68.9616 32.6599 68.7305 32.8909 68.7305 33.1753V34.8729C68.7305 35.1574 68.9616 35.3884 69.246 35.3884C69.5304 35.3884 69.7615 35.1574 69.7615 34.8729V33.1753C69.7615 32.8909 69.5304 32.6599 69.246 32.6599Z" fill="white"/>
<path d="M70.7926 32.6599C70.5082 32.6599 70.2771 32.8909 70.2771 33.1753V34.8729C70.2771 35.1574 70.5082 35.3884 70.7926 35.3884C71.077 35.3884 71.3081 35.1574 71.3081 34.8729V33.1753C71.3081 32.8909 71.077 32.6599 70.7926 32.6599Z" fill="white"/>
<path d="M72.3302 32.6599C72.0458 32.6599 71.8147 32.8909 71.8147 33.1753V34.8729C71.8147 35.1574 72.0458 35.3884 72.3302 35.3884C72.6146 35.3884 72.8457 35.1574 72.8457 34.8729V33.1753C72.8457 32.8909 72.6146 32.6599 72.3302 32.6599Z" fill="white"/>
<path d="M73.8766 32.6599C73.5922 32.6599 73.3611 32.8909 73.3611 33.1753V34.8729C73.3611 35.1574 73.5922 35.3884 73.8766 35.3884C74.1611 35.3884 74.3921 35.1574 74.3921 34.8729V33.1753C74.3921 32.8909 74.1611 32.6599 73.8766 32.6599Z" fill="white"/>
<path d="M75.3609 28.7758H68.2773V21.4788C68.2773 21.1944 68.0462 20.9633 67.7618 20.9633H60.1093C59.8249 20.9633 59.5938 21.1944 59.5938 21.4788V35.0951C59.5938 35.3795 59.8249 35.6106 60.1093 35.6106C60.3937 35.6106 60.6248 35.3795 60.6248 35.0951V21.9943H67.2463V29.2913V36.9971V37.3704C67.2463 37.6548 67.4774 37.8859 67.7618 37.8859C68.0462 37.8859 68.2773 37.6548 68.2773 37.3704V29.8068H74.8454V33.2553C74.8454 33.5397 75.0765 33.7708 75.3609 33.7708C75.6454 33.7708 75.8764 33.5397 75.8764 33.2553V29.2913C75.8764 29.0069 75.6454 28.7758 75.3609 28.7758Z" fill="white"/>
</svg>
