<svg width="80" height="80" viewBox="0 0 80 80" fill="none" xmlns="http://www.w3.org/2000/svg">
<path d="M65.0145 58.7407C65.0145 58.7407 65.0785 58.6767 65.1105 58.6367C65.2625 58.4606 80 40.5149 80 29.2897C80 19.7528 72.2472 12 62.7103 12C62.6943 12 62.6703 12 62.6543 12C53.1413 12.032 45.4125 19.7848 45.4125 29.2977C45.4125 32.7061 46.8127 37.1465 49.581 42.491C52.7093 48.5237 57.2057 54.9243 60.278 58.6047C60.318 58.6527 60.358 58.6927 60.398 58.7407C59.3979 59.2367 58.5659 60.0528 58.0458 61.0529H28.2588C25.4505 61.0529 23.1623 58.7647 23.1623 55.9564C23.1623 53.1481 25.4505 50.8599 28.2588 50.8599H36.0276C41.4521 50.8599 45.8606 46.4514 45.8606 41.0269C45.8606 35.6024 41.4521 31.1939 36.0276 31.1939H35.5316V19.7288C35.5316 18.1606 34.2594 16.8885 32.6913 16.8885H2.84028C1.27213 16.8885 0 18.1606 0 19.7288V43.8192C0 45.3873 1.27213 46.6595 2.84028 46.6595H25.0425C21.1941 47.9956 18.4258 51.652 18.4258 55.9484C18.4258 61.3729 22.8343 65.7814 28.2588 65.7814H58.0458C58.9179 67.4855 60.7021 68.6457 62.7023 68.6457C65.5906 68.6457 67.9348 66.3014 67.9348 63.4131C67.9348 61.3569 66.7427 59.5808 65.0065 58.7247L65.0145 58.7407Z" fill="#204743"/>
<path d="M33.0193 33.5782H36.0356C40.156 33.5782 43.5003 36.9225 43.5003 41.0429C43.5003 45.1633 40.156 48.5077 36.0356 48.5077H28.2668C24.1464 48.5077 20.8021 51.852 20.8021 55.9724C20.8021 60.0928 24.1464 63.4372 28.2668 63.4372H63.3583" stroke="white" stroke-width="2" stroke-linejoin="round"/>
<path d="M62.7103 65.8214C64.0315 65.8214 65.1025 64.7504 65.1025 63.4292C65.1025 62.108 64.0315 61.0369 62.7103 61.0369C61.3891 61.0369 60.3181 62.108 60.3181 63.4292C60.3181 64.7504 61.3891 65.8214 62.7103 65.8214Z" fill="#204743" stroke="white" stroke-width="2" stroke-linejoin="round"/>
<path d="M62.7183 14.3682C70.9671 14.3682 77.6398 21.0569 77.6398 29.2897C77.6398 37.5225 67.7108 51.844 63.3024 57.1165C62.9823 57.4845 62.4143 57.4685 62.1183 57.1085C59.358 53.8042 54.9015 47.5795 51.6932 41.4029C49.437 37.0345 47.7888 32.6741 47.7888 29.2977C47.7888 21.0409 54.4775 14.3682 62.7183 14.3682Z" fill="#204743" stroke="white" stroke-width="2" stroke-linecap="round" stroke-linejoin="round"/>
<path d="M62.7103 38.1386C68.0746 38.1386 72.4233 33.79 72.4233 28.4257C72.4233 23.0614 68.0746 18.7127 62.7103 18.7127C57.346 18.7127 52.9973 23.0614 52.9973 28.4257C52.9973 33.79 57.346 38.1386 62.7103 38.1386Z" fill="#204743" stroke="white" stroke-width="2" stroke-linecap="round" stroke-linejoin="round"/>
<path d="M62.9663 20.7049H62.7263C61.1886 20.7049 59.942 21.9515 59.942 23.4892V26.1534C59.942 27.6912 61.1886 28.9377 62.7263 28.9377H62.9663C64.504 28.9377 65.7506 27.6912 65.7506 26.1534V23.4892C65.7506 21.9515 64.504 20.7049 62.9663 20.7049Z" stroke="white" stroke-width="2" stroke-linecap="round" stroke-linejoin="round"/>
<path d="M68.4309 36.0184C67.5508 33.8582 65.5746 32.546 63.1024 32.546H62.5903C60.1421 32.546 58.0459 34.0342 57.1498 36.1544" stroke="white" stroke-width="2" stroke-linecap="round" stroke-linejoin="round"/>
<path d="M10.353 43.7712H32.7233V19.6808L10.353 19.6808L10.353 43.7712Z" stroke="white" stroke-width="2" stroke-linejoin="round"/>
<path d="M25.0265 41.8911H31.4111V41.387H25.0265V41.8911Z" fill="white"/>
<path d="M25.0265 41.0829H31.4111V40.5789H25.0265V41.0829Z" fill="white"/>
<path d="M14.1614 41.891V40.7789C14.9055 40.6989 15.4815 40.0668 15.4815 39.2988H14.1614L14.3294 39.6268L14.1614 39.9548L14.2974 40.2829L13.9374 40.6109L14.0334 40.2829L13.8654 39.9548L13.9614 39.6268L13.7614 39.2988H12.5052C12.5052 40.0588 13.0813 40.6909 13.8254 40.7789V41.891L12.5052 42.2751H15.4815L14.1614 41.891Z" fill="white"/>
<path d="M16.6177 39.3468V42.099C16.6177 42.163 16.6657 42.211 16.7297 42.211H19.81C19.874 42.211 19.922 42.163 19.922 42.099V39.3468C19.922 39.2827 19.874 39.2347 19.81 39.2347H16.7297C16.6657 39.2347 16.6177 39.2827 16.6177 39.3468ZM18.0418 40.3629H17.8498V41.0269C17.8498 41.0909 17.7938 41.1389 17.7378 41.1389C17.6738 41.1389 17.6258 41.0829 17.6258 41.0269V40.3629H17.4338C17.3778 40.3629 17.3537 40.3068 17.3778 40.2588L17.6818 39.8428C17.6818 39.8428 17.7618 39.8028 17.7858 39.8428L18.0898 40.2588C18.1218 40.3068 18.0898 40.3629 18.0338 40.3629H18.0418ZM19.1059 40.3629H18.9139V41.0269C18.9139 41.0909 18.8659 41.1389 18.8019 41.1389C18.7379 41.1389 18.6899 41.0829 18.6899 41.0269V40.3629H18.4979C18.4419 40.3629 18.4179 40.3068 18.4419 40.2588L18.7459 39.8428C18.7459 39.8428 18.8259 39.8028 18.8499 39.8428L19.1539 40.2588C19.1859 40.3068 19.1539 40.3629 19.0979 40.3629H19.1059ZM17.2977 41.635C17.2417 41.635 17.1857 41.587 17.1857 41.523C17.1857 41.459 17.2417 41.411 17.2977 41.411H19.2499C19.3139 41.411 19.362 41.459 19.362 41.523C19.362 41.587 19.3059 41.635 19.2499 41.635H17.2977Z" fill="white"/>
<path d="M10.3611 19.6808H2.87231V43.7712H10.3611V19.6808Z" fill="#204743" stroke="white" stroke-width="2" stroke-linejoin="round"/>
<path d="M2.87231 19.6808L10.3531 43.7712" stroke="white" stroke-width="2" stroke-linejoin="round"/>
<path d="M2.87231 43.7712L10.3531 19.6808" stroke="white" stroke-width="2" stroke-linejoin="round"/>
<path d="M19.522 29.2258H24.7465V19.6808H19.522V29.2258Z" fill="white" stroke="white" stroke-width="2" stroke-miterlimit="10"/>
</svg>
