<svg width="80" height="80" viewBox="0 0 80 80" fill="none" xmlns="http://www.w3.org/2000/svg">
<path d="M79.992 66.1215L79.928 65.9055C79.872 65.5935 79.792 65.2896 79.672 64.9936L71.1049 43.5797V8.88721C71.1049 6.43946 69.1131 4.43966 66.6573 4.43966H65.1375C64.6815 2.47185 62.9137 1 60.8099 1H54.9785C52.8747 1 51.1069 2.47185 50.6509 4.43966H29.3571C28.9011 2.47185 27.1333 1 25.0295 1H19.1981C17.0943 1 15.3265 2.47185 14.8705 4.43966H13.3507C10.9029 4.43966 8.90311 6.43146 8.90311 8.88721V43.5797L0.319968 65.0096C0.207979 65.2976 0.119988 65.5935 0.0719928 65.9055L0 66.1375V73.7687C0 76.2165 1.9918 78.2163 4.44756 78.2163H75.5524C78.0002 78.2163 80 76.2245 80 73.7687V66.1215H79.992Z" fill="#204743"/>
<path d="M64.8575 47.1074H15.1345L8.38318 63.9937H71.6088L64.8575 47.1074Z" fill="white"/>
<path d="M66.6653 8.88721H13.3347V44.4356H66.6653V8.88721Z" fill="white" stroke="white" stroke-width="2" stroke-linecap="round" stroke-linejoin="round"/>
<path d="M75.5444 66.6574H4.44754L13.3347 44.4357H66.6573L75.5444 66.6574Z" stroke="white" stroke-width="2" stroke-linecap="round" stroke-linejoin="round"/>
<path d="M75.5524 66.6575H4.44754V73.7688H75.5524V66.6575Z" stroke="white" stroke-width="2" stroke-linecap="round" stroke-linejoin="round"/>
<path d="M8.38318 63.9937L15.1345 47.1074H64.8575L71.6088 63.9937H8.38318Z" fill="white"/>
<path d="M46.2354 60.754H64.2816" stroke="#204743" stroke-width="2" stroke-linecap="round" stroke-linejoin="round"/>
<path d="M20.094 59.7542H38.1322" stroke="#204743" stroke-width="2" stroke-linecap="round" stroke-linejoin="round"/>
<path d="M18.7181 52.8188C19.9905 52.8188 21.0219 52.1957 21.0219 51.427C21.0219 50.6583 19.9905 50.0351 18.7181 50.0351C17.4458 50.0351 16.4144 50.6583 16.4144 51.427C16.4144 52.1957 17.4458 52.8188 18.7181 52.8188Z" stroke="#204743" stroke-width="2.22" stroke-linecap="round" stroke-linejoin="round"/>
<path d="M24.6375 52.7068C25.8083 52.7068 26.7573 52.1338 26.7573 51.427C26.7573 50.7201 25.8083 50.1471 24.6375 50.1471C23.4668 50.1471 22.5178 50.7201 22.5178 51.427C22.5178 52.1338 23.4668 52.7068 24.6375 52.7068Z" stroke="#204743" stroke-width="2.22" stroke-linecap="round" stroke-linejoin="round"/>
<path d="M30.557 52.5949C31.6217 52.5949 32.4848 52.072 32.4848 51.427C32.4848 50.782 31.6217 50.2591 30.557 50.2591C29.4923 50.2591 28.6292 50.782 28.6292 51.427C28.6292 52.072 29.4923 52.5949 30.557 52.5949Z" stroke="#204743" stroke-width="2.22" stroke-linecap="round" stroke-linejoin="round"/>
<path d="M36.4764 52.4828C37.4395 52.4828 38.2202 52.0101 38.2202 51.4269C38.2202 50.8438 37.4395 50.371 36.4764 50.371C35.5133 50.371 34.7325 50.8438 34.7325 51.4269C34.7325 52.0101 35.5133 52.4828 36.4764 52.4828Z" stroke="#204743" stroke-width="2.22" stroke-linecap="round" stroke-linejoin="round"/>
<path d="M42.3958 52.3708C43.2573 52.3708 43.9556 51.9482 43.9556 51.4269C43.9556 50.9056 43.2573 50.483 42.3958 50.483C41.5343 50.483 40.8359 50.9056 40.8359 51.4269C40.8359 51.9482 41.5343 52.3708 42.3958 52.3708Z" stroke="#204743" stroke-width="2.22" stroke-linecap="round" stroke-linejoin="round"/>
<path d="M48.3152 52.2589C49.0751 52.2589 49.6911 51.8864 49.6911 51.4269C49.6911 50.9675 49.0751 50.595 48.3152 50.595C47.5553 50.595 46.9393 50.9675 46.9393 51.4269C46.9393 51.8864 47.5553 52.2589 48.3152 52.2589Z" stroke="#204743" stroke-width="2.22" stroke-linecap="round" stroke-linejoin="round"/>
<path d="M54.2346 52.1469C54.8884 52.1469 55.4185 51.8246 55.4185 51.427C55.4185 51.0294 54.8884 50.707 54.2346 50.707C53.5807 50.707 53.0507 51.0294 53.0507 51.427C53.0507 51.8246 53.5807 52.1469 54.2346 52.1469Z" stroke="#204743" stroke-width="2.22" stroke-linecap="round" stroke-linejoin="round"/>
<path d="M60.154 52.0348C60.7062 52.0348 61.1539 51.7627 61.1539 51.4269C61.1539 51.0912 60.7062 50.819 60.154 50.819C59.6018 50.819 59.1541 51.0912 59.1541 51.4269C59.1541 51.7627 59.6018 52.0348 60.154 52.0348Z" stroke="#204743" stroke-width="2.22" stroke-linecap="round" stroke-linejoin="round"/>
<path d="M46.0594 57.3784C46.5498 57.3784 46.9473 56.9808 46.9473 56.4905C46.9473 56.0001 46.5498 55.6025 46.0594 55.6025C45.569 55.6025 45.1715 56.0001 45.1715 56.4905C45.1715 56.9808 45.569 57.3784 46.0594 57.3784Z" fill="#204743"/>
<path d="M49.4671 57.3784C49.9575 57.3784 50.355 56.9808 50.355 56.4905C50.355 56.0001 49.9575 55.6025 49.4671 55.6025C48.9767 55.6025 48.5792 56.0001 48.5792 56.4905C48.5792 56.9808 48.9767 57.3784 49.4671 57.3784Z" fill="#204743"/>
<path d="M52.8827 57.3784C53.3731 57.3784 53.7706 56.9808 53.7706 56.4905C53.7706 56.0001 53.3731 55.6025 52.8827 55.6025C52.3923 55.6025 51.9948 56.0001 51.9948 56.4905C51.9948 56.9808 52.3923 57.3784 52.8827 57.3784Z" fill="#204743"/>
<path d="M56.2904 57.3784C56.7808 57.3784 57.1783 56.9808 57.1783 56.4905C57.1783 56.0001 56.7808 55.6025 56.2904 55.6025C55.8 55.6025 55.4025 56.0001 55.4025 56.4905C55.4025 56.9808 55.8 57.3784 56.2904 57.3784Z" fill="#204743"/>
<path d="M59.698 57.3784C60.1884 57.3784 60.5859 56.9808 60.5859 56.4905C60.5859 56.0001 60.1884 55.6025 59.698 55.6025C59.2077 55.6025 58.8101 56.0001 58.8101 56.4905C58.8101 56.9808 59.2077 57.3784 59.698 57.3784Z" fill="#204743"/>
<path d="M65.1055 63.7137L62.9297 55.2906L65.7774 56.1625L67.7372 63.7137H65.1055Z" fill="#204743"/>
<path d="M14.1426 61.5299C14.8625 62.2179 15.9904 62.6418 17.2223 62.6418C19.3661 62.6418 21.1099 61.394 21.1099 59.8661C21.1099 58.3383 19.3661 57.0904 17.2223 57.0904C15.9904 57.0904 14.8625 57.5144 14.1426 58.2023H16.1184C16.2624 58.2023 16.4064 58.2583 16.5104 58.3623L17.6223 59.4742C17.8382 59.6901 17.8382 60.0421 17.6223 60.2581L16.5104 61.37C16.4064 61.474 16.2624 61.5299 16.1184 61.5299H14.1426Z" fill="#204743"/>
<path d="M19.1821 8.06331V5.44757H25.0215V8.06331" stroke="white" stroke-width="2" stroke-linecap="round" stroke-linejoin="round"/>
<path d="M54.9705 8.06331V5.44757H60.8099V8.06331" stroke="white" stroke-width="2" stroke-linecap="round" stroke-linejoin="round"/>
<path d="M58.6661 37.7643H31.6288C30.7809 37.7643 30.101 37.0764 30.101 36.2365V33.3168" stroke="#204743" stroke-width="2" stroke-linecap="round" stroke-linejoin="round"/>
<path d="M58.6661 32.9408H35.5805C34.8605 32.9408 34.2766 32.3568 34.2766 31.6369V29.1492" stroke="#204743" stroke-width="2" stroke-linecap="round" stroke-linejoin="round"/>
<path d="M58.6661 28.1093H39.5401C38.9401 28.1093 38.4602 27.6214 38.4602 27.0294V24.9656" stroke="#204743" stroke-width="2" stroke-linecap="round" stroke-linejoin="round"/>
<path d="M43.7476 40.516C43.5236 40.516 43.3077 40.42 43.1557 40.2521C43.0037 40.0841 42.9317 39.8601 42.9557 39.6281L44.5155 25.2615C44.5555 24.8536 44.8995 24.5496 45.3075 24.5496H50.9629C51.3709 24.5496 51.7148 24.8536 51.7548 25.2615L53.3147 39.6281C53.3387 39.8521 53.2667 40.0761 53.1147 40.2521C52.9627 40.42 52.7467 40.516 52.5227 40.516H43.7556H43.7476ZM50.059 37.5083L48.9791 27.5493H47.2833L46.2034 37.5083H50.059Z" fill="white"/>
<path d="M50.9549 25.3496L52.5148 39.7162H43.7476L45.3075 25.3496H50.9629M45.3155 38.3083H50.9549L49.699 26.7495H46.5714L45.3155 38.3083ZM50.9549 23.7498H45.2995C44.4836 23.7498 43.7956 24.3657 43.7076 25.1736L42.1478 39.5402C42.0998 39.9881 42.2438 40.4441 42.5478 40.7801C42.8517 41.116 43.2837 41.308 43.7396 41.308H52.5068C52.9627 41.308 53.3947 41.116 53.6986 40.7801C54.0026 40.4441 54.1466 39.9881 54.0986 39.5402L52.5388 25.1736C52.4508 24.3577 51.7628 23.7498 50.9469 23.7498H50.9549ZM48.0032 28.3573H48.2592L49.1631 36.7165H47.0913L47.9952 28.3573H48.0032Z" fill="#204743"/>
<path d="M19.99 39.9881H19.678L18.7501 37.1963L19.2701 35.1245C19.2701 35.1245 19.2701 35.0685 19.2701 35.0445C19.2701 35.0286 19.2781 35.0126 19.2781 34.9966V27.8613H20.39V34.9966C20.39 34.9966 20.398 35.0445 20.406 35.0685C20.406 35.0925 20.406 35.1165 20.406 35.1325L20.9259 37.1963L19.998 39.9881H19.99Z" fill="#204743" stroke="#204743" stroke-width="2" stroke-linecap="round" stroke-linejoin="round"/>
<path d="M19.83 13.3348C20.7499 13.3348 21.4938 14.0787 21.4938 14.9986V26.6534H18.1662V14.9986C18.1662 14.0787 18.9101 13.3348 19.83 13.3348Z" stroke="#204743" stroke-width="2" stroke-linecap="round" stroke-linejoin="round"/>
<path d="M30.485 17.5504C30.9753 17.5504 31.3729 17.1528 31.3729 16.6624C31.3729 16.1721 30.9753 15.7745 30.485 15.7745C29.9946 15.7745 29.597 16.1721 29.597 16.6624C29.597 17.1528 29.9946 17.5504 30.485 17.5504Z" fill="#204743"/>
<path d="M34.3886 17.8783C34.5086 17.4943 34.5886 17.0864 34.5886 16.6624C34.5886 14.3907 32.7487 12.5588 30.485 12.5588C28.2212 12.5588 26.3814 14.3987 26.3814 16.6624C26.3814 18.9262 28.2212 20.766 30.485 20.766H36.8523V17.8783H34.3886Z" stroke="#204743" stroke-width="2" stroke-linecap="round" stroke-linejoin="round"/>
<path d="M62.9617 18.0943H36.7803V20.766H62.9617V18.0943Z" fill="#204743"/>
<path d="M65.0575 42.8358V10.4871L14.9265 10.4871V42.8358H65.0575Z" stroke="#204743" stroke-width="2" stroke-linecap="round" stroke-linejoin="round"/>
</svg>
