<svg width="80" height="80" viewBox="0 0 80 80" fill="none" xmlns="http://www.w3.org/2000/svg">
<path d="M79.4155 7.95187C78.6875 6.75195 77.3676 6 75.9677 6H32.3145C30.8186 6 29.4587 6.81595 28.7547 8.14386L25.4749 14.3275L22.1951 8.14386C21.4912 6.82395 20.1313 6 18.6354 6H4.02831C2.6204 6 1.29248 6.75195 0.572528 7.95187C-0.147426 9.1598 -0.195423 10.6797 0.468534 11.9196L6.83613 23.9349V69.9399C6.83613 72.1638 8.64401 73.9716 10.8679 73.9716H69.1281C71.352 73.9716 73.1599 72.1638 73.1599 69.9399V23.9349L79.5355 11.9196C80.1914 10.6797 80.1514 9.1518 79.4235 7.95187H79.4155Z" fill="#204743"/>
<path d="M10.8679 22.9269L4.02832 10.0317H18.6354L25.4749 22.9269" stroke="white" stroke-width="2.02" stroke-linejoin="round"/>
<path d="M25.4669 69.9399H69.1201V22.9269L25.4669 22.9269L25.4669 69.9399Z" fill="#204743"/>
<path d="M54.089 66.2681H66.5522V65.2842H54.089V66.2681Z" fill="white"/>
<path d="M54.089 64.6923H66.5522V63.7083H54.089V64.6923Z" fill="white"/>
<path d="M43.3698 41.5577H53.5611V22.9269H43.3698V41.5577Z" fill="white"/>
<path d="M32.8984 66.2681V64.0922C34.3543 63.9402 35.4823 62.7083 35.4823 61.2124H32.8984L33.2264 61.8604L32.8984 62.5083L33.1544 63.1563L32.4504 63.8042L32.6424 63.1563L32.3145 62.5083L32.5064 61.8604L32.1225 61.2124H29.6666C29.6666 62.7003 30.7946 63.9322 32.2505 64.0922V66.2681L29.6666 67.02H35.4743L32.8984 66.2681Z" fill="white"/>
<path d="M37.6982 61.0925V66.9001H44.1458V61.0925H37.6982ZM40.474 63.3003H40.098V64.5882C40.098 64.7082 39.994 64.8042 39.882 64.8042C39.762 64.8042 39.6661 64.7002 39.6661 64.5882V63.3003H39.2901C39.1861 63.3003 39.1301 63.1883 39.1861 63.1003L39.778 62.2844C39.834 62.2124 39.938 62.2124 39.986 62.2844L40.578 63.1003C40.642 63.1883 40.578 63.3003 40.466 63.3003H40.474ZM42.5539 63.3003H42.1699V64.5882C42.1699 64.7082 42.0739 64.8042 41.9539 64.8042C41.8339 64.8042 41.7379 64.7002 41.7379 64.5882V63.3003H41.3619C41.258 63.3003 41.202 63.1883 41.258 63.1003L41.8499 62.2844C41.9059 62.2124 42.0099 62.2124 42.0579 62.2844L42.6499 63.1003C42.7139 63.1883 42.6499 63.3003 42.5459 63.3003H42.5539ZM39.0181 65.7642C38.9061 65.7642 38.8021 65.6682 38.8021 65.5482C38.8021 65.4282 38.9061 65.3322 39.0181 65.3322H42.8339C42.9538 65.3322 43.0498 65.4282 43.0498 65.5482C43.0498 65.6682 42.9458 65.7642 42.8339 65.7642H39.0181Z" fill="white"/>
<path d="M75.9597 10.0317H32.3145L25.4749 22.9269H69.1201L75.9597 10.0317Z" fill="#204743"/>
<path d="M10.8679 22.9269L4.02832 10.0317H18.6354L25.4749 22.9269" stroke="white" stroke-width="1.01" stroke-miterlimit="10"/>
<path d="M25.4669 69.9399H69.1201V22.9269L25.4669 22.9269L25.4669 69.9399Z" stroke="white" stroke-width="2.02" stroke-linejoin="round"/>
<path d="M75.9597 10.0317H32.3145L25.4749 22.9269H69.1201L75.9597 10.0317Z" stroke="white" stroke-width="2.02" stroke-linejoin="round"/>
<path d="M25.4749 22.9269H10.8679V69.9399H25.4749V22.9269Z" stroke="white" stroke-width="2.02" stroke-linejoin="round"/>
<path d="M10.8599 69.8679L24.811 23.4069" stroke="white" stroke-width="2.02" stroke-linejoin="round"/>
<path d="M24.811 69.8679L10.8599 23.4069" stroke="white" stroke-width="2.02" stroke-linejoin="round"/>
</svg>
