<svg width="80" height="80" viewBox="0 0 80 80" fill="none" xmlns="http://www.w3.org/2000/svg">
<path d="M75.1747 7H4.82526C2.16034 7 0 9.16034 0 11.8253V68.6C0 71.2649 2.16034 73.4253 4.82526 73.4253H75.1747C77.8397 73.4253 80 71.2649 80 68.6V11.8253C80 9.16034 77.8397 7 75.1747 7Z" fill="#204743"/>
<path d="M75.1747 9.9642H4.82526C3.79789 9.9642 2.9642 10.7979 2.9642 11.8253V68.5916C2.9642 69.6189 3.79789 70.4526 4.82526 70.4526H75.1747C76.2021 70.4526 77.0358 69.6189 77.0358 68.5916V11.8253C77.0358 10.7979 76.2021 9.9642 75.1747 9.9642ZM75.1747 68.5916H24.3368V11.8253H43.7137V34.6884H56.7663V11.8253H75.1832V68.5916H75.1747Z" fill="white"/>
<path d="M72.0758 62.9747H57.0273V64.1621H72.0758V62.9747Z" fill="white"/>
<path d="M72.0758 61.0716H57.0273V62.2589H72.0758V61.0716Z" fill="white"/>
<path d="M34.5516 58.0484H31.4358L31.8316 58.8316L31.4358 59.6147L31.7474 60.3979L30.8969 61.1811L31.1242 60.3979L30.7284 59.6147L30.9558 58.8316L30.4842 58.0484H27.52C27.52 59.8505 28.8842 61.3326 30.6358 61.5263V64.1537L27.52 65.0548H34.5348L31.4274 64.1537V61.5263C33.1874 61.3411 34.5432 59.8505 34.5432 58.0484H34.5516Z" fill="white"/>
<path d="M44.7579 57.9052H37.4989C37.3473 57.9052 37.2379 58.0231 37.2379 58.1663V64.6589C37.2379 64.8105 37.3557 64.92 37.4989 64.92H44.7579C44.9094 64.92 45.0189 64.8021 45.0189 64.6589V58.1663C45.0189 58.0147 44.901 57.9052 44.7579 57.9052ZM41.5326 60.3305L42.2484 59.3452C42.3157 59.2526 42.4336 59.2526 42.501 59.3452L43.2168 60.3305C43.2926 60.44 43.2168 60.5747 43.0905 60.5747H42.6273V62.1326C42.6273 62.2842 42.5094 62.3937 42.3663 62.3937C42.2231 62.3937 42.1052 62.2673 42.1052 62.1326V60.5747H41.6505C41.5242 60.5747 41.4568 60.4316 41.5242 60.3305H41.5326ZM39.0315 60.3305L39.7473 59.3452C39.8147 59.2526 39.9326 59.2526 40 59.3452L40.7157 60.3305C40.7915 60.44 40.7157 60.5747 40.581 60.5747H40.1263V62.1326C40.1263 62.2842 40 62.3937 39.8652 62.3937C39.7136 62.3937 39.6042 62.2673 39.6042 62.1326V60.5747H39.1494C39.0231 60.5747 38.9557 60.4316 39.0231 60.3305H39.0315ZM43.4273 63.5558H38.821C38.6779 63.5558 38.56 63.4379 38.56 63.2947C38.56 63.1431 38.6863 63.0337 38.821 63.0337H43.4273C43.5789 63.0337 43.6884 63.1516 43.6884 63.2947C43.6884 63.4379 43.5621 63.5558 43.4273 63.5558Z" fill="white"/>
<path d="M23.36 12.1032L21.5747 11.5558L13.6505 37.0716L5.71788 11.5558L3.94104 12.1032L12.6737 40.2126L3.94104 68.3137L5.71788 68.8695L13.6505 43.3537L21.5747 68.8695L23.36 68.3137L14.6274 40.2126L23.36 12.1032Z" fill="#204743"/>
</svg>
