<svg width="88" height="81" viewBox="0 0 88 81" fill="none" xmlns="http://www.w3.org/2000/svg">
<path d="M69.2064 26.8149C64.2604 19.7771 56.8592 15.1945 48.3677 13.8915C31.4822 11.3033 15.5008 22.8971 12.7442 39.7471C11.8135 45.4377 12.4605 51.2523 14.6233 56.5617L15.3501 56.2692L14.6233 56.6326L10.023 69.5471C9.82797 70.1056 9.92547 70.7083 10.2977 71.1692C10.67 71.6301 11.2462 71.8606 11.8312 71.7719L25.0382 69.9903C30.0019 73.6599 35.9141 75.7606 42.1276 76.0709C42.6417 76.0975 43.1469 76.1063 43.661 76.1063C58.4369 76.1063 71.4578 65.4875 74.3119 50.8534C75.9606 42.3797 74.1435 33.8439 69.2064 26.8238V26.8149Z" fill="#204743" stroke="#204743" stroke-width="8" stroke-linecap="round" stroke-linejoin="round"/>
<path d="M11.7071 34.4909C12.0439 33.2854 12.4605 32.0977 12.9391 30.9454C13.7812 28.951 12.8416 26.6465 10.8473 25.8044C9.88113 25.3967 8.80861 25.3878 7.84246 25.7867C6.86745 26.1855 6.11403 26.9301 5.70629 27.8963C5.09469 29.341 4.57173 30.8479 4.14627 32.3725C3.86263 33.3829 3.99558 34.4377 4.50968 35.3596C5.02378 36.2725 5.86584 36.9284 6.87631 37.2121C7.222 37.3096 7.57655 37.3539 7.93996 37.3539C9.69499 37.3539 11.2462 36.175 11.7159 34.482L11.7071 34.4909Z" fill="#204743" stroke="#204743" stroke-width="8" stroke-linecap="round" stroke-linejoin="round"/>
<path d="M11.778 24.5103C12.4605 25.0155 13.2671 25.2814 14.1091 25.2814C15.3501 25.2814 16.529 24.6875 17.2647 23.6859C22.2815 16.9051 29.9753 12.5796 38.3782 11.8262C39.4241 11.7287 40.3636 11.2412 41.0373 10.4346C41.7109 9.62798 42.03 8.60865 41.9325 7.57159C41.835 6.52566 41.3475 5.57724 40.5409 4.91246C39.7343 4.23881 38.715 3.91971 37.6691 4.01722C27.0325 4.96564 17.2912 10.4434 10.9448 19.0324C10.3243 19.8745 10.0673 20.9116 10.218 21.9486C10.3775 22.9857 10.9271 23.8987 11.7691 24.5191L11.778 24.5103Z" fill="#204743" stroke="#204743" stroke-width="8" stroke-linecap="round" stroke-linejoin="round"/>
<path d="M83.7607 22.702L75.4287 14.3967C75.1185 14.0864 74.6044 14.0864 74.2942 14.3967L70.1282 18.5626C64.7568 23.9518 59.1194 29.8108 53.677 35.4836C49.8213 39.4989 45.8415 43.6471 42.0123 47.556L25.5434 33.9856C25.375 33.8527 25.1623 33.7817 24.9495 33.8083C24.7368 33.8261 24.5418 33.9324 24.4089 34.1008L16.9278 43.2039C16.6442 43.5496 16.6974 44.0549 17.0342 44.3385L42.3846 65.2127C42.5353 65.3368 42.7125 65.3988 42.8987 65.3988C43.1026 65.3988 43.3153 65.319 43.466 65.1595L47.2331 61.3569C52.5602 56.0121 58.1887 50.1443 63.6222 44.4715C68.9582 38.905 74.4714 33.1524 79.5947 28.0114L83.7607 23.8455C83.9114 23.6948 84 23.4909 84 23.2782C84 23.0654 83.9114 22.8616 83.7607 22.7109V22.702Z" fill="#204743" stroke="#204743" stroke-width="8" stroke-linecap="round" stroke-linejoin="round"/>
<path d="M15.3501 56.2692C13.3114 51.2612 12.5757 45.6327 13.5153 39.8712C16.1921 23.5087 31.8544 12.1542 48.2435 14.6715C65.2265 17.2774 76.8912 33.4982 73.5407 50.7027C70.6689 65.4432 57.1693 76.0265 42.1718 75.282C35.8608 74.9717 30.1614 72.7913 25.5079 69.3521C25.3218 69.2192 25.0913 69.1571 24.8697 69.1837L11.7248 70.983C11.06 71.0717 10.537 70.4335 10.7586 69.7953L15.3589 56.8808C15.4298 56.6769 15.421 56.4553 15.3412 56.2515L15.3501 56.2692Z" fill="#204743" stroke="white" stroke-width="2" stroke-linecap="round" stroke-linejoin="round"/>
<path d="M7.92226 36.5738C7.63862 36.5738 7.35497 36.5384 7.07133 36.4586C5.40494 35.9888 4.42107 34.2604 4.89085 32.5851C5.30744 31.096 5.82154 29.6158 6.41541 28.2064C7.08906 26.6109 8.93273 25.8575 10.5282 26.5312C12.1237 27.2048 12.8771 29.0485 12.2035 30.644C11.7071 31.814 11.2816 33.0372 10.9359 34.2781C10.5459 35.6697 9.28728 36.5738 7.91339 36.5738H7.92226Z" fill="#204743" stroke="white" stroke-width="2" stroke-linecap="round" stroke-linejoin="round"/>
<path d="M14.1091 24.4925C13.4621 24.4925 12.8061 24.2887 12.2477 23.8809C10.8561 22.8527 10.5547 20.885 11.5918 19.4845C17.8053 11.0728 27.3427 5.71907 37.7577 4.78837C39.495 4.62882 41.0107 5.90521 41.1702 7.63364C41.3209 9.36208 40.0534 10.8866 38.3249 11.0373C29.7005 11.8085 21.8029 16.2492 16.653 23.2073C16.0414 24.0405 15.0841 24.4837 14.1268 24.4837L14.1091 24.4925Z" fill="#204743" stroke="white" stroke-width="2" stroke-linecap="round" stroke-linejoin="round"/>
<path d="M74.8526 14.9639L70.6866 19.1299C61.3265 28.5078 51.4168 39.1088 42.0566 48.6463L29.5499 38.3466L25.0116 34.6061L17.5306 43.7091L22.0688 47.4497L38.7416 61.1796L42.881 64.5833L46.6481 60.7808C57.2314 50.1797 68.6746 37.797 79.0097 27.4353L83.1757 23.2693L74.8437 14.9639H74.8526Z" fill="#204743" stroke="white" stroke-width="1.82" stroke-linecap="round" stroke-linejoin="round"/>
</svg>
