<svg width="80" height="88" viewBox="0 0 80 88" fill="none" xmlns="http://www.w3.org/2000/svg">
<path d="M18.93 18.9697C19.0925 17.5433 18.0723 16.2432 16.6368 16.0807L11.906 15.53C10.4796 15.3765 9.17951 16.3967 9.017 17.8232C8.8545 19.2496 9.87469 20.5497 11.3102 20.7122L16.041 21.2629C16.1403 21.2719 16.2486 21.281 16.3479 21.281C16.9348 21.281 17.4945 21.0823 17.964 20.7212C18.5057 20.2879 18.8578 19.6739 18.93 18.9788V18.9697Z" fill="#204743" stroke="#204743" stroke-width="8" stroke-linecap="round" stroke-linejoin="round"/>
<path d="M19.896 12.009C20.3204 12.9931 21.2864 13.5799 22.2885 13.5799C22.6316 13.5799 22.9837 13.5077 23.3177 13.3632C24.6359 12.7944 25.2407 11.2596 24.672 9.94152L22.7851 5.57186C22.2163 4.25374 20.6725 3.63983 19.3543 4.21763C18.0362 4.78641 17.4313 6.32121 18.0001 7.63933L19.887 12.009H19.896Z" fill="#204743" stroke="#204743" stroke-width="8" stroke-linecap="round" stroke-linejoin="round"/>
<path d="M30.3688 14.3653C30.8202 14.6994 31.3619 14.8799 31.9126 14.8799C32.039 14.8799 32.1654 14.8709 32.3008 14.8528C32.987 14.7535 33.6009 14.3834 34.0162 13.8327L36.851 10.0137C37.7087 8.85811 37.4649 7.224 36.3093 6.36632C35.7496 5.95102 35.0634 5.77949 34.3773 5.8788C33.6912 5.97811 33.0772 6.34827 32.6619 6.89899L29.8271 10.7179C29.4118 11.2777 29.2402 11.9638 29.3396 12.65C29.4389 13.3361 29.809 13.95 30.3597 14.3563L30.3688 14.3653Z" fill="#204743" stroke="#204743" stroke-width="8" stroke-linecap="round" stroke-linejoin="round"/>
<path d="M64.4774 57.7821L62.2835 58.5495C62.112 57.3577 61.9314 56.0216 61.7147 54.4958C59.8639 41.1882 55.1332 33.0809 54.6727 32.3225C53.499 29.6953 53.4629 29.6863 53.0657 29.5508C52.9303 29.5057 52.7858 29.4967 52.6414 29.5147C52.2802 29.5418 49.96 29.5779 48.38 29.596C48.037 29.596 47.721 29.8126 47.6036 30.1377L47.2515 31.0856L47.1251 30.8689C46.9265 30.5349 46.5112 30.3814 46.141 30.5078L41.9068 31.9072C41.6089 32.0065 41.3922 32.2593 41.338 32.5753L41.1484 33.7399L40.1192 33.126C39.8845 32.9816 39.5956 32.9635 39.3428 33.0809L35.6503 34.733C32.7703 27.366 30.0979 19.9267 28.9513 16.171C28.8249 15.7557 28.4006 15.5029 27.9763 15.5932C23.1733 16.5953 21.7919 17.2363 21.6475 17.3086C21.2864 17.4891 21.0968 17.8954 21.2051 18.2926C23.733 27.3118 26.4956 35.0851 28.7166 41.3327C28.9513 42.0007 29.1861 42.6508 29.4118 43.2827C27.9672 41.9014 26.4054 41.1792 24.7532 41.1431C22.6857 41.0889 20.5912 42.1091 18.5057 44.1675C18.1807 44.4835 18.1716 45.0071 18.4786 45.3412L38.6115 66.7832L36.6975 67.4513L42.4575 84L70.2283 74.3308L64.4683 57.7821H64.4774Z" fill="#204743" stroke="#204743" stroke-width="8" stroke-linecap="round" stroke-linejoin="round"/>
<path d="M53.9234 32.7107C53.4088 31.5641 52.831 30.3182 52.7859 30.3453C52.6956 30.3904 48.3891 30.4446 48.3891 30.4446L47.4231 33.0176L46.3939 31.3294L42.1687 32.7287L41.7805 35.1212L39.6949 33.8663L35.7045 35.6539L38.3407 43.5897C34.2148 33.8392 29.7368 21.5699 28.1569 16.4328C23.3177 17.444 22.0267 18.0759 22.0267 18.0759C25.2678 29.6591 28.8159 38.9131 31.3709 46.2981L29.3035 44.3751C26.0352 40.8451 22.4691 41.4951 19.1196 44.7814L46.0508 73.4641L62.8613 68.0652C62.8613 68.0652 62.7981 68.2999 60.8932 54.6222C58.9882 40.9444 53.9324 32.7197 53.9324 32.7197L53.9234 32.7107Z" fill="#204743" stroke="white" stroke-width="2" stroke-linecap="round" stroke-linejoin="round"/>
<path d="M41.7624 34.9678L44.3445 41.6216" stroke="white" stroke-width="2" stroke-linecap="round" stroke-linejoin="round"/>
<path d="M47.396 32.6475L49.1475 39.5631" stroke="white" stroke-width="2" stroke-linecap="round" stroke-linejoin="round"/>
<path d="M18.0994 18.8704C17.9911 19.8364 17.1153 20.5316 16.1403 20.4232L11.4095 19.8725C10.4435 19.7642 9.74831 18.8885 9.85664 17.9134C9.96498 16.9384 10.8407 16.2522 11.8158 16.3605L16.5466 16.9113C17.5126 17.0196 18.2077 17.8953 18.0994 18.8704Z" fill="#204743" stroke="white" stroke-width="2" stroke-linecap="round" stroke-linejoin="round"/>
<path d="M22.9836 12.5958C22.0898 12.984 21.0516 12.5687 20.6634 11.675L18.7765 7.3053C18.3883 6.4115 18.8036 5.37326 19.6974 4.98504C20.5912 4.59683 21.6294 5.01213 22.0176 5.90592L23.9045 10.2756C24.2927 11.1694 23.8774 12.2076 22.9836 12.5958Z" fill="#204743" stroke="white" stroke-width="2" stroke-linecap="round" stroke-linejoin="round"/>
<path d="M30.8653 13.6882C30.0798 13.1104 29.9173 12 30.5042 11.2235L33.339 7.40459C33.9168 6.61914 35.0273 6.45663 35.8037 7.04346C36.5801 7.6303 36.7517 8.73174 36.1649 9.50817L33.33 13.3271C32.7522 14.1126 31.6417 14.2751 30.8653 13.6882Z" fill="#204743" stroke="white" stroke-width="2" stroke-linecap="round" stroke-linejoin="round"/>
<path d="M64.4802 57.7789L36.7109 67.4492L42.4739 83.9983L70.2432 74.328L64.4802 57.7789Z" fill="white"/>
</svg>
