<svg width="80" height="80" viewBox="0 0 80 80" fill="none" xmlns="http://www.w3.org/2000/svg">
<g clip-path="url(#clip0_1294_20553)">
<path d="M79.992 20.024C80.064 18.08 79.344 16.184 78.032 14.776C77.624 12.2 76.704 10.344 75.288 9.25601C73.872 8.16801 71.84 7.76001 69.248 8.03201C67.52 7.11201 65.456 6.91201 63.568 7.52801C61.992 8.04001 60.656 9.06401 59.752 10.408C58.152 10.736 56.704 11.6 55.64 12.888C55.176 13.448 54.808 14.064 54.536 14.712C53.248 13.904 51.768 13.416 50.2 13.336C49.704 13.304 49.2 13.32 48.712 13.376C49.192 12.728 49.504 11.968 49.608 11.144C49.784 9.85601 49.44 8.58401 48.656 7.56001C48.336 7.13601 47.952 6.77601 47.52 6.48801C47.2 3.79201 45.04 1.48801 42.312 1.08001C40.664 0.83201 39.032 1.24801 37.696 2.24801C36.776 2.94401 36.08 3.85601 35.672 4.90401C35.184 5.07201 34.72 5.32001 34.304 5.64001C33.44 6.30401 32.832 7.20801 32.56 8.24801C32.512 8.23201 32.464 8.22401 32.408 8.21601C31.112 5.83201 28.248 4.49601 25.56 5.12801C23.944 5.51201 22.576 6.50401 21.712 7.92801C21.112 8.91201 20.808 10.024 20.816 11.144C20.424 11.48 20.088 11.88 19.816 12.336C19.152 13.448 18.96 14.752 19.272 16.008C19.592 17.264 20.376 18.32 21.488 18.984C22.008 19.296 22.568 19.504 23.152 19.6C23.128 19.648 23.104 19.696 23.08 19.744C22.136 21.592 21.968 23.728 22.576 25.696C22.296 26.128 22.12 26.632 22.096 27.16L21.6 36.184C18.832 35.568 16.288 34.728 14.016 33.672C13.544 33.448 13.04 33.344 12.52 33.344C11.424 33.344 10.408 33.832 9.736 34.688C8.776 35.904 7.776 37.136 6.784 38.368C5.752 39.64 4.696 40.952 3.664 42.264C3 43.104 2.36 43.984 1.728 44.84C1.392 45.296 1.056 45.76 0.712001 46.216C-0.231999 47.48 -0.223999 49.24 0.728001 50.488C4.912 55.992 11.456 59.856 20.2 61.976L19.616 72.656C19.576 73.44 19.84 74.192 20.36 74.776C20.888 75.36 21.608 75.704 22.392 75.752L69.8 78.344H69.984C70.336 78.344 70.68 78.288 70.976 78.176C71.344 78.048 71.68 77.848 71.976 77.584C72.68 76.952 73.032 76.032 72.944 75.104L75.368 30.736C75.824 30.384 76.24 29.984 76.592 29.544L77.176 28.96V28.704C77.92 27.456 78.272 26.032 78.184 24.592C79.288 23.344 79.936 21.752 79.992 20.048V20.024Z" fill="#204743"/>
<path d="M74.36 27.6C75.264 26.416 75.496 24.856 74.984 23.464C76.224 22.704 77.008 21.376 77.056 19.92C77.112 18.464 76.432 17.08 75.248 16.232C75.112 14.736 74.704 12.528 73.496 11.592C72.288 10.664 70.04 10.84 68.56 11.096L68.456 11.016C67.32 10.144 65.832 9.88798 64.464 10.328C63.104 10.768 62.04 11.856 61.64 13.224C60.216 13.088 58.816 13.664 57.904 14.768C56.992 15.872 56.688 17.36 57.088 18.728C56.632 19.184 56.32 19.744 56.152 20.528C55.84 22 56.296 23.576 57.48 24.512C57.696 24.688 57.936 24.832 58.184 24.952C58.16 25.04 58.136 25.128 58.12 25.216C57.792 26.808 58.472 28.44 59.76 29.432L59.808 29.472C61.096 30.464 62.856 30.696 64.304 29.968C64.384 29.928 64.464 29.888 64.544 29.84C64.728 30.056 64.928 30.24 65.152 30.408C66.36 31.312 68 31.344 69.344 30.656C70.056 30.288 70.512 29.84 70.832 29.288C72.208 29.32 73.512 28.696 74.352 27.608L74.36 27.6Z" fill="white"/>
<path d="M68.44 18.176L56.104 34.24" stroke="#204743" stroke-width="2" stroke-linecap="round" stroke-linejoin="round"/>
<path d="M65.936 21.552L70.544 20.952" stroke="#204743" stroke-width="2" stroke-linecap="round" stroke-linejoin="round"/>
<path d="M63.568 24.464L62.96 19.824" stroke="#204743" stroke-width="2" stroke-linecap="round" stroke-linejoin="round"/>
<path d="M61.12 27.704L65.456 27.136" stroke="#204743" stroke-width="2" stroke-linecap="round" stroke-linejoin="round"/>
<path d="M30.912 11.088C30.568 11.176 30.224 10.944 30.168 10.592C30.136 10.376 30.072 10.16 29.992 9.95197C29.424 8.47197 27.792 7.60798 26.24 7.97598C24.488 8.39198 23.416 10.16 23.856 11.904C23.88 11.992 23.904 12.072 23.928 12.16C24.048 12.504 23.856 12.872 23.504 12.96C22.48 13.216 21.864 14.256 22.12 15.28C22.376 16.304 23.416 16.92 24.44 16.664L26.84 16.056C27.168 15.976 27.496 16.168 27.576 16.496L28.2 18.968L29.616 18.608L28.992 16.136C28.912 15.808 29.104 15.48 29.432 15.4L31.832 14.792C32.856 14.536 33.472 13.496 33.216 12.472C32.96 11.448 31.92 10.832 30.896 11.088H30.912Z" fill="white"/>
<path d="M36.384 48.0799C35.536 48.2959 34.664 47.8479 34.336 47.0399L25.52 25.1919C24.384 22.3839 25.992 19.2239 28.928 18.4879C31.864 17.7519 34.776 19.7679 35.112 22.7759L37.704 46.1999C37.8 47.0719 37.24 47.8799 36.392 48.0879L36.384 48.0799Z" fill="#204743" stroke="white" stroke-width="2" stroke-linecap="round" stroke-linejoin="round"/>
<path d="M25.68 25.384L29.088 24.528" stroke="white" stroke-width="2" stroke-linecap="round" stroke-linejoin="round"/>
<path d="M32.096 29.168L35.496 28.312" stroke="white" stroke-width="2" stroke-linecap="round" stroke-linejoin="round"/>
<path d="M30.024 35.984L33.424 35.128" stroke="white" stroke-width="2" stroke-linecap="round" stroke-linejoin="round"/>
<path d="M33.408 40.136L36.808 39.28" stroke="white" stroke-width="2" stroke-linecap="round" stroke-linejoin="round"/>
<path d="M31.232 23.992L32.96 23.552" stroke="white" stroke-width="2" stroke-linecap="round" stroke-linejoin="round"/>
<path d="M33.184 43.6479L34.912 43.2079" stroke="white" stroke-width="2" stroke-linecap="round" stroke-linejoin="round"/>
<path d="M45.056 8.59999C44.704 8.55199 44.472 8.20798 44.544 7.86399C44.592 7.65599 44.616 7.43199 44.624 7.19999C44.648 5.61599 43.448 4.20798 41.88 3.97598C40.096 3.71198 38.448 4.95199 38.208 6.73599C38.2 6.82399 38.192 6.91198 38.184 6.99998C38.168 7.35998 37.856 7.63999 37.496 7.59198C36.448 7.44798 35.488 8.18399 35.352 9.23199C35.208 10.28 35.944 11.24 36.992 11.376L39.448 11.704C39.784 11.752 40.016 12.056 39.968 12.384L39.632 14.912L41.08 15.104L41.416 12.576C41.464 12.24 41.768 12.008 42.096 12.056L44.552 12.384C45.6 12.528 46.56 11.792 46.696 10.744C46.84 9.69599 46.104 8.73599 45.056 8.59999Z" fill="white"/>
<path d="M36.408 44.984C35.544 44.864 34.896 44.128 34.888 43.256L34.808 19.688C34.8 16.664 37.464 14.32 40.464 14.728C43.464 15.128 45.416 18.088 44.608 21.008L38.32 43.72C38.088 44.56 37.264 45.104 36.4 44.992L36.408 44.984Z" fill="#204743" stroke="white" stroke-width="2" stroke-linecap="round" stroke-linejoin="round"/>
<path d="M34.784 22.064L38.256 22.528" stroke="white" stroke-width="2" stroke-linecap="round" stroke-linejoin="round"/>
<path d="M39.44 25.832L42.92 26.304" stroke="white" stroke-width="2" stroke-linecap="round" stroke-linejoin="round"/>
<path d="M34.992 31.392L38.472 31.856" stroke="white" stroke-width="2" stroke-linecap="round" stroke-linejoin="round"/>
<path d="M36.592 36.504L40.072 36.976" stroke="white" stroke-width="2" stroke-linecap="round" stroke-linejoin="round"/>
<path d="M37.608 18.768L39.368 19.008" stroke="white" stroke-width="2" stroke-linecap="round" stroke-linejoin="round"/>
<path d="M35.08 39.68L36.848 39.92" stroke="white" stroke-width="2" stroke-linecap="round" stroke-linejoin="round"/>
<path d="M49.696 28.64C53.1157 28.64 55.888 25.8677 55.888 22.448C55.888 19.0282 53.1157 16.256 49.696 16.256C46.2762 16.256 43.504 19.0282 43.504 22.448C43.504 25.8677 46.2762 28.64 49.696 28.64Z" fill="#204743" stroke="white" stroke-width="2" stroke-linecap="round" stroke-linejoin="round"/>
<path d="M62.912 32.379C63.1663 27.7291 59.628 23.7548 55.0089 23.5022C50.3899 23.2496 46.4393 26.8144 46.185 31.4643C45.9307 36.1142 49.4691 40.0885 54.0881 40.3411C58.7072 40.5937 62.6577 37.0289 62.912 32.379Z" fill="#204743" stroke="white" stroke-width="2" stroke-linecap="round" stroke-linejoin="round"/>
<path d="M53.9377 32.3104C54.2754 26.1341 49.621 20.8576 43.5417 20.5252C37.4624 20.1928 32.2603 24.9302 31.9226 31.1066C31.5848 37.2829 36.2393 42.5593 42.3186 42.8918C48.3979 43.2242 53.5999 38.4868 53.9377 32.3104Z" fill="#204743" stroke="white" stroke-width="2" stroke-linecap="round" stroke-linejoin="round"/>
<path d="M54.0998 28.8869L25.0233 27.2969L22.5352 72.797L51.6117 74.387L54.0998 28.8869Z" fill="#204743" stroke="white" stroke-width="2" stroke-linecap="round" stroke-linejoin="round"/>
<path d="M51.6223 74.3769L69.9789 75.3807L72.467 29.8807L54.1104 28.8769L51.6223 74.3769Z" fill="#204743" stroke="white" stroke-width="2" stroke-linecap="round" stroke-linejoin="round"/>
<path d="M63.28 29.384L60.8 74.888" stroke="white" stroke-width="2" stroke-linecap="round" stroke-linejoin="round"/>
<path d="M51.624 74.344L61.304 65.664L69.976 75.344" stroke="white" stroke-width="2" stroke-linecap="round" stroke-linejoin="round"/>
<path d="M33.136 67.856C32.896 67.856 32.656 67.744 32.504 67.552C32.464 67.504 28.8 62.864 23.08 59.776C13.832 57.936 7.048 54.248 2.904 48.8C2.688 48.512 2.688 48.12 2.904 47.84C3.248 47.376 3.592 46.904 3.936 46.44C4.544 45.608 5.168 44.744 5.808 43.944C6.84 42.64 7.888 41.344 8.928 40.056C9.92 38.832 10.904 37.608 11.88 36.376C12.032 36.176 12.272 36.072 12.504 36.072C12.616 36.072 12.736 36.096 12.84 36.144C20.944 39.912 29.792 40.016 30.768 40.016H30.88C30.984 40.016 31.096 40.04 31.192 40.08C31.56 40.24 40.344 44.064 44.32 51.456C44.432 51.664 44.448 51.912 44.36 52.136L40.048 62.768C39.944 63.016 39.72 63.2 39.456 63.256C39.408 63.264 39.36 63.272 39.304 63.272C39.088 63.272 38.88 63.184 38.728 63.024C38.688 62.976 35.408 59.576 31.632 57.584C33.784 59.752 36.44 62.904 37.2 65.864C37.304 66.28 37.064 66.704 36.656 66.824L33.36 67.832C33.28 67.856 33.208 67.864 33.128 67.864L33.136 67.856Z" fill="#204743"/>
<path d="M12.512 36.864C20.744 40.688 29.672 40.816 30.776 40.816C30.848 40.816 30.888 40.816 30.888 40.816C30.888 40.816 39.736 44.608 43.624 51.832L39.312 62.464C39.312 62.464 33.504 56.376 28.16 55.472C28.16 55.472 35.16 61.144 36.416 66.048L33.12 67.056C33.12 67.056 29.352 62.216 23.336 59.016C12.192 56.824 6.59998 52.36 3.52798 48.32C4.50398 47.016 5.43998 45.672 6.41598 44.44C8.42398 41.896 10.488 39.408 12.488 36.872M12.512 35.264C12.032 35.264 11.568 35.48 11.256 35.872C10.288 37.096 9.30398 38.312 8.31998 39.528C7.28798 40.808 6.21598 42.128 5.17598 43.44C4.52798 44.256 3.89598 45.12 3.28798 45.96C2.95198 46.424 2.60798 46.896 2.26398 47.352C1.83998 47.92 1.83998 48.712 2.26398 49.28C6.51198 54.864 13.416 58.648 22.8 60.536C28.304 63.536 31.832 68 31.864 68.04C32.176 68.432 32.64 68.656 33.128 68.656C33.28 68.656 33.44 68.632 33.592 68.584L36.888 67.576C37.704 67.328 38.184 66.48 37.968 65.648C37.624 64.296 36.904 62.904 36.024 61.592C36.952 62.376 37.696 63.088 38.152 63.56C38.456 63.88 38.88 64.056 39.312 64.056C39.408 64.056 39.512 64.048 39.608 64.024C40.144 63.92 40.584 63.56 40.792 63.056L45.104 52.424C45.28 51.984 45.256 51.488 45.032 51.064C40.928 43.432 31.896 39.496 31.512 39.336C31.312 39.248 31.096 39.208 30.88 39.208C30.88 39.208 30.864 39.208 30.856 39.208H30.768C29.808 39.208 21.12 39.104 13.176 35.408C12.96 35.304 12.728 35.256 12.504 35.256L12.512 35.264Z" fill="white"/>
<path d="M42.472 54.504C42.472 54.504 36.656 48.44 31.448 45.448" stroke="white" stroke-width="2" stroke-linecap="round" stroke-linejoin="round"/>
<path d="M40.848 58.696C40.848 58.696 35.992 52.864 29.296 49.872" stroke="white" stroke-width="2" stroke-linecap="round" stroke-linejoin="round"/>
</g>
<defs>
<clipPath id="clip0_1294_20553">
<rect width="80" height="77.328" fill="white" transform="translate(0 1)"/>
</clipPath>
</defs>
</svg>
