<svg width="80" height="80" viewBox="0 0 80 80" fill="none" xmlns="http://www.w3.org/2000/svg">
<path d="M68.4732 28.3808C68.4732 28.2289 68.4812 28.0769 68.4812 27.917C69.5529 26.5813 70.1768 24.9337 70.2408 23.1821C70.2648 22.5823 70.2168 21.9744 70.0968 21.3746C69.9048 20.3588 69.289 19.4551 68.4172 18.9032C67.5374 18.3433 66.4577 18.1754 65.466 18.4393C65.282 18.4873 65.218 18.4873 65.218 18.4873C64.6821 18.4873 64.2023 18.0154 64.1863 17.4636C64.1463 16.1519 63.4505 14.9682 62.3067 14.3043C61.163 13.6485 59.7874 13.6245 58.6357 14.2484C58.1238 14.5283 57.6679 14.3363 57.412 14.0724C57.052 13.6965 56.6281 13.4086 56.1563 13.2086C56.3722 12.6568 56.5482 12.0889 56.6681 11.505C57.084 9.47355 55.7724 7.47404 53.7489 7.05815C52.7651 6.8502 51.7574 7.04215 50.9176 7.59401C50.0778 8.14588 49.5019 8.99367 49.294 9.98542C49.27 10.0894 49.246 10.1934 49.206 10.2973C48.9181 10.0814 48.6301 9.88145 48.3342 9.6815C47.4224 9.07365 46.2867 8.89769 45.231 9.20161C44.1752 9.49754 43.3035 10.2414 42.8396 11.2411C41.5839 13.9524 38.8646 15.672 35.9933 15.68C35.9053 15.4801 35.8173 15.2881 35.7134 15.0961C35.9453 14.9682 36.1692 14.8162 36.3852 14.6563C37.5769 13.7445 38.3527 12.4168 38.5526 10.9292C38.8246 8.90569 37.9688 6.96217 36.4652 5.76247C35.9693 2.86719 33.6499 0.523773 30.6586 0.0758849C28.8111 -0.196047 26.9715 0.267837 25.4839 1.38756C24.5561 2.08339 23.8363 2.98716 23.3564 4.01091C21.5889 4.77072 20.2532 6.41831 19.9813 8.43381C19.9813 8.48179 19.9733 8.52178 19.9653 8.56977C18.6456 8.08989 17.174 8.00991 15.7423 8.40981C13.9428 8.91369 12.4551 10.0974 11.5594 11.729C10.9995 12.7447 10.7116 13.8565 10.6956 14.9762C10.3837 15.3201 10.1037 15.704 9.87978 16.1199C9.15196 17.4636 9 18.9832 9.42389 20.4308C9.85579 21.8705 10.8155 23.0622 12.1432 23.774C12.4231 23.9259 12.7111 24.0539 13.007 24.1499C12.5991 25.3736 12.4711 26.6613 12.6231 27.925C10.6156 28.0049 9 29.6605 9 31.692V35.675C9 37.7545 10.6876 39.4421 12.7671 39.4421H15.1105L17.014 76.4249C17.118 78.4244 18.7656 80 20.7731 80H58.6596C60.6671 80 62.3147 78.4324 62.4187 76.4249L64.3222 39.4501H66.6656C68.7451 39.4501 70.4327 37.7625 70.4327 35.683V31.7C70.4327 30.2764 69.6329 29.0287 68.4652 28.3888L68.4732 28.3808Z" fill="#204743"/>
<path d="M65.21 22.2544C62.6027 22.2544 60.4832 20.1669 60.4112 17.5676C59.7314 17.9355 58.9716 18.1594 58.1478 18.1594C56.8041 18.1594 55.5644 17.6076 54.6766 16.6798C53.8688 18.2154 52.2692 19.2392 50.4457 19.2392C49.358 19.2392 48.3582 18.8633 47.5504 18.2474C46.7986 19.2952 46.5587 20.6388 46.9266 21.8865C46.4867 22.3344 46.1748 22.8783 46.0068 23.6461C45.7029 25.0857 46.1508 26.6293 47.3025 27.5411C47.5184 27.7091 47.7424 27.853 47.9903 27.973C47.9663 28.061 47.9503 28.141 47.9263 28.2289C47.6064 29.7885 48.2702 31.3881 49.5339 32.3559L49.5819 32.3959C50.8456 33.3637 52.5572 33.5956 53.9808 32.8838C54.0608 32.8438 54.1328 32.8038 54.2127 32.7558C54.3887 32.9638 54.5887 33.1477 54.8126 33.3157C55.9963 34.1955 57.5959 34.2354 58.9156 33.5636C59.6114 33.2037 60.0593 32.7638 60.3712 32.2279C61.7149 32.2599 62.9946 31.6521 63.8184 30.5804C64.7061 29.4206 64.9301 27.893 64.4262 26.5334C65.6419 25.7895 66.4017 24.4859 66.4577 23.0622C66.4737 22.7343 66.4417 22.4144 66.3777 22.0945C65.9938 22.1904 65.6019 22.2624 65.186 22.2624L65.21 22.2544Z" fill="#204743" stroke="white" stroke-width="1.88" stroke-linecap="round" stroke-linejoin="round"/>
<path d="M59.4434 21.3506L47.3665 37.0667" stroke="white" stroke-width="1.88" stroke-linecap="round" stroke-linejoin="round"/>
<path d="M56.988 24.6538L61.4989 24.062" stroke="white" stroke-width="1.88" stroke-linecap="round" stroke-linejoin="round"/>
<path d="M54.6766 27.5011L54.0768 22.9662" stroke="white" stroke-width="1.88" stroke-linecap="round" stroke-linejoin="round"/>
<path d="M52.2772 30.6763L56.5242 30.1165" stroke="white" stroke-width="1.88" stroke-linecap="round" stroke-linejoin="round"/>
<path d="M21.4529 14.8962C21.117 15.0002 20.7731 14.7842 20.7011 14.4403C20.6611 14.2324 20.5971 14.0244 20.5011 13.8165C19.8853 12.3928 18.2537 11.617 16.7581 12.0409C15.0625 12.5208 14.0867 14.2884 14.5906 15.976C14.6146 16.0559 14.6466 16.1439 14.6706 16.2159C14.7986 16.5438 14.6306 16.9197 14.2947 17.0157C13.3029 17.3116 12.7431 18.3514 13.039 19.3351C13.3349 20.3269 14.3747 20.8867 15.3584 20.5908L17.6778 19.903C17.9898 19.807 18.3257 19.991 18.4217 20.3029L19.1335 22.6943L20.5011 22.2864L19.7893 19.895C19.6933 19.5831 19.8773 19.2471 20.1892 19.1512L22.5086 18.4633C23.5004 18.1674 24.0602 17.1277 23.7643 16.1439C23.4684 15.1522 22.4287 14.5923 21.4449 14.8882L21.4529 14.8962Z" fill="white" stroke="white" stroke-width="1.88" stroke-linecap="round" stroke-linejoin="round"/>
<path d="M28.3392 50.8392C27.5154 51.0872 26.6437 50.6873 26.2917 49.9035L16.7661 28.9087C15.5424 26.2134 16.9821 23.0542 19.8213 22.2144C22.6606 21.3666 25.5879 23.2221 26.0438 26.1494L29.5469 48.9357C29.6749 49.7835 29.163 50.5913 28.3392 50.8392Z" fill="#204743" stroke="white" stroke-width="1.88" stroke-linecap="round" stroke-linejoin="round"/>
<path d="M16.934 29.1007L20.2212 28.1169" stroke="white" stroke-width="1.88" stroke-linecap="round" stroke-linejoin="round"/>
<path d="M23.3564 32.5318L26.6436 31.5561" stroke="white" stroke-width="1.88" stroke-linecap="round" stroke-linejoin="round"/>
<path d="M21.6129 39.2742L24.908 38.2984" stroke="white" stroke-width="1.88" stroke-linecap="round" stroke-linejoin="round"/>
<path d="M25.1 43.2012L28.3872 42.2174" stroke="white" stroke-width="1.88" stroke-linecap="round" stroke-linejoin="round"/>
<path d="M22.3007 27.5011L23.9723 27.0052" stroke="white" stroke-width="1.88" stroke-linecap="round" stroke-linejoin="round"/>
<path d="M25.02 46.6403L26.6916 46.1444" stroke="white" stroke-width="1.88" stroke-linecap="round" stroke-linejoin="round"/>
<path d="M33.21 8.33782C32.8661 8.28983 32.6342 7.95392 32.7141 7.618C32.7621 7.41005 32.7861 7.19411 32.7861 6.97016C32.8101 5.41855 31.6344 4.04289 30.0988 3.81095C28.3552 3.55501 26.7396 4.77071 26.5077 6.51428C26.4997 6.60225 26.4917 6.68223 26.4837 6.77021C26.4677 7.12212 26.1638 7.39406 25.8119 7.34607C24.7881 7.2101 23.8524 7.92992 23.7164 8.94567C23.5804 9.96942 24.3002 10.9052 25.316 11.0411L27.7154 11.3611C28.0433 11.4011 28.2673 11.705 28.2273 12.0329L27.8993 14.5043L29.315 14.6962L29.6429 12.2249C29.6829 11.8969 29.9868 11.673 30.3147 11.713L32.7141 12.0329C33.7379 12.1689 34.6737 11.449 34.8096 10.4333C34.9456 9.40955 34.2258 8.47379 33.21 8.33782Z" fill="white" stroke="white" stroke-width="1.88" stroke-linecap="round" stroke-linejoin="round"/>
<path d="M24.7481 43.937C23.9003 43.825 23.2685 43.0972 23.2605 42.2414L23.1885 19.1831C23.1805 16.2239 25.7878 13.9365 28.7231 14.3284C31.6584 14.7203 33.5699 17.6155 32.7781 20.4708L26.6276 42.6893C26.3957 43.5131 25.5959 44.041 24.7481 43.929V43.937Z" fill="#204743" stroke="white" stroke-width="1.88" stroke-linecap="round" stroke-linejoin="round"/>
<path d="M23.1485 21.5106L26.5557 21.9664" stroke="white" stroke-width="1.88" stroke-linecap="round" stroke-linejoin="round"/>
<path d="M27.7154 25.1976L31.1145 25.6535" stroke="white" stroke-width="1.88" stroke-linecap="round" stroke-linejoin="round"/>
<path d="M23.3564 30.6364L26.7636 31.0922" stroke="white" stroke-width="1.88" stroke-linecap="round" stroke-linejoin="round"/>
<path d="M24.9241 35.6431L28.3312 36.099" stroke="white" stroke-width="1.88" stroke-linecap="round" stroke-linejoin="round"/>
<path d="M25.9158 18.2874L27.6434 18.5194" stroke="white" stroke-width="1.88" stroke-linecap="round" stroke-linejoin="round"/>
<path d="M23.4445 38.7463L25.172 38.9782" stroke="white" stroke-width="1.88" stroke-linecap="round" stroke-linejoin="round"/>
<path d="M28.5711 33.0997C29.2669 30.2924 28.867 27.4851 27.6593 25.1096C30.5466 24.2139 33.026 22.1584 34.4497 19.3511C39.3764 20.0469 44.1672 17.3436 46.2547 12.8327C48.2142 14.1284 49.8218 15.8559 50.9815 17.8555C48.7661 20.7907 48.0223 24.6778 49.262 28.2769C46.7746 30.2044 45.231 33.0197 44.8871 36.0269C42.3277 35.2911 39.4964 35.4271 36.873 36.6428C35.1215 37.4506 33.6738 38.6503 32.5701 40.0739C30.4666 39.2821 28.6271 38.0424 27.1235 36.4908C27.7713 35.4671 28.2672 34.3314 28.5791 33.0997H28.5711Z" fill="#204743" stroke="white" stroke-width="1.88" stroke-linecap="round" stroke-linejoin="round"/>
<path d="M52.973 10.7532C52.5651 12.7447 51.1655 14.5123 49.3259 15.3761" stroke="white" stroke-width="1.88" stroke-linecap="round" stroke-linejoin="round"/>
<path d="M58.6677 76.225H20.7731L18.7016 35.835H60.7391L58.6677 76.225Z" fill="#204743" stroke="white" stroke-width="1.88" stroke-linecap="round" stroke-linejoin="round"/>
<path d="M66.6736 31.692H12.7671V35.675H66.6736V31.692Z" fill="#204743" stroke="white" stroke-width="1.88" stroke-linecap="round" stroke-linejoin="round"/>
<path d="M28.5071 36.4749V40.9857" stroke="white" stroke-width="1.88" stroke-linecap="round" stroke-linejoin="round"/>
<path d="M50.9335 36.4749V40.9857" stroke="white" stroke-width="1.88" stroke-linecap="round" stroke-linejoin="round"/>
<path d="M53.013 57.9655L50.2457 52.7668C49.9738 52.2549 49.4939 51.879 48.9341 51.735C48.8461 51.711 48.7581 51.703 48.6701 51.695L49.8858 48.9597C50.2457 48.1519 50.0538 47.2081 49.4139 46.6083C48.7741 46.0004 47.8223 45.8645 47.0385 46.2724L46.7026 46.4403L45.6789 44.8487C45.295 44.2569 44.6391 43.897 43.9273 43.897H36.1932C35.4494 43.897 34.7616 44.2969 34.3937 44.9367L31.4504 50.0394C31.1625 50.5433 31.0905 51.1432 31.2664 51.703C31.2824 51.751 31.3064 51.791 31.3224 51.831L28.0193 52.1909C27.1395 52.2869 26.4197 52.9267 26.2197 53.7825C26.0198 54.6383 26.3797 55.5341 27.1235 56.006L27.4354 56.2059L26.5716 57.8935C26.2517 58.5253 26.2677 59.2691 26.6276 59.885L30.5146 66.5713C30.8905 67.2112 31.5704 67.6031 32.3142 67.6031H32.3222L38.2087 67.5791C38.7926 67.5791 39.3444 67.3311 39.7363 66.8993C39.7843 66.8433 39.8163 66.7873 39.8643 66.7313L41.3679 68.9627C41.7598 69.5466 42.4077 69.8825 43.0875 69.8825C43.2635 69.8825 43.4394 69.8585 43.6154 69.8185C44.4712 69.5946 45.087 68.8588 45.159 67.979L45.191 67.6031L47.0785 67.5791C47.7823 67.5711 48.4382 67.2032 48.8141 66.6033L52.9171 60.045C53.309 59.4131 53.341 58.6213 52.989 57.9655H53.013Z" fill="white"/>
<path d="M45.9828 49.1516L43.9433 45.9764H36.2093L33.266 51.0792L37.337 52.9907L40.1923 48.0239L40.9281 49.1676L42.1758 51.1112L40.0003 52.2309L45.7509 53.1586L47.9903 48.1199L45.9828 49.1516Z" fill="#204743"/>
<path d="M30.1627 55.4781L28.4432 58.8373L29.331 60.3649L32.3302 65.5236L38.2167 65.4996L37.8168 61.0207L32.0903 61.0447L32.7061 59.829L33.7539 57.7735L35.8173 59.0932L33.7299 53.6545L28.2512 54.2544L30.1547 55.4701L30.1627 55.4781Z" fill="#204743"/>
<path d="M43.2955 65.5396L47.0705 65.4916L48.0063 63.996L51.1735 58.9413L48.4062 53.7426L44.6311 56.1819L47.3185 61.2367L45.9588 61.2527L43.6474 61.2767L43.8553 58.8373L40.0163 63.2202L43.0955 67.7871L43.2875 65.5316L43.2955 65.5396Z" fill="#204743"/>
</svg>
