<svg width="80" height="80" viewBox="0 0 80 80" fill="none" xmlns="http://www.w3.org/2000/svg">
<path d="M71.128 41.512C70.048 41.512 69.008 41.704 68.048 42.064L66.224 36.272C66.192 36.056 66.12 35.848 66.032 35.648L65.432 33.752C65.248 33.168 64.848 32.688 64.304 32.408C63.76 32.128 63.136 32.072 62.552 32.256C61.968 32.44 61.488 32.84 61.208 33.384C60.928 33.928 60.872 34.552 61.056 35.136L61.408 36.248L55.4 44.416V37.456L55.752 37.744C56.408 38.28 57.376 38.176 57.904 37.52C58.44 36.864 58.336 35.896 57.68 35.368L48.072 27.568C47.52 27.12 46.728 27.112 46.168 27.552L36.184 35.352C35.944 35.544 35.776 35.792 35.68 36.064L35.384 26.888C35.28 23.584 32.608 21 29.304 21H27.808C26.544 21 25.512 22.032 25.512 23.296C25.512 24.56 26.544 25.592 27.808 25.592H29.304C30.112 25.592 30.768 26.224 30.792 27.032L30.976 32.688L21.344 31.808C21.824 31.688 22.264 31.432 22.6 31.056C23.08 30.528 23.312 29.816 23.248 29.112C23.136 27.928 22.232 26.992 21.056 26.84L12.408 25.704C11.688 25.608 10.952 25.832 10.408 26.312C9.856 26.792 9.544 27.488 9.544 28.216V29.352C9.544 30.752 10.68 31.888 12.08 31.888H14.6L15.392 33.632L13.488 37.304C12.712 37.136 11.912 37.04 11.088 37.04C4.968 37.04 0 42.016 0 48.128C0 54.24 4.976 59.216 11.088 59.216C15.296 59.216 18.968 56.856 20.848 53.392L23.944 53.904C24.168 53.944 24.392 53.96 24.624 53.96C25.56 53.96 26.488 53.648 27.232 53.056C27.352 52.96 27.472 52.856 27.576 52.744L33.632 53.384C33.672 53.384 33.712 53.384 33.752 53.392C33.776 53.392 33.792 53.392 33.816 53.392L56.024 53.984C56.024 53.984 56.072 53.984 56.088 53.984C56.248 53.984 56.416 53.968 56.608 53.92C56.656 53.912 56.696 53.896 56.744 53.88C56.856 53.848 56.952 53.808 57.056 53.76C57.104 53.736 57.152 53.712 57.208 53.68C57.296 53.632 57.384 53.576 57.488 53.496C57.528 53.464 57.576 53.424 57.608 53.4C57.696 53.328 57.776 53.24 57.84 53.168C57.872 53.128 57.912 53.088 57.936 53.048L64.112 44.736L64.16 44.904C62.984 46.408 62.288 48.296 62.288 50.344C62.288 55.232 66.264 59.2 71.144 59.2C76.024 59.2 80 55.224 80 50.344C80 45.464 76.024 41.488 71.144 41.488L71.128 41.512ZM35.912 37.512C36.216 37.896 36.664 38.104 37.12 38.104C37.448 38.104 37.784 38 38.064 37.776L38.408 37.512V44.536C38.408 44.824 38.488 45.088 38.624 45.312C37.632 45.288 36.728 45.264 35.968 45.24L35.712 37.152C35.768 37.28 35.824 37.4 35.92 37.52L35.912 37.512ZM17.664 39.216L17.8 38.96L18.056 39.52C17.928 39.416 17.8 39.312 17.664 39.216Z" fill="#204743"/>
<path d="M11.072 57.704C5.80002 57.704 1.51202 53.416 1.51202 48.144C1.51202 42.872 5.80002 38.584 11.072 38.584C16.344 38.584 20.632 42.872 20.632 48.144C20.632 53.416 16.344 57.704 11.072 57.704ZM11.072 40.112C6.64002 40.112 3.04002 43.712 3.04002 48.144C3.04002 52.576 6.64002 56.176 11.072 56.176C15.504 56.176 19.104 52.576 19.104 48.144C19.104 43.712 15.504 40.112 11.072 40.112Z" fill="white" stroke="white" stroke-width="0.96" stroke-linecap="round" stroke-linejoin="round"/>
<path d="M71.128 57.704C67.088 57.704 63.8 54.416 63.8 50.376C63.8 46.336 67.088 43.048 71.128 43.048C75.168 43.048 78.456 46.336 78.456 50.376C78.456 54.416 75.168 57.704 71.128 57.704ZM71.128 44.576C67.928 44.576 65.328 47.176 65.328 50.376C65.328 53.576 67.928 56.176 71.128 56.176C74.328 56.176 76.928 53.576 76.928 50.376C76.928 47.176 74.328 44.576 71.128 44.576Z" fill="white" stroke="white" stroke-width="0.96" stroke-linecap="round" stroke-linejoin="round"/>
<path d="M70.696 48.656C69.08 47.92 67.848 46.528 67.312 44.84L64.712 36.608C64.704 36.48 64.664 36.36 64.6 36.248L63.96 34.224C63.832 33.824 63.4 33.6 63 33.728C62.6 33.856 62.376 34.288 62.504 34.688L63.088 36.544L55.208 47.256C52.64 47.192 38.424 46.856 34.48 46.72L33.848 26.944C33.768 24.472 31.768 22.536 29.296 22.536H27.8C27.376 22.536 27.032 22.88 27.032 23.304C27.032 23.728 27.376 24.072 27.8 24.072H29.296C30.936 24.072 32.264 25.352 32.312 26.992L32.552 34.376L18.488 33.088L16.76 29.28C16.584 28.896 16.128 28.728 15.744 28.896C15.36 29.072 15.192 29.528 15.36 29.912L17.072 33.68L9.51201 48.264C9.39201 48.488 9.40001 48.76 9.51201 48.976C9.63201 49.2 9.85601 49.344 10.104 49.376L25.056 50.952C25.176 51.024 25.312 51.064 25.456 51.064C25.536 51.064 25.624 51.048 25.704 51.016L33.768 51.864C33.768 51.864 33.8 51.864 33.816 51.864C33.816 51.864 33.816 51.864 33.824 51.864L56.032 52.456H56.048C56.104 52.456 56.16 52.456 56.208 52.44C56.224 52.44 56.232 52.432 56.248 52.424C56.288 52.416 56.328 52.4 56.36 52.384C56.376 52.384 56.392 52.368 56.408 52.36C56.44 52.344 56.472 52.32 56.504 52.296C56.52 52.288 56.536 52.272 56.552 52.264C56.584 52.232 56.616 52.2 56.64 52.168C56.64 52.168 56.656 52.152 56.656 52.144L64.616 41.432L65.832 45.28C66.496 47.384 68.032 49.12 70.04 50.032C70.144 50.08 70.248 50.104 70.36 50.104C70.648 50.104 70.928 49.936 71.056 49.656C71.232 49.272 71.056 48.816 70.68 48.64L70.696 48.656ZM17.888 35.456L24.184 49.32L11.392 47.968L17.88 35.448L17.888 35.456ZM25.952 49.512L19.224 34.696L32.608 35.92L32.976 47.32C32.976 47.32 32.96 47.392 32.96 47.432C32.96 47.512 32.968 47.584 32.984 47.656L33.072 50.272L25.96 49.52L25.952 49.512ZM55.696 50.936L34.6 50.376L34.528 48.256C39.032 48.4 55.392 48.792 55.568 48.792H55.584C55.824 48.792 56.056 48.68 56.2 48.48L63.656 38.344L64.064 39.648L55.68 50.928L55.696 50.936Z" fill="white"/>
<path d="M24.176 52.408L10.28 50.128C9.536 50.008 8.992 49.36 8.992 48.608C8.992 47.752 9.688 47.064 10.536 47.072L24.616 47.112C26.16 47.112 27.376 48.424 27.264 49.968C27.152 51.536 25.72 52.664 24.168 52.416L24.176 52.408Z" fill="white" stroke="#204743" stroke-width="0.96" stroke-linecap="round" stroke-linejoin="round"/>
<path d="M20.712 30.368H12.064C11.512 30.368 11.056 29.92 11.056 29.36V28.224C11.056 27.616 11.592 27.152 12.192 27.232L20.84 28.368C21.304 28.432 21.664 28.8 21.712 29.264C21.768 29.856 21.304 30.368 20.712 30.368Z" fill="white" stroke="#204743" stroke-width="0.96" stroke-linecap="round" stroke-linejoin="round"/>
<path d="M37.12 36.5679L47.104 28.7679L56.712 36.5679" stroke="white" stroke-width="0.96" stroke-linecap="round" stroke-linejoin="round"/>
<path d="M39.928 35.8719V44.5279H45.504V40.0079H48.32V44.5279H53.856V35.8719" stroke="white" stroke-width="0.96" stroke-linecap="round" stroke-linejoin="round"/>
</svg>
