<svg width="80" height="80" viewBox="0 0 80 80" fill="none" xmlns="http://www.w3.org/2000/svg">
<path d="M71.2286 18.9398L66.1156 13.9068L53.3691 1.16023C52.6969 0.480096 51.7928 0.080016 50.8486 0.0160032L27.6839 0C25.5155 0 23.7471 1.76835 23.7471 3.93679V7.87357H19.8104C17.6419 7.87357 15.8736 9.64193 15.8736 11.8104V15.7471H11.9368C9.76835 15.7471 8 17.5155 8 19.6839V76.0632C8 78.2316 9.76835 80 11.9368 80H52.7129C54.8814 80 56.6497 78.2316 56.6497 76.0632V72.1264H60.5865C62.7549 72.1264 64.5233 70.3581 64.5233 68.1896V64.2529H68.4601C70.6285 64.2529 72.3969 62.4845 72.3969 60.3161V21.7483C72.3969 20.7001 71.9648 19.6759 71.2206 18.9398H71.2286Z" fill="#204743"/>
<path d="M52.713 37.5035V76.0872H11.9288V19.7H34.6133L52.713 37.5035Z" fill="white" stroke="white" stroke-width="1.97" stroke-linecap="round" stroke-linejoin="round"/>
<path d="M16.7378 45.6171H47.5039" stroke="#204743" stroke-width="1.97" stroke-linecap="round" stroke-linejoin="round"/>
<path d="M16.7378 50.4021H47.5039" stroke="#204743" stroke-width="1.97" stroke-linecap="round" stroke-linejoin="round"/>
<path d="M16.7378 55.1631H47.5039" stroke="#204743" stroke-width="1.97" stroke-linecap="round" stroke-linejoin="round"/>
<path d="M16.7378 59.916H47.5039" stroke="#204743" stroke-width="1.97" stroke-linecap="round" stroke-linejoin="round"/>
<path d="M16.7378 64.6689H47.5039" stroke="#204743" stroke-width="1.97" stroke-linecap="round" stroke-linejoin="round"/>
<path d="M16.7378 69.4219H47.5039" stroke="#204743" stroke-width="1.97" stroke-linecap="round" stroke-linejoin="round"/>
<path d="M16.7378 29.854H29.0202" stroke="#204743" stroke-width="1.97" stroke-linecap="round" stroke-linejoin="round"/>
<path d="M60.5865 29.6299V68.2057H19.8104V11.8264H42.4869L60.5865 29.6299Z" fill="#204743" stroke="white" stroke-width="1.97" stroke-linecap="round" stroke-linejoin="round"/>
<path d="M24.6193 37.7356H55.3775" stroke="white" stroke-width="1.97" stroke-linecap="round" stroke-linejoin="round"/>
<path d="M24.6193 42.5285H55.3775" stroke="white" stroke-width="1.97" stroke-linecap="round" stroke-linejoin="round"/>
<path d="M24.6193 47.2815H55.3775" stroke="white" stroke-width="1.97" stroke-linecap="round" stroke-linejoin="round"/>
<path d="M24.6193 52.0344H55.3775" stroke="white" stroke-width="1.97" stroke-linecap="round" stroke-linejoin="round"/>
<path d="M24.6193 56.7874H55.3775" stroke="white" stroke-width="1.97" stroke-linecap="round" stroke-linejoin="round"/>
<path d="M24.6193 61.5483H55.3775" stroke="white" stroke-width="1.97" stroke-linecap="round" stroke-linejoin="round"/>
<path d="M24.6193 21.9804H36.8938" stroke="white" stroke-width="1.97" stroke-linecap="round" stroke-linejoin="round"/>
<path d="M68.4681 21.7484V60.3321H27.6839V3.94479H50.3684L68.4681 21.7484Z" fill="white" stroke="white" stroke-width="1.97" stroke-linecap="round" stroke-linejoin="round"/>
<path d="M32.4929 29.862H63.259" stroke="#204743" stroke-width="1.97" stroke-linecap="round" stroke-linejoin="round"/>
<path d="M32.4929 34.6469H63.259" stroke="#204743" stroke-width="1.97" stroke-linecap="round" stroke-linejoin="round"/>
<path d="M32.4929 39.4079H63.259" stroke="#204743" stroke-width="1.97" stroke-linecap="round" stroke-linejoin="round"/>
<path d="M32.4929 44.1609H63.259" stroke="#204743" stroke-width="1.97" stroke-linecap="round" stroke-linejoin="round"/>
<path d="M32.4929 48.9138H63.259" stroke="#204743" stroke-width="1.97" stroke-linecap="round" stroke-linejoin="round"/>
<path d="M32.4929 53.6667H63.259" stroke="#204743" stroke-width="1.97" stroke-linecap="round" stroke-linejoin="round"/>
<path d="M32.4929 14.0988H44.7753" stroke="#204743" stroke-width="1.97" stroke-linecap="round" stroke-linejoin="round"/>
<path d="M68.4681 21.8284H50.5765V3.94479L68.4681 21.8284Z" fill="#204743" stroke="white" stroke-width="1.97" stroke-linecap="round" stroke-linejoin="round"/>
</svg>
