<svg width="80" height="80" viewBox="0 0 80 80" fill="none" xmlns="http://www.w3.org/2000/svg">
<path d="M68.9337 9.71848H67.837C67.6745 5.9896 64.5874 3 60.8098 3C57.5927 3 54.8712 5.16909 54.0426 8.12619C53.2058 5.16909 50.4924 3 47.2753 3C44.0583 3 41.3368 5.16909 40.5081 8.12619C39.6714 5.16909 36.958 3 33.7409 3C30.5238 3 27.8023 5.16909 26.9737 8.12619C26.145 5.16909 23.4235 3 20.2065 3C16.437 3 13.3499 5.98148 13.1793 9.71848H12.0825C7.06196 9.71848 3 13.7804 3 18.7766V67.5201C3 72.5164 7.06196 76.5864 12.0663 76.5864H68.9337C73.9299 76.5864 78 72.5245 78 67.5201V18.7766C78 13.7804 73.938 9.71036 68.9337 9.71036V9.71848Z" fill="#204743"/>
<path d="M68.9338 13.9024H12.0664C9.3744 13.9024 7.19208 16.0847 7.19208 18.7767V67.5202C7.19208 70.2123 9.3744 72.3946 12.0664 72.3946H68.9338C71.6259 72.3946 73.8082 70.2123 73.8082 67.5202V18.7767C73.8082 16.0847 71.6259 13.9024 68.9338 13.9024Z" fill="#204743"/>
<path d="M12.0664 14.7148H68.9338C71.176 14.7148 72.9958 16.5345 72.9958 18.7767V67.5202C72.9958 69.7624 71.176 71.5822 68.9338 71.5822H12.0664C9.82418 71.5822 8.00442 69.7624 8.00442 67.5202V18.7767C8.00442 16.5345 9.82418 14.7148 12.0664 14.7148ZM12.0664 13.09C8.93055 13.09 6.37964 15.6409 6.37964 18.7767V67.5202C6.37964 70.6561 8.93055 73.207 12.0664 73.207H68.9338C72.0696 73.207 74.6205 70.6561 74.6205 67.5202V18.7767C74.6205 15.6409 72.0696 13.09 68.9338 13.09H12.0664Z" fill="white"/>
<path d="M20.1904 21.0027C18.6224 21.0027 17.347 19.7273 17.347 18.1594V10.0354C17.347 8.46753 18.6224 7.19208 20.1904 7.19208C21.7583 7.19208 23.0337 8.46753 23.0337 10.0354V18.1594C23.0337 19.7273 21.7583 21.0027 20.1904 21.0027Z" fill="#204743"/>
<path d="M20.1903 8.00442C21.3114 8.00442 22.2213 8.9143 22.2213 10.0354V18.1593C22.2213 19.2804 21.3114 20.1903 20.1903 20.1903C19.0692 20.1903 18.1593 19.2804 18.1593 18.1593V10.0354C18.1593 8.9143 19.0692 8.00442 20.1903 8.00442ZM20.1903 6.37964C18.1756 6.37964 16.5345 8.02067 16.5345 10.0354V18.1593C16.5345 20.174 18.1756 21.8151 20.1903 21.8151C22.205 21.8151 23.8461 20.174 23.8461 18.1593V10.0354C23.8461 8.02067 22.205 6.37964 20.1903 6.37964Z" fill="white"/>
<path d="M33.7248 21.0028C32.1569 21.0028 30.8815 19.7273 30.8815 18.1594V10.0355C30.8815 8.46759 32.1569 7.19214 33.7248 7.19214C35.2928 7.19214 36.5682 8.46759 36.5682 10.0355V18.1594C36.5682 19.7273 35.2928 21.0028 33.7248 21.0028Z" fill="#204743"/>
<path d="M33.7249 8.00448C34.846 8.00448 35.7558 8.91436 35.7558 10.0355V18.1594C35.7558 19.2805 34.846 20.1904 33.7249 20.1904C32.6038 20.1904 31.6939 19.2805 31.6939 18.1594V10.0355C31.6939 8.91436 32.6038 8.00448 33.7249 8.00448ZM33.7249 6.3797C31.7101 6.3797 30.0691 8.02073 30.0691 10.0355V18.1594C30.0691 20.1741 31.7101 21.8151 33.7249 21.8151C35.7396 21.8151 37.3806 20.1741 37.3806 18.1594V10.0355C37.3806 8.02073 35.7396 6.3797 33.7249 6.3797Z" fill="white"/>
<path d="M47.2673 21.0028C45.6994 21.0028 44.424 19.7273 44.424 18.1594V10.0355C44.424 8.46759 45.6994 7.19214 47.2673 7.19214C48.8352 7.19214 50.1107 8.46759 50.1107 10.0355V18.1594C50.1107 19.7273 48.8352 21.0028 47.2673 21.0028Z" fill="#204743"/>
<path d="M47.2673 8.00448C48.3884 8.00448 49.2983 8.91436 49.2983 10.0355V18.1594C49.2983 19.2805 48.3884 20.1904 47.2673 20.1904C46.1462 20.1904 45.2364 19.2805 45.2364 18.1594V10.0355C45.2364 8.91436 46.1462 8.00448 47.2673 8.00448ZM47.2673 6.3797C45.2526 6.3797 43.6116 8.02073 43.6116 10.0355V18.1594C43.6116 20.1741 45.2526 21.8151 47.2673 21.8151C49.2821 21.8151 50.9231 20.1741 50.9231 18.1594V10.0355C50.9231 8.02073 49.2821 6.3797 47.2673 6.3797Z" fill="white"/>
<path d="M60.8099 21.0028C59.242 21.0028 57.9666 19.7273 57.9666 18.1594V10.0355C57.9666 8.46759 59.242 7.19214 60.8099 7.19214C62.3778 7.19214 63.6533 8.46759 63.6533 10.0355V18.1594C63.6533 19.7273 62.3778 21.0028 60.8099 21.0028Z" fill="#204743"/>
<path d="M60.8099 8.00448C61.931 8.00448 62.8409 8.91436 62.8409 10.0355V18.1594C62.8409 19.2805 61.931 20.1904 60.8099 20.1904C59.6888 20.1904 58.779 19.2805 58.779 18.1594V10.0355C58.779 8.91436 59.6888 8.00448 60.8099 8.00448ZM60.8099 6.3797C58.7952 6.3797 57.1542 8.02073 57.1542 10.0355V18.1594C57.1542 20.1741 58.7952 21.8151 60.8099 21.8151C62.8247 21.8151 64.4657 20.1741 64.4657 18.1594V10.0355C64.4657 8.02073 62.8247 6.3797 60.8099 6.3797Z" fill="white"/>
<path d="M62.4347 26.5838H18.5655C15.8376 26.5838 13.6262 28.7952 13.6262 31.5231V62.2397C13.6262 64.9676 15.8376 67.179 18.5655 67.179H62.4347C65.1626 67.179 67.374 64.9676 67.374 62.2397V31.5231C67.374 28.7952 65.1626 26.5838 62.4347 26.5838Z" fill="white"/>
<path d="M62.4347 27.4531C64.6769 27.4531 66.4966 29.2729 66.4966 31.5151V62.2316C66.4966 64.4738 64.6769 66.2936 62.4347 66.2936H18.5655C16.3233 66.2936 14.5035 64.4738 14.5035 62.2316V31.5151C14.5035 29.2729 16.3233 27.4531 18.5655 27.4531H62.4347ZM62.4347 25.7065H18.5655C15.3566 25.7065 12.7488 28.3143 12.7488 31.5232V62.2397C12.7488 65.4487 15.3566 68.0565 18.5655 68.0565H62.4347C65.6436 68.0565 68.2514 65.4487 68.2514 62.2397V31.5232C68.2514 28.3143 65.6436 25.7065 62.4347 25.7065Z" fill="#204743"/>
<path d="M51.4593 47.243L48.1123 49.6639C47.7792 49.9076 47.633 50.3382 47.7548 50.7282L49.0384 54.6358C49.4446 55.8869 49.014 57.211 47.9498 57.9828C46.8856 58.7627 45.4882 58.779 44.4078 57.9909L41.0607 55.5781C40.7114 55.3263 40.2564 55.3263 39.9234 55.5781L36.5763 57.9909C36.0401 58.3809 35.4308 58.5677 34.8053 58.5677C34.1798 58.5677 33.5786 58.3728 33.0343 57.9747C31.97 57.2029 31.5395 55.8787 31.9457 54.6276L33.2293 50.72C33.3511 50.322 33.2049 49.8995 32.8718 49.6558L29.5248 47.2349C28.4605 46.4631 28.0299 45.147 28.4361 43.8878C28.8423 42.6286 29.9634 41.8162 31.2958 41.8162H35.4227C35.8533 41.8162 36.2189 41.5481 36.3488 41.1419L37.6324 37.2506C38.0386 35.9914 39.1678 35.179 40.492 35.179C41.8162 35.179 42.9455 35.9914 43.3517 37.2506L44.6352 41.1582C44.7652 41.5563 45.1308 41.8162 45.5614 41.8162H49.6883C51.0206 41.8162 52.1417 42.6286 52.5479 43.8878C52.9541 45.147 52.5236 46.4631 51.4593 47.2349V47.243Z" fill="#204743"/>
</svg>
