<svg width="88" height="88" viewBox="0 0 88 88" fill="none" xmlns="http://www.w3.org/2000/svg">
<path d="M44 84C66.0914 84 84 66.0914 84 44C84 21.9086 66.0914 4 44 4C21.9086 4 4 21.9086 4 44C4 66.0914 21.9086 84 44 84Z" fill="#204743" stroke="#204743" stroke-width="8" stroke-linecap="round" stroke-linejoin="round"/>
<path d="M44 78.8355C63.2391 78.8355 78.8355 63.2391 78.8355 44C78.8355 24.7608 63.2391 9.16443 44 9.16443C24.7608 9.16443 9.16443 24.7608 9.16443 44C9.16443 63.2391 24.7608 78.8355 44 78.8355Z" fill="#204743" stroke="white" stroke-width="1.74" stroke-linecap="round" stroke-linejoin="round"/>
<path d="M30.6044 44H57.3955" stroke="white" stroke-width="1.51" stroke-linecap="round" stroke-linejoin="round"/>
<path d="M46.24 32.8356L57.3955 44L46.24 55.1645" stroke="white" stroke-width="1.51" stroke-linecap="round" stroke-linejoin="round"/>
</svg>
