<svg width="91" height="90" viewBox="0 0 91 90" fill="none" xmlns="http://www.w3.org/2000/svg">
<path d="M62.6638 72.5404V52.9155" stroke="#204743" stroke-width="6.28141" stroke-linecap="round" stroke-linejoin="round"/>
<path d="M39.629 84.8162L46.1975 72.5405H79.1301L86.1024 84.8162" stroke="#204743" stroke-width="6.28141" stroke-linecap="round" stroke-linejoin="round"/>
<path d="M62.6638 72.5404V52.9155" stroke="white" stroke-width="1.79469" stroke-linecap="round" stroke-linejoin="round"/>
<path d="M39.629 84.8162L46.1975 72.5405H79.1301L86.1024 84.8162" stroke="white" stroke-width="1.79469" stroke-linecap="round" stroke-linejoin="round"/>
<path d="M86.3178 3.66895H39.0098C37.419 3.66895 36.1294 4.95858 36.1294 6.54942V51.6769C36.1294 53.2677 37.419 54.5573 39.0098 54.5573H86.3178C87.9087 54.5573 89.1983 53.2677 89.1983 51.6769V6.54942C89.1983 4.95858 87.9087 3.66895 86.3178 3.66895Z" fill="#204743" stroke="#204743" stroke-width="2.88047" stroke-miterlimit="10"/>
<path d="M79.6866 10.8027H45.6323C44.4875 10.8027 43.5595 11.7308 43.5595 12.8756V45.3595C43.5595 46.5043 44.4875 47.4323 45.6323 47.4323H79.6866C80.8314 47.4323 81.7594 46.5043 81.7594 45.3595V12.8756C81.7594 11.7308 80.8314 10.8027 79.6866 10.8027Z" fill="white"/>
<path d="M84.7923 5.31104H40.5263C39.0396 5.31104 37.8343 6.5163 37.8343 8.00307V50.2231C37.8343 51.7099 39.0396 52.9151 40.5263 52.9151H84.7923C86.2791 52.9151 87.4843 51.7099 87.4843 50.2231V8.00307C87.4843 6.5163 86.2791 5.31104 84.7923 5.31104Z" stroke="white" stroke-width="1.79469" stroke-miterlimit="10"/>
<path d="M20.0937 20.8799C25.0942 20.8799 29.1479 16.8262 29.1479 11.8257C29.1479 6.82519 25.0942 2.77148 20.0937 2.77148C15.0932 2.77148 11.0395 6.82519 11.0395 11.8257C11.0395 16.8262 15.0932 20.8799 20.0937 20.8799Z" fill="#204743" stroke="#204743" stroke-width="5.38406" stroke-miterlimit="10"/>
<path d="M20.0937 20.5122C24.891 20.5122 28.78 16.6232 28.78 11.8259C28.78 7.02863 24.891 3.13965 20.0937 3.13965C15.2964 3.13965 11.4074 7.02863 11.4074 11.8259C11.4074 16.6232 15.2964 20.5122 20.0937 20.5122Z" stroke="white" stroke-width="1.79469" stroke-miterlimit="10"/>
<path d="M14.7456 83.1646L11.4972 59.5824C11.3177 58.2543 10.6537 57.0429 9.63969 56.1725L7.86295 54.638C6.831 53.7496 6.16697 52.5113 5.99647 51.1653L4.05821 35.8476C3.51083 31.5045 6.89382 27.6638 11.2639 27.6638H13.1752C13.4444 27.6638 13.6957 27.7805 13.8662 27.9869L18.4516 33.4876C19.2323 34.4209 20.677 34.358 21.377 33.371L25.1099 28.0497C25.2804 27.8074 25.5496 27.6638 25.8457 27.6638H29.6505C30.5388 27.6638 31.3913 27.951 32.1002 28.4804L40.8493 35.0759C41.1813 35.3272 41.648 35.3182 41.971 35.049L50.7739 27.8343C52.452 26.4614 54.9197 26.7306 56.2657 28.4266C57.6117 30.1226 57.3335 32.5903 55.6376 33.9363C52.1917 36.6732 46.6372 41.0163 43.5324 43.4392C42.1864 44.4891 40.3019 44.4801 38.9739 43.4122L33.2668 38.8717C32.7194 38.441 31.9118 38.764 31.822 39.455L25.9085 83.353C25.7022 84.8695 24.41 86.0002 22.8755 86.0002H18.0209C16.3698 86.0002 14.9699 84.7798 14.7456 83.1466V83.1646Z" fill="#204743" stroke="#204743" stroke-width="6.28141" stroke-linecap="round" stroke-linejoin="round"/>
<path d="M14.7545 83.1917L11.5061 59.5825C11.3267 58.2545 10.6626 57.0431 9.64862 56.1726L7.87188 54.6382C6.83993 53.7498 6.1759 52.5115 6.0054 51.1655L4.06714 35.8478C3.51976 31.5046 6.90274 27.664 11.2728 27.664H13.1842C13.4534 27.664 13.7046 27.7807 13.8751 27.9871L18.4605 33.4878C19.2412 34.421 20.686 34.3582 21.3859 33.3711L25.1188 28.0499C25.2893 27.8076 25.5585 27.664 25.8547 27.664H29.6594C30.5478 27.664 31.4002 27.9512 32.1091 28.4806L40.8582 35.0761C41.1903 35.3273 41.6569 35.3184 41.971 35.0492L50.5765 27.8435C52.2994 26.3988 54.8748 26.668 56.2746 28.4268C57.6476 30.1676 57.3425 32.6981 55.5926 34.0531L43.5413 43.4393C42.1953 44.4892 40.3109 44.4713 38.9828 43.4124L33.2757 38.8718C32.7283 38.4411 31.9207 38.7642 31.831 39.4551L25.9175 83.3532C25.7111 84.8697 24.4189 86.0004 22.8844 86.0004H18.0029C16.3697 86.0004 14.9788 84.7889 14.7635 83.1737L14.7545 83.1917Z" stroke="white" stroke-width="1.79469" stroke-linecap="round" stroke-linejoin="round"/>
</svg>
