<svg width="80" height="80" viewBox="0 0 80 80" fill="none" xmlns="http://www.w3.org/2000/svg">
<path d="M71.5255 20.7575L65.954 15.2749L52.0387 1.35955C51.1589 0.47984 49.986 0.0266578 48.7242 0C48.6442 0 48.5731 0 48.5109 0H23.7636C21.1778 0 19.0807 2.09708 19.0807 4.68288V16.0658C18.0411 15.5237 16.8593 15.2216 15.6064 15.2216C11.4122 15.2216 8 18.6338 8 22.8279C8 25.4493 9.33289 27.7685 11.3589 29.137C9.33289 30.5054 8 32.8246 8 35.446C8 38.0673 9.33289 40.3865 11.3589 41.755C9.33289 43.1234 8 45.4426 8 48.064C8 52.2581 11.4122 55.6703 15.6064 55.6703C16.8593 55.6703 18.0411 55.3593 19.0807 54.8262V66.209C19.0807 68.7948 21.1778 70.8919 23.7636 70.8919H34.1691V75.3082C34.1691 77.192 35.2887 78.8804 37.0126 79.6179C37.599 79.8667 38.221 80 38.8519 80C40.0782 80 41.2423 79.5291 42.1131 78.676L46.0407 74.855L49.8616 78.6405C51.1945 79.9645 53.2471 80.3554 54.9532 79.6357C56.7038 78.907 57.8412 77.2098 57.8412 75.3082V70.8919H68.2466C70.8324 70.8919 72.9295 68.7948 72.9295 66.209V24.0897C72.9295 22.8457 72.423 21.6283 71.5344 20.7486L71.5255 20.7575Z" fill="#204743"/>
<path d="M68.2466 24.0898V66.1824H23.7636V4.67401H48.502L68.2466 24.0898Z" stroke="white" stroke-width="2" stroke-linecap="round" stroke-linejoin="round"/>
<path d="M53.1582 48.7482V75.2816L46.0673 68.2528L38.843 75.2816V48.7482H53.1582Z" fill="#204743" stroke="white" stroke-width="2" stroke-linecap="round" stroke-linejoin="round"/>
<path d="M46.0051 58.9493C51.3936 58.9493 55.7618 54.581 55.7618 49.1925C55.7618 43.804 51.3936 39.4358 46.0051 39.4358C40.6166 39.4358 36.2484 43.804 36.2484 49.1925C36.2484 54.581 40.6166 58.9493 46.0051 58.9493Z" fill="white" stroke="#204743" stroke-width="2" stroke-linecap="round" stroke-linejoin="round"/>
<path d="M15.5975 25.9114C17.3053 25.9114 18.6898 24.5269 18.6898 22.8191C18.6898 21.1112 17.3053 19.7268 15.5975 19.7268C13.8897 19.7268 12.5052 21.1112 12.5052 22.8191C12.5052 24.5269 13.8897 25.9114 15.5975 25.9114Z" stroke="white" stroke-width="2" stroke-linecap="round" stroke-linejoin="round"/>
<path d="M15.5975 38.5205C17.3053 38.5205 18.6898 37.136 18.6898 35.4282C18.6898 33.7204 17.3053 32.3359 15.5975 32.3359C13.8897 32.3359 12.5052 33.7204 12.5052 35.4282C12.5052 37.136 13.8897 38.5205 15.5975 38.5205Z" stroke="white" stroke-width="2" stroke-linecap="round" stroke-linejoin="round"/>
<path d="M15.5975 51.1296C17.3053 51.1296 18.6898 49.7452 18.6898 48.0373C18.6898 46.3295 17.3053 44.945 15.5975 44.945C13.8897 44.945 12.5052 46.3295 12.5052 48.0373C12.5052 49.7452 13.8897 51.1296 15.5975 51.1296Z" stroke="white" stroke-width="2" stroke-linecap="round" stroke-linejoin="round"/>
<path d="M29.0063 30.0255H62.5685" stroke="white" stroke-width="2" stroke-linecap="round" stroke-linejoin="round"/>
<path d="M29.0063 35.2505H62.5685" stroke="white" stroke-width="2" stroke-linecap="round" stroke-linejoin="round"/>
<path d="M29.0063 15.7458H42.3974" stroke="white" stroke-width="2" stroke-linecap="round" stroke-linejoin="round"/>
<path d="M68.2466 24.1875H48.7331V4.67401L68.2466 24.1875Z" fill="white" stroke="white" stroke-width="2" stroke-linecap="round" stroke-linejoin="round"/>
</svg>
