<svg width="80" height="80" viewBox="0 0 80 80" fill="none" xmlns="http://www.w3.org/2000/svg">
<path d="M79.2383 34.6242L77.0784 30.3762C75.8784 28.0082 73.4784 26.5363 70.8224 26.5363H69.5745C69.6065 26.2883 69.6225 26.0243 69.6225 25.7683C69.6225 24.7843 69.8625 23.8003 70.3265 22.9283L71.0064 21.6323C72.2864 19.2003 72.6224 16.4004 71.9744 13.7284C71.1664 10.4244 68.9345 7.69648 65.8545 6.24849L65.4705 6.0645C63.1025 4.94451 60.3266 4.69651 57.7826 5.3765L55.9826 5.8565C53.0466 6.64049 50.5267 8.61647 49.0547 11.2724L47.9027 13.3524C47.1187 14.7684 47.0627 16.4884 47.7507 17.9444C48.1347 18.7684 48.7347 19.4563 49.4627 19.9603C49.2547 20.6163 49.1587 21.3043 49.1907 22.0163L49.2147 22.6803C49.2147 22.7923 49.2307 22.9123 49.2387 23.0243C49.3027 23.8723 49.2227 24.3283 49.1987 24.4163C49.0467 25.1443 49.0067 25.8803 49.0867 26.5923C46.5347 26.8963 44.3507 28.5602 43.3908 31.0002L40.6388 38.0081C40.5748 38.0081 40.5188 38.0081 40.4548 38.0081H5.51919C3.79921 38.0081 2.21522 38.7841 1.15924 40.1441C0.103248 41.4961 -0.248748 43.2321 0.175247 44.8961L7.22317 72.4477C7.67916 74.2237 9.27114 75.4637 11.1031 75.4637H56.7506C56.9586 75.4637 57.1426 75.4477 57.3026 75.4237L71.7824 75.3837C74.6064 75.3757 76.9024 73.0717 76.9024 70.2478V52.072L79.8223 39.4001C80.1903 37.8001 79.9823 36.1042 79.2383 34.6402V34.6242Z" fill="#204743"/>
<path d="M49.9187 30.5443H70.8144C71.9504 30.5443 72.9824 31.1842 73.5024 32.1922L75.6624 36.4402C75.9824 37.0722 76.0704 37.7922 75.9104 38.4802L72.8864 51.592V70.2238C72.8864 70.8478 72.3824 71.3518 71.7584 71.3518L42.5827 71.4398L45.1187 58.4879L47.0387 49.384L41.1667 47.6001L47.1107 32.4482C47.5667 31.2962 48.6787 30.5363 49.9187 30.5363V30.5443Z" fill="#204743" stroke="white" stroke-width="1.96" stroke-linecap="round" stroke-linejoin="round"/>
<path d="M32.0549 59.9439L37.6548 56.7839L41.1668 47.608L47.0467 49.392L44.5107 61.4079L31.7109 69.4718L32.0549 59.9439Z" fill="white"/>
<path d="M42.2148 70.4718L39.9268 65.0958L61.0146 55.2799C61.2706 55.1439 61.4626 54.9119 61.5506 54.6399L63.7025 48.192L72.9984 51.288L69.6225 61.4239C69.5345 61.6959 69.3425 61.9279 69.0865 62.0639L50.4387 70.5438L42.2148 70.4638V70.4718Z" fill="white"/>
<path d="M47.0468 49.392L48.6227 41.3441" stroke="white" stroke-width="1.96" stroke-linecap="round" stroke-linejoin="round"/>
<path d="M60.2066 25.0803C57.3106 25.4643 54.6546 23.4243 54.2706 20.5283L53.6946 16.1604C53.3106 13.2644 55.3506 12.7444 58.2466 12.3684V11.1844C61.1425 10.8004 63.7985 11.8804 64.1825 14.7764L64.7585 19.1444C65.1425 22.0403 63.1025 24.6963 60.2066 25.0803Z" fill="white"/>
<path d="M59.3826 30.1442C58.7186 30.1442 58.0706 29.9682 57.5026 29.6322L55.8226 28.6403L55.3026 28.5443C54.9026 28.4643 54.5266 28.3123 54.1986 28.0803C53.3026 27.4563 52.8786 26.3443 53.1106 25.2563C53.1986 24.8403 53.3266 23.9443 53.2146 22.6163C53.2146 22.5843 53.2146 22.5603 53.2146 22.5363L53.1906 21.8803C53.1506 20.7603 53.9906 19.7844 55.1106 19.6644L59.8306 19.1524C60.3586 19.0964 60.8385 18.8324 61.1665 18.4164C61.5025 18.0004 61.6465 17.4804 61.5825 16.9444L61.3185 14.7444C59.5186 16.0804 57.3026 16.8404 55.0626 16.8884C55.0626 16.8884 52.7826 16.9364 52.7746 16.9364C52.7106 16.9364 52.6146 16.9284 52.5586 16.9124L52.1186 16.8324C51.7906 16.7684 51.5107 16.5524 51.3667 16.2564C51.2227 15.9524 51.2387 15.6004 51.3987 15.3124L52.5506 13.2324C53.4946 11.5204 55.1186 10.2565 57.0066 9.75247L58.8066 9.27247C59.4146 9.11247 60.0466 9.02448 60.6705 9.02448C61.7265 9.02448 62.7905 9.26447 63.7425 9.71247L64.1265 9.89647C66.1105 10.8245 67.5425 12.5844 68.0625 14.7044C68.4865 16.4164 68.2625 18.2244 67.4385 19.7844L66.7585 21.0803C65.9985 22.5283 65.5985 24.1523 65.5985 25.7843C65.5985 27.0563 64.5665 28.0883 63.2945 28.0883C63.0545 28.0883 62.8145 28.1923 62.6465 28.3683L62.0785 28.9762C61.4065 29.6962 60.4625 30.1202 59.4786 30.1522H59.3746L59.3826 30.1442Z" fill="#204743"/>
<path d="M60.6625 9.79247C61.6065 9.79247 62.5425 10.0005 63.4065 10.4085L63.7905 10.5925C65.5505 11.4165 66.8385 12.9924 67.3025 14.8804C67.6785 16.4084 67.4785 18.0164 66.7505 19.4084L66.0705 20.7043C65.2465 22.2643 64.8225 24.0083 64.8225 25.7763C64.8225 26.6163 64.1425 27.2963 63.3025 27.2963C62.8385 27.2963 62.3985 27.4883 62.0865 27.8243L61.5185 28.4323C60.9905 29.0003 60.2465 29.3362 59.4706 29.3602C59.4706 29.3602 59.4146 29.3602 59.3906 29.3602C58.8706 29.3602 58.3586 29.2242 57.9106 28.9523L56.1106 27.8883L55.4546 27.7683C55.1586 27.7123 54.8866 27.5923 54.6546 27.4323C54.0146 26.9843 53.7186 26.1763 53.8866 25.4083C53.9986 24.8963 54.1266 23.9203 54.0066 22.5043V22.4883L53.9826 21.8323C53.9586 21.1123 54.4866 20.4963 55.2066 20.4243L59.9266 19.9124C61.4545 19.7444 62.5585 18.3604 62.3745 16.8324L62.0785 14.3764C62.0465 14.0804 61.8065 13.8484 61.5185 13.8164C61.4945 13.8164 61.4705 13.8164 61.4465 13.8164C61.3425 13.8164 61.2385 13.8404 61.1425 13.8964L61.0065 14.0004C59.3026 15.3124 57.2146 16.0484 55.0626 16.0964L52.7906 16.1444C52.7746 16.1444 52.7586 16.1444 52.7426 16.1444L52.2866 16.0564C52.1106 16.0244 52.0226 15.8324 52.1106 15.6804L53.2626 13.6004C54.1106 12.0724 55.5426 10.9445 57.2306 10.4965L59.0306 10.0165C59.5746 9.87247 60.1346 9.80047 60.6945 9.80047M60.6625 8.22449C59.9666 8.22449 59.2706 8.31249 58.5906 8.49648L56.7906 8.97648C54.7026 9.53647 52.9026 10.9445 51.8546 12.8404L50.7027 14.9204C50.4227 15.4324 50.3987 16.0484 50.6467 16.5844C50.8947 17.1124 51.3906 17.4964 51.9586 17.6004L52.4146 17.6884C52.5266 17.7124 52.6386 17.7204 52.7506 17.7204C52.7586 17.7204 52.7826 17.7204 52.7906 17.7204L55.0626 17.6724C57.0306 17.6324 58.9746 17.0804 60.6705 16.0964L60.7825 17.0404C60.8225 17.3604 60.7345 17.6724 60.5345 17.9284C60.3345 18.1844 60.0466 18.3364 59.7266 18.3764L55.0066 18.8884C53.4786 19.0564 52.3346 20.3843 52.3906 21.9123L52.4146 22.5683C52.4146 22.6163 52.4146 22.6643 52.4306 22.7203C52.5346 23.9363 52.4146 24.7363 52.3346 25.1043C52.0386 26.5043 52.5906 27.9363 53.7426 28.7363C54.1666 29.0322 54.6386 29.2322 55.1506 29.3282L55.5346 29.4002L57.0946 30.3202C57.7826 30.7282 58.5746 30.9442 59.3746 30.9442H59.5026C60.6945 30.9122 61.8385 30.3922 62.6545 29.5202L63.2225 28.9123C63.2225 28.9123 63.2705 28.8803 63.2945 28.8803C64.9985 28.8803 66.3825 27.4963 66.3825 25.7923C66.3825 24.2883 66.7505 22.7843 67.4545 21.4483L68.1345 20.1524C69.0464 18.4244 69.2864 16.4164 68.8224 14.5204C68.2465 12.1604 66.6545 10.2165 64.4545 9.18448L64.0705 9.00048C63.0145 8.50448 61.8305 8.24049 60.6625 8.24049V8.22449Z" fill="white"/>
<path d="M64.3986 17.1204C64.8626 17.1204 65.2386 17.4964 65.2386 17.9604V18.6643C65.2386 19.1283 64.8626 19.5043 64.3986 19.5043V17.1204Z" fill="white"/>
<path d="M56.8066 22.9043C56.2146 22.9843 55.6146 22.6883 55.5986 22.3283C55.5826 21.9763 56.1666 21.5364 56.6866 21.4964C57.1906 21.4564 57.7826 21.7604 57.8226 22.0803C57.8706 22.4163 57.3506 22.8403 56.8066 22.9123V22.9043Z" fill="white"/>
<path d="M47.6947 69.5278L56.7506 69.7438V71.4478H48.0867L47.6947 69.5278Z" fill="#204743" stroke="white" stroke-width="1.96" stroke-linecap="round" stroke-linejoin="round"/>
<path d="M48.0867 71.4477H11.1031L4.05519 43.888C3.81519 42.936 4.53518 42.0081 5.51917 42.0081H40.4548C41.1588 42.0081 41.7748 42.5041 41.9268 43.192L47.6947 69.5197L48.0867 71.4397V71.4477Z" fill="white" stroke="#204743" stroke-width="1.96" stroke-linejoin="round"/>
<path d="M29.4389 56.7199C29.4389 58.5439 27.9669 60.0239 26.143 60.0319C24.319 60.0319 22.839 58.5599 22.831 56.7359C22.831 54.9119 24.303 53.432 26.127 53.424C27.9509 53.424 29.4229 54.8959 29.4309 56.7199H29.4389Z" fill="#204743" stroke="white" stroke-width="1.96" stroke-linecap="round" stroke-linejoin="round"/>
</svg>
