<svg width="80" height="80" viewBox="0 0 80 80" fill="none" xmlns="http://www.w3.org/2000/svg">
<path d="M79.9828 63.0073L75.3269 28.0718C75.5589 27.9198 75.7749 27.7278 75.9589 27.5118C76.5508 26.8318 76.8068 25.9278 76.6788 25.0398L75.4469 16.64C75.2229 15.136 73.9109 14 72.3909 14H10.4318C9.52786 14 8.67987 14.392 8.09588 15.072C7.50389 15.752 7.24789 16.656 7.37589 17.5439L8.54387 25.5038H5.25592C2.35996 25.5038 0 27.8638 0 30.7597C0 33.6557 2.35996 36.0157 5.25592 36.0157H11.4718L11.9838 39.8796H10.1998C7.30389 39.8796 4.94393 42.2396 4.94393 45.1355C4.94393 48.0315 7.30389 50.3914 10.1998 50.3914H13.3838L13.6318 52.2394H7.74388C4.84793 52.2394 2.48796 54.5994 2.48796 57.4953C2.48796 60.3913 4.84793 62.7513 7.74388 62.7513H15.0318L15.1758 63.8152C15.3838 65.3432 16.6957 66.4952 18.2397 66.4952H76.9108C77.7988 66.4952 78.6468 66.1112 79.2388 65.4392C79.8228 64.7672 80.0868 63.8792 79.9748 62.9993L79.9828 63.0073Z" fill="#204743"/>
<path d="M18.2477 63.4152H30.5995L24.4236 17.0959H12.0718L18.2477 63.4152Z" fill="#204743" stroke="white" stroke-width="2" stroke-linecap="round" stroke-linejoin="round"/>
<path d="M28.6476 47.3035H10.2158C9.01587 47.3035 8.04788 46.3355 8.04788 45.1356C8.04788 43.9356 9.01587 42.9676 10.2158 42.9676H28.6476C29.8476 42.9676 30.8155 43.9356 30.8155 45.1356C30.8155 46.3355 29.8476 47.3035 28.6476 47.3035Z" fill="white" stroke="#204743" stroke-width="2" stroke-linecap="round" stroke-linejoin="round"/>
<path d="M76.9188 63.4152H30.5996L24.4236 17.0959H70.7429L76.9188 63.4152Z" fill="white" stroke="white" stroke-width="2" stroke-linecap="round" stroke-linejoin="round"/>
<path d="M73.6149 25.4958H25.4957L24.2637 17.0959H72.3829L73.6149 25.4958Z" fill="#204743" stroke="white" stroke-width="2" stroke-linecap="round" stroke-linejoin="round"/>
<path d="M11.6718 25.4958H25.4956L24.2636 17.0959H10.4319L11.6718 25.4958Z" fill="#204743" stroke="white" stroke-width="2" stroke-linecap="round" stroke-linejoin="round"/>
<path d="M60.1271 44.5435L56.7512 45.4475L53.4872 43.5676L56.7512 41.6876L60.1271 42.5916L61.0311 39.2156L58.6391 38.5756L59.2791 36.1837L55.9032 35.2797L54.9992 38.6556L51.7352 40.5356V36.7677L54.2072 34.2957L51.7352 31.8237L49.9833 33.5757L48.2313 31.8237L45.7593 34.2957L48.2313 36.7677V40.5356L44.9673 38.6556L44.0633 35.2797L40.6874 36.1837L41.3274 38.5756L38.9354 39.2156L39.8394 42.5916L43.2154 41.6876L46.4793 43.5676L43.2154 45.4475L39.8394 44.5435L38.9354 47.9195L41.3274 48.5595L40.6874 50.9514L44.0633 51.8554L44.9673 48.4795L48.2313 46.5995V50.3675L45.7593 52.8394L48.2313 55.3114L49.9833 53.5594L51.7352 55.3114L54.2072 52.8394L51.7352 50.3675V46.5995L54.9992 48.4795L55.9032 51.8554L59.2791 50.9514L58.6391 48.5595L61.0311 47.9195L60.1271 44.5435Z" fill="white" stroke="#204743" stroke-width="2" stroke-linecap="round" stroke-linejoin="round"/>
<path d="M20.1277 55.3354C21.3277 55.3354 22.2956 56.3034 22.2956 57.5034C22.2956 58.7033 21.3277 59.6713 20.1277 59.6713H7.75186C6.55188 59.6713 5.58389 58.7033 5.58389 57.5034C5.58389 56.3034 6.55188 55.3354 7.75186 55.3354H20.1277Z" fill="#204743" stroke="white" stroke-width="2" stroke-linecap="round" stroke-linejoin="round"/>
<path d="M17.8477 28.5918C19.0477 28.5918 20.0157 29.5598 20.0157 30.7598C20.0157 31.9597 19.0477 32.9277 17.8477 32.9277H5.26391C4.06393 32.9277 3.09595 31.9597 3.09595 30.7598C3.09595 29.5598 4.06393 28.5918 5.26391 28.5918H17.8477Z" fill="#204743" stroke="white" stroke-width="2" stroke-linecap="round" stroke-linejoin="round"/>
</svg>
