<svg width="80" height="80" viewBox="0 0 80 80" fill="none" xmlns="http://www.w3.org/2000/svg">
<path d="M76.9744 18.4233C74.6466 14.9516 70.8229 12.8558 66.8792 11.6398C64.8154 10.8319 63.1995 9.12804 60.9117 9.00005C55.4001 8.98405 50.4005 12.6478 47.4887 17.1034C46.1768 19.1913 44.4089 18.1673 42.8171 16.8954C37.1855 12.5118 29.6741 11.5999 22.6986 12.7118C14.1233 14.5516 6.14787 21.3511 4.01204 30.0544C2.74814 33.9501 5.33994 37.9898 4.70799 41.9175C3.89205 45.0613 1.17226 47.4051 0.564305 50.6768C-1.45954 57.8843 2.11618 66.0996 8.79567 69.4674C13.0273 71.7792 18.3469 71.7952 22.8266 70.0833C25.3224 69.2274 27.9382 69.4674 30.546 69.1874C39.0493 68.2595 45.3769 61.908 47.8807 54.0526C48.9526 51.6128 50.3605 49.3169 50.7844 46.5732C50.9924 45.4132 51.0884 44.0294 52.0083 43.2454C53.6802 41.7415 56.816 43.1014 58.8078 43.7254C61.6636 44.6053 64.7114 44.6773 67.6151 43.9414C78.6063 41.3336 83.6379 27.7026 77.0624 18.5433L76.9744 18.4153V18.4233Z" fill="#204743"/>
<path d="M16.419 67.2838C23.311 67.2838 28.898 61.6967 28.898 54.8047C28.898 47.9127 23.311 42.3257 16.419 42.3257C9.527 42.3257 3.93994 47.9127 3.93994 54.8047C3.93994 61.6967 9.527 67.2838 16.419 67.2838Z" fill="#204743" stroke="white" stroke-width="1.86" stroke-miterlimit="10"/>
<path d="M45.3288 42.0372C45.0008 41.9492 44.6808 41.9332 44.3688 41.9812V35.4457C44.3688 26.4704 37.0894 19.1909 28.1141 19.1909C19.1388 19.1909 11.8593 26.4704 11.8593 35.4457V42.2291C11.5474 42.1891 11.2194 42.2051 10.8994 42.2851C9.57152 42.6371 8.77958 43.997 9.12355 45.3249L10.0115 48.6926C10.2595 49.6446 11.0354 50.3165 11.9393 50.4925C12.6993 58.7639 19.6507 65.2434 28.1141 65.2434C36.5774 65.2434 43.6569 58.6359 44.3048 50.2445C45.2008 50.0605 45.9687 49.3966 46.2167 48.4447L47.1046 45.0769C47.4566 43.749 46.6567 42.3891 45.3288 42.0372Z" fill="white" stroke="white" stroke-width="1.99" stroke-miterlimit="10"/>
<path d="M27.9061 54.1885C29.5059 54.1005 31.4578 55.2204 31.5538 56.2923C31.6498 57.4122 29.9299 58.5401 28.0981 58.5401C26.4182 58.5401 24.6743 57.4602 24.6743 56.4123C24.6743 55.4284 26.3542 54.2765 27.9061 54.1885Z" fill="#204743"/>
<path d="M27.8423 30.998C27.8663 31.126 27.9863 31.222 28.1143 31.222C28.2423 31.222 28.3622 31.126 28.3862 30.998" fill="#204743"/>
<path d="M27.8423 30.998C27.8663 31.126 27.9863 31.222 28.1143 31.222C28.2423 31.222 28.3622 31.126 28.3862 30.998" stroke="white" stroke-width="1.99" stroke-miterlimit="10"/>
<path d="M18.627 30.8702C18.7229 30.9502 18.8589 30.9582 18.9629 30.8942C19.0669 30.8302 19.1149 30.6942 19.0749 30.5742" fill="#204743"/>
<path d="M18.627 30.8702C18.7229 30.9502 18.8589 30.9582 18.9629 30.8942C19.0669 30.8302 19.1149 30.6942 19.0749 30.5742" stroke="white" stroke-width="1.99" stroke-miterlimit="10"/>
<path d="M37.1534 30.5742C37.1134 30.6942 37.1614 30.8222 37.2654 30.8942C37.3694 30.9662 37.5054 30.9582 37.6014 30.8702" fill="#204743"/>
<path d="M37.1534 30.5742C37.1134 30.6942 37.1614 30.8222 37.2654 30.8942C37.3694 30.9662 37.5054 30.9582 37.6014 30.8702" stroke="white" stroke-width="1.99" stroke-miterlimit="10"/>
<path d="M11.1075 43.0532C11.2515 43.0132 11.3955 42.9972 11.5394 42.9972C12.1234 42.9972 12.6514 43.2931 12.9553 43.7651C18.0829 42.6612 21.5787 41.0213 23.9385 39.1895C20.4988 38.1255 18.4189 36.0457 15.5951 35.8537C12.8513 35.6617 10.3875 37.2456 8.92365 36.3817C8.70767 40.8213 9.5556 44.3811 9.5556 44.3811C9.67559 44.3651 9.77958 44.3411 9.89957 44.3251C10.0276 43.7251 10.4835 43.2131 11.1155 43.0452L11.1075 43.0532Z" fill="#204743" stroke="white" stroke-width="1.99" stroke-miterlimit="10"/>
<path d="M43.0648 44.013C43.2568 43.2691 43.9287 42.7491 44.6967 42.7491C44.8407 42.7491 44.9847 42.7651 45.1287 42.8051C45.5686 42.9171 45.9286 43.1971 46.1606 43.5891C46.2726 43.7811 46.3446 43.989 46.3766 44.197C47.2805 41.7812 47.7205 39.0054 47.5765 36.1976C46.1526 37.4535 43.5608 35.6537 40.649 35.8617C37.7692 36.0617 35.6574 38.2215 32.0977 39.2614C34.3455 41.4772 37.7852 43.3571 43.0248 44.205L43.0728 44.021L43.0648 44.013Z" fill="#204743" stroke="white" stroke-width="1.99" stroke-miterlimit="10"/>
<path d="M43.785 22.9429C43.729 22.8789 39.7133 19.5831 39.6173 19.5271C37.1935 18.0312 34.5057 17.0073 31.6979 16.5034C31.5459 16.4794 24.6825 16.4794 24.5385 16.5034C21.7307 17.0073 19.0509 18.0392 16.6191 19.5271C16.5231 19.5831 12.5074 22.8789 12.4514 22.9429C8.73168 26.8786 7.26779 31.5102 7.69976 34.014C8.5157 38.7656 11.7874 35.5979 15.5951 35.8619C19.4109 36.1258 21.8587 39.8216 28.1222 39.8216C34.3857 39.8216 36.8335 36.1258 40.6492 35.8619C44.4649 35.5979 47.7287 38.7656 48.5446 34.014C48.9766 31.5102 47.5127 26.8786 43.793 22.9429H43.785Z" fill="white" stroke="white" stroke-width="1.99" stroke-miterlimit="10" stroke-linecap="round"/>
<path d="M43.3368 22.9909C41.7209 25.7667 39.5371 29.1344 37.6013 30.8703C37.5053 30.9503 37.3693 30.9583 37.2653 30.8943C37.1613 30.8303 37.1133 30.6943 37.1533 30.5743C38.2892 27.0546 39.1531 23.4548 39.7451 19.7991C39.7611 19.6871 39.7051 19.5831 39.6091 19.5191C37.1853 18.0232 34.4975 16.9993 31.6897 16.4954C31.5377 16.4714 31.3937 16.5674 31.3617 16.7193L28.386 30.9982C28.362 31.1262 28.242 31.2222 28.114 31.2222C27.986 31.2222 27.866 31.1262 27.842 30.9982L24.8662 16.7193C24.8342 16.5674 24.6903 16.4714 24.5383 16.4954C21.7305 16.9993 19.0507 18.0312 16.6189 19.5191C16.5229 19.5751 16.4749 19.6871 16.4829 19.7991C17.0748 23.4468 17.9388 27.0466 19.0747 30.5743C19.1147 30.6943 19.0667 30.8223 18.9627 30.8943C18.8587 30.9663 18.7227 30.9583 18.6267 30.8703C16.6909 29.1264 14.515 25.7587 12.8992 22.9909C12.8512 22.9109 12.7792 22.8629 12.6912 22.8549C12.6032 22.8469 12.5152 22.8789 12.4592 22.9429C8.73949 26.8786 7.2756 31.5102 7.70757 34.014C8.52351 38.7656 11.7953 35.5979 15.603 35.8619C19.4187 36.1259 21.8665 39.8216 28.13 39.8216C34.3935 39.8216 36.8413 36.1259 40.657 35.8619C44.4727 35.5979 47.7365 38.7656 48.5524 34.014C48.9844 31.5102 47.5205 26.8786 43.8008 22.9429C43.7448 22.8789 43.6568 22.8469 43.5688 22.8549C43.4808 22.8629 43.4008 22.9109 43.3608 22.9909H43.3368Z" fill="#204743" stroke="white" stroke-width="1.99" stroke-miterlimit="10" stroke-linecap="round"/>
<path d="M51.8962 32.7501C51.0563 30.6863 50.7523 28.3745 51.1443 26.0066C52.2482 19.2792 58.6877 14.6075 65.4312 15.6394C72.1746 16.6714 77.2143 23.3828 75.8384 30.4623C74.6545 36.5258 69.1029 40.8775 62.9354 40.5735C60.3356 40.4455 57.9917 39.5496 56.0799 38.1337C55.9999 38.0777 55.9119 38.0537 55.8159 38.0617L50.4083 38.8056C50.1363 38.8456 49.9204 38.5817 50.0163 38.3177L51.9122 33.0061C51.9442 32.9261 51.9362 32.8301 51.9122 32.7501H51.8962Z" fill="#204743" stroke="white" stroke-width="1.86" stroke-miterlimit="10"/>
<path d="M50.2964 20.1274C49.8484 20.9834 49.4805 21.8953 49.2085 22.8552" stroke="white" stroke-width="1.99" stroke-miterlimit="10" stroke-linecap="round"/>
<path d="M61.2235 12.8638C57.3118 13.2157 53.7201 15.2316 51.3843 18.3913" stroke="white" stroke-width="1.99" stroke-miterlimit="10" stroke-linecap="round"/>
<path d="M70.4946 25.1267L66.5749 21.207C66.439 21.071 66.255 20.999 66.063 20.999H56.5997C56.3997 20.999 56.2397 21.159 56.2397 21.359V29.3184C56.2397 29.5184 56.3917 29.6784 56.5917 29.6944H56.5997C59.5115 29.8783 61.8313 32.1982 62.0153 35.1099C62.0313 35.3099 62.1913 35.4619 62.3913 35.4619H70.3507C70.5506 35.4619 70.7106 35.3019 70.7106 35.1019V25.6387C70.7106 25.4467 70.6306 25.2627 70.5026 25.1267H70.4946ZM66.367 31.6382C66.367 31.8382 66.207 31.9982 66.007 31.9982C65.847 31.9982 65.719 31.9022 65.671 31.7582C64.6471 29.1504 62.5673 27.0706 59.9515 26.0386C59.8155 25.9826 59.7195 25.8546 59.7195 25.7027C59.7195 25.5027 59.8795 25.3427 60.0794 25.3427H66.007C66.207 25.3427 66.367 25.5027 66.367 25.7027V31.6382Z" fill="white"/>
</svg>
