<svg width="80" height="80" viewBox="0 0 80 80" fill="none" xmlns="http://www.w3.org/2000/svg">
<path d="M76.9744 18.4233C74.6466 14.9516 70.8229 12.8558 66.8792 11.6398C64.8154 10.8319 63.1995 9.12804 60.9117 9.00005C55.4001 8.98405 50.4005 12.6478 47.4887 17.1034C46.1768 19.1913 44.4089 18.1673 42.8171 16.8954C37.1855 12.5118 29.6741 11.5999 22.6986 12.7118C14.1233 14.5516 6.14787 21.3511 4.01204 30.0544C2.74814 33.9501 5.33994 37.9898 4.70799 41.9175C3.89205 45.0613 1.17226 47.4051 0.564305 50.6768C-1.45954 57.8843 2.11618 66.0996 8.79567 69.4674C13.0273 71.7792 18.3469 71.7952 22.8266 70.0833C25.3224 69.2274 27.9382 69.4674 30.546 69.1874C39.0493 68.2595 45.3769 61.908 47.8807 54.0526C48.9526 51.6128 50.3605 49.3169 50.7844 46.5732C50.9924 45.4132 51.0884 44.0294 52.0083 43.2454C53.6802 41.7415 56.816 43.1014 58.8078 43.7254C61.6636 44.6053 64.7114 44.6773 67.6151 43.9414C78.6063 41.3336 83.6379 27.7026 77.0624 18.5433L76.9744 18.4153V18.4233Z" fill="#204743"/>
<path d="M16.419 67.2835C23.311 67.2835 28.8981 61.6965 28.8981 54.8045C28.8981 47.9125 23.311 42.3255 16.419 42.3255C9.52706 42.3255 3.94 47.9125 3.94 54.8045C3.94 61.6965 9.52706 67.2835 16.419 67.2835Z" fill="#204743" stroke="white" stroke-width="1.86" stroke-miterlimit="10"/>
<path d="M45.3288 42.0375C45.0008 41.9495 44.6809 41.9335 44.3689 41.9815V35.446C44.3689 26.4707 37.0895 19.1913 28.1141 19.1913C19.1388 19.1913 11.8594 26.4707 11.8594 35.446V42.2295C11.5474 42.1895 11.2195 42.2055 10.8995 42.2855C9.57158 42.6375 8.77964 43.9974 9.12361 45.3253L10.0115 48.693C10.2595 49.6449 11.0355 50.3169 11.9394 50.4929C12.6993 58.7642 19.6508 65.2437 28.1141 65.2437C36.5775 65.2437 43.657 58.6362 44.3049 50.2449C45.2008 50.0609 45.9688 49.397 46.2168 48.445L47.1047 45.0773C47.4567 43.7494 46.6567 42.3895 45.3288 42.0375Z" fill="white" stroke="white" stroke-width="1.99" stroke-miterlimit="10"/>
<path d="M27.9062 54.1886C29.5061 54.1006 31.4579 55.2205 31.5539 56.2924C31.6499 57.4123 29.93 58.5402 28.0982 58.5402C26.4183 58.5402 24.6744 57.4603 24.6744 56.4124C24.6744 55.4285 26.3543 54.2766 27.9062 54.1886Z" fill="#204743"/>
<path d="M27.8422 30.9984C27.8662 31.1263 27.9862 31.2223 28.1141 31.2223C28.2421 31.2223 28.3621 31.1263 28.3861 30.9984" fill="#204743"/>
<path d="M27.8422 30.9984C27.8662 31.1263 27.9862 31.2223 28.1141 31.2223C28.2421 31.2223 28.3621 31.1263 28.3861 30.9984" stroke="white" stroke-width="1.99" stroke-miterlimit="10"/>
<path d="M18.6269 30.8704C18.7229 30.9504 18.8589 30.9584 18.9629 30.8944C19.0669 30.8304 19.1149 30.6944 19.0749 30.5744" fill="#204743"/>
<path d="M18.6269 30.8704C18.7229 30.9504 18.8589 30.9584 18.9629 30.8944C19.0669 30.8304 19.1149 30.6944 19.0749 30.5744" stroke="white" stroke-width="1.99" stroke-miterlimit="10"/>
<path d="M37.1534 30.5744C37.1134 30.6944 37.1614 30.8224 37.2654 30.8944C37.3694 30.9664 37.5054 30.9584 37.6014 30.8704" fill="#204743"/>
<path d="M37.1534 30.5744C37.1134 30.6944 37.1614 30.8224 37.2654 30.8944C37.3694 30.9664 37.5054 30.9584 37.6014 30.8704" stroke="white" stroke-width="1.99" stroke-miterlimit="10"/>
<path d="M11.1155 43.0454C11.2595 43.0054 11.3955 42.9974 11.5394 42.9974C12.1234 42.9974 12.6514 43.2934 12.9553 43.7654C18.0829 42.6615 21.5787 41.0216 23.9385 39.1897C20.4988 38.1258 18.4189 36.046 15.5951 35.854C12.8513 35.662 10.3875 37.2459 8.92365 36.3819C8.70767 40.8216 9.5556 44.3813 9.5556 44.3813C9.67559 44.3653 9.77958 44.3413 9.89957 44.3253C10.0276 43.7254 10.4835 43.2134 11.1155 43.0454Z" fill="#204743" stroke="white" stroke-width="2" stroke-miterlimit="10"/>
<path d="M43.065 44.0134C43.257 43.2694 43.9289 42.7495 44.6969 42.7495C44.8409 42.7495 44.9848 42.7655 45.1288 42.8055C45.5688 42.9175 45.9288 43.1974 46.1608 43.5894C46.2727 43.7814 46.3447 43.9894 46.3767 44.1974C47.2807 41.7815 47.7206 39.0058 47.5766 36.198C46.1528 37.4539 43.561 35.654 40.6492 35.862C37.7694 36.062 35.6576 38.2218 32.0978 39.2617C34.3457 41.4776 37.7854 43.3574 43.025 44.2054L43.073 44.0214L43.065 44.0134Z" fill="#204743" stroke="white" stroke-width="1.99" stroke-miterlimit="10"/>
<path d="M43.785 22.943C43.729 22.879 39.7133 19.5832 39.6173 19.5272C37.1935 18.0314 34.5057 17.0074 31.6979 16.5035C31.5459 16.4795 24.6825 16.4795 24.5385 16.5035C21.7307 17.0074 19.0509 18.0394 16.6191 19.5272C16.5231 19.5832 12.5074 22.879 12.4514 22.943C8.73168 26.8787 7.26779 31.5103 7.69976 34.0141C8.5157 38.7658 11.7874 35.598 15.5951 35.862C19.4109 36.126 21.8587 39.8217 28.1222 39.8217C34.3857 39.8217 36.8335 36.126 40.6492 35.862C44.4649 35.598 47.7287 38.7658 48.5446 34.0141C48.9766 31.5103 47.5127 26.8787 43.793 22.943H43.785Z" fill="white" stroke="white" stroke-width="1.99" stroke-miterlimit="10" stroke-linecap="round"/>
<path d="M43.337 22.991C41.7211 25.7667 39.5373 29.1345 37.6014 30.8703C37.5055 30.9503 37.3695 30.9583 37.2655 30.8943C37.1615 30.8304 37.1135 30.6944 37.1535 30.5744C38.2894 27.0546 39.1533 23.4549 39.7453 19.7992C39.7613 19.6872 39.7053 19.5832 39.6093 19.5192C37.1855 18.0233 34.4977 16.9994 31.6899 16.4955C31.5379 16.4715 31.3939 16.5675 31.3619 16.7194L28.3862 30.9983C28.3622 31.1263 28.2422 31.2223 28.1142 31.2223C27.9862 31.2223 27.8662 31.1263 27.8422 30.9983L24.8664 16.7194C24.8344 16.5675 24.6904 16.4715 24.5385 16.4955C21.7307 16.9994 19.0509 18.0313 16.6191 19.5192C16.5231 19.5752 16.4751 19.6872 16.4831 19.7992C17.075 23.4469 17.939 27.0466 19.0749 30.5744C19.1149 30.6944 19.0669 30.8224 18.9629 30.8943C18.8589 30.9663 18.7229 30.9583 18.6269 30.8703C16.6911 29.1265 14.5152 25.7587 12.8994 22.991C12.8514 22.911 12.7794 22.863 12.6914 22.855C12.6034 22.847 12.5154 22.879 12.4594 22.943C8.73967 26.8787 7.27579 31.5103 7.70775 34.0141C8.52369 38.7657 11.7954 35.598 15.6031 35.862C19.4188 36.1259 21.8667 39.8217 28.1302 39.8217C34.3937 39.8217 36.8415 36.1259 40.6572 35.862C44.4729 35.598 47.7367 38.7657 48.5526 34.0141C48.9846 31.5103 47.5207 26.8787 43.801 22.943C43.745 22.879 43.657 22.847 43.569 22.855C43.481 22.863 43.401 22.911 43.361 22.991H43.337Z" fill="#204743" stroke="white" stroke-width="1.99" stroke-miterlimit="10" stroke-linecap="round"/>
<path d="M51.8963 32.7502C51.0564 30.6864 50.7524 28.3746 51.1444 26.0068C52.2483 19.2793 58.6878 14.6076 65.4313 15.6396C72.1748 16.6715 77.2144 23.383 75.8385 30.4624C74.6546 36.5259 69.103 40.8776 62.9355 40.5736C60.3357 40.4456 57.9919 39.5497 56.08 38.1338C56 38.0778 55.912 38.0538 55.816 38.0618L50.4084 38.8058C50.1365 38.8458 49.9205 38.5818 50.0165 38.3178L51.9123 33.0062C51.9443 32.9262 51.9363 32.8302 51.9123 32.7502H51.8963Z" fill="#204743" stroke="white" stroke-width="1.86" stroke-miterlimit="10"/>
<path d="M50.2965 20.1272C49.8485 20.9831 49.4805 21.8951 49.2086 22.855" stroke="white" stroke-width="1.99" stroke-miterlimit="10" stroke-linecap="round"/>
<path d="M61.2236 12.8638C57.3119 13.2157 53.7202 15.2316 51.3844 18.3913" stroke="white" stroke-width="1.99" stroke-miterlimit="10" stroke-linecap="round"/>
<path d="M56.6 20.9991C56.4 20.9991 56.24 21.1591 56.24 21.3591V24.6149C56.24 24.8149 56.4 24.9748 56.6 24.9748H66.3672C66.5672 24.9748 66.7272 25.1348 66.7272 25.3348V35.1021C66.7272 35.302 66.8872 35.462 67.0872 35.462H70.3429C70.5429 35.462 70.7029 35.302 70.7029 35.1021V28.5266C70.7029 28.3346 70.6229 28.1506 70.4949 28.0146L63.6874 21.2071C63.5514 21.0711 63.3674 20.9991 63.1755 20.9991H56.6Z" fill="white"/>
<path d="M56.24 26.0708V29.3185C56.24 29.5185 56.392 29.6785 56.592 29.6945H56.6C59.5037 29.8705 61.8316 32.1983 62.0155 35.1101C62.0315 35.31 62.1915 35.462 62.3915 35.462H65.6393C65.8472 35.462 66.0072 35.2941 65.9992 35.0861C65.8073 29.9905 61.7116 25.9028 56.616 25.7028C56.408 25.7028 56.24 25.8628 56.24 26.0628V26.0708Z" fill="white"/>
</svg>
