<svg width="80" height="80" viewBox="0 0 80 80" fill="none" xmlns="http://www.w3.org/2000/svg">
<path d="M13.3191 11C12.0072 11 10.7673 11.568 9.91137 12.5519C9.05542 13.5438 8.66345 14.8558 8.85543 16.1437L9.82337 22.8952H5.19167C2.32785 22.8952 0 25.2231 0 28.0869C0 30.9507 2.32785 33.2786 5.19167 33.2786H11.3113L11.8792 37.2223H10.7273C6.90356 37.2223 3.79176 40.3341 3.79176 44.1579C3.79176 47.9816 6.90356 51.0934 10.7273 51.0934H13.8631L14.1031 52.7813H7.98349C5.11967 52.7813 2.79182 55.1092 2.79182 57.973C2.79182 60.8368 5.11967 63.1647 7.98349 63.1647H15.591L15.783 64.4846C16.095 66.6924 18.0148 68.3563 20.2467 68.3563H75.4912C76.8031 68.3563 78.043 67.7884 78.8989 66.7964C79.7549 65.8045 80.1389 64.5006 79.9549 63.2047L73.0353 14.8798C72.7234 12.6719 70.8035 11.008 68.5716 11.008" fill="#204743"/>
<path d="M77.2111 63.5886L70.2915 15.2637C70.1715 14.4078 69.4356 13.7678 68.5636 13.7678H13.3191C12.8152 13.7678 12.3352 13.9838 11.9992 14.3678C11.6713 14.7518 11.5193 15.2557 11.5913 15.7597L13.0072 25.6711H5.19167C3.85575 25.6711 2.76782 26.759 2.76782 28.0949C2.76782 29.4308 3.85575 30.5187 5.19167 30.5187H13.7111L15.071 39.9981H10.7273C8.43146 39.9981 6.55958 41.87 6.55958 44.1659C6.55958 46.4617 8.43146 48.3336 10.7273 48.3336H16.263L17.2949 55.5571H7.98349C6.64757 55.5571 5.55964 56.6451 5.55964 57.981C5.55964 59.3169 6.64757 60.4048 7.98349 60.4048H17.9908L18.5188 64.1006C18.6388 64.9565 19.3748 65.5965 20.2467 65.5965H75.4912C75.9951 65.5965 76.4751 65.3805 76.8111 64.9965C77.1471 64.6126 77.2911 64.1086 77.2191 63.6046L77.2111 63.5886ZM60.0122 60.6128H71.9634V59.6689H60.0122V60.6128ZM60.0122 59.1089H71.9634V58.165H60.0122V59.1089ZM36.6617 60.6128V58.525C38.0536 58.373 39.1415 57.197 39.1415 55.7571H36.6617L36.9736 56.3731L36.6617 56.9891L36.9096 57.605L36.2297 58.221L36.4137 57.605L36.1017 56.9891L36.2857 56.3731L35.9177 55.7571H33.5659C33.5659 57.189 34.6458 58.365 36.0457 58.525V60.6128L33.5659 61.3328H39.1415L36.6697 60.6128H36.6617ZM41.2694 55.8531V61.0128C41.2694 61.1328 41.3574 61.2208 41.4773 61.2208H47.245C47.365 61.2208 47.453 61.1328 47.453 61.0128V55.8531C47.453 55.7331 47.365 55.6451 47.245 55.6451H41.4773C41.3574 55.6451 41.2694 55.7331 41.2694 55.8531ZM43.9252 57.765H43.5652V59.0049C43.5652 59.1249 43.4692 59.2129 43.3572 59.2129C43.2372 59.2129 43.1492 59.1169 43.1492 59.0049V57.765H42.7893C42.6933 57.765 42.6293 57.653 42.6933 57.573L43.2612 56.7891C43.3172 56.7171 43.4132 56.7171 43.4612 56.7891L44.0292 57.573C44.0852 57.661 44.0292 57.765 43.9252 57.765ZM45.9251 57.765H45.5571V59.0049C45.5571 59.1249 45.4691 59.2129 45.3491 59.2129C45.2291 59.2129 45.1411 59.1169 45.1411 59.0049V57.765H44.7811C44.6851 57.765 44.6211 57.653 44.6851 57.573L45.2531 56.7891C45.3091 56.7171 45.4051 56.7171 45.4531 56.7891L46.0211 57.573C46.077 57.661 46.0211 57.765 45.9251 57.765ZM42.5333 60.1329C42.4213 60.1329 42.3253 60.0449 42.3253 59.9249C42.3253 59.8049 42.4213 59.7169 42.5333 59.7169H46.189C46.309 59.7169 46.397 59.8049 46.397 59.9249C46.397 60.0449 46.301 60.1329 46.189 60.1329H42.5333ZM10.7193 47.4457C8.90343 47.4457 7.42352 45.9658 7.42352 44.1499C7.42352 42.334 8.90343 40.8541 10.7193 40.8541H31.318C33.1339 40.8541 34.6138 42.334 34.6138 44.1499C34.6138 45.9658 33.1339 47.4457 31.318 47.4457H10.7193ZM31.654 63.8366C31.654 63.7566 31.654 63.6686 31.646 63.5886L29.4621 48.3176H31.318C33.6138 48.3176 35.4857 46.4457 35.4857 44.1499C35.4857 41.854 33.6138 39.9821 31.318 39.9821H28.2702L24.7664 15.5037H39.2135L42.6373 36.2624H53.0206L49.5968 15.5037H68.5716L75.4912 63.8286H31.662L31.654 63.8366Z" fill="white"/>
</svg>
