<svg xmlns="http://www.w3.org/2000/svg" width="77" height="78" viewBox="0 0 77 78" fill="none">
	<path d="M62.0909 33.3208C61.7909 33.3308 61.5309 33.4508 61.5309 33.6708C61.5009 34.0008 61.8909 34.0108 62.1509 34.0408C62.6609 34.0908 63.1709 34.1608 63.6009 34.3208V33.7108H62.7609C62.7209 33.4608 62.4009 33.3108 62.0909 33.3208Z" fill="black"/>
	<path d="M62.0909 23.5298C61.7909 23.5398 61.5309 23.6598 61.5309 23.8798C61.5009 24.2098 61.8909 24.2198 62.1509 24.2598C62.6609 24.3098 63.1709 24.3798 63.6009 24.5398V23.9298H62.7609C62.7209 23.6598 62.4009 23.5198 62.0909 23.5298Z" fill="black"/>
	<path d="M52.1995 43.8496C51.7995 43.8496 51.3595 44.0796 51.2695 44.5296H52.9895C53.0495 44.0396 52.5895 43.8496 52.1995 43.8496Z" fill="black"/>
	<path d="M41.7005 33.551C41.2105 33.541 40.7305 33.931 40.7305 34.711C40.7305 35.491 41.2205 35.881 41.7005 35.871C42.1705 35.861 42.6505 35.471 42.6505 34.711C42.6505 33.941 42.1805 33.561 41.7005 33.551Z" fill="black"/>
	<path d="M36.0094 46.1601C36.0394 46.4101 36.2494 46.5401 36.5094 46.5401C36.8994 46.5401 37.4294 46.3301 37.4294 45.8801V45.7701C37.1994 45.6001 36.8894 45.5201 36.5894 45.5301C36.1994 45.5601 35.9394 45.7701 36.0094 46.1601Z" fill="black"/>
	<path d="M36.2593 34.8291C36.2593 34.0591 35.7993 33.6191 35.1693 33.6191C34.9693 33.6191 34.7493 33.6591 34.5293 33.7591V35.9291C34.7893 35.9991 35.0393 36.0291 35.2493 36.0291C35.8593 36.0291 36.2593 35.6991 36.2593 34.8291Z" fill="black"/>
	<path d="M56.3304 33.3594C55.9304 33.3594 55.4904 33.5894 55.4004 34.0394H57.1204C57.1804 33.5594 56.7204 33.3594 56.3304 33.3594Z" fill="black"/>
	<path d="M56.3304 23.5605C55.9304 23.5605 55.4904 23.7905 55.4004 24.2405H57.1204C57.1804 23.7605 56.7204 23.5605 56.3304 23.5605Z" fill="black"/>
	<path d="M60.8906 45.1914C60.8906 45.9714 61.3806 46.3614 61.8606 46.3514C62.3306 46.3414 62.8106 45.9514 62.8106 45.1914C62.8106 44.4314 62.3406 44.0414 61.8606 44.0314C61.3706 44.0214 60.8906 44.4114 60.8906 45.1914Z" fill="black"/>
	<path d="M38.27 0.619141C17.17 0.619141 0 17.7891 0 38.8891C0 59.9891 17.17 77.1591 38.27 77.1591C59.37 77.1591 76.54 59.9891 76.54 38.8891C76.54 17.7891 59.37 0.619141 38.27 0.619141ZM35.65 31.9391C37.11 31.9591 38.13 33.2091 38.13 34.8191C38.13 36.9291 36.66 37.5991 35.02 37.5791C34.24 37.5691 33.42 37.4091 32.7 37.1691V29.3291H34.56V32.1391C34.95 31.9991 35.31 31.9391 35.65 31.9391ZM37.7 41.6591V41.8291H36.3L35.29 40.5491V40.3991L36.88 39.8391L37.7 41.6591ZM34.18 46.2991C34.12 44.9491 35.02 44.3191 36.24 44.3191C36.64 44.3191 37.09 44.3991 37.43 44.6191V44.4491C37.43 43.9091 36.69 43.8391 36.28 43.8391C35.76 43.8391 35.27 43.8991 34.81 44.1291L34.6 42.7991C35.16 42.5491 35.9 42.4091 36.62 42.4091C38.07 42.4091 39.27 42.9191 39.27 44.5091V46.2191C39.27 46.6191 39.27 46.8391 39.71 46.8391V47.8691C39.63 47.8891 39.54 47.9091 39.45 47.9191H38.44C38.12 47.8191 37.88 47.5991 37.82 47.1391C37.61 47.5891 37.14 47.8191 36.66 47.9191H35.62C34.84 47.7391 34.21 47.1491 34.18 46.2991ZM52.96 26.2391L53.02 27.6391C51.36 27.9391 50.18 27.5291 50.18 25.4791V19.5191H52.03V25.4691C52.04 26.1891 52.4 26.3291 52.96 26.2391ZM56.72 26.2191C57.35 26.2191 58.14 26.0491 58.52 25.8791L58.73 27.2391C58.08 27.5391 57.34 27.7191 56.6 27.7391C54.82 27.7391 53.52 26.7291 53.52 24.9191C53.52 22.9891 54.98 22.1391 56.34 22.1391C58.37 22.1691 59.17 23.5091 58.69 25.3791H55.39C55.48 26.0591 56.08 26.2191 56.72 26.2191ZM56.34 31.9191C58.37 31.9491 59.17 33.2891 58.69 35.1591H55.39C55.48 35.8591 56.07 36.0091 56.71 36.0091C57.34 36.0091 58.13 35.8391 58.51 35.6691L58.72 37.0291C58.07 37.3291 57.33 37.5191 56.59 37.5291C54.81 37.5291 53.51 36.5091 53.51 34.6991C53.52 32.7691 54.97 31.9191 56.34 31.9191ZM58.47 46.5291L58.53 47.9291C56.88 48.2291 55.69 47.8191 55.69 45.7691V39.8091H57.54V45.7591C57.54 46.4691 57.91 46.6191 58.47 46.5291ZM52.59 46.5091C53.22 46.5091 54.01 46.3391 54.39 46.1691L54.6 47.5291C53.95 47.8291 53.21 48.0191 52.47 48.0291C50.69 48.0291 49.39 47.0091 49.39 45.2091C49.39 43.2791 50.85 42.4291 52.21 42.4291C54.24 42.4591 55.03 43.7991 54.56 45.6691H51.26C51.35 46.3491 51.94 46.5091 52.59 46.5091ZM11.67 59.8591C9.27 57.1391 7.76 53.6191 7.59 49.7591H21.77L11.67 59.8591ZM12.96 61.1691L23.06 51.0691V65.4191C19.19 65.1992 15.67 63.6291 12.96 61.1691ZM24.91 50.6691L35.23 60.9891C32.5 63.5491 28.89 65.1992 24.91 65.4191V50.6691ZM36.49 59.6491L27.45 50.6091H40.33C40 54.0491 38.61 57.1691 36.49 59.6491ZM42.24 40.4491V40.1491H44.39L45.36 42.4491L46.01 44.4691H46.04L46.67 42.4491L47.62 40.1491H49.77V40.4491L46.44 47.9491H45.6L42.24 40.4491ZM45.53 37.3891V32.0691H47.41V37.3891H45.53ZM53.79 40.4391V40.5891L52.75 41.8791H51.34V41.7091L52.18 39.8591L53.79 40.4391ZM51.03 30.4191V32.0591H52.65V33.3791H51.03V35.2291C51.03 36.1991 52.06 36.1391 52.74 35.8891L52.89 37.2891C51.06 37.7991 49.18 37.5191 49.18 35.2691V33.3691L48.24 33.2491V32.0491H49.18L49.39 30.4091H51.03V30.4191ZM48.63 31.5491H47.1L46.49 30.7291L45.89 31.5491H44.34V31.3591L45.69 29.5791H47.28L48.63 31.3591V31.5491ZM44.52 34.6991C44.52 36.5591 43.12 37.4891 41.71 37.4991C40.29 37.5091 38.86 36.5691 38.86 34.6991C38.86 32.8391 40.26 31.8991 41.67 31.8991C43.09 31.8991 44.52 32.8291 44.52 34.6991ZM18.54 33.5391C19.75 33.3191 21.26 33.1091 23.07 32.9591V46.2291L13.37 36.5291C14.88 35.2391 16.63 34.2191 18.54 33.5391ZM12.03 37.7991L22.15 47.9191H7.62C7.88 44.0091 9.51 40.4791 12.03 37.7991ZM38.27 73.4791C32.03 73.4791 26.17 71.8191 21.11 68.9091C22.05 69.0491 23.02 69.1191 24 69.1191C30.49 69.1191 36.28 66.0191 39.95 61.2291H63.6V47.4291C63.1 47.7991 62.48 47.9891 61.86 47.9991C60.44 48.0091 59.01 47.0691 59.01 45.1991C59.01 43.3291 60.41 42.3991 61.82 42.3991C62.46 42.3991 63.08 42.5991 63.59 42.9691V37.1991C63.16 37.4291 62.64 37.5491 62.1 37.5491C60.89 37.5491 59.61 37.2391 59.57 35.7091H61.4C61.4 36.0491 61.71 36.1791 62.02 36.1791C62.33 36.1791 62.64 36.0391 62.64 35.7591C62.64 35.4291 62.35 35.3891 62.06 35.3491C61.01 35.2291 59.67 35.0291 59.67 33.7291C59.67 32.4891 60.85 31.9191 62.04 31.9191C62.6 31.9191 63.16 32.0591 63.59 32.3291V27.3991C63.16 27.6291 62.64 27.7491 62.1 27.7491C60.89 27.7491 59.61 27.4391 59.57 25.9091H61.4C61.4 26.2491 61.71 26.3791 62.02 26.3791C62.33 26.3791 62.64 26.2391 62.64 25.9591C62.64 25.6291 62.35 25.5891 62.06 25.5491C61.01 25.4291 59.67 25.2291 59.67 23.9291C59.67 22.6891 60.85 22.1191 62.04 22.1191C62.6 22.1191 63.16 22.2591 63.59 22.5291V16.1591H12.48V32.5691C8.29 35.5091 5.27 40.0091 4.26 45.2191C3.88 43.1691 3.68 41.0491 3.68 38.8891C3.68 19.8091 19.2 4.29914 38.27 4.29914C57.34 4.29914 72.86 19.8191 72.86 38.8891C72.86 57.9591 57.34 73.4791 38.27 73.4791Z" fill="black"/>
</svg>
