<svg width="88" height="88" viewBox="0 0 88 88" fill="none" xmlns="http://www.w3.org/2000/svg">
<path d="M83.8232 52.3513C83.7839 49.4143 83.7544 46.4774 83.7544 43.5404C83.7544 43.0885 83.4401 42.6956 82.9981 42.5876C68.2641 39.0809 56.0348 30.4664 52.6558 27.9321L51.9388 9.44587C51.8209 6.32226 49.1884 3.88623 46.055 4.0041L9.44587 5.42839C6.32226 5.54626 3.88623 8.18856 4.0041 11.3024L6.61694 78.5582C6.73481 81.6033 9.24941 84 12.2748 84C12.3436 84 12.4221 84 12.5007 84L49.1098 82.5757C52.2335 82.4578 54.6695 79.8155 54.5516 76.6919L54.2962 70.1304C60.514 72.1146 66.4469 73.1165 72.0556 73.1165C75.8177 73.1165 79.4325 72.6744 82.8999 71.7806C83.3222 71.6725 83.6267 71.2895 83.6366 70.8573C83.666 69.7669 83.7053 68.6668 83.7446 67.5765C83.8232 65.6512 83.892 63.667 83.892 61.7516C83.892 58.6182 83.8527 55.4848 83.8232 52.3513Z" fill="#204743" stroke="#204743" stroke-width="8" stroke-miterlimit="10"/>
<path d="M46.0889 4.99814L9.48763 6.41701C6.90188 6.51725 4.88698 8.69467 4.98722 11.2804L7.59439 78.5349C7.69463 81.1206 9.87205 83.1355 12.4578 83.0353L49.0591 81.6164C51.6448 81.5162 53.6597 79.3388 53.5595 76.753L50.9523 9.49854C50.8521 6.9128 48.6746 4.8979 46.0889 4.99814Z" fill="#204743" stroke="white" stroke-width="2" stroke-linecap="round" stroke-linejoin="round"/>
<path d="M82.7722 43.5502C65.0619 39.3363 51.1038 27.9813 51.1038 27.9813C51.1038 27.9813 33.6588 23.2664 19.5239 29.3859L13.5026 50.0528C13.5026 50.0528 29.1403 47.8427 38.0495 52.7344C38.0495 52.7344 21.1447 52.9407 13.5812 58.6968L17.2647 64.0207C17.2647 64.0207 28.492 61.2801 41.1142 63.5787C60.0327 73.2638 73.4308 73.2147 82.6543 70.8474C82.7329 67.7828 82.9097 64.7279 82.9195 61.7713C82.9195 55.691 82.782 49.6304 82.7722 43.56V43.5502Z" fill="white" stroke="white" stroke-width="2" stroke-linecap="round" stroke-linejoin="round"/>
<path d="M15.1824 34.7491C15.1824 34.7491 33.7374 32.5095 44.896 34.1597" stroke="#204743" stroke-width="2" stroke-linecap="round" stroke-linejoin="round"/>
<path d="M12.1864 42.9608C12.1864 42.9608 29.5824 39.7881 42.9216 43.1671" stroke="#204743" stroke-width="2" stroke-linecap="round" stroke-linejoin="round"/>
<path d="M42.0179 14.5635C43.2385 14.5635 44.228 13.574 44.228 12.3534C44.228 11.1327 43.2385 10.1432 42.0179 10.1432C40.7973 10.1432 39.8078 11.1327 39.8078 12.3534C39.8078 13.574 40.7973 14.5635 42.0179 14.5635Z" fill="#204743" stroke="white" stroke-width="2" stroke-linecap="round" stroke-linejoin="round"/>
<path d="M42.5385 21.6358C43.7591 21.6358 44.7486 20.6463 44.7486 19.4257C44.7486 18.2051 43.7591 17.2156 42.5385 17.2156C41.3179 17.2156 40.3284 18.2051 40.3284 19.4257C40.3284 20.6463 41.3179 21.6358 42.5385 21.6358Z" fill="#204743" stroke="white" stroke-width="2" stroke-linecap="round" stroke-linejoin="round"/>
<path d="M36.9297 17.7951C37.7923 17.7951 38.4915 17.0959 38.4915 16.2333C38.4915 15.3708 37.7923 14.6715 36.9297 14.6715C36.0672 14.6715 35.3679 15.3708 35.3679 16.2333C35.3679 17.0959 36.0672 17.7951 36.9297 17.7951Z" fill="white"/>
</svg>
