<svg width="87" height="89" viewBox="0 0 87 89" fill="none" xmlns="http://www.w3.org/2000/svg">
<path d="M76.3496 29.3231C70.8622 21.5148 62.6507 16.4306 53.2296 14.985C34.4956 12.1134 16.7647 24.9764 13.7063 43.6711C12.6737 49.9846 13.3916 56.4358 15.7911 62.3264L16.5975 62.0019L15.7911 62.4051L10.6872 76.7334C10.4709 77.3529 10.579 78.0217 10.9921 78.533C11.4051 79.0444 12.0443 79.3001 12.6934 79.2018L27.3462 77.2251C32.8533 81.2964 39.4127 83.6271 46.3064 83.9713C46.8768 84.0008 47.4373 84.0107 48.0077 84.0107C64.4012 84.0107 78.8475 72.2294 82.0141 55.9932C83.8432 46.5918 81.8272 37.1216 76.3496 29.3329V29.3231Z" fill="#204743" stroke="#204743" stroke-width="8" stroke-linecap="round" stroke-linejoin="round"/>
<path d="M12.5557 37.8395C12.9294 36.502 13.3916 35.1842 13.9227 33.9058C14.8569 31.6931 13.8145 29.1363 11.6018 28.202C10.5299 27.7497 9.33997 27.7398 8.26805 28.1824C7.1863 28.6249 6.3504 29.451 5.89803 30.5229C5.21947 32.1258 4.63926 33.7976 4.16722 35.4891C3.85253 36.6102 4.00004 37.7805 4.57042 38.8032C5.1408 39.8161 6.07504 40.5438 7.19613 40.8585C7.57966 40.9667 7.97303 41.0159 8.37623 41.0159C10.3234 41.0159 12.0444 39.7079 12.5656 37.8296L12.5557 37.8395Z" fill="#204743" stroke="#204743" stroke-width="8" stroke-linecap="round" stroke-linejoin="round"/>
<path d="M12.6344 26.7662C13.3916 27.3267 14.2865 27.6218 15.2208 27.6218C16.5975 27.6218 17.9055 26.9629 18.7217 25.8516C24.2878 18.3285 32.8238 13.5295 42.1466 12.6936C43.307 12.5854 44.3494 12.0445 45.0968 11.1496C45.8442 10.2547 46.1982 9.12379 46.0901 7.9732C45.9819 6.81278 45.441 5.76052 44.5461 5.02297C43.6512 4.27557 42.5203 3.92154 41.3599 4.02972C29.5589 5.08197 18.7512 11.1595 11.71 20.6887C11.0216 21.623 10.7364 22.7736 10.9036 23.9241C11.0806 25.0747 11.6903 26.0877 12.6246 26.776L12.6344 26.7662Z" fill="#204743" stroke="#204743" stroke-width="8" stroke-linecap="round" stroke-linejoin="round"/>
<path d="M16.5975 62.0019C14.3357 56.4456 13.5195 50.2009 14.5619 43.8087C17.5318 25.6549 34.9087 13.0574 53.092 15.8503C71.9341 18.7416 84.8758 36.738 81.1585 55.826C77.9723 72.1802 62.9949 83.9221 46.3556 83.096C39.3537 82.7518 33.0304 80.3326 27.8675 76.517C27.6609 76.3695 27.4052 76.3007 27.1594 76.3302L12.5754 78.3265C11.8378 78.4248 11.2576 77.7168 11.5035 77.0087L16.6074 62.6804C16.6861 62.4542 16.6762 62.2084 16.5877 61.9822L16.5975 62.0019Z" fill="#204743" stroke="white" stroke-width="2" stroke-linecap="round" stroke-linejoin="round"/>
<path d="M8.35656 40.1504C8.04187 40.1504 7.72718 40.111 7.41248 40.0225C5.56367 39.5013 4.47208 37.5837 4.99329 35.725C5.4555 34.0729 6.02587 32.4306 6.68476 30.867C7.43215 29.0968 9.47765 28.2609 11.2478 29.0083C13.0179 29.7557 13.8538 31.8012 13.1064 33.5714C12.5557 34.8695 12.0837 36.2266 11.7002 37.6033C11.2675 39.1473 9.87101 40.1504 8.34673 40.1504H8.35656Z" fill="#204743" stroke="white" stroke-width="2" stroke-linecap="round" stroke-linejoin="round"/>
<path d="M15.2208 26.7465C14.5029 26.7465 13.7752 26.5203 13.1556 26.0679C11.6117 24.9272 11.2773 22.744 12.4279 21.1902C19.3216 11.8576 29.9031 5.91783 41.4582 4.88524C43.3857 4.70823 45.0673 6.12434 45.2443 8.042C45.4115 9.95965 44.0052 11.6511 42.0876 11.8183C32.519 12.6739 23.7568 17.6008 18.0432 25.3205C17.3646 26.245 16.3025 26.7367 15.2404 26.7367L15.2208 26.7465Z" fill="#204743" stroke="white" stroke-width="2" stroke-linecap="round" stroke-linejoin="round"/>
<path fill-rule="evenodd" clip-rule="evenodd" d="M65.9747 56.7799H65.0798C67.558 56.7799 69.5543 58.7762 69.5543 61.2446V62.1395C69.5543 63.1328 68.7577 63.9293 67.7645 63.9293H28.4968C27.5134 63.9293 26.707 63.1328 26.707 62.1395V61.2446C26.707 58.7762 28.7132 56.7799 31.1816 56.7799H30.2867C31.2701 56.7799 32.0666 55.9833 32.0666 54.9901V44.2807C32.0666 35.4005 39.2554 28.2118 48.1356 28.2118C57.0158 28.2118 64.2045 35.4005 64.2045 44.2807V54.9901C64.2045 55.9833 65.0011 56.7799 65.9845 56.7799H65.9747ZM41.8811 63.89H54.3802C54.3802 67.3418 51.5874 70.1346 48.1356 70.1346C44.6838 70.1346 41.8909 67.3418 41.8909 63.89H41.8811Z" fill="#204743" stroke="white" stroke-width="1.82" stroke-linecap="round" stroke-linejoin="round"/>
</svg>
