<svg width="80" height="80" viewBox="0 0 80 80" fill="none" xmlns="http://www.w3.org/2000/svg">
<path d="M71.5977 52.5333C75.7044 52.5333 79.0466 49.1911 79.0466 45.0844V7.44889C79.0466 3.34222 75.7044 0 71.5977 0H53.7755C49.6688 0 46.3266 3.34222 46.3266 7.44889V18.6844H12.7355C9.3044 18.6844 6.52218 21.4756 6.52218 24.8978V60.2311L0.575509 72.1778C-0.268936 73.8667 -0.180047 75.8311 0.815509 77.44C1.81106 79.0489 3.52662 80 5.41995 80H72.5577C74.4422 80 76.1666 79.04 77.1622 77.4311C78.1577 75.8222 78.2466 73.8578 77.4022 72.1689L71.4466 60.2667V52.5244H71.6155L71.5977 52.5333Z" fill="#204743"/>
<path d="M10.5667 59.4133V24.8978C10.5667 23.6978 11.5355 22.7289 12.7355 22.7289H65.2155C66.4155 22.7289 67.3844 23.6978 67.3844 24.8978V59.4222H10.5667V59.4133Z" stroke="white" stroke-width="2" stroke-miterlimit="10"/>
<path d="M10.5667 59.4133V24.8978C10.5667 23.6978 11.5355 22.7289 12.7355 22.7289H65.2155C66.4155 22.7289 67.3844 23.6978 67.3844 24.8978V59.4222H10.5667V59.4133Z" stroke="white" stroke-width="2" stroke-miterlimit="10"/>
<path d="M10.5666 59.4133L3.46438 73.6178C2.74438 75.0578 3.79327 76.7556 5.40216 76.7556H72.5399C74.1488 76.7556 75.1977 75.0578 74.4777 73.6178L67.3755 59.4133H10.5666Z" fill="white"/>
<path d="M24.6644 75.8755L27.4644 70.2844H50.4866L53.2777 75.8755H24.6644Z" fill="#204743"/>
<path d="M49.9355 71.1733L51.8377 74.9778H26.1044L28.0066 71.1733H49.9355ZM51.0377 69.3956H26.9133L23.2333 76.7556H54.7177L51.0377 69.3956Z" fill="white"/>
<path d="M71.5977 4.05334H53.7755C51.9002 4.05334 50.3799 5.57359 50.3799 7.4489V45.0933C50.3799 46.9687 51.9002 48.4889 53.7755 48.4889H71.5977C73.473 48.4889 74.9933 46.9687 74.9933 45.0933V7.4489C74.9933 5.57359 73.473 4.05334 71.5977 4.05334Z" fill="#204743" stroke="white" stroke-width="2" stroke-miterlimit="10"/>
<path d="M56.5577 4.50668H68.8066V5.65335C68.8066 7.52891 67.2866 9.04891 65.4111 9.04891H59.9533C58.0777 9.04891 56.5577 7.52891 56.5577 5.65335V4.50668Z" fill="white"/>
</svg>
