<svg width="80" height="80" viewBox="0 0 80 80" fill="none" xmlns="http://www.w3.org/2000/svg">
<path d="M79.9157 43.4587V43.0375L79.8736 42.8858C79.8568 42.7847 79.8399 42.6921 79.8231 42.591L79.7304 42.2371C79.6546 41.9928 79.5451 41.7569 79.4187 41.5295L79.2923 41.2936L79.1491 41.1251C79.0227 40.9566 78.8795 40.7965 78.711 40.6365L78.5341 40.4848C78.4246 40.3922 78.2898 40.2911 78.1129 40.1815L67.0935 34.655V30.7039C67.0935 30.3669 67.0514 30.0299 66.9671 29.735C66.925 29.5834 66.8745 29.4402 66.8155 29.297C66.7565 29.1537 66.6807 28.9768 66.5712 28.7915C66.4869 28.6567 66.4027 28.5219 66.3437 28.4545C66.2258 28.2944 66.0994 28.1428 65.9562 28.008C65.8551 27.9153 65.754 27.8227 65.6698 27.7553C65.6024 27.6963 65.5013 27.6205 65.3665 27.5278L54.0354 21.8328C54.0354 21.8328 53.9764 21.8075 53.9511 21.7906V18.2439C53.9511 17.9069 53.909 17.5699 53.8248 17.2751C53.7826 17.1234 53.7321 16.9802 53.6731 16.837C53.6141 16.6938 53.5383 16.5168 53.4288 16.3315C53.3446 16.1967 53.2603 16.0619 53.2013 15.9945C53.0918 15.8429 52.9655 15.6997 52.797 15.5227C52.7127 15.4385 52.6285 15.3627 52.5274 15.2953C52.4347 15.2195 52.3336 15.1436 52.2241 15.0678L40.893 9.39806C39.8315 8.86731 38.5678 8.86731 37.5147 9.39806L26.5965 14.8572L26.1668 15.1015C26.0657 15.1689 25.973 15.2363 25.8804 15.3206L25.6108 15.5564C25.4676 15.6997 25.3412 15.8513 25.2654 15.9524L25.0042 16.3315C24.8863 16.5337 24.8104 16.7106 24.7515 16.8538L24.6083 17.2582C24.5156 17.5868 24.4735 17.9238 24.4735 18.2607V22.0265L13.8332 27.3509L13.4204 27.5868C13.3109 27.6542 13.2098 27.73 13.1171 27.8142L12.8475 28.0501C12.7043 28.1933 12.5779 28.345 12.4937 28.4461L12.2409 28.8168C12.1146 29.0274 12.0303 29.2211 11.9798 29.3475L11.8366 29.7519C11.7439 30.0805 11.7018 30.4174 11.7018 30.7544V35.2784L2.25779 39.9962L1.81129 40.2489C1.70177 40.3248 1.60067 40.3922 1.52485 40.4596L1.23842 40.7123C1.07835 40.8724 0.95198 41.024 0.867734 41.1335L0.631845 41.4789C0.522325 41.6558 0.429655 41.8412 0.362258 42.0181L0.235889 42.3719C0.143218 42.6837 0.0926706 43.0122 0.0926706 43.3408L0 47.7974V48.1765V48.1933V48.4798L0.0336984 48.623C0.0336984 48.6567 0.042123 48.6904 0.0505476 48.7072L0.143218 49.179C0.210615 49.4318 0.303286 49.6255 0.336984 49.7098L0.556024 50.1394C0.665543 50.3248 0.783488 50.468 0.884583 50.5943L1.22157 50.9566C1.48273 51.1925 1.76917 51.3947 2.08088 51.5548L8.17186 54.596C8.98062 55.0004 9.90733 55.1184 10.834 54.8572L11.0446 54.8319L14.6588 53.0375L30.1769 60.7965L30.1264 63.1554C30.0927 64.6045 30.9183 65.9608 32.2157 66.6179L38.77 69.8951L39.0312 69.9288C39.1154 69.9541 39.1997 69.9709 39.2755 69.9878L39.5029 70.0636H40.497L40.7161 69.9878C40.8088 69.9709 40.893 69.9457 40.9772 69.9204L41.2384 69.8867L47.7759 66.6179C49.0733 65.9692 49.8905 64.6129 49.8652 63.1554L49.8147 60.7881L65.3328 53.0291L68.4415 54.5792L68.9469 54.8151L69.1238 54.8403C70.0253 55.0931 70.9941 54.992 71.8197 54.5792L77.9191 51.5295C78.2393 51.3694 78.5257 51.1672 78.7447 50.965C78.9048 50.8218 79.0227 50.687 79.1154 50.5775C79.1912 50.4848 79.3176 50.3332 79.4524 50.1057L79.604 49.8361L79.6714 49.6761C79.7304 49.5497 79.8062 49.3728 79.8568 49.1706C79.9073 48.9853 79.941 48.8168 79.9494 48.6904C79.9579 48.623 79.9747 48.5387 79.9831 48.4461L80 48.3197L79.8989 43.4419L79.9157 43.4587Z" fill="#204743"/>
<path d="M3.76575 48.1681L9.85673 45.1268L15.9477 48.1681L9.85673 51.2178L3.76575 48.1681Z" fill="white" stroke="#204743" stroke-width="2" stroke-linejoin="round"/>
<path d="M3.76575 48.168L9.85673 51.2177V46.4157L3.85842 43.4166L3.76575 48.168Z" fill="white" stroke="#204743" stroke-width="2" stroke-linejoin="round"/>
<path d="M3.76575 48.1681L9.85673 45.1268L15.9477 48.1681L9.85673 51.2178L3.76575 48.1681Z" fill="#204743" stroke="white" stroke-width="2" stroke-linejoin="round"/>
<path d="M3.76575 48.168L9.85673 51.2177V46.4157L3.85842 43.4166L3.76575 48.168Z" fill="#204743" stroke="white" stroke-width="2" stroke-linejoin="round"/>
<path d="M33.909 63.2396L40 66.2809V61.4873L34.0017 58.4797L33.909 63.2396Z" fill="#204743" stroke="white" stroke-width="2" stroke-linejoin="round"/>
<path d="M46.0994 63.2396L40.0084 66.2809V61.4873L45.9983 58.4797L46.0994 63.2396Z" fill="#204743" stroke="white" stroke-width="2" stroke-linejoin="round"/>
<path d="M76.2342 48.1681L70.1432 45.1183L64.0522 48.1681L70.1432 51.2093L76.2342 48.1681Z" fill="#204743" stroke="white" stroke-width="2" stroke-linejoin="round"/>
<path d="M76.2342 48.168L70.1432 51.2093V46.4157L76.1331 43.4081L76.2342 48.168Z" fill="#204743" stroke="white" stroke-width="2" stroke-linejoin="round"/>
<path d="M3.85846 43.4166L40 25.3458L76.1331 43.4166L40 61.4874L3.85846 43.4166Z" fill="#204743" stroke="white" stroke-width="2" stroke-linejoin="round"/>
<path d="M28.6605 37.1571L39.6209 31.6811L50.5813 37.1571L39.6209 42.6415L28.6605 37.1571Z" fill="white" stroke="#204743" stroke-width="2" stroke-linejoin="round"/>
<path d="M28.6605 24.3349L39.6209 18.8505L50.5813 24.3349L39.6209 29.8109L28.6605 24.3349Z" fill="white" stroke="#204743" stroke-width="2" stroke-linejoin="round"/>
<path d="M39.6208 42.6416L50.5813 37.1571V24.3349L39.6208 29.8109V42.6416Z" fill="#204743" stroke="#204743" stroke-width="2" stroke-linejoin="round"/>
<path d="M39.6209 29.8109L28.6605 24.3349V37.1571L39.6209 42.6416V29.8109Z" fill="white" stroke="#204743" stroke-width="2" stroke-linejoin="round"/>
<path d="M39.6209 29.8109L28.6605 24.3349V37.1571L39.6209 42.6416V29.8109Z" fill="white" stroke="#204743" stroke-width="2" stroke-linejoin="round"/>
<path d="M32.7632 31.7233L35.5181 33.1049V27.7637L32.7632 26.3821V31.7233Z" fill="#204743"/>
<path d="M32.7632 26.382L35.5181 27.7637L46.0657 22.1108L43.294 20.6954L32.7632 26.382Z" fill="#204743"/>
<path d="M41.3732 43.5345L52.3336 38.0501L63.3024 43.5345L52.3336 49.0189L41.3732 43.5345Z" fill="white" stroke="#204743" stroke-width="2" stroke-linejoin="round"/>
<path d="M41.3732 30.7123L52.3336 25.2279L63.3024 30.7123L52.3336 36.1883L41.3732 30.7123Z" fill="#204743" stroke="white" stroke-width="2" stroke-linejoin="round"/>
<path d="M52.3336 49.019L63.3025 43.5346V30.7123L52.3336 36.1883V49.019Z" fill="white" stroke="white" stroke-width="2" stroke-linejoin="round"/>
<path d="M52.3336 36.1883L41.3732 30.7123V43.5346L52.3336 49.019V36.1883Z" fill="white" stroke="#204743" stroke-width="2" stroke-linejoin="round"/>
<path d="M52.3336 36.1883L41.3732 30.7123V43.5346L52.3336 49.019V36.1883Z" fill="#204743" stroke="white" stroke-width="2" stroke-linejoin="round"/>
<path d="M45.476 38.1007L48.2308 39.4739V34.1411L45.476 32.7595V38.1007Z" fill="white"/>
<path d="M45.476 32.7595L48.2308 34.1411L58.7868 28.4882L56.0151 27.0729L45.476 32.7595Z" fill="white"/>
<path d="M15.4675 43.5766L26.4279 38.0922L37.3883 43.5766L26.4279 49.0611L15.4675 43.5766Z" fill="white" stroke="#204743" stroke-width="2" stroke-linejoin="round"/>
<path d="M15.4675 30.746L26.4279 25.27L37.3883 30.746L26.4279 36.2304L15.4675 30.746Z" fill="#204743" stroke="white" stroke-width="2" stroke-linejoin="round"/>
<path d="M26.428 49.0611L37.3884 43.5766V30.746L26.428 36.2304V49.0611Z" fill="white" stroke="white" stroke-width="2" stroke-linejoin="round"/>
<path d="M26.4279 36.2304L15.4675 30.746V43.5766L26.4279 49.0611V36.2304Z" fill="white" stroke="#204743" stroke-width="2" stroke-linejoin="round"/>
<path d="M26.4279 36.2304L15.4675 30.746V43.5766L26.4279 49.0611V36.2304Z" fill="#204743" stroke="white" stroke-width="2" stroke-linejoin="round"/>
<path d="M19.5703 38.1428L22.3252 39.516V34.1748L19.5703 32.8016V38.1428Z" fill="white"/>
<path d="M19.5703 32.8016L22.3252 34.1748L32.8812 28.5303L30.1095 27.115L19.5703 32.8016Z" fill="white"/>
<path d="M28.1803 49.9541L39.1491 44.4697L50.1095 49.9541L39.1491 55.4385L28.1803 49.9541Z" fill="white" stroke="#204743" stroke-width="2" stroke-linejoin="round"/>
<path d="M28.1803 37.1235L39.1491 31.6475L50.1095 37.1235L39.1491 42.6079L28.1803 37.1235Z" fill="#204743" stroke="white" stroke-width="2" stroke-linejoin="round"/>
<path d="M39.1492 55.4385L50.1096 49.9541V37.1234L39.1492 42.6078V55.4385Z" fill="white" stroke="white" stroke-width="2" stroke-linejoin="round"/>
<path d="M39.1491 42.6078L28.1803 37.1234V49.9541L39.1491 55.4385V42.6078Z" fill="white" stroke="#204743" stroke-width="2" stroke-linejoin="round"/>
<path d="M39.1491 42.6078L28.1803 37.1234V49.9541L39.1491 55.4385V42.6078Z" fill="#204743" stroke="white" stroke-width="2" stroke-linejoin="round"/>
<path d="M32.2915 44.5202L35.0379 45.8934V40.5522L32.2915 39.179V44.5202Z" fill="white"/>
<path d="M32.2915 39.179L35.0379 40.5522L45.5939 34.9078L42.8223 33.484L32.2915 39.179Z" fill="white"/>
<path d="M28.2392 31.0913L39.1996 25.6069L50.16 31.0913L39.1996 36.5673L28.2392 31.0913Z" fill="white" stroke="#204743" stroke-width="2" stroke-linejoin="round"/>
<path d="M28.2392 18.2607L39.1996 12.7847L50.16 18.2607L39.1996 23.7451L28.2392 18.2607Z" fill="#204743" stroke="white" stroke-width="2" stroke-linejoin="round"/>
<path d="M39.1996 36.5674L50.1601 31.0914V18.2607L39.1996 23.7452V36.5674Z" fill="white" stroke="white" stroke-width="2" stroke-linejoin="round"/>
<path d="M39.1996 23.7452L28.2392 18.2607V31.0914L39.1996 36.5674V23.7452Z" fill="white" stroke="#204743" stroke-width="2" stroke-linejoin="round"/>
<path d="M39.1996 23.7452L28.2392 18.2607V31.0914L39.1996 36.5674V23.7452Z" fill="#204743" stroke="white" stroke-width="2" stroke-linejoin="round"/>
<path d="M32.342 25.6575L35.0968 27.0308V21.6896L32.342 20.3163V25.6575Z" fill="white"/>
<path d="M32.342 20.3163L35.0968 21.6895L45.6528 16.045L42.8727 14.6213L32.342 20.3163Z" fill="white"/>
</svg>
