<svg width="80" height="80" viewBox="0 0 80 80" fill="none" xmlns="http://www.w3.org/2000/svg">
<path d="M17.8213 5H17.2636C11.8758 5 7.50809 9.36768 7.50809 14.7555V20.8984C7.50809 26.2863 11.8758 30.6539 17.2636 30.6539H17.8213C23.2091 30.6539 27.5768 26.2863 27.5768 20.8984V14.7555C27.5768 9.36768 23.2091 5 17.8213 5Z" fill="#204743"/>
<path d="M62.1871 5H62.7448C68.1303 5 72.5003 9.36999 72.5003 14.7555V20.8984C72.5003 26.2839 68.1303 30.6539 62.7448 30.6539H62.1871C56.8016 30.6539 52.4316 26.2839 52.4316 20.8984V14.7555C52.4316 9.36999 56.8016 5 62.1871 5Z" fill="#204743"/>
<path d="M63.0528 32.3105H61.8791C55.2534 32.3105 49.5266 36.1394 46.7381 41.6831C44.832 40.9339 42.7593 40.5094 40.5952 40.5094H39.4215C37.249 40.5094 35.1847 40.9339 33.2785 41.6831C30.4901 36.1311 24.755 32.3105 18.1376 32.3105H16.9639C7.60795 32.3105 0 39.9184 0 49.2661V64.0408C0 65.8804 1.48996 67.3703 3.32952 67.3703H22.4576V72.2481C22.4576 74.0876 23.9476 75.5776 25.7871 75.5776H54.2129C56.0524 75.5776 57.5424 74.0876 57.5424 72.2481V67.3703H76.6705C78.51 67.3703 80 65.8804 80 64.0408V49.2661C80 39.9184 72.3921 32.3105 63.0444 32.3105H63.0528Z" fill="#204743"/>
<path d="M40.2789 13.2074H39.7212C34.3333 13.2074 29.9657 17.5751 29.9657 22.9629V29.1058C29.9657 34.4937 34.3333 38.8613 39.7212 38.8613H40.2789C45.6667 38.8613 50.0343 34.4937 50.0343 29.1058V22.9629C50.0343 17.5751 45.6667 13.2074 40.2789 13.2074Z" fill="#204743"/>
<path d="M17.8211 8.32947H17.2634C13.7145 8.32947 10.8375 11.2065 10.8375 14.7554V20.8984C10.8375 24.4474 13.7145 27.3244 17.2634 27.3244H17.8211C21.3701 27.3244 24.2471 24.4474 24.2471 20.8984V14.7554C24.2471 11.2065 21.3701 8.32947 17.8211 8.32947Z" fill="#204743" stroke="white" stroke-width="1.6" stroke-linecap="round" stroke-linejoin="round"/>
<path d="M16.9558 35.6398H18.1295C25.6459 35.6398 31.7555 41.7411 31.7555 49.2659V64.0406H3.32977V49.2659C3.32977 41.7495 9.43112 35.6398 16.9558 35.6398Z" fill="#204743" stroke="white" stroke-width="1.6" stroke-linecap="round" stroke-linejoin="round"/>
<path d="M62.7448 8.32947H62.1871C58.6381 8.32947 55.7611 11.2065 55.7611 14.7554V20.8984C55.7611 24.4474 58.6381 27.3244 62.1871 27.3244H62.7448C66.2937 27.3244 69.1707 24.4474 69.1707 20.8984V14.7554C69.1707 11.2065 66.2937 8.32947 62.7448 8.32947Z" fill="#204743" stroke="white" stroke-width="1.6" stroke-linecap="round" stroke-linejoin="round"/>
<path d="M61.8791 35.6398H63.0527C70.5691 35.6398 76.6788 41.7411 76.6788 49.2659V64.0406H48.253V49.2659C48.253 41.7495 54.3544 35.6398 61.8791 35.6398Z" fill="#204743" stroke="white" stroke-width="1.6" stroke-linecap="round" stroke-linejoin="round"/>
<path d="M40.2786 16.5367H39.721C36.172 16.5367 33.295 19.4137 33.295 22.9627V29.1056C33.295 32.6546 36.172 35.5316 39.721 35.5316H40.2786C43.8276 35.5316 46.7046 32.6546 46.7046 29.1056V22.9627C46.7046 19.4137 43.8276 16.5367 40.2786 16.5367Z" fill="#204743" stroke="white" stroke-width="1.6" stroke-linecap="round" stroke-linejoin="round"/>
<path d="M39.4129 43.8472H40.5866C48.103 43.8472 54.2127 49.9485 54.2127 57.4732V72.248H25.7869V57.4732C25.7869 49.9568 31.8882 43.8472 39.4129 43.8472Z" fill="#204743" stroke="white" stroke-width="1.6" stroke-linecap="round" stroke-linejoin="round"/>
</svg>
