<svg width="80" height="80" viewBox="0 0 80 80" fill="none" xmlns="http://www.w3.org/2000/svg">
<path d="M55.7347 54.0365C55.5021 53.9964 55.2695 53.9483 55.0289 53.9082L61.8145 44.1388L61.8947 44.0265C62.007 43.8741 62.1113 43.7217 62.2396 43.5613L63.1139 42.2619V42.1977C66.3303 36.7435 67.6056 30.3349 66.7153 24.0465C65.7688 17.3732 62.4482 11.2693 57.3549 6.84981C52.2617 2.43032 45.7487 0 39.0112 0C32.2737 0 25.7608 2.43032 20.6675 6.84981C15.5743 11.2693 12.2537 17.3732 11.3072 24.0465C10.3607 30.7199 11.8526 37.5055 15.5101 43.1682L17.0742 45.5745L17.1544 45.5344L23.1059 54.0766C12.4221 56.1219 7 60.2366 7 66.3084C7 72.3802 12.5023 76.5591 23.3545 78.5883C30.5332 79.9278 38.1049 80 39.5486 80C40.9924 80 48.5641 79.9358 55.7427 78.5883C66.595 76.5591 72.0973 72.4283 72.0973 66.3084C72.0973 60.1885 66.595 56.0578 55.7427 54.0285L55.7347 54.0365Z" fill="#204743"/>
<path d="M39.5406 76.2623C36.597 76.2623 10.7458 75.9815 10.7458 66.3164C10.7458 56.6513 36.589 56.3705 39.5406 56.3705C42.4923 56.3705 68.3355 56.6513 68.3355 66.3164C68.3355 75.9815 42.4923 76.2623 39.5406 76.2623ZM17.0261 66.3164C19.0714 67.9286 27.2527 70.2947 39.5406 70.2947C51.8286 70.2947 60.0099 67.9286 62.0552 66.3164C60.0099 64.7122 51.8286 62.3381 39.5406 62.3381C27.2527 62.3381 19.0714 64.7042 17.0261 66.3164Z" fill="#204743" stroke="white" stroke-width="2" stroke-linecap="round" stroke-linejoin="round"/>
<path d="M18.6463 41.0988L18.7666 41.2753C18.911 41.4999 19.0714 41.7084 19.2238 41.9491L36.7654 67.1506C37.2787 67.8885 38.1129 68.3216 39.0112 68.3216C39.9096 68.3216 40.7437 67.8885 41.2571 67.1506L58.7586 41.9731C58.927 41.7325 59.0874 41.5079 59.2478 41.2994L59.3521 41.139C62.5204 36.2382 63.8117 30.3589 62.9936 24.5759C62.1755 18.7928 59.296 13.5071 54.8845 9.68116C50.4811 5.85521 44.8344 3.74573 39.0032 3.74573C33.172 3.74573 27.5254 5.85521 23.1219 9.68116C18.7104 13.5071 15.831 18.7928 15.0128 24.5759C14.1947 30.3589 15.4861 36.2302 18.6543 41.139L18.6383 41.1069L18.6463 41.0988Z" fill="white" stroke="#204743" stroke-width="2" stroke-linecap="round" stroke-linejoin="round"/>
<path d="M39.0113 17.8945C41.6902 17.8945 44.2569 18.9613 46.1498 20.8542C48.0427 22.7471 49.1095 25.3138 49.1095 27.9928C49.1095 30.6718 48.0427 33.2384 46.1498 35.1313C44.2569 37.0243 41.6902 38.083 39.0113 38.083C36.3323 38.083 33.7656 37.0243 31.8727 35.1313C29.9798 33.2384 28.913 30.6718 28.913 27.9928C28.913 25.3138 29.9798 22.7471 31.8727 20.8542C33.7656 18.9613 36.3323 17.8945 39.0113 17.8945Z" fill="#204743"/>
</svg>
