<svg width="80" height="80" viewBox="0 0 80 80" fill="none" xmlns="http://www.w3.org/2000/svg">
<path d="M78.9429 28.6117L67.4845 13.9051C66.3337 12.4279 64.4811 11.7341 62.653 12.0932L57.087 13.1787C56.6381 13.2685 56.1811 13.3256 55.724 13.3582L48.232 13.8561C46.714 13.954 45.2041 14.2397 43.7514 14.7049C42.315 15.1619 40.9358 15.7985 39.6381 16.5901L29.6079 16.28C27.7961 16.2229 26.0414 15.7332 24.5316 14.8599C23.438 14.2233 22.3688 13.5786 21.3568 12.9339L21.0875 12.7625C19.8144 11.9545 18.1494 12.1177 17.064 13.1624C15.3012 14.8681 1.68812 28.3995 0.937279 29.1667C-0.0828825 30.2032 -0.295076 31.7946 0.423118 33.0596C2.1778 36.1527 5.05873 40.5762 10.5023 44.9343L10.2412 45.3913C9.47399 46.7216 9.74332 48.411 10.8777 49.4393L16.5009 54.532C16.9008 54.8911 17.3823 55.1441 17.8883 55.2746C17.9128 55.2991 17.9291 55.3155 17.9536 55.3318L21.7486 58.6697C22.3117 59.1676 23.0217 59.4451 23.7644 59.4777C23.9603 59.7307 24.1888 59.9511 24.4581 60.1388L28.196 62.783C28.9795 63.338 29.967 63.5176 30.8974 63.2809L30.9872 63.2564L36.4389 66.7413C36.9776 67.084 37.5896 67.2554 38.1936 67.2554C38.9281 67.2554 39.6626 67.0024 40.2666 66.5128L41.9315 65.1498C42.1845 65.4028 42.315 65.5416 42.315 65.5416C42.9271 66.2026 43.7841 66.578 44.6818 66.578C45.5714 66.5699 46.4447 66.2189 47.0649 65.566L50.1009 62.3831L55.6832 62.6035C57.5685 62.6035 58.7111 60.808 58.7111 60.808L66.2521 48.8844C66.9213 47.7744 66.8724 46.3707 66.1215 45.3097L78.1839 35.4264C80.2651 33.7207 80.6078 30.7092 78.9511 28.5872L78.9429 28.6117Z" fill="#204743"/>
<path d="M76.3639 30.6194L64.9055 15.9127C64.5219 15.4149 63.8853 15.1782 63.2732 15.3006L57.7072 16.3861C57.1196 16.5003 56.532 16.5738 55.9362 16.6146L48.4441 17.1124C47.1873 17.1941 45.9386 17.4307 44.7389 17.8143C43.2372 18.2958 41.8335 18.9895 40.5603 19.8873L29.5099 19.5445C27.184 19.4711 24.907 18.8508 22.8993 17.6837C21.8057 17.0471 20.7039 16.3861 19.6103 15.6842C19.5205 15.6271 19.4307 15.57 19.341 15.5128C15.6847 19.0303 11.9468 22.4744 8.29056 26.0001C6.5114 27.7221 5.06685 29.6155 3.27136 31.4437C5.55652 35.4835 8.85369 39.9069 14.7788 44.0447L13.0731 47.0073L18.6962 52.0999L20.1979 51.7898L20.1163 52.8752L23.9113 56.2132L26.3841 55.8623L26.3515 57.47L30.0894 60.1143L32.6765 59.4532L32.7255 60.4897L38.2017 63.9909L42.1028 60.7917C43.8248 62.375 44.7062 63.3217 44.7062 63.3217L48.2238 59.6409C47.5219 58.6534 44.5267 54.7197 38.2262 49.8719C37.8834 49.6107 37.8263 49.121 38.0874 48.7864C38.3486 48.4436 38.8383 48.3865 39.1729 48.6477C46.665 54.4177 49.5704 58.8656 49.6928 59.0533C49.7091 59.0778 49.7091 59.1023 49.7254 59.1268L55.8138 59.3635C55.8138 59.3635 55.7485 59.2982 55.724 59.2574C55.6587 59.1594 49.3745 49.2353 39.8666 43.3428C39.4993 43.1143 39.3932 42.641 39.6136 42.2737C39.8421 41.9065 40.3155 41.8004 40.6827 42.0207C49.7173 47.6194 55.7403 56.4336 56.8584 58.1474L59.6985 53.4547C59.6985 53.4547 59.6251 53.3731 59.5924 53.3241C59.5272 53.2262 53.243 43.302 43.7351 37.4096C43.3678 37.1811 43.2617 36.7077 43.4821 36.3404C43.7106 35.9732 44.1839 35.8671 44.5512 36.0874C53.2511 41.4821 59.1599 49.8556 60.58 51.9938L63.4691 47.2195C62.8733 46.4115 62.253 45.6117 61.6246 44.8119L76.1272 32.9209C76.8291 32.3496 76.9434 31.3213 76.3884 30.6112L76.3639 30.6194ZM40.9276 59.7552L38.0793 62.0893L34.2353 59.6328L34.1374 57.4945L30.3913 58.4576L27.9103 56.7029L27.9674 54.0913L24.3928 54.5973L21.7159 52.2386L21.8954 49.8719L19.1532 50.4432L15.0399 46.7135L16.0193 45.0159L16.4845 45.2036C18.0351 46.1993 19.7327 47.1705 21.5853 48.109L22.0342 49.9127L23.5277 49.0557C24.9151 49.7086 26.3923 50.3371 27.9593 50.9492L28.2939 53.6587L30.7912 52.3937L33.4437 53.8709L34.1945 57.6659L36.1695 56.8253L40.9357 59.7634L40.9276 59.7552ZM46.2895 28.4811C44.5675 29.8114 41.5805 32.0231 40.6174 33.0514C35.6472 38.3563 28.3918 34.3328 28.3918 34.3328L37.2632 24.7351L40.1114 22.2051C41.5968 20.883 43.3107 19.9118 45.1959 19.3078C46.2814 18.9651 47.3995 18.7529 48.5339 18.6712L56.026 18.1734C56.687 18.1326 57.3481 18.0428 57.9928 17.9204L63.6241 16.8186L75.1887 31.664L60.6126 43.6122C54.8915 36.6016 48.5176 30.5541 46.2732 28.4811H46.2895Z" fill="white"/>
</svg>
