<svg width="80" height="80" viewBox="0 0 80 80" fill="none" xmlns="http://www.w3.org/2000/svg">
<path d="M79.9589 55.5958L75.1835 22.5436C74.8955 20.5278 73.1357 19 71.0959 19H13.2865C12.0866 19 10.9508 19.5199 10.1588 20.4238C9.37494 21.3277 9.02297 22.5356 9.19096 23.7195L9.6789 27.1111H3.81557C1.71181 27.1111 0 28.8229 0 30.9266C0 33.0304 1.71181 34.7422 3.81557 34.7422H10.7828L10.9908 36.19H7.22318C4.89544 36.19 2.99966 38.0858 2.99966 40.4136C2.99966 42.7413 4.89544 44.6371 7.22318 44.6371H12.2146L12.7985 48.6686H5.83134C3.72758 48.6686 2.01577 50.3804 2.01577 52.4842C2.01577 54.588 3.72758 56.2998 5.83134 56.2998H13.9024L13.9744 56.7797C14.2624 58.7955 16.0222 60.3233 18.0619 60.3233H75.8634C77.0633 60.3233 78.1991 59.8034 78.991 58.8995C79.7749 57.9956 80.1269 56.7877 79.9589 55.6038V55.5958Z" fill="#204743"/>
<path d="M15.8062 50.7404C16.7741 50.7404 17.558 51.5243 17.558 52.4922C17.558 53.4601 16.7741 54.244 15.8062 54.244H5.83133C4.86344 54.244 4.07953 53.4601 4.07953 52.4922C4.07953 51.5243 4.86344 50.7404 5.83133 50.7404H15.8062Z" fill="#204743" stroke="white" stroke-width="1.03" stroke-linejoin="round"/>
<path d="M13.9744 29.1829C14.9423 29.1829 15.7262 29.9668 15.7262 30.9347C15.7262 31.9026 14.9423 32.6865 13.9744 32.6865H3.82355C2.85566 32.6865 2.07175 31.9026 2.07175 30.9347C2.07175 29.9668 2.85566 29.1829 3.82355 29.1829H13.9744Z" fill="#204743" stroke="white" stroke-width="1.03" stroke-linejoin="round"/>
<path d="M75.8634 58.2516H18.0619C17.0381 58.2516 16.1662 57.4996 16.0142 56.4838L11.2387 23.4235C11.0627 22.1757 12.0226 21.0638 13.2865 21.0638H71.0879C72.1118 21.0638 72.9837 21.8157 73.1357 22.8316L77.9111 55.8838C78.0871 57.1317 77.1272 58.2436 75.8634 58.2436V58.2516Z" fill="#204743" stroke="white" stroke-width="1.03" stroke-miterlimit="10"/>
<path d="M50.4663 35.3822L77.3832 57.5477" stroke="white" stroke-width="1.03" stroke-miterlimit="10"/>
<path d="M16.8061 57.5396L33.2602 35.3342" stroke="white" stroke-width="1.03" stroke-miterlimit="10"/>
<path d="M72.2238 21.4877L41.9632 40.8375L11.9186 21.7117" fill="#204743"/>
<path d="M72.2238 21.4877L41.9632 40.8375L11.9186 21.7117" stroke="white" stroke-width="1.03" stroke-miterlimit="10"/>
<path d="M7.23117 42.5813C6.0393 42.5813 5.07141 41.6135 5.07141 40.4216C5.07141 39.2297 6.0393 38.2618 7.23117 38.2618H22.0935C23.2853 38.2618 24.2532 39.2297 24.2532 40.4216C24.2532 41.6135 23.2853 42.5813 22.0935 42.5813H7.23117Z" fill="white"/>
<path d="M22.0935 38.6698C23.0614 38.6698 23.8453 39.4537 23.8453 40.4216C23.8453 41.3895 23.0614 42.1734 22.0935 42.1734H7.23119C6.2633 42.1734 5.47939 41.3895 5.47939 40.4216C5.47939 39.4537 6.2633 38.6698 7.23119 38.6698H22.0935ZM22.0935 37.8459H7.23119C5.81536 37.8459 4.65549 38.9978 4.65549 40.4216C4.65549 41.8454 5.80736 42.9973 7.23119 42.9973H22.0935C23.5093 42.9973 24.6692 41.8454 24.6692 40.4216C24.6692 38.9978 23.5173 37.8459 22.0935 37.8459Z" fill="#204743"/>
</svg>
