<svg width="80" height="80" viewBox="0 0 80 80" fill="none" xmlns="http://www.w3.org/2000/svg">
<path d="M75.2842 36.5044C72.0865 33.1171 66.8359 32.0512 62.6197 31.7986C63.6066 27.0375 63.7646 22.0475 63.6935 18.3761C63.6066 13.9703 60.709 10.1646 56.4848 8.90134L53.9345 8.14336C52.8686 7.82754 51.7159 8.04072 50.8316 8.71185C49.9551 9.38297 49.4577 10.4489 49.4893 11.5543C49.6946 18.155 47.847 23.4608 44.0019 27.3297C41.2384 30.101 38.3565 31.1196 38.3565 31.1196C38.246 31.159 38.1354 31.1985 38.0249 31.2459L30.003 34.8226V33.2751H3V70.187H29.9951V68.6395C34.1008 70.4949 40.0462 72.5557 46.181 72.5557C48.076 72.5557 49.9078 72.3583 51.6369 71.9714C64.3015 73.8032 70.61 68.6158 73.6814 63.8863L73.7999 63.7205L73.8314 63.6494C75.3474 61.2492 76.4449 58.3831 77.0923 55.1301C78.0477 50.3848 77.9687 46.2633 77.9135 45C78.3004 41.6681 77.3845 38.7309 75.2763 36.4886L75.2842 36.5044Z" fill="#204743"/>
<path d="M74.4631 44.8816C76.0422 33.7251 58.135 35.2569 58.0876 35.2648C60.0536 29.8326 60.3378 22.9871 60.2431 18.455C60.1878 15.5652 58.2692 13.0465 55.4978 12.2254L52.9397 11.4595C53.5082 29.8326 39.4303 34.412 39.4303 34.412L24.9419 40.8785L26.1578 62.7257C26.1578 62.7257 39.7698 71.5214 51.5027 68.4737C59.9983 69.8475 70.8785 68.6316 73.7209 54.4669C74.7552 49.3347 74.4631 44.8816 74.4631 44.8816Z" fill="#204743" stroke="white" stroke-width="1.77" stroke-linecap="round" stroke-linejoin="round"/>
<path d="M50.3183 57.7673C55.0636 54.8933 56.5559 49.5006 57.5586 46.0028L50.3183 57.7673Z" fill="#204743"/>
<path d="M50.3183 57.7673C55.0636 54.8933 56.5559 49.5006 57.5586 46.0028" stroke="white" stroke-width="1.77" stroke-linecap="round" stroke-linejoin="round"/>
<path d="M55.4426 51.9482C64.6883 56.5987 73.9341 53.3062 73.9341 53.3062L55.4426 51.9482Z" fill="#204743"/>
<path d="M55.4426 51.9482C64.6883 56.5987 73.9341 53.3062 73.9341 53.3062" stroke="white" stroke-width="1.77" stroke-linecap="round" stroke-linejoin="round"/>
<path d="M58.0165 45.9949C66.3859 48.2846 74.4631 44.8737 74.4631 44.8737L58.0165 45.9949Z" fill="#204743"/>
<path d="M58.0165 45.9949C66.3859 48.2846 74.4631 44.8737 74.4631 44.8737" stroke="white" stroke-width="1.77" stroke-linecap="round" stroke-linejoin="round"/>
<path d="M50.3183 57.7673C50.3183 57.7673 60.2589 65.5365 70.7995 62.023L50.3183 57.7673Z" fill="#204743"/>
<path d="M50.3183 57.7673C50.3183 57.7673 60.2589 65.5365 70.7995 62.023" stroke="white" stroke-width="1.77" stroke-linecap="round" stroke-linejoin="round"/>
<path d="M51.4948 68.4658L50.3183 57.7673" stroke="white" stroke-width="1.77" stroke-linecap="round" stroke-linejoin="round"/>
<path d="M27.2474 36.0385H5.75555V67.4472H27.2474V36.0385Z" fill="white"/>
<path d="M57.5586 46.0028C58.2297 43.6499 58.3955 41.4312 58.3955 41.4312C60.8432 41.3365 61.0958 41.3918 63.6303 40.7048" fill="#204743"/>
<path d="M57.5586 46.0028C58.2297 43.6499 58.3955 41.4312 58.3955 41.4312C60.8432 41.3365 61.0958 41.3918 63.6303 40.7048" stroke="white" stroke-width="1.77" stroke-linecap="round" stroke-linejoin="round"/>
</svg>
