<svg width="87" height="88" viewBox="0 0 87 88" fill="none" xmlns="http://www.w3.org/2000/svg">
<path d="M76.3447 29.3125C70.8573 21.5042 62.6458 16.42 53.2247 14.9743C34.4907 12.1028 16.7598 24.9658 13.7014 43.6605C12.6688 49.974 13.3867 56.4252 15.7862 62.3158L16.5926 61.9913L15.7862 62.3945L10.6823 76.7228C10.4659 77.3423 10.5741 78.0111 10.9871 78.5224C11.4002 79.0338 12.0394 79.2895 12.6884 79.1911L27.3413 77.2145C32.8484 81.2858 39.4077 83.6165 46.3015 83.9607C46.8718 83.9902 47.4324 84 48.0028 84C64.3962 84 78.8426 72.2188 82.0092 55.9826C83.8383 46.5812 81.8223 37.1109 76.3447 29.3223V29.3125Z" fill="#204743" stroke="#204743" stroke-width="8" stroke-linecap="round" stroke-linejoin="round"/>
<path d="M12.5508 37.8288C12.9245 36.4914 13.3867 35.1736 13.9177 33.8952C14.852 31.6825 13.8096 29.1256 11.5969 28.1914C10.525 27.739 9.33503 27.7292 8.26311 28.1717C7.18135 28.6143 6.34545 29.4403 5.89309 30.5123C5.21453 32.1152 4.63432 33.787 4.16228 35.4785C3.84759 36.5996 3.9951 37.7698 4.56548 38.7926C5.13586 39.8055 6.0701 40.5332 7.19119 40.8479C7.57472 40.9561 7.96808 41.0053 8.37128 41.0053C10.3184 41.0053 12.0394 39.6973 12.5606 37.819L12.5508 37.8288Z" fill="#204743" stroke="#204743" stroke-width="8" stroke-linecap="round" stroke-linejoin="round"/>
<path d="M12.6294 26.7556C13.3867 27.3161 14.2816 27.6112 15.2158 27.6112C16.5926 27.6112 17.9005 26.9523 18.7168 25.841C24.2829 18.3179 32.8189 13.5189 42.1416 12.683C43.3021 12.5748 44.3445 12.0339 45.0919 11.139C45.8393 10.2441 46.1933 9.11317 46.0851 7.96258C45.9769 6.80216 45.4361 5.7499 44.5412 5.01235C43.6463 4.26495 42.5153 3.91092 41.3549 4.0191C29.554 5.07135 18.7463 11.1488 11.705 20.6781C11.0167 21.6123 10.7315 22.7629 10.8986 23.9135C11.0757 25.0641 11.6854 26.077 12.6196 26.7654L12.6294 26.7556Z" fill="#204743" stroke="#204743" stroke-width="8" stroke-linecap="round" stroke-linejoin="round"/>
<path d="M16.5926 61.9912C14.3308 56.435 13.5145 50.1903 14.5569 43.7981C17.5268 25.6443 34.9037 13.0468 53.087 15.8397C71.9292 18.7309 84.8709 36.7274 81.1536 55.8154C77.9673 72.1695 62.99 83.9115 46.3507 83.0854C39.3488 82.7412 33.0254 80.322 27.8625 76.5064C27.656 76.3589 27.4003 76.29 27.1544 76.3195L12.5705 78.3159C11.8329 78.4142 11.2527 77.7062 11.4985 76.9981L16.6024 62.6698C16.6811 62.4436 16.6713 62.1977 16.5828 61.9716L16.5926 61.9912Z" fill="#204743" stroke="white" stroke-width="2" stroke-linecap="round" stroke-linejoin="round"/>
<path d="M8.35162 40.1398C8.03692 40.1398 7.72223 40.1004 7.40754 40.0119C5.55873 39.4907 4.46714 37.5731 4.98835 35.7144C5.45055 34.0623 6.02093 32.42 6.67982 30.8564C7.42721 29.0862 9.47271 28.2503 11.2428 28.9977C13.013 29.7451 13.8489 31.7906 13.1015 33.5607C12.5508 34.8588 12.0787 36.2159 11.6952 37.5927C11.2625 39.1367 9.86607 40.1398 8.34178 40.1398H8.35162Z" fill="#204743" stroke="white" stroke-width="2" stroke-linecap="round" stroke-linejoin="round"/>
<path d="M15.2158 26.7359C14.4979 26.7359 13.7702 26.5097 13.1507 26.0573C11.6067 24.9166 11.2724 22.7334 12.4229 21.1796C19.3167 11.847 29.8982 5.90721 41.4533 4.87462C43.3808 4.69761 45.0624 6.11372 45.2394 8.03138C45.4066 9.94903 44.0003 11.6405 42.0827 11.8077C32.5141 12.6632 23.7519 17.5901 18.0382 25.3099C17.3597 26.2343 16.2976 26.726 15.2355 26.726L15.2158 26.7359Z" fill="#204743" stroke="white" stroke-width="2" stroke-linecap="round" stroke-linejoin="round"/>
<path d="M52.8117 40.3955C52.8117 38.1828 51.13 36.6782 49.0944 36.6782H46.9407C43.9216 36.6782 42.2302 39.235 42.1712 42.2639H32.1699C32.4059 34.0033 39.2603 28.7125 46.8817 28.7125H49.1534C57.355 28.7125 62.8228 33.8853 62.8228 40.2283C62.8228 50.0034 51.071 50.7508 50.6678 55.7564L50.5498 57.556H41.827L41.709 55.5793C41.0697 46.9155 52.8215 46.2763 52.8215 40.3955H52.8117ZM51.4152 60.4571V69.8782H41.0107V60.4571H51.4152Z" fill="#204743" stroke="white" stroke-width="2" stroke-linecap="round" stroke-linejoin="round"/>
</svg>
