<svg width="80" height="80" viewBox="0 0 80 80" fill="none" xmlns="http://www.w3.org/2000/svg">
<path d="M70.6397 20.4153C69.0237 13.5272 64.8316 7.68719 58.8316 3.96715C52.8315 0.25511 45.7354 -0.904903 38.8474 0.711114C31.9593 2.32713 26.1192 6.51917 22.3992 12.5192C15.8551 23.0793 17.5831 36.6235 26.2072 45.1996C23.4072 45.5436 20.8552 47.1276 19.3192 49.5996L9.41506 65.5678C6.67103 69.9998 8.03904 75.8319 12.4711 78.5839C13.9671 79.5119 15.6871 79.9999 17.4391 79.9999C20.7432 79.9999 23.7512 78.3279 25.4792 75.5279L35.3833 59.5517C36.8873 57.1197 37.1833 54.1277 36.2633 51.4716C39.0234 52.4316 41.9034 52.9197 44.8474 52.9197C54.0955 52.9197 62.5196 48.2396 67.3757 40.4075C71.0957 34.4075 72.2557 27.3114 70.6397 20.4233V20.4153Z" fill="#204743"/>
<path d="M52.8876 13.5591C45.7755 9.1511 36.3994 11.3511 31.9913 18.4632C27.5833 25.5753 29.7833 34.9514 36.8954 39.3594C44.0075 43.7675 53.3836 41.5674 57.7916 34.4554C62.1997 27.3433 59.9996 17.9672 52.8876 13.5591Z" fill="white"/>
<path d="M28.7432 49.0715L31.3913 44.5755L34.5113 46.5115L31.8553 50.9995" stroke="white" stroke-width="1.98" stroke-linecap="round" stroke-linejoin="round"/>
<path d="M33.0313 45.5915C22.4791 39.0554 19.2231 25.1513 25.7592 14.5992C32.2953 4.04708 46.1994 0.791047 56.7515 7.32711C67.3036 13.8632 70.5596 27.7673 64.0236 38.3194C57.4875 48.8715 43.5834 52.1276 33.0313 45.5915ZM52.8875 13.5592C45.7754 9.15113 36.3993 11.3512 31.9912 18.4632C27.5832 25.5753 29.7832 34.9514 36.8953 39.3594C44.0074 43.7675 53.3835 41.5675 57.7915 34.4554C62.1996 27.3433 59.9995 17.9672 52.8875 13.5592Z" stroke="white" stroke-width="1.98" stroke-linecap="round" stroke-linejoin="round"/>
<path d="M14.5511 75.2238C11.9671 73.6238 11.1751 70.2318 12.7751 67.6557L22.6792 51.6796C24.2792 49.0955 27.6713 48.3035 30.2473 49.9035C32.8233 51.5036 33.6233 54.8956 32.0233 57.4716L22.1192 73.4478C20.5192 76.0318 17.1271 76.8238 14.5511 75.2238Z" stroke="white" stroke-width="1.98" stroke-linecap="round" stroke-linejoin="round"/>
<path d="M53.5835 31.8553C56.5595 27.0633 55.0715 20.7432 50.2795 17.7672" stroke="#204743" stroke-width="1.98" stroke-linecap="round" stroke-linejoin="round"/>
</svg>
