<svg width="80" height="80" viewBox="0 0 80 80" fill="none" xmlns="http://www.w3.org/2000/svg">
<path d="M77.6381 44.5783L69.3424 28.9771C68.9298 28.2045 68.2173 27.6419 67.3622 27.4169C66.5221 27.1994 65.6146 27.3494 64.887 27.822L61.3842 30.0796C61.4067 30.0346 61.4367 29.9896 61.4592 29.9446L68.1723 14.8234C68.7048 13.6158 68.4198 12.1907 67.4597 11.2831C66.4921 10.3755 65.052 10.173 63.8894 10.7806L60.3791 12.5882L55.7888 5.44012C55.2112 4.54004 54.2286 4 53.1561 4H29.9566C28.839 4 27.804 4.60005 27.2489 5.56763L18.4282 20.8764C17.9932 21.634 17.8956 22.5415 18.1507 23.3741C18.4132 24.2067 19.0207 24.8967 19.8083 25.2643L23.3636 26.9294C23.0336 26.9594 22.6585 27.0194 22.2235 27.0644L5.78965 28.8645C4.47704 29.0071 3.38945 29.9671 3.08192 31.2572C2.7819 32.5399 3.32194 33.89 4.43954 34.6025L7.76231 36.7252L3.89199 44.2933C3.40445 45.2459 3.44195 46.3635 3.9745 47.2861L15.6305 67.3427C16.1855 68.3028 17.2206 68.9028 18.3457 68.9028L36.0096 68.8278C36.8797 68.8278 37.7198 68.4528 38.3123 67.8078C38.8974 67.1627 39.1899 66.3001 39.1149 65.4301L38.6649 60.3521C38.7174 60.4496 38.7624 60.5472 38.8224 60.6372L48.0706 74.3483C48.6557 75.2109 49.6233 75.7209 50.6583 75.7209C50.9209 75.7209 51.1834 75.6909 51.4459 75.6159C52.7285 75.2784 53.6586 74.1683 53.7711 72.8557L54.1011 68.9253L62.5993 68.8203C63.6644 68.8053 64.6395 68.2578 65.2095 67.3577L77.5256 47.6986C78.1181 46.7535 78.1556 45.5534 77.6381 44.5708V44.5783Z" fill="#204743"/>
<path d="M59.2841 16.6685L53.1561 7.13525H29.9567L21.136 22.444L33.3545 28.167L41.9277 13.2783L44.1404 16.7135L47.8832 22.5415L41.3426 25.9093L58.6016 28.6845L65.3146 13.5708L59.2766 16.676L59.2841 16.6685Z" fill="#204743" stroke="white" stroke-width="1.67" stroke-linecap="round" stroke-linejoin="round"/>
<path d="M11.8351 35.6376L6.67467 45.7259L9.33739 50.3013L18.3306 65.7826L36.0021 65.7076L34.8095 52.2664L17.6256 52.3415L19.4782 48.7037L22.636 42.5381L28.8315 46.4985L22.561 30.1771L6.11963 31.9773L11.8351 35.6301V35.6376Z" fill="#204743" stroke="white" stroke-width="1.67" stroke-linecap="round" stroke-linejoin="round"/>
<path d="M51.2284 65.8426L62.5618 65.7001L65.3746 61.2147L74.8779 46.041L66.5822 30.4472L55.2487 37.7678L63.3194 52.9341L59.2391 52.9866L52.3085 53.0691L52.9235 45.741L41.4101 58.897L50.6584 72.6007L51.2284 65.8426Z" fill="#204743" stroke="white" stroke-width="1.67" stroke-linecap="round" stroke-linejoin="round"/>
</svg>
