<svg width="80" height="80" viewBox="0 0 80 80" fill="none" xmlns="http://www.w3.org/2000/svg">
<path d="M74.967 21.4581C74.967 19.634 74.0629 17.9298 72.5748 16.9057C72.1187 16.5217 71.5907 16.2416 71.0226 16.0736L61.0216 13.0573L58.9254 4.19242C58.3093 1.72817 56.1011 0 53.5569 0C51.0126 0 48.8044 1.72817 48.1803 4.21642L46.0361 13.0493L45.46 13.2253C43.2358 12.7693 40.9796 12.5373 38.7314 12.5373C20.1295 12.5373 5 27.6668 5 46.2686C5 64.8705 20.1295 80 38.7314 80C57.3332 80 72.4627 64.8705 72.4627 46.2686C72.4627 39.732 70.5586 33.3953 67.0302 27.9628L70.9906 26.7707C73.3348 26.0826 74.967 23.8984 74.967 21.4581Z" fill="#204743"/>
<path d="M70.4226 19.698C70.3186 19.578 70.1746 19.482 70.0145 19.434L58.0693 15.8336L55.5171 5.03252C55.2931 4.13643 54.493 3.50436 53.5649 3.50436C52.6368 3.50436 51.8367 4.12843 51.6127 5.03252L48.9964 15.8256L45.6281 16.8417C43.4119 16.3216 41.1156 16.0336 38.7474 16.0336C22.1217 16.0336 8.52039 29.635 8.52039 46.2606C8.52039 62.8863 22.1217 76.4877 38.7474 76.4877C55.3731 76.4877 68.9744 62.8863 68.9744 46.2606C68.9744 43.1403 68.4944 40.132 67.6063 37.2997C67.1663 35.8836 66.6142 34.5075 65.9821 33.1873C65.7661 32.7473 65.5421 32.3152 65.3101 31.8832C64.846 31.0271 64.334 30.195 63.7899 29.387C62.9898 28.2108 62.1177 27.0907 61.1656 26.0426L70.0145 23.3784C70.8706 23.1303 71.4627 22.3382 71.4627 21.4502C71.4627 20.7141 71.0546 20.042 70.4306 19.69L70.4226 19.698ZM62.6298 51.0371C63.5819 51.0371 63.5819 48.1728 64.542 47.2127C65.022 46.7327 66.1502 46.5007 67.2063 46.3727C67.1423 62.0222 54.397 74.7355 38.7394 74.7355C31.7067 74.7355 25.2661 72.1672 20.2896 67.9268C20.8576 66.0946 21.5377 63.5904 21.5377 62.5103C21.5377 60.5981 17.7133 60.5981 16.7612 59.646C15.8091 58.6939 15.8091 55.8216 14.849 54.8695C14.289 54.3094 12.4808 53.4374 11.0406 52.8213C10.5446 50.7171 10.2726 48.5249 10.2726 46.2686C10.2726 45.2125 10.3366 44.1724 10.4486 43.1483C12.7048 41.9482 15.8091 40.14 15.8091 39.58C15.8091 38.6279 13.8969 33.8434 13.8969 32.8913C13.8969 31.9392 15.8091 30.027 16.7612 30.027C17.7133 30.027 17.7133 33.8514 18.6734 33.8514C19.6335 33.8514 22.4978 28.1148 22.4978 27.1627C22.4978 26.5467 21.4257 25.2505 20.6016 24.3464C25.5301 20.258 31.8587 17.8018 38.7474 17.8018C39.8115 17.8018 40.8596 17.8658 41.8917 17.9858L42.7318 17.7298L37.0512 19.442C36.1952 19.69 35.6031 20.4901 35.6031 21.3701C35.6031 22.2502 36.1952 23.0503 37.0352 23.2983L40.0435 24.2264C38.4354 25.4746 36.3632 27.6428 36.8272 28.1068C37.7793 29.0589 40.6516 27.1547 41.6037 27.1547C42.5558 27.1547 42.5558 30.019 41.6037 30.9791C40.6516 31.9312 34.915 31.9312 33.9549 31.9312C32.9948 31.9312 31.0906 35.7556 31.0906 36.7077C31.0906 37.6598 32.0427 38.6199 33.0028 38.6199C33.9629 38.6199 38.7394 34.7955 39.6915 34.7955C40.6436 34.7955 42.5558 36.7077 43.5159 36.7077C44.476 36.7077 47.3403 33.8434 48.2924 34.7955C49.2445 35.7476 45.4281 37.6598 45.4281 38.6199C45.4281 39.58 46.3802 39.572 47.3403 39.572C48.3004 39.572 48.2924 41.4842 47.3403 41.4842H40.6516C39.6995 41.4842 38.7394 39.572 37.7873 39.572C36.8352 39.572 27.2743 43.3964 27.2743 44.3484V50.085C27.2743 51.0371 31.0986 53.9094 32.0507 53.9094C33.0028 53.9094 34.915 52.9573 35.8751 52.9573C36.8352 52.9573 39.6995 57.7338 39.6995 58.6939C39.6995 59.654 38.7474 60.6061 38.7474 61.5582C38.7474 62.5103 39.6995 64.4225 40.6596 65.3826C41.6197 66.3427 43.5239 67.2947 44.484 66.3346C45.4361 65.3825 50.2206 60.5981 50.2206 59.646V56.7817C50.2206 55.8296 53.5649 54.1014 53.0848 52.9573C52.7968 52.2852 51.1727 52.9573 50.2206 52.0052C49.2685 51.0531 49.2685 43.4044 49.2685 43.4044C49.2685 43.4044 51.1807 49.1409 52.1327 50.093C53.0848 51.0451 55.9571 48.1808 55.9571 47.2287C55.9571 46.2766 54.0449 42.4523 54.0449 42.4523L55.9571 44.3644C56.9092 45.3165 57.8693 44.3644 58.8214 44.3644C59.7735 44.3644 61.6857 51.0531 62.6458 51.0531L62.6298 51.0371ZM69.5025 21.7062L57.0372 25.4586C56.7412 25.5466 56.5092 25.7866 56.4372 26.0906L53.7329 37.3638C53.6769 37.5958 53.2849 37.5798 53.2289 37.3718L50.5566 26.0906C50.4846 25.7866 50.2606 25.5466 49.9645 25.4586L37.5233 21.6182C37.4113 21.5862 37.3393 21.4822 37.3393 21.3701C37.3393 21.2581 37.4113 21.1541 37.5313 21.1221L49.9645 17.3778C50.2606 17.2897 50.4926 17.0497 50.5646 16.7457L53.3009 5.47256C53.3329 5.36055 53.4289 5.28054 53.5489 5.28054C53.6689 5.28054 53.7729 5.36055 53.7969 5.46456L56.4692 16.7457C56.5412 17.0497 56.7732 17.2897 57.0692 17.3858L69.1585 21.0341C69.2545 21.1221 69.3745 21.1941 69.5025 21.2261C69.6145 21.2581 69.6865 21.3622 69.6865 21.4742C69.6865 21.5862 69.6145 21.6902 69.4945 21.7222L69.5025 21.7062Z" fill="white"/>
</svg>
