<svg width="80" height="80" viewBox="0 0 80 80" fill="none" xmlns="http://www.w3.org/2000/svg">
<path d="M79.4009 40.804C79.4009 38.1477 77.3754 35.9622 74.7901 35.7046L73.6086 31.5558C72.3559 27.1582 68.296 24.0933 63.7296 24.0933H48.005V23.2848C48.005 22.1033 47.8273 20.9395 47.4986 19.8112C47.9783 19.065 48.2538 18.1855 48.2538 17.2349V16.3198C48.2538 13.779 46.246 11.7002 43.7318 11.5936L42.4792 7.17824C41.2799 2.94947 37.3709 0 32.9822 0H16.2804C11.8828 0.0177679 7.9739 2.96724 6.77457 7.196L5.52193 11.6113C3.00777 11.7179 1 13.7968 1 16.3376V17.2526C1 18.1943 1.2754 19.0827 1.75514 19.829C1.42643 20.9484 1.25763 22.121 1.25763 23.3026L1.21321 33.6169C1.21321 35.447 1.91505 37.1616 3.20322 38.4586C4.49139 39.7557 6.206 40.4664 8.03609 40.4664C11.1366 40.4664 13.7574 38.3964 14.5836 35.5625H34.6791C34.7235 35.7046 34.7679 35.8379 34.8123 35.98C33.1954 36.5397 31.9428 37.8812 31.5164 39.5514H16.2804C11.8917 39.5514 7.98279 42.5008 6.78345 46.7296L5.53082 51.1449C3.01666 51.2515 1.00888 53.3304 1.00888 55.8712V56.7862C1.00888 57.7279 1.28429 58.6163 1.76402 59.3626C1.43531 60.482 1.26652 61.6546 1.26652 62.8362L1.2221 73.1505C1.2221 74.9806 1.92393 76.6952 3.2121 77.9922C4.50028 79.2893 6.21488 80 8.04498 80C11.1455 80 13.7662 77.93 14.5924 75.0961H34.688C35.5142 77.93 38.1438 80 41.2354 80C43.0655 80 44.7801 79.2893 46.0683 77.9922C47.3565 76.6952 48.0672 74.9806 48.0583 73.1505L48.0139 62.8362C48.0139 62.0366 47.9339 61.2282 47.774 60.4464H65.1421C66.1105 63.2982 68.8112 65.3504 71.9828 65.3504C73.9195 65.3504 75.7318 64.5952 77.0999 63.2271C78.4681 61.859 79.2143 60.0378 79.2054 58.1011L79.161 47.7868C79.161 46.6408 79.0011 45.4858 78.6902 44.3754C79.1521 43.5936 79.4187 42.6963 79.4187 41.7457V40.8307L79.4009 40.804Z" fill="#204743"/>
<path d="M41.2176 76.8195C39.1921 76.8195 37.5486 75.176 37.5486 73.1505V71.9156H11.6963V73.1505C11.6963 75.176 10.0527 76.8195 8.02718 76.8195C7.04106 76.8195 6.11713 76.4375 5.42418 75.7357C4.73123 75.0427 4.34923 74.1099 4.35811 73.1327L4.40253 62.8184C4.40253 61.2371 4.81119 59.6824 5.55744 58.3231C4.76677 58.2432 4.15378 57.568 4.15378 56.7596V55.8445C4.15378 54.9739 4.86449 54.2721 5.72624 54.2721H7.90281L9.80397 47.5736C10.6213 44.6952 13.2865 42.6874 16.2715 42.6874H32.9733C35.9672 42.6874 38.6235 44.6952 39.4408 47.5736L41.342 54.2721H43.5186C44.3892 54.2721 45.091 54.9828 45.091 55.8445V56.7596C45.091 57.568 44.4692 58.2432 43.6874 58.3231C44.4247 59.6735 44.8334 61.2282 44.8423 62.8184L44.8867 73.1327C44.8867 74.1188 44.5136 75.0427 43.8206 75.7357C43.1277 76.4286 42.2038 76.8195 41.2176 76.8195ZM10.1238 70.3431H39.121V73.1505C39.121 74.3054 40.0627 75.2471 41.2176 75.2471C41.7773 75.2471 42.3104 75.025 42.7013 74.6341C43.101 74.2343 43.3142 73.7101 43.3142 73.1416L43.2698 62.8273C43.2698 61.166 42.7368 59.5402 41.7773 58.2521C41.724 58.1721 41.6707 58.1099 41.6174 58.0477L40.5513 56.7596H43.5186V55.8445H40.1516L37.9217 48C37.2998 45.7968 35.2565 44.2598 32.9644 44.2598H16.2626C13.9705 44.2598 11.9361 45.7968 11.3054 48L9.07549 55.8445H5.70847V56.7596H8.66683L7.60964 58.0477C7.56522 58.1099 7.51191 58.1721 7.44972 58.2521C6.49914 59.5402 5.9661 61.166 5.95722 62.8273L5.9128 73.1416C5.9128 73.7013 6.12602 74.2343 6.52579 74.6252C6.92557 75.025 7.44973 75.2382 8.00941 75.2382C9.16433 75.2382 10.106 74.2965 10.106 73.1416V70.3342L10.1238 70.3431Z" fill="white"/>
<path fill-rule="evenodd" clip-rule="evenodd" d="M11.9184 55.4181L13.4908 49.0928C13.935 47.5381 15.3653 46.4542 16.9822 46.4542H32.2804C33.8973 46.4542 35.3276 47.5381 35.7718 49.0928L37.4153 55.4181H11.9184Z" fill="white"/>
<path fill-rule="evenodd" clip-rule="evenodd" d="M36.5181 60.5085C35.1766 60.5085 34.1016 61.5835 34.1016 62.925C34.1016 64.2665 35.1766 65.3414 36.5181 65.3414C37.8595 65.3414 38.8723 64.2665 38.8723 62.925C38.8723 61.5835 37.7973 60.5085 36.5181 60.5085Z" fill="white"/>
<path fill-rule="evenodd" clip-rule="evenodd" d="M11.9894 60.5085C13.3309 60.5085 14.4059 61.5835 14.4059 62.925C14.4059 64.2665 13.3309 65.3414 11.9894 65.3414C10.648 65.3414 9.63519 64.2665 9.63519 62.925C9.63519 61.5835 10.7102 60.5085 11.9894 60.5085Z" fill="white"/>
<path d="M76.2471 41.7191V40.804C76.2471 39.7202 75.3676 38.8318 74.2748 38.8318H72.3914L70.5702 32.4176C69.7085 29.3704 66.8834 27.2471 63.7207 27.2471H47.0189C43.8562 27.2471 41.0311 29.3704 40.1693 32.4176L38.3481 38.8318H36.4647C35.3809 38.8318 34.4925 39.7113 34.4925 40.804V41.7191C34.4925 42.2077 34.6791 42.6519 34.9722 42.9984C35.3898 43.1316 35.7984 43.3004 36.1804 43.5136C36.216 43.4425 36.2515 43.3626 36.2871 43.2826C35.6208 43.2116 35.0522 42.7141 34.9189 42.0478C34.8301 41.6213 35.0966 41.2038 35.523 41.115C35.9495 41.0261 36.367 41.2926 36.4558 41.7191H37.7529C38.055 41.7191 38.3392 41.8967 38.4636 42.1721C38.5969 42.4475 38.5525 42.7763 38.357 43.0072C38.3126 43.0694 38.2593 43.1316 38.206 43.2116C37.9217 43.5936 37.6907 44.0111 37.4864 44.4464C38.3926 45.2726 39.0855 46.3476 39.4409 47.5825L39.6274 48.231C39.6185 48.1155 39.6008 48.0089 39.6008 47.8934C39.6008 47.3426 39.7429 46.8007 40.0094 46.3209C40.2226 45.9389 40.7024 45.8057 41.0844 46.01C41.4664 46.2232 41.5997 46.703 41.3953 47.085C41.2621 47.3337 41.191 47.6091 41.191 47.8934C41.191 48.7285 41.7862 49.4215 42.5858 49.5192C43.0211 49.5725 43.3231 49.9634 43.2787 50.3898C43.2343 50.7896 42.8878 51.0828 42.4969 51.0828C42.4703 51.0828 42.4347 51.0828 42.4081 51.0828C41.3154 50.9584 40.427 50.2654 39.965 49.3148L41.3776 54.281H43.5541C44.4248 54.281 45.1266 54.9917 45.1266 55.8534V56.7685C45.1266 56.9462 45.0911 57.115 45.0377 57.2749H67.9317V58.1188C67.9317 60.3576 69.7529 62.1877 72.0005 62.1877C73.0933 62.1877 74.1149 61.7613 74.8789 60.9884C75.6518 60.2155 76.0694 59.1938 76.0605 58.1011L76.0161 47.7868C76.0161 46.3121 75.6696 44.8551 75.0477 43.558C75.7673 43.2649 76.2737 42.5542 76.2737 41.7368L76.2471 41.7191ZM71.6185 37.5347L72.0983 39.2316H73.8662C74.3015 39.2316 74.6568 39.5869 74.6568 40.0222C74.6568 40.4575 74.3015 40.8129 73.8662 40.8129H71.503C71.1477 40.8129 70.8456 40.5819 70.7479 40.2443L70.0994 37.97C69.9839 37.5525 70.2238 37.1172 70.6413 36.9928C71.0588 36.8773 71.4942 37.1172 71.6185 37.5347ZM67.6385 29.8323C67.9583 29.5392 68.4647 29.5747 68.749 29.8945C69.4331 30.6585 69.9217 31.5469 70.1971 32.5331L70.7568 34.4875C70.8723 34.9051 70.6324 35.3404 70.2149 35.4648C70.1438 35.4825 70.0727 35.4914 70.0017 35.4914C69.6552 35.4914 69.3442 35.2693 69.2465 34.9228L68.6868 32.9684C68.4736 32.2132 68.1005 31.5292 67.5763 30.9428C67.2832 30.623 67.3187 30.1166 67.6385 29.8323ZM66.8123 38.2899C66.7057 37.8723 66.9545 37.437 67.372 37.3304C67.7984 37.2238 68.2249 37.4725 68.3315 37.8901L68.9267 40.1733C68.9889 40.4131 68.9356 40.6619 68.7845 40.8573C68.6335 41.0528 68.4025 41.1594 68.1627 41.1594H65.7995C65.3642 41.1594 65.0089 40.804 65.0089 40.3687C65.0089 39.9334 65.3642 39.578 65.7995 39.578H67.141L66.8034 38.281L66.8123 38.2899ZM67.5763 34.9761C67.6829 35.3937 67.4342 35.829 67.0166 35.9356C66.9456 35.9534 66.8834 35.9623 66.8212 35.9623C66.4747 35.9623 66.1549 35.7313 66.0572 35.3759L65.764 34.2565C65.533 33.4303 64.8934 32.7285 64.0672 32.4087C63.6585 32.2488 63.4631 31.7957 63.623 31.387C63.7829 30.9784 64.236 30.7829 64.6446 30.9428C65.9239 31.4492 66.91 32.5331 67.2832 33.8479L67.5763 34.985V34.9761ZM60.869 27.6469H63.7296C64.4314 27.6469 65.1332 27.7535 65.7995 27.9756C66.2171 28.1088 66.4392 28.553 66.3059 28.9706C66.1993 29.3082 65.8884 29.5125 65.5597 29.5125C65.4797 29.5125 65.3998 29.5036 65.3198 29.477C64.8045 29.3082 64.2715 29.2282 63.7385 29.2282H60.8778C60.4425 29.2282 60.0872 28.8729 60.0872 28.4376C60.0872 28.0022 60.4425 27.6469 60.8778 27.6469H60.869ZM57.1466 39.5869H62.3348C62.7701 39.5869 63.1255 39.9423 63.1255 40.3776C63.1255 40.8129 62.7701 41.1683 62.3348 41.1683H57.1466C56.7113 41.1683 56.3559 40.8129 56.3559 40.3776C56.3559 39.9423 56.7113 39.5869 57.1466 39.5869ZM56.0983 31.4226C56.0983 30.9872 56.4536 30.6319 56.8889 30.6319H61.3842C61.8195 30.6319 62.1749 30.9872 62.1749 31.4226C62.1749 31.8579 61.8195 32.2132 61.3842 32.2132H56.8889C56.4536 32.2132 56.0983 31.8579 56.0983 31.4226ZM53.0067 27.6469H57.724C58.1593 27.6469 58.5147 28.0022 58.5147 28.4376C58.5147 28.8729 58.1593 29.2282 57.724 29.2282H53.0067C52.5713 29.2282 52.216 28.8729 52.216 28.4376C52.216 28.0022 52.5713 27.6469 53.0067 27.6469ZM53.8862 32.2043H49.3909C48.9556 32.2043 48.6002 31.849 48.6002 31.4137C48.6002 30.9784 48.9556 30.623 49.3909 30.623H53.8862C54.3215 30.623 54.6768 30.9784 54.6768 31.4137C54.6768 31.849 54.3215 32.2043 53.8862 32.2043ZM54.4725 40.3776C54.4725 40.8129 54.1171 41.1683 53.6818 41.1683H48.4936C48.0583 41.1683 47.7029 40.8129 47.7029 40.3776C47.7029 39.9423 48.0583 39.5869 48.4936 39.5869H53.6818C54.1171 39.5869 54.4725 39.9423 54.4725 40.3776ZM44.9311 27.9756C45.6063 27.7535 46.3082 27.6469 47.0189 27.6469H49.8617C50.297 27.6469 50.6524 28.0022 50.6524 28.4376C50.6524 28.8729 50.297 29.2282 49.8617 29.2282H47.0189C46.4769 29.2282 45.935 29.3171 45.4198 29.4859C45.3398 29.5125 45.2598 29.5214 45.171 29.5214C44.8423 29.5214 44.5314 29.3082 44.4248 28.9795C44.2915 28.5619 44.5136 28.1177 44.9311 27.9845V27.9756ZM46.1305 30.9339C46.5391 30.774 46.9922 30.9784 47.1521 31.3781C47.312 31.7868 47.1077 32.2399 46.7079 32.3998C45.8817 32.7196 45.2421 33.4214 45.0022 34.2654L44.7357 35.3582C44.6469 35.7135 44.327 35.9534 43.9717 35.9534C43.9095 35.9534 43.8473 35.9534 43.7851 35.9267C43.3587 35.8201 43.1099 35.3937 43.2077 34.9761L43.4831 33.8568C43.8651 32.5153 44.8512 31.4314 46.1394 30.9251L46.1305 30.9339ZM40.6491 37.9611L40.0005 40.2354C39.9028 40.573 39.5919 40.804 39.2454 40.804H36.8823C36.447 40.804 36.0916 40.4487 36.0916 40.0133C36.0916 39.578 36.447 39.2227 36.8823 39.2227H38.6502L39.1299 37.5258C39.2454 37.1083 39.6807 36.8684 40.1072 36.9839C40.5247 37.0994 40.7646 37.5347 40.6491 37.9611ZM41.5108 34.9406C41.4131 35.2871 41.0933 35.5092 40.7557 35.5092C40.6846 35.5092 40.6135 35.5003 40.5425 35.4825C40.1249 35.367 39.8851 34.9317 40.0005 34.5053L40.5602 32.5331C40.8356 31.5558 41.3243 30.6674 41.9994 29.9123C42.2926 29.5836 42.7812 29.5569 43.1099 29.8501C43.4386 30.1433 43.4653 30.6408 43.1721 30.9606C42.6568 31.5469 42.2837 32.2221 42.0705 32.9684L41.5108 34.9406ZM41.9017 40.191L42.4703 37.899C42.5769 37.4725 43.0033 37.2149 43.4209 37.3215C43.8384 37.4281 44.096 37.8545 43.9983 38.2721L43.6696 39.5869H45.0289C45.4642 39.5869 45.8195 39.9423 45.8195 40.3776C45.8195 40.8129 45.4642 41.1683 45.0289 41.1683H42.6657C42.4259 41.1683 42.1949 41.0528 42.0439 40.8662C41.8928 40.6708 41.8395 40.422 41.9017 40.191ZM44.9933 49.5725C44.8956 49.5725 44.7979 49.5547 44.7002 49.5192C44.2915 49.3593 44.096 48.8973 44.256 48.4975C44.3359 48.3021 44.3715 48.0977 44.3715 47.8934C44.3715 46.9784 43.6519 46.2588 42.7368 46.2588C42.3015 46.2588 41.9461 45.9034 41.9461 45.4681C41.9461 45.0328 42.3015 44.6774 42.7368 44.6774C44.5047 44.6774 45.9439 46.1166 45.9439 47.8845C45.9439 48.2932 45.864 48.693 45.7218 49.075C45.5974 49.3859 45.3043 49.5725 44.9933 49.5725ZM50.7057 56.8751H46.699C46.2637 56.8751 45.9084 56.5197 45.9084 56.0844C45.9084 55.6491 46.2637 55.2937 46.699 55.2937H50.7057C51.141 55.2937 51.4964 55.6491 51.4964 56.0844C51.4964 56.5197 51.141 56.8751 50.7057 56.8751ZM57.3776 56.8751H53.3709C52.9356 56.8751 52.5802 56.5197 52.5802 56.0844C52.5802 55.6491 52.9356 55.2937 53.3709 55.2937H57.3776C57.8129 55.2937 58.1682 55.6491 58.1682 56.0844C58.1682 56.5197 57.8129 56.8751 57.3776 56.8751ZM64.0494 56.8751H60.0427C59.6074 56.8751 59.2521 56.5197 59.2521 56.0844C59.2521 55.6491 59.6074 55.2937 60.0427 55.2937H64.0494C64.4847 55.2937 64.8401 55.6491 64.8401 56.0844C64.8401 56.5197 64.4847 56.8751 64.0494 56.8751ZM65.3109 49.5192C65.2132 49.5547 65.1155 49.5725 65.0178 49.5725C64.7068 49.5725 64.4048 49.3859 64.2804 49.075C64.1294 48.7019 64.0583 48.3021 64.0583 47.8845C64.0583 46.1166 65.4975 44.6774 67.2654 44.6774C67.7007 44.6774 68.0561 45.0328 68.0561 45.4681C68.0561 45.9034 67.7007 46.2588 67.2654 46.2588C66.3503 46.2588 65.6308 46.9784 65.6308 47.8934C65.6308 48.1066 65.6663 48.311 65.7462 48.4975C65.9062 48.9062 65.7107 49.3593 65.302 49.5192H65.3109ZM69.2021 59.2293C69.2021 59.2293 69.1399 59.2293 69.1133 59.2293C68.7224 59.2293 68.3759 58.9362 68.3315 58.5364C68.3137 58.3942 68.3048 58.2521 68.3048 58.1011V56.8662H66.7324C66.297 56.8662 65.9417 56.5108 65.9417 56.0755C65.9417 55.6402 66.297 55.2849 66.7324 55.2849H69.0955C69.5308 55.2849 69.8862 55.6402 69.8862 56.0755V58.1011C69.8862 58.181 69.8862 58.2699 69.9039 58.3498C69.9572 58.7851 69.6463 59.176 69.211 59.2205L69.2021 59.2293ZM67.6296 51.0739C67.6296 51.0739 67.5675 51.0739 67.5408 51.0739C67.1499 51.0739 66.8034 50.7807 66.759 50.3809C66.7057 49.9456 67.0166 49.5547 67.452 49.5103C68.2426 49.4214 68.8467 48.7196 68.8467 47.8845C68.8467 47.6002 68.7757 47.3248 68.6424 47.0761C68.4292 46.6941 68.5713 46.2143 68.9533 46.0011C69.3354 45.7879 69.8151 45.9301 70.0283 46.3121C70.2948 46.7918 70.437 47.3337 70.437 47.8845C70.437 49.5192 69.2376 50.8873 67.6474 51.0739H67.6296ZM75.643 58.0922C75.643 60.1266 73.9994 61.779 71.9739 61.779C71.7784 61.779 71.5919 61.7613 71.4053 61.7346C70.9789 61.6635 70.6768 61.2638 70.7479 60.8373C70.819 60.4109 71.2188 60.1177 71.6452 60.1799C71.7518 60.1977 71.8584 60.2066 71.9739 60.2066C73.1288 60.2066 74.0705 59.256 74.0705 58.1011V57.5058C74.0705 57.0705 74.417 56.7152 74.8523 56.7152C75.261 56.7152 75.643 57.0616 75.643 57.497V58.0922ZM75.5985 48.1866L75.6252 53.7746C75.6252 54.2099 75.2787 54.5653 74.8434 54.5653C74.4081 54.5653 74.0616 54.2188 74.0527 53.7835L74.0261 48.1955C74.0261 47.7602 74.3726 47.4048 74.8079 47.4048C75.2432 47.4048 75.5897 47.7513 75.5985 48.1866ZM74.4525 43.2826C74.6213 43.5936 74.7723 43.9134 74.9056 44.2421C75.0655 44.6419 74.8789 45.1038 74.4703 45.2726C74.3726 45.3082 74.2748 45.3348 74.1771 45.3348C73.8662 45.3348 73.573 45.1483 73.4486 44.8462C73.2088 44.2688 72.9067 43.718 72.5336 43.2205C72.4803 43.1405 72.427 43.0783 72.3737 43.0161C72.1782 42.7851 72.1427 42.4564 72.2671 42.181C72.4003 41.9056 72.6757 41.7279 72.9778 41.7279H74.2748C74.3637 41.3015 74.7812 41.0261 75.2077 41.1238C75.6341 41.2127 75.9095 41.6302 75.8118 42.0567C75.6696 42.7229 75.1099 43.2205 74.4436 43.2915L74.4525 43.2826Z" fill="white"/>
<path d="M37.5486 33.6346C37.5486 34.8251 38.126 35.8734 39.0055 36.5397L39.4941 34.8162C39.2632 34.4786 39.121 34.07 39.121 33.6258V30.8184H10.1238V33.6258C10.1238 34.7807 9.18209 35.7224 8.02718 35.7224C7.46749 35.7224 6.93445 35.5003 6.54356 35.1094C6.14378 34.7096 5.93056 34.1855 5.93056 33.6169L5.97498 23.3026C5.97498 21.6413 6.50802 20.0156 7.46749 18.7274C7.52079 18.6474 7.57409 18.5852 7.6274 18.523L8.6757 17.2349H5.72623V16.3198H9.09325L11.3231 8.47529C11.9539 6.27207 13.9883 4.73515 16.2804 4.73515H32.9822C35.2743 4.73515 37.3087 6.27207 37.9394 8.47529L40.1693 16.3198H43.5363V17.2349H40.578L41.6352 18.523C41.6796 18.5852 41.7329 18.6474 41.7951 18.7274C42.7457 20.0156 43.2787 21.6413 43.2876 23.3026L43.3054 28.3132C43.794 28.0111 44.327 27.7624 44.8778 27.5847L44.8601 23.2937C44.8601 21.7124 44.4514 20.1577 43.7051 18.7984C44.4958 18.7185 45.1088 18.0433 45.1088 17.2349V16.3198C45.1088 15.4492 44.3981 14.7474 43.5363 14.7474H41.3598L39.4586 8.04886C38.6413 5.17046 35.9761 3.16269 32.9911 3.16269H16.2893C13.2954 3.16269 10.6391 5.17046 9.82173 8.04886L7.92057 14.7474H5.744C4.87337 14.7474 4.17154 15.4581 4.17154 16.3198V17.2349C4.17154 18.0433 4.79342 18.7185 5.5752 18.7984C4.83784 20.1488 4.42917 21.7035 4.42029 23.2937L4.37587 33.608C4.37587 34.5941 4.749 35.5181 5.44194 36.211C6.13489 36.9039 7.05882 37.2948 8.04494 37.2948C10.0705 37.2948 11.714 35.6513 11.714 33.6258V32.3909H37.5574V33.6258L37.5486 33.6346Z" fill="white"/>
<path fill-rule="evenodd" clip-rule="evenodd" d="M11.9184 15.9023L13.4908 9.57689C13.935 8.0222 15.3653 6.93835 16.9822 6.93835H32.2804C33.8973 6.93835 35.3276 8.0222 35.7718 9.57689L37.4153 15.9023H11.9184Z" fill="white"/>
<path fill-rule="evenodd" clip-rule="evenodd" d="M36.5181 20.9928C35.1766 20.9928 34.1016 22.0678 34.1016 23.4092C34.1016 24.7507 35.1766 25.8257 36.5181 25.8257C37.8595 25.8257 38.8723 24.7507 38.8723 23.4092C38.8723 22.0678 37.7973 20.9928 36.5181 20.9928Z" fill="white"/>
<path fill-rule="evenodd" clip-rule="evenodd" d="M11.9894 20.9928C13.3309 20.9928 14.4059 22.0678 14.4059 23.4092C14.4059 24.7507 13.3309 25.8257 11.9894 25.8257C10.648 25.8257 9.63519 24.7507 9.63519 23.4092C9.63519 22.0678 10.7102 20.9928 11.9894 20.9928Z" fill="white"/>
</svg>
