<svg width="80" height="80" viewBox="0 0 80 80" fill="none" xmlns="http://www.w3.org/2000/svg">
<path d="M69.2154 14.225C69.2154 14.225 69.1976 14.1983 69.1798 14.1894C67.8729 12.8913 66.1302 12.1801 64.281 12.1801C62.4317 12.1801 60.6801 12.9002 59.3643 14.2161C58.084 15.4964 57.4172 17.1501 57.3461 18.8304C55.6035 18.9016 53.9675 19.6128 52.7317 20.8576C51.487 22.1023 50.7846 23.7293 50.7135 25.4719C49.0954 25.543 47.5839 26.1565 46.3836 27.2412V18.0036C46.3836 15.4252 44.9789 13.0692 42.7117 11.8422C40.4445 10.6153 37.6973 10.7398 35.5457 12.1445L14.4299 25.9876H7.006C3.14737 25.9876 0 29.1261 0 32.9936V47.7169C0 51.5755 3.13848 54.7229 7.006 54.7229H14.5543L35.519 68.5393C36.6748 69.3039 38.0084 69.704 39.3687 69.704C40.5157 69.704 41.6715 69.4106 42.6939 68.8593C44.97 67.6324 46.3747 65.2763 46.3747 62.6891V53.487C47.575 54.5628 49.0865 55.1852 50.7046 55.2563C50.7757 56.9989 51.487 58.626 52.7228 59.8707C53.9675 61.1154 55.5946 61.8178 57.3372 61.8978C57.4083 63.5782 58.0751 65.2319 59.3465 66.5033C60.6535 67.8191 62.405 68.5482 64.2721 68.5482C66.1391 68.5482 67.8906 67.8191 69.1887 66.5033C76.1591 59.5328 80 50.2508 80 40.3641C80 30.4864 76.168 21.2043 69.1976 14.2339L69.2154 14.225Z" fill="#204743"/>
<path d="M67.2949 27.3657C67.1616 27.3657 67.0282 27.3923 66.9037 27.4546C66.477 27.668 66.2992 28.1925 66.5125 28.6193C66.9926 29.5884 67.4194 30.593 67.775 31.6155C67.8995 31.9711 68.2374 32.1934 68.593 32.1934C68.6908 32.1934 68.7886 32.1756 68.8775 32.1401C69.3309 31.98 69.571 31.4821 69.411 31.0376C69.3932 30.9754 69.3665 30.922 69.3487 30.8598C69.3487 30.8598 69.3487 30.8598 69.3487 30.8509C69.3487 30.8509 69.3487 30.8509 69.3487 30.842C69.3487 30.842 69.3487 30.8242 69.3487 30.8153C69.3487 30.8153 69.3487 30.8153 69.3487 30.8064C69.3487 30.8064 69.3487 30.7886 69.3487 30.7798C69.3487 30.7798 69.3487 30.7798 69.3487 30.7709C69.3487 30.7709 69.3487 30.7709 69.3487 30.762C69.3487 30.762 69.3487 30.762 69.3487 30.7531C69.3487 30.7531 69.3487 30.7531 69.3487 30.7442C69.3487 30.7442 69.3487 30.7442 69.3487 30.7353C69.3487 30.7353 69.3487 30.7175 69.3398 30.7086C69.3398 30.6997 69.3398 30.6908 69.3309 30.682C69.3309 30.682 69.3309 30.682 69.3309 30.6731C69.1265 30.1307 68.9042 29.5884 68.6641 29.0549C68.6641 29.0549 68.6641 29.0549 68.6641 29.046C68.6641 29.0371 68.6641 29.0283 68.6552 29.0194C68.6552 29.0194 68.6552 29.0016 68.6463 28.9927C68.6463 28.9927 68.6463 28.9838 68.6463 28.9749C68.6463 28.9749 68.6463 28.9749 68.6463 28.966C68.6463 28.966 68.6463 28.966 68.6463 28.9571C68.6463 28.9571 68.6463 28.9571 68.6463 28.9482C68.6463 28.9482 68.6463 28.9482 68.6463 28.9393C68.6463 28.9393 68.6463 28.9393 68.6463 28.9305C68.6463 28.9305 68.6463 28.9127 68.6375 28.9038C68.6375 28.9038 68.6375 28.9038 68.6375 28.8949C68.5219 28.6459 68.4063 28.397 68.2818 28.1481C68.1307 27.8458 67.8195 27.668 67.5083 27.668L67.2949 27.3657Z" fill="white"/>
<path d="M61.3647 20.2975C61.3647 20.2975 61.4269 20.2975 61.4536 20.2975C61.9337 20.2441 62.2804 19.8174 62.2271 19.3461C62.2271 19.3461 62.2271 19.3461 62.2271 19.3373V19.3284C62.2271 19.3284 62.2271 19.3284 62.2271 19.3195C62.2271 19.3195 62.2271 19.3195 62.2271 19.3106C62.2271 19.3106 62.2271 19.3106 62.2271 19.3017C62.2271 19.3017 62.2271 19.2928 62.2271 19.2839C62.2271 19.2839 62.2271 19.2839 62.2271 19.275V19.2572C62.2271 19.2572 62.2271 19.2483 62.2271 19.2395C62.2271 19.2395 62.2271 19.2395 62.2271 19.2306C62.2271 19.2306 62.2271 19.2217 62.2271 19.2128C62.2271 19.2128 62.2271 19.2039 62.2271 19.195C62.2271 19.195 62.2271 19.1861 62.2271 19.1772V19.1594C62.2271 19.1594 62.2271 19.1239 62.2271 19.1061C62.2538 18.8394 62.3338 18.5726 62.4672 18.3326C62.4672 18.3326 62.4672 18.3148 62.476 18.3148C62.476 18.3148 62.476 18.3059 62.4849 18.297C62.4849 18.297 62.4849 18.2881 62.4938 18.2792C62.4938 18.2792 62.4938 18.2703 62.5027 18.2615C62.5027 18.2615 62.5027 18.2615 62.5027 18.2526V18.2348H62.5116V18.217H62.5205C62.5205 18.217 62.5205 18.217 62.5205 18.2081C62.5205 18.2081 62.5205 18.2081 62.5205 18.1992C62.885 17.8347 63.3474 17.6391 63.8186 17.5946C63.8719 17.5946 63.9253 17.5946 63.9786 17.5946C64.5121 17.5946 65.0366 17.7991 65.4456 18.1992C65.4456 18.1992 65.4456 18.1992 65.4456 18.2081C65.4456 18.2081 65.4456 18.2081 65.4456 18.217C65.4456 18.217 65.4456 18.217 65.4456 18.2259C65.4456 18.2259 65.4456 18.2259 65.4456 18.2348C65.6412 18.4304 65.8279 18.6349 66.0146 18.8305C66.0146 18.8305 66.0146 18.8305 66.0146 18.8394C66.0146 18.8394 66.0857 18.9194 66.1213 18.9549C66.2902 19.1417 66.5303 19.2395 66.7614 19.2395C66.9659 19.2395 67.1793 19.1683 67.3482 19.0172C67.7039 18.6971 67.7306 18.1459 67.4105 17.7902C67.0371 17.3813 66.6548 16.9723 66.2636 16.5811C66.2636 16.5811 66.2636 16.5811 66.2547 16.5722C65.5345 15.8609 64.5832 15.4697 63.5785 15.4697C62.5739 15.4697 61.6047 15.8698 60.8846 16.5811C60.0666 17.399 59.6754 18.5193 59.791 19.6662C59.8355 20.1108 60.2178 20.4486 60.6534 20.4486L61.3647 20.2975Z" fill="white"/>
<path d="M69.6599 45.4497C69.7044 45.4497 69.7488 45.4586 69.7933 45.4586C70.2111 45.4586 70.5845 45.1563 70.6468 44.7206C70.8068 43.6893 70.9135 42.6491 70.958 41.6C70.958 41.6 70.958 41.6 70.958 41.5911C70.958 41.5822 70.958 41.5733 70.958 41.5644C70.958 41.5644 70.958 41.5644 70.958 41.5555C70.958 41.5555 70.958 41.5555 70.958 41.5466C70.958 41.5466 70.958 41.5288 70.958 41.5199C70.958 41.5199 70.958 41.5199 70.958 41.511C70.958 41.511 70.958 41.511 70.958 41.5022C70.958 41.5022 70.958 41.5022 70.958 41.4933C70.958 41.4933 70.958 41.4933 70.958 41.4844C70.958 41.4844 70.958 41.4844 70.958 41.4755C70.958 41.4755 70.958 41.4577 70.958 41.4399C70.958 41.4399 70.958 41.4399 70.958 41.431C70.958 41.431 70.958 41.3955 70.958 41.3777C70.9757 40.8976 70.5934 40.4975 70.1222 40.4797C70.1133 40.4797 70.1044 40.4797 70.0955 40.4797C69.6332 40.4797 69.242 40.8531 69.2331 41.3154C69.1976 42.4001 69.0998 43.4937 68.9308 44.5606C68.8597 45.0318 69.1798 45.4764 69.651 45.5475L69.6599 45.4497Z" fill="white"/>
<path d="M65.6057 26.201C65.7746 26.201 65.9346 26.1565 66.0858 26.0587C66.4859 25.792 66.5925 25.2496 66.3258 24.8584C66.2191 24.6984 66.1124 24.5473 66.0057 24.3872C66.0057 24.3872 66.0057 24.3872 66.0057 24.3783C66.0057 24.3783 65.9969 24.3606 65.988 24.3606C65.988 24.3606 65.988 24.3606 65.988 24.3517C65.988 24.3517 65.988 24.3517 65.988 24.3428C65.988 24.3428 65.9791 24.325 65.9702 24.325V24.3161C65.9702 24.3161 65.9702 24.3161 65.9702 24.3072C65.9702 24.3072 65.9702 24.3072 65.9702 24.2983C65.9702 24.2983 65.9702 24.2983 65.9702 24.2894C65.9702 24.2894 65.9613 24.2716 65.9524 24.2716C65.9524 24.2716 65.9435 24.2539 65.9346 24.245C65.9346 24.2361 65.9168 24.2183 65.9079 24.2094C65.4634 23.5959 65.0011 23.0003 64.5032 22.4135C64.4943 22.3957 64.4765 22.3868 64.4676 22.369C64.4676 22.369 64.4587 22.3512 64.4498 22.3423C64.4498 22.3423 64.441 22.3245 64.4321 22.3245C64.4321 22.3245 64.4321 22.3245 64.4232 22.3157C64.2542 22.1201 64.0142 22.0134 63.7652 22.0134C63.5608 22.0134 63.3652 22.0845 63.1962 22.2267C62.8317 22.5379 62.7961 23.0892 63.1073 23.4537C63.8186 24.2716 64.4765 25.143 65.0811 26.0409C65.25 26.2899 65.5256 26.4232 65.8013 26.4232L65.6057 26.201Z" fill="white"/>
<path d="M72.4783 27.499C72.4872 27.5257 72.4961 27.5524 72.5139 27.5702C72.5139 27.5702 72.5139 27.5702 72.5139 27.5791C72.5139 27.5791 72.5139 27.5791 72.5139 27.5879C72.5227 27.6146 72.5405 27.6502 72.5494 27.6769C72.5494 27.6769 72.5494 27.6769 72.5494 27.6857C72.5494 27.6857 72.5494 27.6857 72.5494 27.6946C72.5494 27.6946 72.5761 27.7569 72.585 27.7835C72.585 27.7835 72.585 27.7835 72.585 27.7924C72.585 27.7924 72.585 27.7924 72.585 27.8013C72.585 27.8013 72.6028 27.8547 72.6205 27.8725C72.6205 27.8725 72.6205 27.8902 72.6294 27.8991C72.7717 28.2281 72.8962 28.557 73.0295 28.8949C73.0295 28.8949 73.0295 28.8949 73.0295 28.9038C73.0295 28.9038 73.0295 28.9038 73.0295 28.9127C73.0295 28.9127 73.0473 28.966 73.0562 28.9927C73.0562 28.9927 73.0562 28.9927 73.0562 29.0016C73.0562 29.0016 73.0562 29.0016 73.0562 29.0105C73.0562 29.0105 73.0562 29.0105 73.0562 29.0194C73.0562 29.0194 73.0562 29.0194 73.0562 29.0283C73.0562 29.046 73.074 29.0727 73.0829 29.0905C73.0829 29.0905 73.0829 29.0905 73.0829 29.0994C73.0829 29.0994 73.0829 29.0994 73.0829 29.1083C73.0829 29.1083 73.0829 29.1083 73.0829 29.1172C73.0829 29.1172 73.0829 29.1172 73.0829 29.1261C73.0829 29.1438 73.0918 29.1616 73.1007 29.1794C73.1007 29.1794 73.1007 29.1794 73.1007 29.1883C73.1007 29.1883 73.1007 29.1883 73.1007 29.1972C73.1007 29.1972 73.1007 29.1972 73.1007 29.2061C73.1007 29.2061 73.1007 29.2061 73.1007 29.215C73.1007 29.215 73.1007 29.215 73.1007 29.2239C73.1007 29.2239 73.1007 29.2239 73.1007 29.2328C73.1007 29.2328 73.1007 29.2505 73.1095 29.2594C73.1095 29.2594 73.1095 29.2594 73.1095 29.2683C73.1095 29.2683 73.1095 29.2683 73.1095 29.2772C73.1095 29.2772 73.1095 29.2772 73.1095 29.2861C73.1095 29.2861 73.1095 29.2861 73.1095 29.295C73.1095 29.295 73.1095 29.295 73.1095 29.3039C73.1095 29.3039 73.1095 29.3039 73.1095 29.3128C73.1095 29.3128 73.1095 29.3128 73.1095 29.3217C73.1095 29.3217 73.1095 29.3217 73.1095 29.3306C73.1095 29.3306 73.1095 29.3483 73.1184 29.3661C73.1184 29.3661 73.1184 29.3661 73.1184 29.375C73.1184 29.375 73.1184 29.375 73.1184 29.3839C73.1184 29.3839 73.1184 29.3839 73.1184 29.3928C73.1184 29.3928 73.1184 29.3928 73.1184 29.4017C73.1184 29.4017 73.1184 29.4017 73.1184 29.4106C73.234 29.7395 73.3407 30.0774 73.4474 30.4152C73.563 30.7887 73.9097 31.0287 74.2742 31.0287C74.3632 31.0287 74.4432 31.0198 74.5321 30.9931C74.9855 30.8509 75.2434 30.3619 75.1011 29.9085C74.7366 28.7438 74.3098 27.5968 73.8297 26.4766C73.6874 26.1476 73.3674 25.952 73.0384 25.952C72.9228 25.952 72.8073 25.9787 72.6917 26.0232C72.256 26.2188 72.0515 26.7255 72.2471 27.1612L72.4783 27.499Z" fill="white"/>
<path d="M70.4246 34.6829C70.4246 34.6829 70.4246 34.6829 70.4246 34.674C70.4068 34.5762 70.3801 34.4784 70.3623 34.3806C70.2734 33.9716 69.9178 33.696 69.5177 33.696C69.4554 33.696 69.3932 33.696 69.331 33.7138C68.8598 33.8116 68.5664 34.2739 68.6642 34.7451C68.8953 35.8031 69.0554 36.8789 69.1532 37.9636C69.1976 38.417 69.571 38.7549 70.0156 38.7549C70.0422 38.7549 70.0689 38.7549 70.0956 38.7549C70.5757 38.7104 70.9224 38.2926 70.8869 37.8125C70.8424 37.3412 70.7891 36.87 70.7268 36.4077C70.7268 36.4077 70.7268 36.381 70.7268 36.3632C70.7268 36.3632 70.7268 36.3632 70.7268 36.3544C70.7268 36.3544 70.7268 36.3366 70.7268 36.3277C70.7268 36.3277 70.7268 36.3277 70.7268 36.3188C70.7268 36.3188 70.7268 36.3188 70.7268 36.3099C70.7268 36.3099 70.7268 36.2921 70.7268 36.2832C70.7268 36.2832 70.7268 36.2832 70.7268 36.2743C70.7268 36.2743 70.7268 36.2743 70.7268 36.2654C70.7268 36.2654 70.7268 36.2477 70.7268 36.2388C70.7268 36.2388 70.7268 36.2388 70.7268 36.2299C70.7268 36.2299 70.7268 36.2299 70.7268 36.221C70.7268 36.221 70.7268 36.221 70.7268 36.2121C70.7268 36.2121 70.7268 36.1943 70.7268 36.1854C70.7268 36.1854 70.7268 36.1765 70.7268 36.1676C70.7268 36.1676 70.7268 36.1676 70.7268 36.1588C70.7268 36.1499 70.7268 36.141 70.7268 36.1321C70.7268 36.1321 70.7268 36.1321 70.7268 36.1232C70.7268 36.1143 70.7268 36.0965 70.7268 36.0876C70.7268 36.0876 70.7268 36.0876 70.7268 36.0787C70.7268 36.0698 70.7268 36.061 70.7268 36.0521C70.7268 36.0521 70.7268 36.0521 70.7268 36.0432C70.7268 36.0432 70.7268 36.0432 70.7268 36.0343C70.7268 36.0254 70.7268 36.0165 70.7268 35.9987C70.7268 35.9987 70.7268 35.9987 70.7268 35.9898C70.6913 35.7853 70.6557 35.5808 70.6202 35.3764C70.6202 35.3586 70.6202 35.3497 70.6202 35.3319C70.6202 35.3141 70.6201 35.2963 70.6113 35.2786C70.6113 35.2786 70.6113 35.2786 70.6113 35.2697C70.6113 35.2519 70.6113 35.243 70.6113 35.2252C70.6113 35.2252 70.6113 35.2252 70.6113 35.2163C70.6113 35.2074 70.6113 35.1985 70.6113 35.1896C70.6113 35.1896 70.6113 35.1719 70.6113 35.163C70.6113 35.163 70.6113 35.163 70.6113 35.1541V35.1452C70.6113 35.1452 70.6113 35.1452 70.6113 35.1363C70.6113 35.1363 70.6113 35.1363 70.6113 35.1274C70.6113 35.1274 70.6113 35.1274 70.6113 35.1185C70.6113 35.1185 70.6113 35.1185 70.6113 35.1096C70.6113 35.1096 70.6113 35.1096 70.6113 35.1007C70.6113 35.1007 70.6113 35.083 70.6113 35.0741C70.6113 35.0741 70.6113 35.0741 70.6113 35.0652L70.4246 34.6829Z" fill="white"/>
<path d="M74.541 34.1139C74.7633 35.243 74.9233 36.3899 75.0211 37.5457C75.0567 37.9992 75.439 38.337 75.8835 38.337C75.9102 38.337 75.9369 38.337 75.9546 38.337C76.4347 38.2926 76.7904 37.8747 76.7459 37.4035C76.6392 36.1943 76.4703 34.9763 76.2391 33.7849C76.1591 33.367 75.7946 33.0825 75.3856 33.0825C75.3323 33.0825 75.2789 33.0825 75.2167 33.1003C74.7455 33.1892 74.4432 33.6515 74.5321 34.1139H74.541Z" fill="white"/>
<path d="M69.7933 22.5824C69.7933 22.5824 69.7933 22.5824 69.7933 22.5913C69.7933 22.5913 69.7933 22.5913 69.7933 22.6002C69.811 22.6269 69.8288 22.6535 69.8466 22.6802C69.8466 22.6802 69.8466 22.6802 69.8466 22.6891C69.8466 22.6891 69.8466 22.6891 69.8466 22.698C69.8466 22.698 69.8466 22.698 69.8466 22.7069C69.8644 22.7247 69.8733 22.7513 69.8911 22.778C69.8911 22.778 69.8911 22.778 69.8911 22.7869C69.8911 22.7869 69.8911 22.7869 69.8911 22.7958C69.8911 22.7958 69.8911 22.7958 69.8911 22.8047C69.8911 22.8047 69.8911 22.8047 69.8911 22.8136C69.8999 22.8314 69.9177 22.8491 69.9266 22.8669C69.9266 22.8669 69.9266 22.8669 69.9266 22.8758C69.9266 22.8758 69.9266 22.8758 69.9266 22.8847C69.9266 22.8936 69.9444 22.9114 69.9444 22.9203C69.9444 22.9203 69.9444 22.9203 69.9444 22.9292C69.9444 22.9292 69.9444 22.9292 69.9444 22.938C69.9444 22.938 69.9444 22.938 69.9444 22.9469C69.9444 22.9558 69.9622 22.9736 69.9622 22.9825C69.9622 22.9825 69.9622 22.9825 69.9622 22.9914C69.9622 22.9914 69.9622 22.9914 69.9622 23.0003C69.9622 23.0003 69.9711 23.0181 69.98 23.027C69.98 23.027 69.98 23.027 69.98 23.0358C69.98 23.0358 69.98 23.0358 69.98 23.0447C69.98 23.0447 69.9889 23.0625 69.9977 23.0625V23.0714C69.9977 23.0714 69.9977 23.0714 69.9977 23.0803C69.9977 23.0803 69.9977 23.0892 70.0066 23.0981V23.107C70.0155 23.1248 70.0244 23.1425 70.0333 23.1603C70.0333 23.1603 70.0333 23.1603 70.0333 23.1692C70.0333 23.1692 70.0333 23.1692 70.0333 23.1781C70.0333 23.1781 70.0333 23.1781 70.0333 23.187C70.0333 23.187 70.0333 23.187 70.0333 23.1959C70.0511 23.2314 70.0778 23.267 70.0955 23.3026C70.22 23.5071 70.3356 23.7116 70.4601 23.916C70.6201 24.1917 70.9135 24.3517 71.2158 24.3517C71.358 24.3517 71.5092 24.3161 71.6426 24.2361C72.0604 23.9961 72.2027 23.4715 71.9626 23.0536C71.358 22.0045 70.6912 20.9732 69.9711 19.9863C69.8021 19.7551 69.5354 19.6306 69.2687 19.6306C69.0909 19.6306 68.9131 19.684 68.7619 19.7996C68.3796 20.0841 68.2907 20.6264 68.5663 21.0087C68.8241 21.3644 69.082 21.7289 69.3309 22.1023L69.7933 22.5824Z" fill="white"/>
<path d="M75.2967 47.2457C75.2256 47.2279 75.1634 47.219 75.0923 47.219C74.7011 47.219 74.3454 47.4857 74.2476 47.8858C73.9809 49.0149 73.6519 50.1263 73.2607 51.211C73.1007 51.6644 73.3319 52.1623 73.7853 52.3223C73.8831 52.3579 73.9809 52.3757 74.0787 52.3757C74.4343 52.3757 74.7722 52.1534 74.8967 51.7978C75.3056 50.6509 75.6613 49.4773 75.9369 48.2948C76.0525 47.8325 75.7591 47.3612 75.2967 47.2457Z" fill="white"/>
<path d="M62.7872 60.1374C62.7872 60.1374 62.7872 60.1374 62.7961 60.1285C62.7961 60.1285 62.805 60.1196 62.8139 60.1107C62.8584 60.0663 62.9028 60.0129 62.9562 59.9685C63.2851 59.6306 63.2851 59.0794 62.9473 58.7504C62.7783 58.5815 62.5561 58.5015 62.3338 58.5015C62.1115 58.5015 61.8893 58.5904 61.7203 58.7593L61.5959 58.8838C60.8757 59.604 60.4845 60.5553 60.4845 61.5777C60.4845 62.6002 60.8846 63.5515 61.5959 64.2717C61.7648 64.4406 61.9871 64.5295 62.2093 64.5295C62.4316 64.5295 62.6539 64.4406 62.8228 64.2717C63.1607 63.9338 63.1607 63.3826 62.8228 63.0447C62.0315 62.2445 62.0137 60.9643 62.7783 60.1552L62.7872 60.1374Z" fill="white"/>
<path d="M65.6857 56.75C65.6857 56.75 65.6857 56.75 65.6857 56.7411C65.6857 56.7411 65.6857 56.7411 65.6857 56.7322C65.6857 56.7322 65.6857 56.7322 65.6857 56.7233C65.6857 56.7233 65.6857 56.7233 65.6857 56.7144C65.6857 56.7144 65.6857 56.7144 65.6857 56.7055C65.6857 56.7055 65.6946 56.6878 65.7035 56.6878C65.7035 56.6878 65.7035 56.6878 65.7035 56.6789C65.7035 56.6789 65.7035 56.6789 65.7035 56.67C65.7035 56.67 65.7124 56.6522 65.7213 56.6522C65.7213 56.6522 65.7213 56.6522 65.7213 56.6433C65.7213 56.6433 65.7213 56.6433 65.7213 56.6344C65.7213 56.6344 65.7302 56.6166 65.7391 56.6166C65.7391 56.6166 65.7391 56.6166 65.7391 56.6077C65.7391 56.5988 65.7568 56.59 65.7657 56.5722C65.7657 56.5722 65.7657 56.5722 65.7657 56.5633C65.7657 56.5633 65.7746 56.5455 65.7835 56.5366C65.7835 56.5366 65.7835 56.5366 65.7835 56.5277C65.7835 56.5277 65.8013 56.501 65.8102 56.4922C65.8102 56.4922 65.8102 56.4922 65.8102 56.4833C65.8102 56.4744 65.828 56.4655 65.8369 56.4477C65.8369 56.4477 65.8369 56.4477 65.8369 56.4388C65.8369 56.4388 65.8546 56.421 65.8635 56.4032C66.2903 55.7987 66.6815 55.1763 67.0549 54.5451C67.295 54.1361 67.1616 53.6026 66.7437 53.3537C66.6015 53.2737 66.4503 53.2381 66.3081 53.2381C66.0147 53.2381 65.7213 53.3892 65.5612 53.6649C65.0189 54.5984 64.4054 55.5053 63.7386 56.3588C63.4452 56.7411 63.5163 57.2834 63.8986 57.5768C64.0587 57.7013 64.2454 57.7547 64.4232 57.7547C64.681 57.7547 64.9389 57.6391 65.1078 57.4168C65.1078 57.4079 65.1256 57.399 65.1345 57.3812C65.1345 57.3812 65.1434 57.3635 65.1523 57.3546C65.1523 57.3546 65.1523 57.3546 65.1523 57.3457C65.1523 57.3457 65.1612 57.3279 65.17 57.3279C65.17 57.3279 65.17 57.3279 65.1789 57.319C65.1789 57.319 65.1789 57.319 65.1789 57.3101C65.1789 57.3101 65.1789 57.3101 65.1789 57.3012C65.1789 57.3012 65.1789 57.3012 65.1789 57.2923C65.1789 57.2923 65.1789 57.2923 65.1789 57.2834C65.1789 57.2834 65.1789 57.2834 65.1789 57.2746C65.1789 57.2746 65.1789 57.2746 65.1789 57.2657C65.1789 57.2657 65.1789 57.2657 65.1789 57.2568C65.1789 57.2568 65.1789 57.2568 65.1789 57.2479C65.1789 57.2479 65.1789 57.2479 65.1789 57.239C65.1789 57.239 65.1789 57.239 65.1789 57.2301C65.1789 57.2301 65.1878 57.2123 65.1967 57.2123L65.6857 56.75Z" fill="white"/>
<path d="M69.3131 47.0412C69.2331 47.0145 69.1531 47.0056 69.0731 47.0056C68.6997 47.0056 68.3529 47.2546 68.2373 47.6369C67.9351 48.6771 67.5705 49.7084 67.1438 50.6953C66.9571 51.1399 67.1616 51.6466 67.5972 51.8334C67.7128 51.8778 67.8284 51.9045 67.9351 51.9045C68.2729 51.9045 68.593 51.7089 68.7352 51.3799C69.1887 50.3219 69.5799 49.2283 69.8999 48.117C70.0333 47.6546 69.7666 47.1745 69.3042 47.0412H69.3131Z" fill="white"/>
<path d="M76.008 40.1596C76.008 40.1596 75.9991 40.1596 75.9902 40.1596C75.519 40.1596 75.1367 40.5331 75.1189 41.0132C75.11 41.4577 75.0922 41.9111 75.0655 42.3557C75.0655 42.3557 75.0655 42.3557 75.0655 42.3646C75.0655 42.3646 75.0655 42.3646 75.0655 42.3735C75.0655 42.3735 75.0655 42.3735 75.0655 42.3824C75.0655 42.3824 75.0655 42.3824 75.0655 42.3912C75.0655 42.3912 75.0655 42.3912 75.0655 42.4001C75.0655 42.4001 75.0655 42.4001 75.0655 42.409C75.0655 42.409 75.0655 42.409 75.0655 42.4179C75.0655 42.4179 75.0655 42.4446 75.0655 42.4624V42.4713V42.489V42.4979V42.5068C75.0655 42.5068 75.0655 42.5068 75.0655 42.5157C75.0655 42.5157 75.0655 42.5157 75.0655 42.5246C75.0655 42.5246 75.0655 42.5424 75.0655 42.5513C75.0655 42.5513 75.0655 42.5513 75.0655 42.5602C75.0655 42.5602 75.0655 42.5602 75.0655 42.5691C75.0655 42.5691 75.0655 42.5691 75.0655 42.578C75.0655 42.578 75.0655 42.578 75.0655 42.5868C75.0655 42.5868 75.0655 42.5868 75.0655 42.5957C75.0655 42.5957 75.0655 42.5957 75.0655 42.6046C75.0655 42.6046 75.0655 42.6046 75.0655 42.6135C75.0655 42.6135 75.0655 42.6135 75.0655 42.6224C75.0655 42.6402 75.0655 42.658 75.0655 42.6758C75.0655 42.6758 75.0655 42.6758 75.0655 42.6846C75.0655 42.6846 75.0655 42.6846 75.0655 42.6935C75.0655 42.6935 75.0655 42.6935 75.0655 42.7024C75.0655 42.7024 75.0655 42.7024 75.0655 42.7113C75.0655 42.7113 75.0655 42.7113 75.0655 42.7202C75.0655 42.7202 75.0655 42.7202 75.0655 42.7291C75.0655 42.7558 75.0655 42.7824 75.0655 42.8091C75.0655 42.8091 75.0655 42.8091 75.0655 42.818C75.0655 42.818 75.0655 42.818 75.0655 42.8269C75.0655 42.8269 75.0655 42.8269 75.0655 42.8358C75.0655 42.8358 75.0655 42.8358 75.0655 42.8447C75.0655 42.8447 75.0655 42.8447 75.0655 42.8536C75.0655 42.8536 75.0655 42.8536 75.0655 42.8625C75.0655 42.8625 75.0655 42.9069 75.0655 42.9336V42.9425C75.0655 42.9425 75.0655 42.9425 75.0655 42.9514C75.0655 42.9514 75.0655 42.9514 75.0655 42.9603C75.0655 42.9603 75.0655 42.9692 75.0655 42.978C75.0655 42.978 75.0655 42.978 75.0655 42.9869C75.0655 43.0136 75.0655 43.0403 75.0655 43.067V43.0758C75.0655 43.0758 75.0655 43.0758 75.0655 43.0847C75.0655 43.0847 75.0655 43.0847 75.0655 43.0936C75.0655 43.0936 75.0655 43.0936 75.0655 43.1025C75.0655 43.1025 75.0655 43.1025 75.0655 43.1114C75.0655 43.147 75.0655 43.1825 75.0566 43.2181C75.0566 43.2181 75.0566 43.2181 75.0566 43.227C75.0566 43.227 75.0566 43.227 75.0566 43.2359C75.0566 43.2359 75.0566 43.2359 75.0566 43.2448C75.0566 43.2803 75.0567 43.3159 75.0478 43.3515C75.0478 43.3515 75.0478 43.3515 75.0478 43.3604V43.3692C75.0478 43.3692 75.0478 43.3692 75.0478 43.3781C75.0478 43.3781 75.0478 43.4404 75.0389 43.4759C75.0389 43.4759 75.0389 43.4759 75.0389 43.4937C75.0389 43.4937 75.0389 43.4937 75.0389 43.5026C75.0389 43.5026 75.0389 43.5026 75.0389 43.5115C75.0389 43.5115 75.0389 43.5115 75.0389 43.5204C75.0389 43.556 75.0389 43.5826 75.03 43.6182C75.03 43.6182 75.03 43.6182 75.03 43.6271C75.03 43.6271 75.03 43.6271 75.03 43.636C75.03 43.636 75.03 43.636 75.03 43.6449C75.03 43.6449 75.03 43.6449 75.03 43.6538C75.03 43.6538 75.03 43.6538 75.03 43.6626C75.03 43.6626 75.03 43.6626 75.03 43.6715C75.03 43.6982 75.03 43.716 75.03 43.7338C75.03 43.7338 75.03 43.7338 75.03 43.7427C75.03 43.7427 75.03 43.7427 75.03 43.7516C75.03 43.7516 75.03 43.7515 75.03 43.7604C75.03 43.7604 75.03 43.7604 75.03 43.7693C75.03 43.7693 75.03 43.7693 75.03 43.7782C75.03 43.7782 75.03 43.7782 75.03 43.7871C75.03 43.7871 75.03 43.7871 75.03 43.796C75.03 43.8138 75.03 43.8227 75.03 43.8316C75.03 43.8316 75.03 43.8316 75.03 43.8405C75.03 43.8405 75.03 43.8405 75.03 43.8494C75.03 43.8494 75.03 43.8493 75.03 43.8582C75.03 43.8582 75.03 43.8582 75.03 43.8671C75.03 43.8671 75.03 43.8671 75.03 43.876C75.03 43.876 75.03 43.876 75.03 43.8849C75.03 43.8849 75.03 43.8849 75.03 43.8938V43.9027C75.03 43.9027 75.03 43.9116 75.03 43.9205C75.03 43.9205 75.03 43.9383 75.03 43.9472C74.9677 44.4184 75.3056 44.854 75.7768 44.9163C75.8124 44.9163 75.8479 44.9163 75.8835 44.9163C76.3103 44.9163 76.6837 44.5962 76.7459 44.1605C76.8971 42.9603 76.986 41.7333 77.0126 40.5153C77.0215 40.0352 76.6392 39.644 76.1591 39.6262L76.008 40.1596Z" fill="white"/>
<path d="M73.074 54.0027C72.9495 53.9405 72.825 53.9138 72.6917 53.9138C72.3716 53.9138 72.0604 54.0916 71.9093 54.4028C71.5269 55.1852 71.118 55.9409 70.6734 56.6877C70.6734 56.6877 70.6734 56.6877 70.6734 56.6966C70.6734 56.6966 70.6734 56.6966 70.6734 56.7055C70.6645 56.7233 70.6467 56.7411 70.6379 56.7589C70.6379 56.7589 70.6379 56.7589 70.6379 56.7678C70.6379 56.7678 70.6379 56.7678 70.6379 56.7767C70.6379 56.7767 70.6379 56.7767 70.6379 56.7855C70.5401 56.9545 70.4334 57.1145 70.3356 57.2745C70.0777 57.6835 70.2022 58.217 70.6023 58.4748C70.7446 58.5637 70.9046 58.6082 71.0646 58.6082C71.3491 58.6082 71.6336 58.4659 71.8026 58.1992C72.4516 57.1679 73.0473 56.0921 73.5807 55.0074C73.7941 54.5806 73.6074 54.0561 73.1806 53.8516L73.074 54.0027Z" fill="white"/>
<path d="M68.8953 59.9329C68.6374 59.9329 68.3885 60.0485 68.2196 60.2619C67.5083 61.1599 66.7348 62.0312 65.9168 62.858C65.579 63.1959 65.5879 63.7471 65.9257 64.085C66.0947 64.2539 66.3169 64.3339 66.5303 64.3339C66.7437 64.3339 66.9748 64.245 67.1527 64.0761C68.0062 63.2048 68.8241 62.289 69.571 61.3377C69.8733 60.9643 69.8021 60.413 69.4287 60.1196C69.2687 59.9952 69.082 59.9329 68.8864 59.9329H68.8953Z" fill="white"/>
<path d="M65.3834 36.2566C65.4634 36.6744 65.828 36.9678 66.2369 36.9678C66.2903 36.9678 66.3436 36.9678 66.397 36.9501C66.8682 36.8611 67.1794 36.4166 67.0993 35.9454C66.8771 34.7184 66.557 33.5093 66.1569 32.3357C66.0324 31.9801 65.6946 31.7489 65.339 31.7489C65.2412 31.7489 65.1522 31.7667 65.0544 31.7934C64.601 31.9534 64.361 32.4424 64.521 32.8958C64.8322 33.7938 65.0811 34.7184 65.2767 35.6431C65.2767 35.6431 65.2856 35.6876 65.2945 35.7053C65.2945 35.7053 65.2945 35.7231 65.2945 35.732C65.2945 35.7409 65.2945 35.7498 65.2945 35.7587C65.2945 35.7587 65.2945 35.7587 65.2945 35.7676C65.2945 35.7676 65.2945 35.7676 65.2945 35.7765C65.2945 35.7765 65.2945 35.7765 65.2945 35.7854C65.2945 35.7854 65.2945 35.7854 65.2945 35.7942C65.2945 35.7942 65.2945 35.7942 65.2945 35.8031C65.2945 35.8031 65.2945 35.8031 65.2945 35.812C65.2945 35.812 65.2945 35.812 65.2945 35.8209C65.2945 35.8209 65.2945 35.8209 65.2945 35.8298C65.2945 35.8298 65.2945 35.8298 65.2945 35.8387C65.2945 35.8387 65.2945 35.8387 65.2945 35.8476C65.2945 35.8476 65.2945 35.8476 65.2945 35.8565C65.2945 35.8565 65.2945 35.8565 65.2945 35.8654C65.2945 35.8654 65.2945 35.8743 65.2945 35.8832C65.2945 35.8832 65.2945 35.892 65.2945 35.9009C65.2945 35.9009 65.2945 35.9187 65.2945 35.9276C65.2945 35.9276 65.2945 35.9454 65.2945 35.9543C65.3034 36.0076 65.3123 36.0521 65.3212 36.1054L65.3834 36.2566Z" fill="white"/>
<path d="M54.7232 26.93C54.7232 26.93 54.7854 26.93 54.8121 26.93C55.2922 26.8767 55.6301 26.4588 55.5856 25.9787C55.5856 25.9076 55.5767 25.8276 55.5767 25.7564C55.5767 25.7564 55.5767 25.7476 55.5767 25.7387C55.5767 25.7387 55.5767 25.7387 55.5767 25.7298C55.5767 25.7298 55.5767 25.7298 55.5767 25.7209C55.5767 25.7209 55.5767 25.712 55.5767 25.7031V25.6853C55.5767 25.6853 55.5767 25.6675 55.5767 25.6586C55.5945 25.5431 55.6212 25.4364 55.6567 25.3297V25.3119V25.2941C55.6567 25.2941 55.6567 25.2852 55.6567 25.2763C55.6567 25.2763 55.6567 25.2675 55.6567 25.2586C55.6567 25.2586 55.6567 25.2497 55.6567 25.2408C55.6567 25.2408 55.6567 25.2408 55.6567 25.2319C55.6567 25.2319 55.6567 25.2319 55.6567 25.223C55.6567 25.223 55.6567 25.223 55.6567 25.2141C55.6567 25.2141 55.6567 25.2052 55.6656 25.1963C55.6656 25.1963 55.6656 25.1874 55.6745 25.1785C55.6745 25.1785 55.6745 25.1697 55.6834 25.1608C55.719 25.0985 55.7634 25.0452 55.8079 24.9829C55.8168 24.9652 55.8346 24.9563 55.8434 24.9385C55.8434 24.9385 55.8523 24.9207 55.8612 24.9207C55.8612 24.9207 55.8701 24.9118 55.879 24.9029C55.879 24.9029 55.879 24.894 55.8879 24.8851C55.8879 24.8851 55.8879 24.8851 55.8968 24.8763C56.3058 24.4673 56.8303 24.2717 57.3638 24.2717H57.3727C57.3727 24.2717 57.3727 24.2717 57.3816 24.2717C57.3816 24.2717 57.3905 24.2717 57.3993 24.2717C57.3993 24.2717 57.4082 24.2717 57.4171 24.2717H57.4349C57.4349 24.2717 57.4705 24.2895 57.4883 24.2983C57.6572 24.3784 57.8172 24.4762 57.9595 24.6006C58.1195 24.7429 58.324 24.8051 58.5196 24.8051C58.7685 24.8051 59.0086 24.6984 59.1775 24.5028C59.4887 24.1383 59.4442 23.5871 59.0797 23.2759C58.3951 22.6891 57.5149 22.3601 56.6081 22.3601C55.5945 22.3601 54.6343 22.7602 53.9141 23.4715C53.0962 24.2895 52.705 25.4097 52.8205 26.5566C52.865 27.0012 53.2473 27.339 53.683 27.339L54.7232 26.93Z" fill="white"/>
<path d="M64.1209 50.9709C64.2365 51.0243 64.3609 51.0509 64.4854 51.0509C64.8144 51.0509 65.1255 50.8642 65.2767 50.5442C65.7923 49.415 66.228 48.2414 66.5659 47.0412C66.6992 46.5788 66.4325 46.0987 65.9702 45.9743C65.8901 45.9476 65.8101 45.9387 65.7301 45.9387C65.3478 45.9387 65.0011 46.1876 64.8944 46.5699C64.8499 46.7211 64.8055 46.8633 64.761 47.0145C64.761 47.0145 64.761 47.0323 64.761 47.0412C64.761 47.0412 64.761 47.0501 64.761 47.0589C64.761 47.0589 64.761 47.0589 64.761 47.0678C64.761 47.0678 64.761 47.0767 64.761 47.0856C64.761 47.0856 64.761 47.1034 64.761 47.1123C64.761 47.1123 64.761 47.1212 64.761 47.1301V47.139C64.761 47.139 64.761 47.139 64.761 47.1478V47.1656C64.761 47.1656 64.761 47.1656 64.761 47.1745C64.761 47.1745 64.761 47.1745 64.761 47.1834C64.761 47.1834 64.761 47.1834 64.761 47.1923C64.761 47.1923 64.761 47.2012 64.761 47.2101C64.761 47.2101 64.761 47.219 64.761 47.2279V47.2368C64.761 47.2368 64.761 47.2456 64.761 47.2545C64.761 47.2545 64.761 47.2545 64.761 47.2634C64.761 47.2634 64.761 47.2723 64.761 47.2812C64.761 47.2812 64.761 47.2812 64.761 47.2901C64.761 47.2901 64.761 47.2901 64.761 47.299C64.761 47.299 64.761 47.299 64.761 47.3079C64.761 47.3079 64.761 47.3079 64.761 47.3168C64.761 47.3168 64.761 47.3168 64.761 47.3257C64.761 47.3257 64.761 47.3257 64.761 47.3346C64.761 47.3346 64.761 47.3346 64.761 47.3434C64.761 47.3434 64.761 47.3523 64.761 47.3612V47.379C64.761 47.379 64.761 47.3879 64.761 47.3968C64.761 47.3968 64.761 47.4057 64.761 47.4146C64.761 47.4146 64.761 47.4324 64.761 47.4412C64.761 47.4412 64.761 47.459 64.761 47.4679C64.761 47.4679 64.761 47.4857 64.761 47.4946C64.761 47.4946 64.761 47.5035 64.761 47.5124C64.761 47.5124 64.761 47.5302 64.761 47.539C64.761 47.539 64.761 47.5568 64.761 47.5657C64.5654 48.1081 64.3431 48.6415 64.1031 49.1661C64.1031 49.1661 64.1031 49.1839 64.0942 49.1927C64.0942 49.1927 64.0942 49.2016 64.0942 49.2105C63.8986 49.6462 64.0942 50.1619 64.521 50.3575L64.1209 50.9709Z" fill="white"/>
<path d="M66.3347 44.1339C66.3347 44.1339 66.4058 44.1339 66.4414 44.1339C66.877 44.1339 67.2505 43.8138 67.3038 43.3693C67.4549 42.1423 67.5172 40.8887 67.4816 39.644C67.4727 39.1728 67.0815 38.7993 66.6192 38.7993C66.6192 38.7993 66.6014 38.7993 66.5925 38.7993C66.1124 38.8082 65.739 39.2083 65.7479 39.6884C65.7835 40.8442 65.7212 42.0089 65.579 43.1559C65.5167 43.6271 65.8546 44.0627 66.3347 44.125V44.1339Z" fill="white"/>
<path d="M59.3821 47.219C59.2576 47.1567 59.1332 47.1301 59.0087 47.1301C58.6886 47.1301 58.3774 47.3079 58.2263 47.6191C57.7729 48.5615 57.2305 49.4684 56.6081 50.313C56.3236 50.6953 56.4037 51.2376 56.7949 51.5222C56.946 51.6377 57.1327 51.6911 57.3105 51.6911C57.5773 51.6911 57.8351 51.5666 58.004 51.3354C58.6975 50.393 59.2932 49.3972 59.7911 48.3659C59.9956 47.9302 59.8178 47.4146 59.3821 47.2101V47.219Z" fill="white"/>
<path d="M56.9371 56.8744C56.8126 56.83 56.697 56.7678 56.5815 56.7055C56.5815 56.7055 56.5815 56.7055 56.5726 56.7055C56.5726 56.7055 56.5726 56.7055 56.5637 56.7055C56.5637 56.7055 56.5548 56.6966 56.5459 56.6877C56.4837 56.6433 56.4125 56.5899 56.3503 56.5277C56.3503 56.5277 56.3414 56.5188 56.3325 56.5099C56.3325 56.5099 56.3325 56.5099 56.3325 56.501C56.3325 56.501 56.3325 56.501 56.3325 56.4921C55.9324 55.8787 55.8969 55.1052 56.2169 54.4561C56.4303 54.0294 56.2525 53.5048 55.8257 53.2914C55.7013 53.2292 55.5679 53.2025 55.4434 53.2025C55.1234 53.2025 54.8122 53.3803 54.661 53.6826C53.9409 55.1496 54.2343 56.9011 55.3812 58.0569C55.7724 58.4481 56.2347 58.7415 56.7504 58.9371C56.8482 58.9727 56.9549 58.9905 57.0527 58.9905C57.4083 58.9905 57.7373 58.7771 57.8706 58.4215C58.0396 57.968 57.8084 57.4701 57.355 57.3101L56.9371 56.8744Z" fill="white"/>
<path d="M61.5692 27.1878C61.5692 27.1878 61.5781 27.2056 61.587 27.2056C61.587 27.2056 61.5958 27.2234 61.6047 27.2234C61.6047 27.2234 61.6136 27.2412 61.6225 27.2412C61.6225 27.2412 61.6225 27.2412 61.6314 27.2501C61.6314 27.2501 61.6314 27.2501 61.6314 27.259C61.6314 27.259 61.6314 27.2679 61.6403 27.2768C61.6403 27.2768 61.6492 27.2856 61.6581 27.2945C61.6581 27.2945 61.6581 27.3034 61.667 27.3123C61.667 27.3123 61.667 27.3123 61.667 27.3212C61.667 27.3212 61.667 27.3212 61.667 27.3301C61.667 27.3301 61.667 27.3301 61.667 27.339C61.667 27.339 61.667 27.339 61.667 27.3479C61.667 27.3479 61.667 27.3479 61.667 27.3568C61.667 27.3568 61.667 27.3568 61.667 27.3657C61.667 27.3657 61.667 27.3657 61.667 27.3746C61.667 27.3746 61.667 27.3834 61.6759 27.3923C61.6759 27.3923 61.6759 27.3923 61.6759 27.4012C61.6759 27.4012 61.6759 27.4012 61.6759 27.4101C61.6759 27.4101 61.6759 27.4101 61.6759 27.419C61.6759 27.419 61.6759 27.419 61.6759 27.4279C61.6759 27.4279 61.6759 27.4279 61.6759 27.4368C61.6759 27.4368 61.6759 27.4368 61.6759 27.4457C61.6759 27.4457 61.6759 27.4457 61.6759 27.4546V27.4635C61.6759 27.4635 61.6759 27.4635 61.6759 27.4724C61.6759 27.4724 61.6759 27.4724 61.6759 27.4812C61.6759 27.4812 61.6759 27.4901 61.6848 27.499C61.6848 27.499 61.6848 27.499 61.6848 27.5079C61.6848 27.5079 61.6848 27.5079 61.6848 27.5168C61.6848 27.5168 61.6848 27.5168 61.6848 27.5257C61.6848 27.5257 61.6848 27.5257 61.6848 27.5346C61.6848 27.5346 61.6848 27.5346 61.6848 27.5435C61.6848 27.5435 61.6848 27.5524 61.6936 27.5613C61.6936 27.5613 61.6936 27.5701 61.7025 27.579C61.7025 27.579 61.7025 27.579 61.7025 27.5879C61.7025 27.5879 61.7025 27.5879 61.7025 27.5968C61.7025 27.5968 61.7025 27.5968 61.7025 27.6057C61.7025 27.6057 61.7025 27.6057 61.7025 27.6146C61.7025 27.6146 61.7025 27.6146 61.7025 27.6235V27.6324C61.7025 27.6324 61.7025 27.6324 61.7025 27.6413C61.7025 27.6413 61.7025 27.6413 61.7025 27.6502C61.7025 27.6502 61.7025 27.6502 61.7025 27.6591C61.7025 27.6591 61.7025 27.6591 61.7025 27.6679C61.7025 27.6679 61.7025 27.6679 61.7025 27.6768C61.7025 27.6768 61.7025 27.6768 61.7025 27.6857C61.7025 27.6857 61.7025 27.6946 61.7114 27.7035C61.7114 27.7035 61.7114 27.7035 61.7114 27.7124C61.7114 27.7124 61.7114 27.7124 61.7114 27.7213C61.7114 27.7213 61.7114 27.7213 61.7114 27.7302C61.7114 27.7302 61.7114 27.7302 61.7114 27.7391C61.7114 27.7391 61.7114 27.7391 61.7114 27.748C61.7114 27.748 61.7114 27.748 61.7114 27.7569C61.7114 27.7569 61.7114 27.7569 61.7114 27.7657C61.7114 27.7657 61.7114 27.7746 61.7114 27.7835C61.7114 27.7835 61.7114 27.7924 61.7114 27.8013C61.7114 27.8013 61.7114 27.8013 61.7114 27.8102C61.7114 27.8102 61.7114 27.8102 61.7114 27.8191C61.7114 27.8191 61.7114 27.8191 61.7114 27.828C61.7114 27.828 61.7114 27.828 61.7114 27.8369V27.8458C61.7114 27.8458 61.7114 27.8458 61.7114 27.8547C61.7114 27.8547 61.7114 27.8547 61.7114 27.8635V27.8724V27.8813C61.7114 27.8813 61.7114 27.8813 61.7114 27.8902C61.7114 27.8902 61.7114 27.8902 61.7114 27.8991C61.7114 27.8991 61.7114 27.8991 61.7114 27.908C61.7114 27.908 61.7114 27.908 61.7114 27.9169C61.7114 27.9169 61.7114 27.9169 61.7114 27.9258C61.7114 27.9258 61.7114 27.9258 61.7114 27.9347C61.7114 27.9347 61.7114 27.9347 61.7114 27.9436C61.7114 27.9436 61.7114 27.9436 61.7114 27.9525C61.7114 27.9525 61.7114 27.9525 61.7114 27.9613C61.7114 27.9613 61.7114 27.9613 61.7114 27.9702C61.7114 27.9702 61.7114 27.9702 61.7114 27.9791V27.9969H61.7203C61.7203 27.9969 61.7203 27.9969 61.7203 28.0058C61.7203 28.0058 61.7203 28.0058 61.7203 28.0147C61.7203 28.0147 61.7203 28.0147 61.7203 28.0236C61.7203 28.0236 61.7203 28.0236 61.7203 28.0325C61.7203 28.0325 61.7203 28.0325 61.7203 28.0414C61.7203 28.0414 61.7203 28.0414 61.7203 28.0503C61.7203 28.0503 61.7203 28.0503 61.7203 28.0591C61.7203 28.0591 61.7203 28.0769 61.7292 28.0858C61.7826 28.1836 61.8359 28.2725 61.8804 28.3703C62.0404 28.6637 62.3338 28.8327 62.645 28.8327C62.7783 28.8327 62.9206 28.7971 63.0539 28.7349C63.4807 28.5126 63.6407 27.988 63.4185 27.5613C62.8406 26.4677 62.1649 25.4008 61.4269 24.405C61.258 24.1738 60.9913 24.0583 60.7334 24.0583C60.5556 24.0583 60.3689 24.1116 60.2178 24.2272C59.8355 24.5117 59.7554 25.054 60.0399 25.4452C60.1289 25.5697 60.2178 25.6942 60.3067 25.8186C60.3067 25.8186 60.3156 25.8364 60.3245 25.8364L61.5692 27.1878Z" fill="white"/>
<path d="M63.2141 52.6069C63.0629 52.5091 62.9029 52.4646 62.734 52.4646C62.4494 52.4646 62.1738 52.598 62.0138 52.8558C61.8893 53.0425 61.7737 53.2203 61.6404 53.3981C61.6404 53.3981 61.5959 53.4604 61.5781 53.4871C61.5781 53.4871 61.5692 53.5048 61.5604 53.5048C61.507 53.5849 61.4537 53.656 61.3914 53.736C61.3914 53.736 61.3825 53.7538 61.3736 53.7538C61.3736 53.7538 61.3559 53.7804 61.3381 53.7982C61.3381 53.7982 61.3292 53.816 61.3203 53.816C61.3203 53.816 61.2847 53.8605 61.2758 53.8782C60.858 54.4384 60.4134 54.9807 59.9422 55.5053C59.9422 55.5053 59.9067 55.5497 59.8889 55.5675C59.8889 55.5675 59.8889 55.5675 59.88 55.5764C59.5599 55.932 59.5866 56.4833 59.9422 56.8033C60.1111 56.9545 60.3156 57.0256 60.529 57.0256C60.7691 57.0256 61.0002 56.9278 61.1692 56.7411C62.0049 55.8165 62.7784 54.8296 63.463 53.7982C63.7297 53.3981 63.6141 52.8647 63.2141 52.598V52.6069Z" fill="white"/>
<path d="M59.9244 45.7431C59.9955 45.7609 60.0755 45.7698 60.1467 45.7698C60.529 45.7698 60.8757 45.512 60.9824 45.1296C61.2847 44.0094 61.4714 42.8625 61.5603 41.7067C61.5959 41.2266 61.2313 40.8176 60.7601 40.782C60.7424 40.782 60.7157 40.782 60.6979 40.782C60.2445 40.782 59.8711 41.1288 59.8355 41.5822C59.7555 42.6313 59.5865 43.6715 59.3198 44.6851C59.1953 45.1474 59.471 45.6275 59.9333 45.7431H59.9244Z" fill="white"/>
<path d="M59.4621 31.6511C58.9287 30.6375 58.2974 29.6684 57.5595 28.7526C57.3905 28.5393 57.1327 28.4237 56.8838 28.4237C56.697 28.4237 56.5014 28.4859 56.3414 28.6104C55.968 28.9127 55.9058 29.455 56.208 29.8284C56.866 30.6464 57.4439 31.5266 57.9329 32.4512C58.0929 32.7446 58.3863 32.9136 58.6975 32.9136C58.8309 32.9136 58.9731 32.878 59.1065 32.8158C59.5332 32.5935 59.6933 32.0689 59.471 31.6422L59.4621 31.6511Z" fill="white"/>
<path d="M59.7733 38.4437C59.8266 38.8882 60.2001 39.2172 60.6357 39.2172C60.6713 39.2172 60.6979 39.2172 60.7335 39.2172C61.2136 39.1639 61.5515 38.7371 61.4981 38.257C61.4981 38.1859 61.4803 38.1058 61.4715 38.0347C61.3381 37.0034 61.1158 35.9809 60.8046 34.9763C60.6891 34.6028 60.3423 34.3628 59.9778 34.3628C59.8889 34.3628 59.8089 34.3717 59.72 34.3984C59.2576 34.5406 59.0087 35.0207 59.142 35.483C59.4532 36.4788 59.6666 37.519 59.7822 38.5593L59.7733 38.4437Z" fill="white"/>
<path d="M52.4827 30.9309C51.6737 30.1219 50.3578 30.1219 49.5488 30.9309C48.7397 31.74 48.7397 33.0558 49.5488 33.8649C53.1229 37.439 53.1229 43.2537 49.5488 46.8278C48.7397 47.6369 48.7397 48.9527 49.5488 49.7618C49.9488 50.1619 50.4823 50.3664 51.0158 50.3664C51.5492 50.3664 52.0738 50.1619 52.4827 49.7618C57.675 44.5695 57.675 36.1321 52.4827 30.9398V30.9309Z" fill="white"/>
<path d="M41.1291 14.7495C39.9111 14.0916 38.4974 14.1539 37.3505 14.9096L15.4167 29.2861H7.00597C4.96996 29.2861 3.30737 30.9398 3.30737 32.9847V47.708C3.30737 49.744 4.96107 51.4066 7.00597 51.4066H15.5323L37.3416 65.7742C37.964 66.1832 38.6663 66.3966 39.3687 66.3966C39.9644 66.3966 40.569 66.2454 41.1291 65.9431C42.3472 65.2852 43.0673 64.0761 43.0673 62.6891V18.0036C43.0673 16.6255 42.3383 15.4075 41.1291 14.7495ZM5.04109 47.708V32.9847C5.04109 31.9 5.92129 31.0198 6.99708 31.0198H14.7944L14.9188 49.664H7.00597C5.92129 49.664 5.04998 48.7838 5.04998 47.6991L5.04109 47.708ZM41.3336 62.6802C41.3336 63.4092 40.9513 64.0583 40.3023 64.405C39.6532 64.7518 38.9064 64.7162 38.2929 64.3161L16.6614 50.0641L16.5281 30.6197L38.3018 16.3677C38.9153 15.9676 39.6621 15.932 40.3111 16.2788C40.9513 16.6255 41.3425 17.2746 41.3425 18.0036V62.6802H41.3336Z" fill="white"/>
</svg>
