<svg width="80" height="80" viewBox="0 0 80 80" fill="none" xmlns="http://www.w3.org/2000/svg">
<path d="M74.2954 45.3871H74.0794C73.4633 45.3871 72.8713 45.4831 72.3112 45.6672V17.6724C72.3112 15.6482 70.6631 14 68.6389 14H3.67237C1.64816 14 0 15.6482 0 17.6724V52.4998C0 54.5241 1.64816 56.1722 3.67237 56.1722H13.4974C13.7614 57.3163 14.1934 58.4124 14.7775 59.4365C16.9617 63.2529 21.0501 65.6292 25.4585 65.6292C27.5788 65.6292 29.683 65.0691 31.5312 64.013C32.4992 63.4609 33.3793 62.7809 34.1554 61.9968C36.4196 64.269 39.54 65.6292 42.8443 65.6292C48.6049 65.6292 53.4533 61.6448 54.7735 56.2842H56.3176C56.5417 58.1004 58.0938 59.5166 59.966 59.5166H72.0472C74.0714 59.5166 75.7196 57.8684 75.7196 55.8442V54.7241C75.9196 54.7561 76.1196 54.7721 76.3276 54.7721C78.3518 54.7721 80 53.1239 80 51.0997C80 47.9474 77.4397 45.3871 74.2874 45.3871H74.2954Z" fill="#204743"/>
<path d="M25.4505 61.9569C30.2051 61.9569 34.0594 58.1025 34.0594 53.348C34.0594 48.5935 30.2051 44.7391 25.4505 44.7391C20.696 44.7391 16.8417 48.5935 16.8417 53.348C16.8417 58.1025 20.696 61.9569 25.4505 61.9569Z" fill="#204743" stroke="white" stroke-width="2" stroke-linejoin="round"/>
<path d="M27.7388 51.8518L31.9312 47.4914L31.2031 46.7953L27.0907 51.0678C26.7867 51.3878 26.3387 51.4918 25.9066 51.3958C25.8026 51.3718 25.6986 51.3558 25.5946 51.3478C25.1705 51.3158 24.7945 51.0758 24.5945 50.6997L21.8182 45.4992L20.9301 45.9713L23.7064 51.1638C23.9064 51.5398 23.8984 51.9879 23.6904 52.3559C23.6344 52.4519 23.5944 52.5479 23.5544 52.6439C23.4024 53.06 23.0583 53.372 22.6263 53.444L16.7937 54.4841L16.9697 55.4762L22.9063 54.4201C23.2984 54.3481 23.7064 54.4761 23.9944 54.7561C24.0504 54.8121 24.1144 54.8601 24.1704 54.9161C24.5145 55.1882 24.6825 55.6202 24.6265 56.0523L23.7944 62.0529L24.7945 62.1889L25.6426 56.0763C25.6986 55.6762 25.9626 55.3402 26.3227 55.1642C26.3627 55.1482 26.3947 55.1242 26.4347 55.1082C26.7947 54.9001 27.2347 54.8681 27.6028 55.0522L33.1393 57.7404L33.5794 56.8363L28.1228 54.1881C27.7388 54.0041 27.4748 53.628 27.4348 53.196C27.4348 53.124 27.4188 53.06 27.4028 52.988C27.3228 52.5799 27.4348 52.1639 27.7148 51.8678L27.7388 51.8518Z" fill="white"/>
<path d="M50.6451 17.6724H3.67236V52.4998H50.6451V17.6724Z" fill="white" stroke="white" stroke-width="2" stroke-linejoin="round"/>
<path d="M68.6389 17.6724H20.7541V52.4998H68.6389V17.6724Z" fill="#204743" stroke="white" stroke-width="2" stroke-linejoin="round"/>
<path d="M42.8523 61.9648C47.6068 61.9648 51.4611 58.1105 51.4611 53.3559C51.4611 48.6014 47.6068 44.7471 42.8523 44.7471C38.0977 44.7471 34.2434 48.6014 34.2434 53.3559C34.2434 58.1105 38.0977 61.9648 42.8523 61.9648Z" fill="#204743" stroke="white" stroke-width="2" stroke-linejoin="round"/>
<path d="M45.5885 53.1879L51.3891 51.4757L51.1011 50.5076L45.4125 52.1798C44.9885 52.3078 44.5484 52.1798 44.2284 51.8758C44.1484 51.8037 44.0684 51.7397 43.9804 51.6757C43.6283 51.4357 43.4203 51.0437 43.4283 50.6196L43.5963 44.731L42.5882 44.699L42.4202 50.5876C42.4122 51.0117 42.1722 51.3957 41.8122 51.6117C41.7241 51.6677 41.6361 51.7317 41.5561 51.7957C41.2201 52.0758 40.7641 52.1798 40.356 52.0358L34.7795 50.0516L34.4434 51.0037L40.132 53.0279C40.508 53.1639 40.7961 53.4759 40.9081 53.86C40.9321 53.94 40.9561 54.012 40.9881 54.084C41.1561 54.484 41.0841 54.9481 40.8201 55.2921L37.1237 60.0926L37.9238 60.7086L41.6921 55.8201C41.9402 55.5001 42.3322 55.3401 42.7402 55.3641C42.7803 55.3641 42.8203 55.3641 42.8683 55.3641C43.2843 55.3641 43.6763 55.5481 43.9164 55.8922L47.3887 60.9647L48.2208 60.3966L44.7965 55.3961C44.5564 55.0441 44.5084 54.58 44.6924 54.196C44.7244 54.132 44.7485 54.068 44.7725 54.004C44.9085 53.6119 45.2045 53.3079 45.5965 53.1879H45.5885Z" fill="white"/>
<path d="M31.4911 53.228C31.4911 46.9553 36.5797 41.8668 42.8523 41.8668C49.1249 41.8668 54.2134 46.9553 54.2134 53.228" stroke="white" stroke-width="2" stroke-linejoin="round"/>
<path d="M21.5942 27.7774H68.6389" stroke="white" stroke-width="2" stroke-linejoin="round"/>
<path d="M21.5942 27.7774H2.80829" stroke="#204743" stroke-width="2" stroke-linejoin="round"/>
<path d="M59.966 52.5959V55.8522H72.0392V51.0997C72.0392 49.9716 72.9513 49.0675 74.0714 49.0675H74.2874C75.4155 49.0675 76.3196 49.9796 76.3196 51.0997" stroke="white" stroke-width="2" stroke-linejoin="round"/>
<path d="M63.8144 52.5319V55.5882" stroke="white" stroke-width="2" stroke-linejoin="round"/>
</svg>
