<svg width="80" height="80" viewBox="0 0 80 80" fill="none" xmlns="http://www.w3.org/2000/svg">
<path d="M43.4872 10.2374C39.7812 10.2374 36.2222 10.8577 32.8835 11.9842L32.3121 10.4088C38.7853 8.25376 45.8871 8.00887 52.7031 9.89451C52.9072 9.95165 53.1194 9.92716 53.3072 9.82104C53.4868 9.71492 53.6255 9.5435 53.6827 9.33943L54.6867 5.71509C54.7439 5.51102 54.7194 5.29062 54.6133 5.11103C54.5071 4.93145 54.3357 4.79268 54.1316 4.73554C40.1649 0.874471 25.1614 4.80084 14.9741 14.98C7.17846 22.7675 3.02353 33.1589 3.26842 44.2278C3.27658 44.6604 3.63575 45.0033 4.06022 45.0033H4.07655L7.83966 44.9216C8.05189 44.9216 8.24781 44.8319 8.39474 44.6768C8.54167 44.5217 8.6233 44.3176 8.61514 44.1054C8.4029 34.5057 12.0028 25.502 18.7535 18.7595C22.2309 15.282 26.3532 12.6699 30.8183 10.9557L31.3897 12.5311C19.0229 17.3799 10.2396 29.4284 10.2396 43.4931C10.2396 61.8271 25.1532 76.7408 43.4872 76.7408C61.8211 76.7408 76.7348 61.8271 76.7348 43.4931C76.7348 25.1592 61.8211 10.2374 43.4872 10.2374Z" fill="#204743"/>
<path d="M43.4872 80.0059C24.9492 80.0059 9.59472 66.1208 7.27644 48.2032L4.1582 48.2685C1.90524 48.3338 0.0604127 46.5134 0.0114351 44.3013C-0.257942 32.3263 4.23983 21.0941 12.6721 12.6699C23.6758 1.64996 39.9037 -2.59477 55.0051 1.57649C56.05 1.86219 56.9152 2.53972 57.454 3.47845C57.9927 4.42535 58.1315 5.51919 57.8376 6.56404L57.005 9.55984C70.4657 14.9474 80 28.1223 80 43.485C80 63.6229 63.617 79.9978 43.4872 79.9978V80.0059ZM33.2264 15.2331C33.0305 15.3637 32.8183 15.478 32.5897 15.5678C21.1779 20.041 13.5129 31.2651 13.5129 43.4931C13.5129 60.0231 26.9654 73.4756 43.4954 73.4756C60.0253 73.4756 73.4778 60.0231 73.4778 43.4931C73.4778 26.9632 60.0253 13.5107 43.4954 13.5107C40.2465 13.5107 37.0303 14.0413 33.9366 15.0861C33.6999 15.1678 33.4631 15.2167 33.2264 15.2412V15.2331Z" fill="#204743"/>
<path d="M15.5373 15.5351C7.89683 23.1756 3.82353 33.3548 4.06842 44.2115L7.83153 44.1298C7.61113 34.3098 11.2926 25.1021 18.1984 18.2044C27.2267 9.17617 40.5322 5.69876 52.9154 9.1272L53.9194 5.50285C40.222 1.71525 25.5206 5.55999 15.5373 15.5433V15.5351Z" fill="white" stroke="white" stroke-width="2" stroke-linecap="round" stroke-linejoin="round"/>
<path d="M43.4872 76.7408C25.1532 76.7408 10.2396 61.8271 10.2396 43.4931C10.2396 25.1592 25.1532 10.2374 43.4872 10.2374C61.8211 10.2374 76.7348 25.151 76.7348 43.485C76.7348 61.8189 61.8211 76.7326 43.4872 76.7326V76.7408ZM43.4872 14.0903C27.2756 14.0903 14.0843 27.2816 14.0843 43.4931C14.0843 59.7047 27.2756 72.896 43.4872 72.896C59.6988 72.896 72.8901 59.7047 72.8901 43.4931C72.8901 27.2816 59.6988 14.0903 43.4872 14.0903Z" fill="white"/>
<path d="M43.4872 47.0114C45.4303 47.0114 47.0054 45.4362 47.0054 43.4931C47.0054 41.5501 45.4303 39.9749 43.4872 39.9749C41.5442 39.9749 39.969 41.5501 39.969 43.4931C39.969 45.4362 41.5442 47.0114 43.4872 47.0114Z" fill="#204743" stroke="white" stroke-width="2" stroke-linecap="round" stroke-linejoin="round"/>
<path d="M51.7236 41.8361L70.6943 43.0442" stroke="white" stroke-width="2" stroke-linecap="round" stroke-linejoin="round"/>
<path d="M16.0679 41.33L35.8957 42.5952" stroke="white" stroke-width="2" stroke-linecap="round" stroke-linejoin="round"/>
<path d="M48.9401 48.7909L62.7926 62.5699" stroke="white" stroke-width="2" stroke-linecap="round" stroke-linejoin="round"/>
<path d="M24.9329 25.2816L37.5201 37.7791" stroke="white" stroke-width="2" stroke-linecap="round" stroke-linejoin="round"/>
<path d="M50.6869 38.7995L62.1313 30.9304" stroke="white" stroke-width="2" stroke-linecap="round" stroke-linejoin="round"/>
<path d="M22.6962 58.1048L37.7079 47.7869" stroke="white" stroke-width="2" stroke-linecap="round" stroke-linejoin="round"/>
<path d="M42.6057 21.7552L43.324 33.0772" stroke="white" stroke-width="2" stroke-linecap="round" stroke-linejoin="round"/>
</svg>
