<svg width="80" height="80" viewBox="0 0 80 80" fill="none" xmlns="http://www.w3.org/2000/svg">
<path d="M69.3659 39.3565L64.901 24.2175C63.9088 20.8728 60.7802 18.5363 57.2915 18.5363H55.7471C53.3947 18.5363 51.4743 20.4567 51.4743 22.8092C51.4743 25.1617 53.3867 27.082 55.7471 27.082H56.8354L57.4595 29.1945L53.5547 31.2349C53.5707 30.9948 53.5707 30.7548 53.5467 30.5147C53.3467 28.4023 51.7383 26.738 49.6339 26.4659L41.1202 25.3537V20.4807C41.1202 18.5603 39.5599 17 37.6395 17H3.4807C1.56031 16.992 0 18.5523 0 20.4727V52.2151C0 53.8314 1.10422 55.1917 2.60052 55.5837C4.94499 59.7606 9.40988 62.4491 14.2829 62.4491C15.9712 62.4491 17.6435 62.1291 19.2038 61.5129C20.7642 62.1291 22.4445 62.4491 24.1248 62.4491C28.9498 62.4491 33.3827 59.8086 35.7431 55.6958H37.6315C38.9838 55.6958 40.152 54.9196 40.7281 53.7914L44.809 54.9836C45.073 55.0636 45.4731 55.1677 45.9692 55.2077C47.6255 55.3357 49.2739 54.7996 50.5301 53.7194C51.5543 52.8392 52.2504 51.679 52.5465 50.3747L57.8516 46.2779C57.2194 47.7102 56.8754 49.2785 56.8754 50.8868C56.8754 57.2641 62.0604 62.4491 68.4377 62.4491C74.815 62.4491 80 57.2641 80 50.8868C80 44.5095 75.3031 39.8206 69.3499 39.3565H69.3659Z" fill="#204743"/>
<path d="M14.2828 38.7404C8.59371 38.7404 3.96878 43.3653 3.96878 49.0544C3.96878 54.7436 8.59371 59.3685 14.2828 59.3685C19.972 59.3685 24.5969 54.7436 24.5969 49.0544C24.5969 43.3653 19.972 38.7404 14.2828 38.7404ZM22.2124 49.0544C22.2124 53.4313 18.6517 56.984 14.2828 56.984C9.91397 56.984 6.35326 53.4233 6.35326 49.0544C6.35326 44.6855 9.91397 41.1248 14.2828 41.1248C18.6517 41.1248 22.2124 44.6855 22.2124 49.0544Z" fill="white"/>
<path d="M33.2386 20.4727H3.48068V52.2151H33.2386V20.4727Z" fill="white" stroke="white" stroke-width="0.99" stroke-linecap="round" stroke-linejoin="round"/>
<path d="M68.4536 42.3971C63.7727 42.3971 59.9719 46.2059 59.9719 50.8788C59.9719 55.5517 63.7807 59.3605 68.4536 59.3605C73.1266 59.3605 76.9353 55.5517 76.9353 50.8788C76.9353 46.2059 73.1266 42.3971 68.4536 42.3971ZM74.8469 50.8868C74.8469 54.4155 71.9743 57.2801 68.4536 57.2801C64.9329 57.2801 62.0603 54.4075 62.0603 50.8868C62.0603 47.3661 64.9329 44.4935 68.4536 44.4935C71.9743 44.4935 74.8469 47.3661 74.8469 50.8868Z" fill="white"/>
<path d="M68.4057 48.4063L61.5563 25.1936C60.9962 23.2972 59.2598 22.001 57.2835 22.001H55.7391C55.2991 22.001 54.947 22.353 54.947 22.7931C54.947 23.2332 55.2991 23.5853 55.7391 23.5853H57.2835C58.5557 23.5853 59.6679 24.4175 60.028 25.6417L61.5883 30.9388L45.8892 39.1564L44.7049 31.3308L43.1366 31.5709L44.3129 39.2924H37.6395V50.1026H47.2094L63.5327 37.4841L66.8854 48.8543C67.0134 49.2784 67.4535 49.5185 67.8696 49.3905C68.2937 49.2624 68.5337 48.8223 68.4057 48.4063ZM39.2318 40.8848H44.5609L45.7211 48.5183H39.2398V40.8848H39.2318ZM47.2494 48.0702L46.1532 40.8207L62.0604 32.4911L63.0526 35.8517L47.2494 48.0702Z" fill="#204743" stroke="white" stroke-width="0.99" stroke-linecap="round" stroke-linejoin="round"/>
<path d="M49.0418 31.987H40.08C39.5039 31.987 39.0398 31.5229 39.0398 30.9468V29.7705C39.0398 29.1384 39.5919 28.6583 40.216 28.7383L49.1778 29.9146C49.6579 29.9786 50.034 30.3627 50.082 30.8508C50.138 31.4589 49.6579 31.995 49.0418 31.995V31.987Z" fill="white" stroke="white" stroke-width="0.99" stroke-linecap="round" stroke-linejoin="round"/>
<path d="M37.6395 20.4727H7.48148V52.2151H37.6395V20.4727Z" fill="#204743" stroke="white" stroke-width="0.99" stroke-linecap="round" stroke-linejoin="round"/>
<path d="M37.6395 20.4727H7.48148V25.8818H37.6395V20.4727Z" fill="#204743" stroke="white" stroke-width="0.99" stroke-linecap="round" stroke-linejoin="round"/>
<path d="M45.8012 51.647L41.3363 50.3427C40.3201 50.0467 40.256 48.6224 41.2482 48.2383L45.5531 46.574C47.2574 45.9178 49.1938 47.0861 49.2338 48.9104C49.2338 48.9985 49.2338 49.0865 49.2338 49.1745C49.1218 50.7188 47.7696 51.863 46.2572 51.735C46.1052 51.719 45.9532 51.687 45.8092 51.647H45.8012Z" fill="white" stroke="white" stroke-width="0.99" stroke-linecap="round" stroke-linejoin="round"/>
<path d="M24.1248 38.7404C18.4357 38.7404 13.8107 43.3653 13.8107 49.0544C13.8107 54.7436 18.4357 59.3685 24.1248 59.3685C29.8139 59.3685 34.4389 54.7436 34.4389 49.0544C34.4389 43.3653 29.8139 38.7404 24.1248 38.7404ZM32.0624 49.0544C32.0624 53.4313 28.5017 56.984 24.1328 56.984C19.7639 56.984 16.2032 53.4233 16.2032 49.0544C16.2032 44.6855 19.7639 41.1248 24.1328 41.1248C28.5017 41.1248 32.0624 44.6855 32.0624 49.0544Z" fill="white"/>
<path d="M3.06461 25.8978H7.84956" stroke="#204743" stroke-width="0.99" stroke-linejoin="round"/>
</svg>
