<svg width="80" height="80" viewBox="0 0 80 80" fill="none" xmlns="http://www.w3.org/2000/svg">
<path d="M76.4179 5.92877L53.9823 0.124321C52.8356 -0.177902 51.5912 0.0798761 50.6579 0.799877C49.7245 1.51988 49.1645 2.65766 49.1645 3.84877V18.1243H41.3867C39.9378 18.1243 38.7112 19.1021 38.3378 20.4266C35.7512 12.5866 28.3556 6.89767 19.6623 6.89767C8.81779 6.89767 0 15.7155 0 26.551C0 36.0355 6.69334 43.9822 15.7067 45.8133V52.6844C12.6045 53.7777 10.0089 56 8.46224 58.9511C3.98223 61.1111 1.06667 65.7066 1.06667 70.8089C1.10222 75.8578 5.30667 79.9733 10.4534 79.9733L38.9067 80C39.1378 80 39.3689 79.9911 39.6001 79.9733H75.449C77.5734 79.9733 79.2979 78.2489 79.2979 76.1244V9.65322C79.2979 7.90211 78.1157 6.37322 76.4179 5.92877Z" fill="#204743"/>
<path d="M55.7157 19.7067C56.089 19.7067 56.3912 19.4045 56.3912 19.0311V15.2533C56.3912 14.88 56.089 14.5778 55.7157 14.5778C55.3423 14.5778 55.0401 14.88 55.0401 15.2533V19.0311C55.0401 19.4045 55.3423 19.7067 55.7157 19.7067Z" fill="white"/>
<path d="M59.1201 19.7067C59.4934 19.7067 59.7956 19.4045 59.7956 19.0311V15.2533C59.7956 14.88 59.4934 14.5778 59.1201 14.5778C58.7467 14.5778 58.4445 14.88 58.4445 15.2533V19.0311C58.4445 19.4045 58.7467 19.7067 59.1201 19.7067Z" fill="white"/>
<path d="M62.5246 19.7067C62.8979 19.7067 63.2001 19.4045 63.2001 19.0311V15.2533C63.2001 14.88 62.8979 14.5778 62.5246 14.5778C62.1512 14.5778 61.849 14.88 61.849 15.2533V19.0311C61.849 19.4045 62.1512 19.7067 62.5246 19.7067Z" fill="white"/>
<path d="M65.929 19.7067C66.3023 19.7067 66.6046 19.4045 66.6046 19.0311V15.2533C66.6046 14.88 66.3023 14.5778 65.929 14.5778C65.5557 14.5778 65.2534 14.88 65.2534 15.2533V19.0311C65.2534 19.4045 65.5557 19.7067 65.929 19.7067Z" fill="white"/>
<path d="M69.3423 19.7067C69.7157 19.7067 70.0179 19.4045 70.0179 19.0311V15.2533C70.0179 14.88 69.7157 14.5778 69.3423 14.5778C68.969 14.5778 68.6668 14.88 68.6668 15.2533V19.0311C68.6668 19.4045 68.969 19.7067 69.3423 19.7067Z" fill="white"/>
<path d="M72.7468 19.7067C73.1201 19.7067 73.4223 19.4045 73.4223 19.0311V15.2533C73.4223 14.88 73.1201 14.5778 72.7468 14.5778C72.3734 14.5778 72.0712 14.88 72.0712 15.2533V19.0311C72.0712 19.4045 72.3734 19.7067 72.7468 19.7067Z" fill="white"/>
<path d="M62.5246 28.3467C62.8979 28.3467 63.2001 28.0445 63.2001 27.6711V23.8934C63.2001 23.52 62.8979 23.2178 62.5246 23.2178C62.1512 23.2178 61.849 23.52 61.849 23.8934V27.6711C61.849 28.0445 62.1512 28.3467 62.5246 28.3467Z" fill="white"/>
<path d="M65.929 28.3467C66.3023 28.3467 66.6046 28.0445 66.6046 27.6711V23.8934C66.6046 23.52 66.3023 23.2178 65.929 23.2178C65.5557 23.2178 65.2534 23.52 65.2534 23.8934V27.6711C65.2534 28.0445 65.5557 28.3467 65.929 28.3467Z" fill="white"/>
<path d="M69.3423 28.3467C69.7157 28.3467 70.0179 28.0445 70.0179 27.6711V23.8934C70.0179 23.52 69.7157 23.2178 69.3423 23.2178C68.969 23.2178 68.6668 23.52 68.6668 23.8934V27.6711C68.6668 28.0445 68.969 28.3467 69.3423 28.3467Z" fill="white"/>
<path d="M72.7468 28.3467C73.1201 28.3467 73.4223 28.0445 73.4223 27.6711V23.8934C73.4223 23.52 73.1201 23.2178 72.7468 23.2178C72.3734 23.2178 72.0712 23.52 72.0712 23.8934V27.6711C72.0712 28.0445 72.3734 28.3467 72.7468 28.3467Z" fill="white"/>
<path d="M62.5246 36.9867C62.8979 36.9867 63.2001 36.6845 63.2001 36.3112V32.5334C63.2001 32.16 62.8979 31.8578 62.5246 31.8578C62.1512 31.8578 61.849 32.16 61.849 32.5334V36.3112C61.849 36.6845 62.1512 36.9867 62.5246 36.9867Z" fill="white"/>
<path d="M65.929 36.9867C66.3023 36.9867 66.6046 36.6845 66.6046 36.3112V32.5334C66.6046 32.16 66.3023 31.8578 65.929 31.8578C65.5557 31.8578 65.2534 32.16 65.2534 32.5334V36.3112C65.2534 36.6845 65.5557 36.9867 65.929 36.9867Z" fill="white"/>
<path d="M69.3423 36.9867C69.7157 36.9867 70.0179 36.6845 70.0179 36.3112V32.5334C70.0179 32.16 69.7157 31.8578 69.3423 31.8578C68.969 31.8578 68.6668 32.16 68.6668 32.5334V36.3112C68.6668 36.6845 68.969 36.9867 69.3423 36.9867Z" fill="white"/>
<path d="M72.7468 36.9867C73.1201 36.9867 73.4223 36.6845 73.4223 36.3112V32.5334C73.4223 32.16 73.1201 31.8578 72.7468 31.8578C72.3734 31.8578 72.0712 32.16 72.0712 32.5334V36.3112C72.0712 36.6845 72.3734 36.9867 72.7468 36.9867Z" fill="white"/>
<path d="M62.5246 45.6267C62.8979 45.6267 63.2001 45.3245 63.2001 44.9512V41.1734C63.2001 40.8001 62.8979 40.4978 62.5246 40.4978C62.1512 40.4978 61.849 40.8001 61.849 41.1734V44.9512C61.849 45.3245 62.1512 45.6267 62.5246 45.6267Z" fill="white"/>
<path d="M65.929 45.6267C66.3023 45.6267 66.6046 45.3245 66.6046 44.9512V41.1734C66.6046 40.8001 66.3023 40.4978 65.929 40.4978C65.5557 40.4978 65.2534 40.8001 65.2534 41.1734V44.9512C65.2534 45.3245 65.5557 45.6267 65.929 45.6267Z" fill="white"/>
<path d="M69.3423 45.6267C69.7157 45.6267 70.0179 45.3245 70.0179 44.9512V41.1734C70.0179 40.8001 69.7157 40.4978 69.3423 40.4978C68.969 40.4978 68.6668 40.8001 68.6668 41.1734V44.9512C68.6668 45.3245 68.969 45.6267 69.3423 45.6267Z" fill="white"/>
<path d="M72.7468 45.6267C73.1201 45.6267 73.4223 45.3245 73.4223 44.9512V41.1734C73.4223 40.8001 73.1201 40.4978 72.7468 40.4978C72.3734 40.4978 72.0712 40.8001 72.0712 41.1734V44.9512C72.0712 45.3245 72.3734 45.6267 72.7468 45.6267Z" fill="white"/>
<path d="M62.5246 54.2579C62.8979 54.2579 63.2001 53.9556 63.2001 53.5823V49.8045C63.2001 49.4312 62.8979 49.129 62.5246 49.129C62.1512 49.129 61.849 49.4312 61.849 49.8045V53.5823C61.849 53.9556 62.1512 54.2579 62.5246 54.2579Z" fill="white"/>
<path d="M65.929 54.2579C66.3023 54.2579 66.6046 53.9556 66.6046 53.5823V49.8045C66.6046 49.4312 66.3023 49.129 65.929 49.129C65.5557 49.129 65.2534 49.4312 65.2534 49.8045V53.5823C65.2534 53.9556 65.5557 54.2579 65.929 54.2579Z" fill="white"/>
<path d="M69.3423 54.2579C69.7157 54.2579 70.0179 53.9556 70.0179 53.5823V49.8045C70.0179 49.4312 69.7157 49.129 69.3423 49.129C68.969 49.129 68.6668 49.4312 68.6668 49.8045V53.5823C68.6668 53.9556 68.969 54.2579 69.3423 54.2579Z" fill="white"/>
<path d="M72.7468 54.2579C73.1201 54.2579 73.4223 53.9556 73.4223 53.5823V49.8045C73.4223 49.4312 73.1201 49.129 72.7468 49.129C72.3734 49.129 72.0712 49.4312 72.0712 49.8045V53.5823C72.0712 53.9556 72.3734 54.2579 72.7468 54.2579Z" fill="white"/>
<path d="M62.5246 62.8979C62.8979 62.8979 63.2001 62.5957 63.2001 62.2223V58.4445C63.2001 58.0712 62.8979 57.769 62.5246 57.769C62.1512 57.769 61.849 58.0712 61.849 58.4445V62.2223C61.849 62.5957 62.1512 62.8979 62.5246 62.8979Z" fill="white"/>
<path d="M65.929 62.8979C66.3023 62.8979 66.6046 62.5957 66.6046 62.2223V58.4445C66.6046 58.0712 66.3023 57.769 65.929 57.769C65.5557 57.769 65.2534 58.0712 65.2534 58.4445V62.2223C65.2534 62.5957 65.5557 62.8979 65.929 62.8979Z" fill="white"/>
<path d="M69.3423 62.8979C69.7157 62.8979 70.0179 62.5957 70.0179 62.2223V58.4445C70.0179 58.0712 69.7157 57.769 69.3423 57.769C68.969 57.769 68.6668 58.0712 68.6668 58.4445V62.2223C68.6668 62.5957 68.969 62.8979 69.3423 62.8979Z" fill="white"/>
<path d="M72.7468 62.8979C73.1201 62.8979 73.4223 62.5957 73.4223 62.2223V58.4445C73.4223 58.0712 73.1201 57.769 72.7468 57.769C72.3734 57.769 72.0712 58.0712 72.0712 58.4445V62.2223C72.0712 62.5957 72.3734 62.8979 72.7468 62.8979Z" fill="white"/>
<path d="M62.5246 71.5379C62.8979 71.5379 63.2001 71.2357 63.2001 70.8623V67.0846C63.2001 66.7112 62.8979 66.409 62.5246 66.409C62.1512 66.409 61.849 66.7112 61.849 67.0846V70.8623C61.849 71.2357 62.1512 71.5379 62.5246 71.5379Z" fill="white"/>
<path d="M65.929 71.5379C66.3023 71.5379 66.6046 71.2357 66.6046 70.8623V67.0846C66.6046 66.7112 66.3023 66.409 65.929 66.409C65.5557 66.409 65.2534 66.7112 65.2534 67.0846V70.8623C65.2534 71.2357 65.5557 71.5379 65.929 71.5379Z" fill="white"/>
<path d="M69.3423 71.5379C69.7157 71.5379 70.0179 71.2357 70.0179 70.8623V67.0846C70.0179 66.7112 69.7157 66.409 69.3423 66.409C68.969 66.409 68.6668 66.7112 68.6668 67.0846V70.8623C68.6668 71.2357 68.969 71.5379 69.3423 71.5379Z" fill="white"/>
<path d="M72.7468 71.5379C73.1201 71.5379 73.4223 71.2357 73.4223 70.8623V67.0846C73.4223 66.7112 73.1201 66.409 72.7468 66.409C72.3734 66.409 72.0712 66.7112 72.0712 67.0846V70.8623C72.0712 71.2357 72.3734 71.5379 72.7468 71.5379Z" fill="white"/>
<path d="M75.6179 9.00445L53.1734 3.1911C52.969 3.13777 52.7556 3.1911 52.5868 3.30666C52.4179 3.4311 52.3201 3.63555 52.3201 3.83999V21.28H41.369V27.52C39.7867 26.88 38.0534 26.5156 36.2401 26.5156C36.2045 26.5156 36.1689 26.5156 36.1245 26.5156C36.1156 17.4311 28.72 10.0533 19.6356 10.0533C10.5511 10.0533 3.17334 17.4578 3.17334 26.5511C3.17334 35.6445 10.1511 42.6134 18.88 43.0223V55.1823C15.2889 55.609 12.1689 57.9823 10.8356 61.3956C6.88001 62.7912 4.24001 66.4979 4.24001 70.7912C4.25779 74.1068 7.0489 76.809 10.4534 76.809L38.8978 76.8357C39.0845 76.8357 39.2801 76.8268 39.4667 76.809H75.449C75.8223 76.809 76.1246 76.5068 76.1246 76.1334V9.66223C76.1246 9.35111 75.9201 9.08445 75.6179 9.00445ZM46.7556 25.5289C46.7556 25.1556 47.0579 24.8534 47.4312 24.8534C47.8045 24.8534 48.1067 25.1556 48.1067 25.5289V29.3067C48.1067 29.68 47.8045 29.9823 47.4312 29.9823C47.0579 29.9823 46.7556 29.68 46.7556 29.3067V25.5289ZM43.4134 25.5289C43.4134 25.1556 43.7156 24.8534 44.089 24.8534C44.4623 24.8534 44.7645 25.1556 44.7645 25.5289V29.3067C44.7645 29.68 44.4623 29.9823 44.089 29.9823C43.7156 29.9823 43.4134 29.68 43.4134 29.3067V25.5289ZM4.52445 26.5511C4.52445 18.2045 11.3156 11.4222 19.6534 11.4222C27.9912 11.4222 34.7823 18.2134 34.7823 26.5511C34.7823 26.5689 34.7823 26.5867 34.7823 26.6045C32.6578 26.8356 30.6845 27.5556 28.96 28.64C28.9245 28.6578 28.8978 28.6756 28.8623 28.7023C28.5689 28.8889 28.2845 29.0934 28.0089 29.3067C27.9467 29.3511 27.8845 29.3956 27.8223 29.4489C27.5645 29.6445 27.3245 29.8578 27.0845 30.0711C27.0045 30.1423 26.9334 30.2045 26.8534 30.2756C26.6312 30.48 26.4178 30.7023 26.2134 30.9245C26.1334 31.0134 26.0445 31.1023 25.9645 31.1911C25.7778 31.4045 25.5912 31.6267 25.4134 31.8578C25.3334 31.9645 25.2445 32.08 25.1645 32.1867C25.0045 32.4089 24.8445 32.64 24.6934 32.8711C24.6134 32.9956 24.5334 33.1289 24.4534 33.2623C24.32 33.4934 24.1867 33.7245 24.0623 33.9556C23.9823 34.1067 23.9111 34.2578 23.84 34.4089C23.7334 34.64 23.6267 34.8712 23.5289 35.1023C23.4578 35.2712 23.3956 35.4489 23.3334 35.6267C23.2534 35.8489 23.1734 36.0712 23.1023 36.3023C23.04 36.5067 22.9956 36.72 22.9423 36.9245C22.8889 37.1378 22.8356 37.3423 22.7911 37.5556C22.7378 37.8134 22.7111 38.08 22.6667 38.3467C22.64 38.5156 22.6134 38.6845 22.5956 38.8623C22.5511 39.3067 22.5245 39.7512 22.5245 40.2045C22.5245 40.5778 22.5423 40.9601 22.5867 41.3778C21.7956 41.5378 20.9956 41.6178 20.1867 41.6445V27.3334L26.9245 20.5956C27.1912 20.3289 27.1912 19.9022 26.9245 19.6356C26.6578 19.3689 26.2312 19.3689 25.9645 19.6356L20.1867 25.4134V19.2978C20.1867 18.9245 19.8845 18.6222 19.5111 18.6222C19.1378 18.6222 18.8356 18.9245 18.8356 19.2978V34.5956L11.8311 27.5911C11.5645 27.3245 11.1378 27.3245 10.8711 27.5911C10.6045 27.8578 10.6045 28.2845 10.8711 28.5511L18.8356 36.5156V41.6623C10.8534 41.2534 4.48001 34.6312 4.48001 26.5511H4.52445ZM35.8489 53.8756V58.2045C34.4889 57.1467 32.7823 56.5245 30.9334 56.5245C29.44 56.5245 27.9912 56.9334 26.7289 57.7245C24.9423 56.0801 22.6667 55.1645 20.2311 55.1201V43.0223C21.0934 42.9956 21.9556 42.8978 22.8089 42.7289C23.9734 48.9423 29.3423 53.6801 35.8401 53.8756H35.8489ZM41.3867 74.809C40.7912 75.1557 40.1245 75.3779 39.4312 75.4579H39.1734C39.1734 75.4579 39.1112 75.4757 39.0756 75.4757C39.0223 75.4757 38.9689 75.4757 38.9156 75.4757L10.4711 75.449C7.80446 75.449 5.62668 73.3512 5.6089 70.7201C5.6089 66.9779 8.0089 63.7068 11.5734 62.5779C11.7778 62.5156 11.9378 62.3556 12.0089 62.1601C13.2178 58.7556 16.4445 56.4623 20.0534 56.4623C22.3823 56.4623 24.5512 57.3867 26.1778 59.0579C26.4089 59.2979 26.7912 59.3334 27.0578 59.1379C28.2045 58.3112 29.5467 57.8756 30.9512 57.8756C34.6312 57.8756 37.6178 60.8712 37.6178 64.5423C37.6178 64.5601 37.6178 64.6223 37.6178 64.6312C37.6178 64.8179 37.6978 64.9956 37.8312 65.129C37.9645 65.2623 38.1601 65.3334 38.3378 65.3156C39.4401 65.2623 40.489 65.5556 41.3956 66.1334V74.8001L41.3867 74.809ZM41.3867 64.5956C40.6223 64.2312 39.7956 64.0179 38.9423 63.9734C38.8267 62.3023 38.1867 60.7823 37.2001 59.5467C37.2001 59.5467 37.2001 59.5379 37.2001 59.529V53.849C38.6667 53.7512 40.0801 53.4223 41.3867 52.889V64.5868V64.5956ZM44.7645 70.8268C44.7645 71.2001 44.4623 71.5023 44.089 71.5023C43.7156 71.5023 43.4134 71.2001 43.4134 70.8268V67.049C43.4134 66.6756 43.7156 66.3734 44.089 66.3734C44.4623 66.3734 44.7645 66.6756 44.7645 67.049V70.8268ZM44.7645 62.5156C44.7645 62.889 44.4623 63.1912 44.089 63.1912C43.7156 63.1912 43.4134 62.889 43.4134 62.5156V58.7379C43.4134 58.3645 43.7156 58.0623 44.089 58.0623C44.4623 58.0623 44.7645 58.3645 44.7645 58.7379V62.5156ZM44.7645 54.2134C44.7645 54.5867 44.4623 54.889 44.089 54.889C43.7156 54.889 43.4134 54.5867 43.4134 54.2134V50.7734C43.4134 50.4001 43.7156 50.0978 44.089 50.0978C44.4623 50.0978 44.7645 50.4001 44.7645 50.7734V54.2134ZM48.1067 70.8268C48.1067 71.2001 47.8045 71.5023 47.4312 71.5023C47.0579 71.5023 46.7556 71.2001 46.7556 70.8268V67.049C46.7556 66.6756 47.0579 66.3734 47.4312 66.3734C47.8045 66.3734 48.1067 66.6756 48.1067 67.049V70.8268ZM48.1067 62.5156C48.1067 62.889 47.8045 63.1912 47.4312 63.1912C47.0579 63.1912 46.7556 62.889 46.7556 62.5156V58.7379C46.7556 58.3645 47.0579 58.0623 47.4312 58.0623C47.8045 58.0623 48.1067 58.3645 48.1067 58.7379V62.5156ZM48.1067 54.2134C48.1067 54.5867 47.8045 54.889 47.4312 54.889C47.0579 54.889 46.7556 54.5867 46.7556 54.2134V50.4356C46.7556 50.0623 47.0579 49.7601 47.4312 49.7601C47.8045 49.7601 48.1067 50.0623 48.1067 50.4356V54.2134ZM37.2001 52.4978V43.2889L41.3867 39.1023C41.6534 38.8356 41.6534 38.4089 41.3867 38.1423C41.1201 37.8756 40.6934 37.8756 40.4267 38.1423L37.2001 41.3689V35.2534C37.2001 34.88 36.8978 34.5778 36.5245 34.5778C36.1512 34.5778 35.8489 34.88 35.8489 35.2534V45.1645L31.8134 41.1289C31.5467 40.8623 31.12 40.8623 30.8534 41.1289C30.5867 41.3956 30.5867 41.8223 30.8534 42.0889L35.8489 47.0845V52.5245C29.7867 52.3201 24.8267 47.7334 24.0445 41.8312C24.0089 41.5823 23.9911 41.3689 23.9734 41.1467C23.9467 40.8356 23.9289 40.5245 23.9289 40.2134C23.9289 39.7956 23.9467 39.3867 23.9911 38.9867C24.0089 38.8089 24.0445 38.64 24.0623 38.4712C24.0978 38.2489 24.1245 38.0178 24.1689 37.7956C24.2134 37.5734 24.2756 37.36 24.3289 37.1467C24.3734 36.9778 24.4089 36.8089 24.4534 36.6489C24.5245 36.4089 24.6134 36.1778 24.7023 35.9467C24.7556 35.8134 24.7912 35.68 24.8445 35.5467C24.9423 35.2978 25.0578 35.0667 25.1734 34.8267C25.2267 34.72 25.2712 34.6045 25.3334 34.4978C25.4667 34.2489 25.6089 34.0178 25.7512 33.7778C25.8045 33.6889 25.8578 33.5912 25.92 33.5023C26.08 33.2623 26.24 33.0312 26.4178 32.8089C26.48 32.7289 26.5334 32.6489 26.5956 32.5778C26.7823 32.3467 26.9689 32.1245 27.1734 31.9111C27.2356 31.8489 27.2889 31.7778 27.3512 31.7156C27.5556 31.4934 27.7778 31.2889 28 31.0845C28.0534 31.0311 28.1156 30.9778 28.1689 30.9245C28.4 30.72 28.6489 30.5245 28.8978 30.3378C28.9512 30.2934 29.0045 30.2578 29.0578 30.2134C29.3156 30.0267 29.5912 29.8489 29.8667 29.68C29.9112 29.6534 29.9645 29.6178 30.0089 29.5911C30.3023 29.4223 30.5956 29.2623 30.8978 29.1111C30.9334 29.0934 30.9778 29.0756 31.0134 29.0578C31.3334 28.9067 31.6534 28.7734 31.9912 28.6489C32.0178 28.64 32.0445 28.6311 32.0712 28.6223C32.4178 28.4978 32.7734 28.3823 33.1289 28.2934C33.1467 28.2934 33.1556 28.2934 33.1734 28.2845C33.5467 28.1867 33.9201 28.1067 34.3112 28.0445C34.7023 27.9823 35.1023 27.9378 35.5023 27.9111C35.7601 27.8934 36.0089 27.8756 36.2667 27.8756C43.0667 27.8756 48.6045 33.4045 48.6045 40.2134C48.6045 47.0223 43.5734 52.0178 37.2178 52.4978H37.2001ZM51.4401 70.8268C51.4401 71.2001 51.1379 71.5023 50.7645 71.5023C50.3912 71.5023 50.089 71.2001 50.089 70.8268V67.049C50.089 66.6756 50.3912 66.3734 50.7645 66.3734C51.1379 66.3734 51.4401 66.6756 51.4401 67.049V70.8268ZM51.4401 62.5156C51.4401 62.889 51.1379 63.1912 50.7645 63.1912C50.3912 63.1912 50.089 62.889 50.089 62.5156V58.7379C50.089 58.3645 50.3912 58.0623 50.7645 58.0623C51.1379 58.0623 51.4401 58.3645 51.4401 58.7379V62.5156ZM51.4401 54.2134C51.4401 54.5867 51.1379 54.889 50.7645 54.889C50.3912 54.889 50.089 54.5867 50.089 54.2134V50.4356C50.089 50.0623 50.3912 49.7601 50.7645 49.7601C51.1379 49.7601 51.4401 50.0623 51.4401 50.4356V54.2134ZM51.4401 45.9112C51.4401 46.2845 51.1379 46.5867 50.7645 46.5867C50.3912 46.5867 50.089 46.2845 50.089 45.9112V42.1334C50.089 41.7601 50.3912 41.4578 50.7645 41.4578C51.1379 41.4578 51.4401 41.7601 51.4401 42.1334V45.9112ZM51.4401 37.6089C51.4401 37.9823 51.1379 38.2845 50.7645 38.2845C50.3912 38.2845 50.089 37.9823 50.089 37.6089V33.8312C50.089 33.4578 50.3912 33.1556 50.7645 33.1556C51.1379 33.1556 51.4401 33.4578 51.4401 33.8312V37.6089ZM51.4401 29.2978C51.4401 29.6711 51.1379 29.9734 50.7645 29.9734C50.3912 29.9734 50.089 29.6711 50.089 29.2978V25.52C50.089 25.1467 50.3912 24.8445 50.7645 24.8445C51.1379 24.8445 51.4401 25.1467 51.4401 25.52V29.2978ZM54.7823 70.8268C54.7823 71.2001 54.4801 71.5023 54.1068 71.5023C53.7334 71.5023 53.4312 71.2001 53.4312 70.8268V67.049C53.4312 66.6756 53.7334 66.3734 54.1068 66.3734C54.4801 66.3734 54.7823 66.6756 54.7823 67.049V70.8268ZM54.7823 62.5156C54.7823 62.889 54.4801 63.1912 54.1068 63.1912C53.7334 63.1912 53.4312 62.889 53.4312 62.5156V58.7379C53.4312 58.3645 53.7334 58.0623 54.1068 58.0623C54.4801 58.0623 54.7823 58.3645 54.7823 58.7379V62.5156ZM54.7823 54.2134C54.7823 54.5867 54.4801 54.889 54.1068 54.889C53.7334 54.889 53.4312 54.5867 53.4312 54.2134V50.4356C53.4312 50.0623 53.7334 49.7601 54.1068 49.7601C54.4801 49.7601 54.7823 50.0623 54.7823 50.4356V54.2134ZM54.7823 45.9112C54.7823 46.2845 54.4801 46.5867 54.1068 46.5867C53.7334 46.5867 53.4312 46.2845 53.4312 45.9112V42.1334C53.4312 41.7601 53.7334 41.4578 54.1068 41.4578C54.4801 41.4578 54.7823 41.7601 54.7823 42.1334V45.9112ZM54.7823 37.6089C54.7823 37.9823 54.4801 38.2845 54.1068 38.2845C53.7334 38.2845 53.4312 37.9823 53.4312 37.6089V33.8312C53.4312 33.4578 53.7334 33.1556 54.1068 33.1556C54.4801 33.1556 54.7823 33.4578 54.7823 33.8312V37.6089ZM54.7823 29.2978C54.7823 29.6711 54.4801 29.9734 54.1068 29.9734C53.7334 29.9734 53.4312 29.6711 53.4312 29.2978V25.52C53.4312 25.1467 53.7334 24.8445 54.1068 24.8445C54.4801 24.8445 54.7823 25.1467 54.7823 25.52V29.2978ZM58.1156 70.8268C58.1156 71.2001 57.8134 71.5023 57.4401 71.5023C57.0668 71.5023 56.7645 71.2001 56.7645 70.8268V67.049C56.7645 66.6756 57.0668 66.3734 57.4401 66.3734C57.8134 66.3734 58.1156 66.6756 58.1156 67.049V70.8268ZM58.1156 62.5156C58.1156 62.889 57.8134 63.1912 57.4401 63.1912C57.0668 63.1912 56.7645 62.889 56.7645 62.5156V58.7379C56.7645 58.3645 57.0668 58.0623 57.4401 58.0623C57.8134 58.0623 58.1156 58.3645 58.1156 58.7379V62.5156ZM58.1156 54.2134C58.1156 54.5867 57.8134 54.889 57.4401 54.889C57.0668 54.889 56.7645 54.5867 56.7645 54.2134V50.4356C56.7645 50.0623 57.0668 49.7601 57.4401 49.7601C57.8134 49.7601 58.1156 50.0623 58.1156 50.4356V54.2134ZM58.1156 45.9112C58.1156 46.2845 57.8134 46.5867 57.4401 46.5867C57.0668 46.5867 56.7645 46.2845 56.7645 45.9112V42.1334C56.7645 41.7601 57.0668 41.4578 57.4401 41.4578C57.8134 41.4578 58.1156 41.7601 58.1156 42.1334V45.9112ZM58.1156 37.6089C58.1156 37.9823 57.8134 38.2845 57.4401 38.2845C57.0668 38.2845 56.7645 37.9823 56.7645 37.6089V33.8312C56.7645 33.4578 57.0668 33.1556 57.4401 33.1556C57.8134 33.1556 58.1156 33.4578 58.1156 33.8312V37.6089ZM58.1156 29.2978C58.1156 29.6711 57.8134 29.9734 57.4401 29.9734C57.0668 29.9734 56.7645 29.6711 56.7645 29.2978V25.52C56.7645 25.1467 57.0668 24.8445 57.4401 24.8445C57.8134 24.8445 58.1156 25.1467 58.1156 25.52V29.2978ZM74.7735 75.449H60.1512V21.2889H53.689V4.72L74.7735 10.1778V75.449Z" fill="white"/>
</svg>
