<svg width="1278" height="293" viewBox="0 0 1278 293" fill="none" xmlns="http://www.w3.org/2000/svg">
<g clip-path="url(#clip0_2544_15451)">
<path d="M670 391.425C670 400.115 676.773 407.336 685.464 407.847H685.975C814.414 415.771 917.165 518.586 925.089 647.025C925.089 647.089 925.089 647.217 925.089 647.281C925.6 656.035 932.757 663 941.511 663H1292.96C1301.78 663 1308.94 655.843 1308.94 647.025V228.927C1308.94 220.429 1305.55 212.313 1299.61 206.307L1126.63 33.3294C1120.62 27.3228 1112.51 24 1104.01 24H685.975C677.157 24 670 31.1568 670 39.975V391.425ZM1117.3 493.793C1117.3 502.611 1110.14 509.768 1101.32 509.768C1094.42 509.768 1088.61 505.359 1086.37 499.224C1041 383.949 949.179 292.06 833.903 246.691C827.833 244.327 823.552 238.512 823.552 231.675C823.552 222.857 830.708 215.7 839.527 215.7H1101.32C1110.14 215.7 1117.3 222.857 1117.3 231.675V493.793Z" stroke="#C7C7C7" stroke-width="0.5" stroke-miterlimit="10"/>
</g>
<g clip-path="url(#clip1_2544_15451)">
<path d="M639 -94.425C639 -103.115 632.227 -110.336 623.536 -110.847H623.025C494.586 -118.771 391.835 -221.586 383.911 -350.025C383.911 -350.089 383.911 -350.217 383.911 -350.281C383.4 -359.035 376.243 -366 367.489 -366H16.039C7.22077 -366 0.0639747 -358.843 0.0639747 -350.025V68.0727C0.0639747 76.5714 3.45067 84.6867 9.39337 90.6933L182.371 263.671C188.377 269.677 196.493 273 204.991 273H623.025C631.843 273 639 265.843 639 257.025V-94.425ZM191.7 -196.793C191.7 -205.611 198.857 -212.768 207.675 -212.768C214.576 -212.768 220.391 -208.359 222.628 -202.224C267.997 -86.9487 359.821 4.93952 475.097 50.3085C481.167 52.6728 485.448 58.4877 485.448 65.325C485.448 74.1432 478.292 81.3 469.473 81.3H207.675C198.857 81.3 191.7 74.1432 191.7 65.325V-196.793Z" stroke="#C7C7C7" stroke-width="0.5" stroke-miterlimit="10"/>
</g>
<defs>
<clipPath id="clip0_2544_15451">
<rect width="639" height="639" fill="white" transform="translate(670 24)"/>
</clipPath>
<clipPath id="clip1_2544_15451">
<rect width="639" height="639" fill="white" transform="matrix(-1 0 0 -1 639 273)"/>
</clipPath>
</defs>
</svg>
