<svg width="270" height="429" viewBox="0 0 270 429" fill="none" xmlns="http://www.w3.org/2000/svg">
<path d="M-257 303.025C-257 310.192 -251.414 316.147 -244.247 316.569H-243.825C-137.898 323.104 -53.1564 407.898 -46.6216 513.825C-46.6216 513.878 -46.6216 513.983 -46.6216 514.036C-46.2 521.256 -40.2976 527 -33.0777 527H256.772C264.045 527 269.947 521.098 269.947 513.825V169.009C269.947 162 267.154 155.307 262.253 150.353L119.594 7.6942C114.64 2.7404 107.947 0 100.938 0H-243.825C-251.098 0 -257 5.9024 -257 13.175V303.025ZM111.9 387.45C111.9 394.723 105.998 400.625 98.725 400.625C93.0334 400.625 88.2377 396.989 86.3932 391.93C48.9762 296.859 -26.7537 221.076 -121.825 183.659C-126.831 181.71 -130.362 176.914 -130.362 171.275C-130.362 164.002 -124.46 158.1 -117.187 158.1H98.725C105.998 158.1 111.9 164.002 111.9 171.275V387.45Z" fill="#FFEC54"/>
</svg>
