<svg width="864" height="634" viewBox="0 0 864 634" fill="none" xmlns="http://www.w3.org/2000/svg">
<g clip-path="url(#clip0_474_21711)">
<path d="M199.965 13.8951V114.691C199.965 121.575 194.442 127.199 187.558 127.299L185.086 127.35C88.124 128.888 10.2263 207.744 9.87326 304.706C9.84804 311.641 4.19926 317.265 -2.73563 317.265H-103.38C-110.516 317.265 -116.291 311.339 -115.989 304.227C-109.306 140.186 22.9108 7.96894 186.927 1.26101C194.064 0.958395 199.965 6.73326 199.965 13.8699V13.8951Z" stroke="#C7C7C7" stroke-opacity="0.3" stroke-miterlimit="10"/>
<path d="M752.269 304.645L752.269 203.849C752.269 196.965 757.792 191.341 764.676 191.24L767.147 191.19C864.11 189.652 942.007 110.796 942.36 13.8332C942.386 6.89833 948.034 1.27478 954.969 1.27478L1055.61 1.27478C1062.75 1.27478 1068.52 7.20095 1068.22 14.3124C1061.54 178.354 929.323 310.571 765.281 317.253C758.145 317.556 752.244 311.781 752.244 304.645L752.269 304.645Z" stroke="#C7C7C7" stroke-opacity="0.3" stroke-miterlimit="10"/>
<path d="M645.852 316.76H746.648C753.532 316.76 759.156 322.283 759.257 329.168L759.307 331.639C760.845 428.601 839.701 506.499 936.664 506.852C943.598 506.877 949.222 512.526 949.222 519.461V620.105C949.222 627.242 943.296 633.016 936.184 632.714C772.143 626.031 639.926 493.814 633.243 329.773C632.941 322.636 638.716 316.735 645.852 316.735V316.76Z" stroke="#C7C7C7" stroke-opacity="0.3" stroke-miterlimit="10"/>
<path d="M13.8953 316.76H114.691C121.575 316.76 127.199 322.283 127.3 329.168L127.35 331.639C128.888 428.601 207.744 506.499 304.707 506.852C311.641 506.877 317.265 512.526 317.265 519.461V620.105C317.265 627.242 311.339 633.016 304.227 632.714C140.186 626.056 7.96912 493.84 1.26119 329.798C0.958578 322.661 6.73345 316.76 13.8701 316.76H13.8953Z" stroke="#C7C7C7" stroke-opacity="0.3" stroke-miterlimit="10"/>
</g>
<defs>
<clipPath id="clip0_474_21711">
<rect width="1897.33" height="634" fill="white"/>
</clipPath>
</defs>
</svg>
