<svg width="353" height="561" viewBox="0 0 353 561" fill="none" xmlns="http://www.w3.org/2000/svg">
<g opacity="0.4">
<path d="M135.732 560.261H-3.07417C-12.5525 560.261 -20.2608 552.635 -20.4321 543.117V539.676C-22.6018 405.618 -131.146 297.878 -264.699 297.419C-274.235 297.419 -282 289.564 -282 279.988V140.827C-282 130.964 -273.835 122.994 -264.071 123.396C-38.1897 132.627 143.84 315.481 153.033 542.256C153.433 552.119 145.496 560.261 135.675 560.261H135.732Z" fill="#FFF7C3"/>
<path d="M22.6168 -77.1093H-264.588C-274.181 -77.1093 -281.946 -69.3112 -281.946 -59.6782V79.7701C-281.946 89.4031 -274.181 97.2012 -264.588 97.2012H161.766C171.358 97.2012 179.124 104.999 179.124 114.632V542.782C179.124 552.415 186.889 560.213 196.482 560.213H335.345C344.937 560.213 352.703 552.415 352.703 542.782V254.367C352.703 249.723 350.876 245.308 347.621 242.039L34.8929 -72.0061C31.6383 -75.2744 27.2418 -77.1093 22.6168 -77.1093Z" fill="#FFF7C3"/>
</g>
</svg>
