<svg width="14" height="15" viewBox="0 0 14 15" fill="none" xmlns="http://www.w3.org/2000/svg">
<g id="np_sprocket_1337286_000000 1">
<g id="Group">
<path id="Vector" d="M6.49993 4.82812C5.02336 4.82812 3.82812 6.02345 3.82812 7.49993C3.82812 8.97641 5.02345 10.1717 6.49993 10.1717C7.97641 10.1717 9.17172 8.97641 9.17172 7.49993C9.17172 6.02345 7.97641 4.82812 6.49993 4.82812ZM6.49993 8.99993C5.67961 8.99993 4.99993 8.32025 4.99993 7.49993C4.99993 6.67961 5.67961 5.99993 6.49993 5.99993C7.32025 5.99993 7.99993 6.67961 7.99993 7.49993C7.99993 8.32025 7.32025 8.99993 6.49993 8.99993Z" fill="black"/>
<path id="Vector_2" d="M12.3822 6.30449C11.7493 6.49199 11.0462 6.21074 10.765 5.60137C10.4838 4.96854 10.7416 4.26544 11.3275 3.93727C10.9291 3.37477 10.4134 2.90602 9.82752 2.50759C9.52284 3.09352 8.8197 3.37476 8.18681 3.1404C7.55394 2.90604 7.22588 2.2029 7.38994 1.57005C6.68681 1.4763 5.98369 1.49974 5.32744 1.61693C5.51494 2.24975 5.23369 2.95286 4.62431 3.23408C3.99149 3.51533 3.28838 3.25752 2.96021 2.67158C2.39771 3.07001 1.92896 3.58565 1.53053 4.17158C2.11646 4.47626 2.39771 5.1794 2.16335 5.81228C1.92899 6.44516 1.22585 6.77321 0.593004 6.60916C0.499254 7.31228 0.522692 8.01541 0.639879 8.67166C1.2727 8.48416 1.97581 8.76541 2.25703 9.37478C2.53828 10.0076 2.28047 10.7107 1.69453 11.0389C2.09296 11.6014 2.6086 12.0701 3.19453 12.4686C3.49921 11.8826 4.20235 11.6014 4.83523 11.8357C5.46811 12.0701 5.79616 12.7732 5.6321 13.4061C6.33523 13.4998 7.03835 13.4764 7.6946 13.3592C7.5071 12.7264 7.78836 12.0233 8.39773 11.7421C9.03055 11.4608 9.73366 11.7186 10.0618 12.3046C10.6243 11.9061 11.0931 11.3905 11.4915 10.8046C10.9056 10.4999 10.6243 9.79675 10.8587 9.16387C11.0931 8.53098 11.7962 8.20293 12.429 8.36699C12.5462 7.68731 12.5228 6.98417 12.3822 6.30449ZM6.49931 10.6638C4.76501 10.6638 3.33521 9.23411 3.33521 7.49969C3.33521 5.76527 4.76489 4.33559 6.49931 4.33559C8.23374 4.33559 9.66342 5.76527 9.66342 7.49969C9.66342 9.23411 8.23374 10.6638 6.49931 10.6638Z" fill="black"/>
</g>
</g>
</svg>
