<svg viewBox="0 0 260 53" fill="none" xmlns="http://www.w3.org/2000/svg">
<path d="M78.1562 12.3955C78.1562 6.00754 82.8248 2.62598 87.3266 2.62598H88.7751C93.4124 2.62598 96.5803 5.92938 96.9607 10.0196H92.4589C92.2661 8.21676 90.7655 6.60674 88.8584 6.60674H87.3318C85.2581 6.60674 82.8821 8.62317 82.8821 12.3903C82.8821 16.1574 85.1174 18.1739 87.3005 18.1739H88.8011C90.7655 18.1739 92.1827 16.6733 92.4849 14.761H96.9867C96.6585 19.2107 92.6725 22.1546 88.8011 22.1546H87.3266C82.632 22.1546 78.1562 18.7731 78.1562 12.3851V12.3955Z" fill="#181818"/>
<path d="M102.724 14.0579L96.4189 2.83984H101.306L104.115 7.77932C104.578 8.59736 104.959 10.0146 104.959 10.0146H105.068C105.068 10.0146 105.506 8.64946 105.97 7.77932L108.752 2.83984H113.634L107.33 14.0579V21.9465H102.718V14.0579H102.724Z" fill="#181818"/>
<path d="M112.665 12.3955C112.665 6.00754 117.334 2.62598 121.835 2.62598H123.284C127.921 2.62598 131.089 5.92938 131.469 10.0196H126.968C126.775 8.21676 125.274 6.60674 123.367 6.60674H121.841C119.767 6.60674 117.391 8.62317 117.391 12.3903C117.391 16.1574 119.626 18.1739 121.809 18.1739H123.31C125.274 18.1739 126.691 16.6733 126.994 14.761H131.496C131.167 19.2107 127.181 22.1546 123.31 22.1546H121.835C117.141 22.1546 112.665 18.7731 112.665 12.3851V12.3955Z" fill="#181818"/>
<path d="M133.663 2.84473H138.358V17.9654H147.007V21.9513H133.663V2.84473Z" fill="#181818"/>
<path d="M147.288 12.3955C147.288 7.01836 151.462 2.62598 156.865 2.62598H158.391C163.795 2.62598 168.026 7.01836 168.026 12.3955C168.026 17.7727 163.795 22.1651 158.365 22.1651H156.865C151.488 22.1651 147.288 17.7727 147.288 12.3955ZM163.305 12.3955C163.305 9.06606 161.096 6.61195 158.391 6.61195H156.865C154.218 6.61195 152.009 8.9879 152.009 12.3955C152.009 15.8031 154.218 18.1791 156.865 18.1791H158.365C161.064 18.1791 163.305 15.7771 163.305 12.3955Z" fill="#181818"/>
<path d="M78.1562 39.7295C78.1562 33.3415 82.8248 29.96 87.3266 29.96H88.7751C93.4124 29.96 96.5803 33.2634 96.9607 37.3536H92.4589C92.2661 35.5507 90.7655 33.9407 88.8584 33.9407H87.3318C85.2581 33.9407 82.8821 35.9572 82.8821 39.7243C82.8821 43.4914 85.1174 45.5079 87.3005 45.5079H88.8011C90.7655 45.5079 92.1827 44.0073 92.4849 42.095H96.9867C96.6585 46.5447 92.6725 49.4886 88.8011 49.4886H87.3266C82.632 49.4886 78.1562 46.1071 78.1562 39.7191V39.7295Z" fill="#181818"/>
<path d="M104.172 30.1787H108.84L116.291 49.2801H111.409L110.044 45.539H103.005L101.666 49.2801H96.8096L104.177 30.1787H104.172ZM105.808 37.739L104.443 41.5583H108.564L107.173 37.739C106.845 36.8116 106.6 35.4464 106.6 35.4464H106.464C106.464 35.4464 106.136 36.7855 105.808 37.739Z" fill="#181818"/>
<path d="M117.907 30.1785H126.639C131.058 30.1785 133.814 32.4711 133.814 36.0715C133.814 38.9373 132.152 40.3858 130.104 41.3393L135.237 49.28H129.698L126.342 43.684C125.795 42.7565 125.17 42.3449 124.159 42.3449H122.601V49.2747H117.907V30.1733V30.1785ZM129.094 36.2383C129.094 34.9826 128.249 34.1645 126.639 34.1645H122.601V38.3381H126.639C128.275 38.3381 129.094 37.5461 129.094 36.2383Z" fill="#181818"/>
<path d="M135.627 39.7295C135.627 33.2061 140.457 29.96 145.016 29.96H146.491C151.211 29.96 154.322 33.2894 154.702 37.3275H150.201C149.846 35.4153 148.507 33.9459 146.491 33.9459H144.964C142.453 33.9459 140.353 36.1552 140.353 39.7295C140.353 43.0069 142.156 45.5131 144.964 45.5131H146.465C148.815 45.5131 150.232 43.7415 150.232 42.5119V42.3764H145.621V38.8854H154.681V49.2802H150.586V47.1804C150.013 48.1912 148.32 49.499 145.975 49.499H144.526C140.514 49.499 135.632 46.3624 135.632 39.7295H135.627Z" fill="#181818"/>
<path d="M156.734 39.7295C156.734 34.3523 160.908 29.96 166.311 29.96H167.838C173.241 29.96 177.472 34.3523 177.472 39.7295C177.472 45.1067 173.241 49.499 167.812 49.499H166.311C160.934 49.499 156.734 45.1067 156.734 39.7295ZM172.751 39.7295C172.751 36.4 170.542 33.9459 167.838 33.9459H166.311C163.664 33.9459 161.455 36.3219 161.455 39.7295C161.455 43.1371 163.664 45.5131 166.311 45.5131H167.812C170.511 45.5131 172.751 43.1111 172.751 39.7295Z" fill="#181818"/>
<path d="M179.806 30.1787H184.501V45.2994H193.15V49.2853H179.806V30.1839V30.1787Z" fill="#181818"/>
<path d="M193.432 39.7295C193.432 34.3523 197.605 29.96 203.008 29.96H204.535C209.938 29.96 214.169 34.3523 214.169 39.7295C214.169 45.1067 209.938 49.499 204.509 49.499H203.008C197.631 49.499 193.432 45.1067 193.432 39.7295ZM209.448 39.7295C209.448 36.4 207.239 33.9459 204.535 33.9459H203.008C200.362 33.9459 198.152 36.3219 198.152 39.7295C198.152 43.1371 200.362 45.5131 203.008 45.5131H204.509C207.208 45.5131 209.448 43.1111 209.448 39.7295Z" fill="#181818"/>
<path d="M215.79 39.7295C215.79 33.2061 220.62 29.96 225.179 29.96H226.653C231.374 29.96 234.485 33.2894 234.865 37.3275H230.363C230.009 35.4153 228.67 33.9459 226.653 33.9459H225.127C222.615 33.9459 220.515 36.1552 220.515 39.7295C220.515 43.0069 222.318 45.5131 225.127 45.5131H226.627C228.977 45.5131 230.394 43.7415 230.394 42.5119V42.3764H225.783V38.8854H234.844V49.2802H230.749V47.1804C230.176 48.1912 228.482 49.499 226.137 49.499H224.689C220.677 49.499 215.795 46.3624 215.795 39.7295H215.79Z" fill="#181818"/>
<path d="M237.632 30.1787H242.326V49.2801H237.632V30.1787Z" fill="#181818"/>
<path d="M245.416 30.1787H259.932V34.1647H250.105V37.5462H259.411V41.5322H250.105V45.2994H259.958V49.2853H245.411V30.1839L245.416 30.1787Z" fill="#181818"/>
<path d="M175.841 10.4053H188.867V14.386H175.841V10.4053Z" fill="#181818"/>
<path d="M26.636 0.937498L26.6361 0.937517L51.1658 25.462C51.1659 25.4622 51.1661 25.4624 51.1663 25.4625C51.6048 25.906 51.8542 26.5046 51.8542 27.1307V50.8016C51.8542 51.3826 51.3826 51.8542 50.8016 51.8542H39.0782C38.4972 51.8542 38.0256 51.3826 38.0256 50.8016V15.6313C38.0256 14.7742 37.3301 14.0787 36.4729 14.0787H1.30261C0.721638 14.0787 0.25 13.607 0.25 13.0261V1.30261C0.25 0.721638 0.721638 0.25 1.30261 0.25H24.9683C25.5958 0.25 26.1937 0.495162 26.636 0.937498Z" fill="#FFE608" stroke="#365956" stroke-width="0.5"/>
<path d="M1.318 31.0494L1.31031 31.0489H1.30261H1.27995C0.700191 31.0068 0.25 30.5278 0.25 29.9442V18.2624C0.25 17.666 0.750616 17.1887 1.34554 17.2096C19.5555 17.903 34.196 32.5437 34.8893 50.7537L34.8893 50.7547C34.9146 51.3527 34.434 51.8541 33.8365 51.8541H22.1391C21.5644 51.8541 21.0876 51.3976 21.05 50.8147V50.8147V50.8146V50.8146V50.8145V50.8145V50.8144V50.8144V50.8143V50.8143V50.8142V50.8142V50.8141V50.8141V50.814V50.814V50.8139V50.8139V50.8138V50.8138V50.8137V50.8137V50.8136V50.8136V50.8135V50.8135V50.8134V50.8134V50.8134V50.8133V50.8133V50.8132V50.8132V50.8131V50.8131V50.813V50.813V50.8129V50.8129V50.8128V50.8128V50.8127V50.8127V50.8126V50.8126V50.8125V50.8125V50.8125V50.8124V50.8124V50.8123V50.8123V50.8122V50.8122V50.8121V50.8121V50.812V50.812V50.8119V50.8119V50.8119V50.8118V50.8118V50.8117V50.8117V50.8116V50.8116V50.8115V50.8115V50.8114V50.8114V50.8113V50.8113V50.8112V50.8112V50.8112V50.8111V50.8111V50.811V50.811V50.8109V50.8109V50.8108V50.8108V50.8107V50.8107V50.8106V50.8106V50.8106V50.8105V50.8105V50.8104V50.8104V50.8103V50.8103V50.8102V50.8102V50.8101V50.8101V50.8101V50.81V50.81V50.8099V50.8099V50.8098V50.8098V50.8097V50.8097V50.8096V50.8096V50.8095V50.8095V50.8095V50.8094V50.8094V50.8093V50.8093V50.8092V50.8092V50.8091V50.8091V50.809V50.809V50.809V50.8089V50.8089V50.8088V50.8088V50.8087V50.8087V50.8086V50.8086V50.8085V50.8085V50.8084V50.8084V50.8084V50.8083V50.8083V50.8082V50.8082V50.8081V50.8081V50.808V50.808V50.8079V50.8079V50.8078V50.8078V50.8078V50.8077V50.8077V50.8076V50.8076V50.8075V50.8075V50.8074V50.8074V50.8073V50.8073V50.8073V50.8072V50.8072V50.8071V50.8071V50.807V50.807V50.8069V50.8069V50.8068V50.8068V50.8067V50.8067V50.8066V50.8066V50.8066V50.8065V50.8065V50.8064V50.8064V50.8063V50.8063V50.8062V50.8062V50.8061V50.8061V50.806V50.806V50.8059V50.8059V50.8059V50.8058V50.8058V50.8057V50.8057V50.8056V50.8056V50.8055V50.8055V50.8054V50.8054V50.8053V50.8053V50.8052V50.8052V50.8051V50.8051V50.805V50.805V50.805V50.8049V50.8049V50.8048V50.8048V50.8047V50.8047V50.8046V50.8046V50.8045V50.8045V50.8044V50.8044V50.8043V50.8043V50.8042V50.8042V50.8041V50.8041V50.804V50.804V50.8039V50.8039V50.8038V50.8038V50.8037V50.8037V50.8036V50.8036V50.8035V50.8035V50.8034V50.8034V50.8033V50.8033V50.8032V50.8032V50.8031V50.8031V50.803V50.803V50.8029V50.8029V50.8028V50.8028V50.8027V50.8027V50.8026V50.8026V50.8025V50.8025V50.8024V50.8024V50.8023V50.8023V50.8022V50.8022V50.8021V50.8021V50.802V50.802V50.8019V50.8019V50.8018V50.8018V50.8017V50.8017V50.8016V50.8016V50.8015V50.8015V50.8014V50.8014V50.8013V50.8013V50.8012V50.8012V50.8011V50.801V50.801V50.8009V50.8009V50.8008V50.8008V50.8007V50.8007V50.8006V50.8006V50.8005V50.8005V50.8004V50.8004V50.8003V50.8002V50.8002V50.8001V50.8001V50.8V50.8V50.7999V50.7999V50.7998V50.7998V50.7997V50.7996V50.7996V50.7995V50.7995V50.7994V50.7994V50.7993V50.7993V50.7992V50.7991V50.7991V50.799V50.799V50.7989V50.7989V50.7988V50.7988V50.7987V50.7986V50.7986V50.7985V50.7985V50.7984V50.7984V50.7983V50.7982V50.7982V50.7981V50.7981V50.798V50.798V50.7979V50.7978V50.7978V50.7977V50.7977V50.7976V50.7975V50.7975V50.7974V50.7974V50.7973V50.7973V50.7972V50.7971V50.7971V50.797V50.797V50.7969V50.7968V50.7968V50.7967V50.7967V50.7966V50.7965V50.7965V50.7964V50.7964V50.7963V50.7886L21.0495 50.7809C20.3957 40.182 11.9169 31.7032 1.318 31.0494Z" fill="#FFE608" stroke="#365956" stroke-width="0.5"/>
</svg>
