<svg width="15" height="16" viewBox="0 0 15 16" fill="none" xmlns="http://www.w3.org/2000/svg">
<path d="M5.05358 6.5625L3.80426 7.81183C3.28922 8.32686 2.99988 9.0254 2.99988 9.75377C2.99988 10.4821 3.28922 11.1807 3.80426 11.6957C4.31929 12.2108 5.01783 12.5001 5.7462 12.5001C6.47457 12.5001 7.17311 12.2108 7.68814 11.6957L8.93747 10.4464" stroke="#204743" stroke-miterlimit="10"/>
<path d="M9.94638 9.4376L11.1957 8.18827C11.7108 7.67323 12.0001 6.97469 12.0001 6.24632C12.0001 5.51795 11.7108 4.81942 11.1957 4.30438C10.6807 3.78934 9.98215 3.5 9.25378 3.5C8.52541 3.5 7.82686 3.78934 7.31183 4.30438L6.0625 5.55371" stroke="#204743" stroke-miterlimit="10"/>
<path d="M5.75403 9.74575L7.49995 7.99983L9.24587 6.25391" fill="white"/>
<path d="M5.75403 9.74575L7.49995 7.99983L9.24587 6.25391" stroke="#204743" stroke-miterlimit="10" stroke-linecap="round"/>
</svg>
