<svg width="212" height="29" viewBox="0 0 212 29" fill="none" xmlns="http://www.w3.org/2000/svg">
<rect width="20.6222" height="29" rx="10.3111" fill="white"/>
<line x1="10.3114" y1="6.44434" x2="10.3114" y2="14.1777" stroke="black" stroke-width="1.28889"/>
<g filter="url(#filter0_d_1088_30651)">
<path d="M37.4716 11.5625C37.4186 11.0663 37.1951 10.6799 36.8011 10.4034C36.411 10.1269 35.9034 9.98864 35.2784 9.98864C34.839 9.98864 34.4621 10.0549 34.1477 10.1875C33.8333 10.3201 33.5928 10.5 33.4261 10.7273C33.2595 10.9545 33.1742 11.214 33.1705 11.5057C33.1705 11.7481 33.2254 11.9583 33.3352 12.1364C33.4489 12.3144 33.6023 12.4659 33.7955 12.5909C33.9886 12.7121 34.2027 12.8144 34.4375 12.8977C34.6723 12.9811 34.9091 13.0511 35.1477 13.108L36.2386 13.3807C36.678 13.483 37.1004 13.6212 37.5057 13.7955C37.9148 13.9697 38.2803 14.1894 38.6023 14.4545C38.928 14.7197 39.1856 15.0398 39.375 15.4148C39.5644 15.7898 39.6591 16.2292 39.6591 16.733C39.6591 17.4148 39.4848 18.0152 39.1364 18.5341C38.7879 19.0492 38.2841 19.4527 37.625 19.7443C36.9697 20.0322 36.1761 20.1761 35.2443 20.1761C34.339 20.1761 33.553 20.036 32.8864 19.7557C32.2235 19.4754 31.7045 19.0663 31.3295 18.5284C30.9583 17.9905 30.7576 17.3352 30.7273 16.5625H32.8011C32.8314 16.9678 32.9564 17.3049 33.1761 17.5739C33.3958 17.8428 33.6818 18.0436 34.0341 18.1761C34.3902 18.3087 34.7879 18.375 35.2273 18.375C35.6856 18.375 36.0871 18.3068 36.4318 18.1705C36.7803 18.0303 37.053 17.8371 37.25 17.5909C37.447 17.3409 37.5473 17.0492 37.5511 16.7159C37.5473 16.4129 37.4583 16.1629 37.2841 15.9659C37.1098 15.7652 36.8655 15.5985 36.5511 15.4659C36.2405 15.3295 35.8769 15.2083 35.4602 15.1023L34.1364 14.7614C33.178 14.5152 32.4205 14.142 31.8636 13.642C31.3106 13.1383 31.0341 12.4697 31.0341 11.6364C31.0341 10.9508 31.2197 10.3504 31.5909 9.83523C31.9659 9.32008 32.4754 8.92045 33.1193 8.63636C33.7633 8.34848 34.4924 8.20455 35.3068 8.20455C36.1326 8.20455 36.8561 8.34848 37.4773 8.63636C38.1023 8.92045 38.5928 9.31629 38.9489 9.82386C39.3049 10.3277 39.4886 10.9072 39.5 11.5625H37.4716ZM45.2543 20.1705C44.383 20.1705 43.6349 19.9792 43.0099 19.5966C42.3887 19.214 41.9096 18.6856 41.5724 18.0114C41.2391 17.3333 41.0724 16.553 41.0724 15.6705C41.0724 14.7841 41.2429 14.0019 41.5838 13.3239C41.9247 12.642 42.4058 12.1117 43.027 11.733C43.652 11.3504 44.3906 11.1591 45.2429 11.1591C45.9512 11.1591 46.5781 11.2898 47.1236 11.5511C47.6728 11.8087 48.1103 12.1742 48.4361 12.6477C48.7618 13.1174 48.9474 13.6667 48.9929 14.2955H47.027C46.9474 13.875 46.758 13.5246 46.4588 13.2443C46.1634 12.9602 45.7675 12.8182 45.2713 12.8182C44.8509 12.8182 44.4815 12.9318 44.1634 13.1591C43.8452 13.3826 43.5971 13.7045 43.419 14.125C43.2448 14.5455 43.1577 15.0492 43.1577 15.6364C43.1577 16.2311 43.2448 16.7424 43.419 17.1705C43.5933 17.5947 43.8376 17.9223 44.152 18.1534C44.4702 18.3807 44.8433 18.4943 45.2713 18.4943C45.5743 18.4943 45.8452 18.4375 46.0838 18.3239C46.3262 18.2064 46.5289 18.0379 46.6918 17.8182C46.8546 17.5985 46.9664 17.3314 47.027 17.017H48.9929C48.9437 17.6345 48.7618 18.1818 48.4474 18.6591C48.133 19.1326 47.705 19.5038 47.1634 19.7727C46.6217 20.0379 45.9853 20.1705 45.2543 20.1705ZM50.6818 20V11.2727H52.6761V12.7273H52.767C52.9261 12.2235 53.1989 11.8352 53.5852 11.5625C53.9754 11.286 54.4205 11.1477 54.9205 11.1477C55.0341 11.1477 55.161 11.1534 55.3011 11.1648C55.4451 11.1723 55.5644 11.1856 55.6591 11.2045V13.0966C55.572 13.0663 55.4337 13.0398 55.2443 13.017C55.0587 12.9905 54.8788 12.9773 54.7045 12.9773C54.3295 12.9773 53.9924 13.0587 53.6932 13.2216C53.3977 13.3807 53.1648 13.6023 52.9943 13.8864C52.8239 14.1705 52.7386 14.4981 52.7386 14.8693V20H50.6818ZM60.473 20.1705C59.6207 20.1705 58.8821 19.983 58.2571 19.608C57.6321 19.233 57.1473 18.7083 56.8026 18.0341C56.4616 17.3598 56.2912 16.572 56.2912 15.6705C56.2912 14.7689 56.4616 13.9792 56.8026 13.3011C57.1473 12.6231 57.6321 12.0966 58.2571 11.7216C58.8821 11.3466 59.6207 11.1591 60.473 11.1591C61.3253 11.1591 62.0639 11.3466 62.6889 11.7216C63.3139 12.0966 63.7969 12.6231 64.1378 13.3011C64.4825 13.9792 64.6548 14.7689 64.6548 15.6705C64.6548 16.572 64.4825 17.3598 64.1378 18.0341C63.7969 18.7083 63.3139 19.233 62.6889 19.608C62.0639 19.983 61.3253 20.1705 60.473 20.1705ZM60.4844 18.5227C60.9465 18.5227 61.3329 18.3958 61.6435 18.142C61.9541 17.8845 62.1851 17.5398 62.3366 17.108C62.492 16.6761 62.5696 16.1951 62.5696 15.6648C62.5696 15.1307 62.492 14.6477 62.3366 14.2159C62.1851 13.7803 61.9541 13.4337 61.6435 13.1761C61.3329 12.9186 60.9465 12.7898 60.4844 12.7898C60.0109 12.7898 59.617 12.9186 59.3026 13.1761C58.992 13.4337 58.759 13.7803 58.6037 14.2159C58.4522 14.6477 58.3764 15.1307 58.3764 15.6648C58.3764 16.1951 58.4522 16.6761 58.6037 17.108C58.759 17.5398 58.992 17.8845 59.3026 18.142C59.617 18.3958 60.0109 18.5227 60.4844 18.5227ZM68.4574 8.36364V20H66.4006V8.36364H68.4574ZM72.6293 8.36364V20H70.5724V8.36364H72.6293ZM78.608 20.1705C77.733 20.1705 76.9773 19.9886 76.3409 19.625C75.7083 19.2576 75.2216 18.7386 74.8807 18.0682C74.5398 17.3939 74.3693 16.6004 74.3693 15.6875C74.3693 14.7898 74.5398 14.0019 74.8807 13.3239C75.2254 12.642 75.7064 12.1117 76.3239 11.733C76.9413 11.3504 77.6667 11.1591 78.5 11.1591C79.0379 11.1591 79.5455 11.2462 80.0227 11.4205C80.5038 11.5909 80.928 11.8561 81.2955 12.2159C81.6667 12.5758 81.9583 13.0341 82.1705 13.5909C82.3826 14.1439 82.4886 14.803 82.4886 15.5682V16.1989H75.3352V14.8125H80.517C80.5133 14.4186 80.428 14.0682 80.2614 13.7614C80.0947 13.4508 79.8617 13.2064 79.5625 13.0284C79.267 12.8504 78.9223 12.7614 78.5284 12.7614C78.108 12.7614 77.7386 12.8636 77.4205 13.0682C77.1023 13.2689 76.8542 13.5341 76.6761 13.8636C76.5019 14.1894 76.4129 14.5473 76.4091 14.9375V16.1477C76.4091 16.6553 76.5019 17.0909 76.6875 17.4545C76.8731 17.8144 77.1326 18.0909 77.4659 18.2841C77.7992 18.4735 78.1894 18.5682 78.6364 18.5682C78.9356 18.5682 79.2064 18.5265 79.4489 18.4432C79.6913 18.3561 79.9015 18.2292 80.0795 18.0625C80.2576 17.8958 80.392 17.6894 80.483 17.4432L82.4034 17.6591C82.2822 18.1667 82.0511 18.6098 81.7102 18.9886C81.3731 19.3636 80.9413 19.6553 80.4148 19.8636C79.8883 20.0682 79.286 20.1705 78.608 20.1705ZM84.2287 20V11.2727H86.223V12.7273H86.3139C86.473 12.2235 86.7457 11.8352 87.1321 11.5625C87.5223 11.286 87.9673 11.1477 88.4673 11.1477C88.581 11.1477 88.7079 11.1534 88.848 11.1648C88.992 11.1723 89.1113 11.1856 89.206 11.2045V13.0966C89.1188 13.0663 88.9806 13.0398 88.7912 13.017C88.6056 12.9905 88.4257 12.9773 88.2514 12.9773C87.8764 12.9773 87.5393 13.0587 87.2401 13.2216C86.9446 13.3807 86.7116 13.6023 86.5412 13.8864C86.3707 14.1705 86.2855 14.4981 86.2855 14.8693V20H84.2287ZM94.5412 23.2727V11.2727H96.5639V12.7159H96.6832C96.7893 12.5038 96.9389 12.2784 97.1321 12.0398C97.3253 11.7973 97.5866 11.5909 97.9162 11.4205C98.2457 11.2462 98.6662 11.1591 99.1776 11.1591C99.8518 11.1591 100.46 11.3314 101.001 11.6761C101.547 12.017 101.979 12.5227 102.297 13.1932C102.619 13.8598 102.78 14.678 102.78 15.6477C102.78 16.6061 102.623 17.4205 102.308 18.0909C101.994 18.7614 101.566 19.2727 101.024 19.625C100.482 19.9773 99.8688 20.1534 99.1832 20.1534C98.6832 20.1534 98.2685 20.0701 97.9389 19.9034C97.6094 19.7367 97.3442 19.536 97.1435 19.3011C96.9465 19.0625 96.7931 18.8371 96.6832 18.625H96.598V23.2727H94.5412ZM96.5582 15.6364C96.5582 16.2008 96.6378 16.6951 96.7969 17.1193C96.9598 17.5436 97.1927 17.875 97.4957 18.1136C97.8026 18.3485 98.1738 18.4659 98.6094 18.4659C99.0639 18.4659 99.4446 18.3447 99.7514 18.1023C100.058 17.8561 100.289 17.5208 100.445 17.0966C100.604 16.6686 100.683 16.1818 100.683 15.6364C100.683 15.0947 100.606 14.6136 100.45 14.1932C100.295 13.7727 100.064 13.4432 99.7571 13.2045C99.4503 12.9659 99.0677 12.8466 98.6094 12.8466C98.17 12.8466 97.7969 12.9621 97.4901 13.1932C97.1832 13.4242 96.9503 13.7481 96.7912 14.1648C96.6359 14.5814 96.5582 15.072 96.5582 15.6364ZM108.348 20.1705C107.496 20.1705 106.757 19.983 106.132 19.608C105.507 19.233 105.022 18.7083 104.678 18.0341C104.337 17.3598 104.166 16.572 104.166 15.6705C104.166 14.7689 104.337 13.9792 104.678 13.3011C105.022 12.6231 105.507 12.0966 106.132 11.7216C106.757 11.3466 107.496 11.1591 108.348 11.1591C109.2 11.1591 109.939 11.3466 110.564 11.7216C111.189 12.0966 111.672 12.6231 112.013 13.3011C112.357 13.9792 112.53 14.7689 112.53 15.6705C112.53 16.572 112.357 17.3598 112.013 18.0341C111.672 18.7083 111.189 19.233 110.564 19.608C109.939 19.983 109.2 20.1705 108.348 20.1705ZM108.359 18.5227C108.821 18.5227 109.208 18.3958 109.518 18.142C109.829 17.8845 110.06 17.5398 110.212 17.108C110.367 16.6761 110.445 16.1951 110.445 15.6648C110.445 15.1307 110.367 14.6477 110.212 14.2159C110.06 13.7803 109.829 13.4337 109.518 13.1761C109.208 12.9186 108.821 12.7898 108.359 12.7898C107.886 12.7898 107.492 12.9186 107.178 13.1761C106.867 13.4337 106.634 13.7803 106.479 14.2159C106.327 14.6477 106.251 15.1307 106.251 15.6648C106.251 16.1951 106.327 16.6761 106.479 17.108C106.634 17.5398 106.867 17.8845 107.178 18.142C107.492 18.3958 107.886 18.5227 108.359 18.5227ZM119.838 16.3295V11.2727H121.895V20H119.901V18.4489H119.81C119.613 18.9375 119.289 19.3371 118.838 19.6477C118.391 19.9583 117.84 20.1136 117.185 20.1136C116.613 20.1136 116.107 19.9867 115.668 19.733C115.232 19.4754 114.891 19.1023 114.645 18.6136C114.399 18.1212 114.276 17.5265 114.276 16.8295V11.2727H116.332V16.5114C116.332 17.0644 116.484 17.5038 116.787 17.8295C117.09 18.1553 117.488 18.3182 117.98 18.3182C118.283 18.3182 118.577 18.2443 118.861 18.0966C119.145 17.9489 119.378 17.7292 119.56 17.4375C119.745 17.142 119.838 16.7727 119.838 16.3295ZM124.01 20V11.2727H126.004V12.7273H126.095C126.254 12.2235 126.527 11.8352 126.913 11.5625C127.304 11.286 127.749 11.1477 128.249 11.1477C128.362 11.1477 128.489 11.1534 128.629 11.1648C128.773 11.1723 128.893 11.1856 128.987 11.2045V13.0966C128.9 13.0663 128.762 13.0398 128.572 13.017C128.387 12.9905 128.207 12.9773 128.033 12.9773C127.658 12.9773 127.321 13.0587 127.021 13.2216C126.726 13.3807 126.493 13.6023 126.322 13.8864C126.152 14.1705 126.067 14.4981 126.067 14.8693V20H124.01ZM137.561 20.1534C136.875 20.1534 136.262 19.9773 135.72 19.625C135.179 19.2727 134.75 18.7614 134.436 18.0909C134.122 17.4205 133.964 16.6061 133.964 15.6477C133.964 14.678 134.124 13.8598 134.442 13.1932C134.764 12.5227 135.197 12.017 135.743 11.6761C136.288 11.3314 136.896 11.1591 137.567 11.1591C138.078 11.1591 138.499 11.2462 138.828 11.4205C139.158 11.5909 139.419 11.7973 139.612 12.0398C139.805 12.2784 139.955 12.5038 140.061 12.7159H140.146V8.36364H142.209V20H140.186V18.625H140.061C139.955 18.8371 139.802 19.0625 139.601 19.3011C139.4 19.536 139.135 19.7367 138.805 19.9034C138.476 20.0701 138.061 20.1534 137.561 20.1534ZM138.135 18.4659C138.571 18.4659 138.942 18.3485 139.249 18.1136C139.555 17.875 139.788 17.5436 139.947 17.1193C140.107 16.6951 140.186 16.2008 140.186 15.6364C140.186 15.072 140.107 14.5814 139.947 14.1648C139.792 13.7481 139.561 13.4242 139.254 13.1932C138.951 12.9621 138.578 12.8466 138.135 12.8466C137.677 12.8466 137.294 12.9659 136.987 13.2045C136.68 13.4432 136.449 13.7727 136.294 14.1932C136.139 14.6136 136.061 15.0947 136.061 15.6364C136.061 16.1818 136.139 16.6686 136.294 17.0966C136.453 17.5208 136.686 17.8561 136.993 18.1023C137.304 18.3447 137.684 18.4659 138.135 18.4659ZM148.264 20.1705C147.389 20.1705 146.634 19.9886 145.997 19.625C145.365 19.2576 144.878 18.7386 144.537 18.0682C144.196 17.3939 144.026 16.6004 144.026 15.6875C144.026 14.7898 144.196 14.0019 144.537 13.3239C144.882 12.642 145.363 12.1117 145.98 11.733C146.598 11.3504 147.323 11.1591 148.156 11.1591C148.694 11.1591 149.202 11.2462 149.679 11.4205C150.16 11.5909 150.584 11.8561 150.952 12.2159C151.323 12.5758 151.615 13.0341 151.827 13.5909C152.039 14.1439 152.145 14.803 152.145 15.5682V16.1989H144.991V14.8125H150.173C150.17 14.4186 150.084 14.0682 149.918 13.7614C149.751 13.4508 149.518 13.2064 149.219 13.0284C148.923 12.8504 148.579 12.7614 148.185 12.7614C147.764 12.7614 147.395 12.8636 147.077 13.0682C146.759 13.2689 146.51 13.5341 146.332 13.8636C146.158 14.1894 146.069 14.5473 146.065 14.9375V16.1477C146.065 16.6553 146.158 17.0909 146.344 17.4545C146.529 17.8144 146.789 18.0909 147.122 18.2841C147.455 18.4735 147.846 18.5682 148.293 18.5682C148.592 18.5682 148.863 18.5265 149.105 18.4432C149.348 18.3561 149.558 18.2292 149.736 18.0625C149.914 17.8958 150.048 17.6894 150.139 17.4432L152.06 17.6591C151.938 18.1667 151.707 18.6098 151.366 18.9886C151.029 19.3636 150.598 19.6553 150.071 19.8636C149.545 20.0682 148.942 20.1705 148.264 20.1705ZM147.31 10.125L148.582 7.52841H150.594L148.849 10.125H147.31ZM157.692 20.1705C156.821 20.1705 156.072 19.9792 155.447 19.5966C154.826 19.214 154.347 18.6856 154.01 18.0114C153.677 17.3333 153.51 16.553 153.51 15.6705C153.51 14.7841 153.68 14.0019 154.021 13.3239C154.362 12.642 154.843 12.1117 155.464 11.733C156.089 11.3504 156.828 11.1591 157.68 11.1591C158.389 11.1591 159.016 11.2898 159.561 11.5511C160.11 11.8087 160.548 12.1742 160.874 12.6477C161.199 13.1174 161.385 13.6667 161.43 14.2955H159.464C159.385 13.875 159.196 13.5246 158.896 13.2443C158.601 12.9602 158.205 12.8182 157.709 12.8182C157.288 12.8182 156.919 12.9318 156.601 13.1591C156.283 13.3826 156.035 13.7045 155.857 14.125C155.682 14.5455 155.595 15.0492 155.595 15.6364C155.595 16.2311 155.682 16.7424 155.857 17.1705C156.031 17.5947 156.275 17.9223 156.589 18.1534C156.908 18.3807 157.281 18.4943 157.709 18.4943C158.012 18.4943 158.283 18.4375 158.521 18.3239C158.764 18.2064 158.966 18.0379 159.129 17.8182C159.292 17.5985 159.404 17.3314 159.464 17.017H161.43C161.381 17.6345 161.199 18.1818 160.885 18.6591C160.571 19.1326 160.143 19.5038 159.601 19.7727C159.059 20.0379 158.423 20.1705 157.692 20.1705ZM166.926 20.1705C166.074 20.1705 165.335 19.983 164.71 19.608C164.085 19.233 163.6 18.7083 163.256 18.0341C162.915 17.3598 162.744 16.572 162.744 15.6705C162.744 14.7689 162.915 13.9792 163.256 13.3011C163.6 12.6231 164.085 12.0966 164.71 11.7216C165.335 11.3466 166.074 11.1591 166.926 11.1591C167.778 11.1591 168.517 11.3466 169.142 11.7216C169.767 12.0966 170.25 12.6231 170.591 13.3011C170.936 13.9792 171.108 14.7689 171.108 15.6705C171.108 16.572 170.936 17.3598 170.591 18.0341C170.25 18.7083 169.767 19.233 169.142 19.608C168.517 19.983 167.778 20.1705 166.926 20.1705ZM166.938 18.5227C167.4 18.5227 167.786 18.3958 168.097 18.142C168.407 17.8845 168.638 17.5398 168.79 17.108C168.945 16.6761 169.023 16.1951 169.023 15.6648C169.023 15.1307 168.945 14.6477 168.79 14.2159C168.638 13.7803 168.407 13.4337 168.097 13.1761C167.786 12.9186 167.4 12.7898 166.938 12.7898C166.464 12.7898 166.07 12.9186 165.756 13.1761C165.445 13.4337 165.212 13.7803 165.057 14.2159C164.905 14.6477 164.83 15.1307 164.83 15.6648C164.83 16.1951 164.905 16.6761 165.057 17.108C165.212 17.5398 165.445 17.8845 165.756 18.142C166.07 18.3958 166.464 18.5227 166.938 18.5227ZM178.416 16.3295V11.2727H180.473V20H178.479V18.4489H178.388C178.191 18.9375 177.867 19.3371 177.416 19.6477C176.969 19.9583 176.418 20.1136 175.763 20.1136C175.191 20.1136 174.685 19.9867 174.246 19.733C173.81 19.4754 173.469 19.1023 173.223 18.6136C172.977 18.1212 172.854 17.5265 172.854 16.8295V11.2727H174.911V16.5114C174.911 17.0644 175.062 17.5038 175.365 17.8295C175.668 18.1553 176.066 18.3182 176.558 18.3182C176.861 18.3182 177.155 18.2443 177.439 18.0966C177.723 17.9489 177.956 17.7292 178.138 17.4375C178.323 17.142 178.416 16.7727 178.416 16.3295ZM190.384 11.2727L187.276 20H185.003L181.895 11.2727H184.088L186.094 17.7557H186.185L188.196 11.2727H190.384ZM191.807 20V11.2727H193.801V12.7273H193.892C194.051 12.2235 194.324 11.8352 194.71 11.5625C195.1 11.286 195.545 11.1477 196.045 11.1477C196.159 11.1477 196.286 11.1534 196.426 11.1648C196.57 11.1723 196.689 11.1856 196.784 11.2045V13.0966C196.697 13.0663 196.559 13.0398 196.369 13.017C196.184 12.9905 196.004 12.9773 195.83 12.9773C195.455 12.9773 195.117 13.0587 194.818 13.2216C194.523 13.3807 194.29 13.6023 194.119 13.8864C193.949 14.1705 193.864 14.4981 193.864 14.8693V20H191.807ZM198.151 20V11.2727H200.207V20H198.151ZM199.185 10.0341C198.859 10.0341 198.579 9.92614 198.344 9.71023C198.109 9.49053 197.991 9.22727 197.991 8.92045C197.991 8.60985 198.109 8.34659 198.344 8.13068C198.579 7.91098 198.859 7.80114 199.185 7.80114C199.514 7.80114 199.795 7.91098 200.026 8.13068C200.26 8.34659 200.378 8.60985 200.378 8.92045C200.378 9.22727 200.26 9.49053 200.026 9.71023C199.795 9.92614 199.514 10.0341 199.185 10.0341ZM202.322 20V11.2727H204.317V12.7273H204.408C204.567 12.2235 204.839 11.8352 205.226 11.5625C205.616 11.286 206.061 11.1477 206.561 11.1477C206.675 11.1477 206.802 11.1534 206.942 11.1648C207.086 11.1723 207.205 11.1856 207.3 11.2045V13.0966C207.213 13.0663 207.074 13.0398 206.885 13.017C206.699 12.9905 206.519 12.9773 206.345 12.9773C205.97 12.9773 205.633 13.0587 205.334 13.2216C205.038 13.3807 204.805 13.6023 204.635 13.8864C204.464 14.1705 204.379 14.4981 204.379 14.8693V20H202.322Z" fill="url(#paint0_linear_1088_30651)" shape-rendering="crispEdges"/>
</g>
<defs>
<filter id="filter0_d_1088_30651" x="26.7275" y="3.52832" width="184.572" height="23.7446" filterUnits="userSpaceOnUse" color-interpolation-filters="sRGB">
<feFlood flood-opacity="0" result="BackgroundImageFix"/>
<feColorMatrix in="SourceAlpha" type="matrix" values="0 0 0 0 0 0 0 0 0 0 0 0 0 0 0 0 0 0 127 0" result="hardAlpha"/>
<feOffset/>
<feGaussianBlur stdDeviation="2"/>
<feComposite in2="hardAlpha" operator="out"/>
<feColorMatrix type="matrix" values="0 0 0 0 0 0 0 0 0 0 0 0 0 0 0 0 0 0 0.25 0"/>
<feBlend mode="normal" in2="BackgroundImageFix" result="effect1_dropShadow_1088_30651"/>
<feBlend mode="normal" in="SourceGraphic" in2="effect1_dropShadow_1088_30651" result="shape"/>
</filter>
<linearGradient id="paint0_linear_1088_30651" x1="210.5" y1="17" x2="22" y2="17" gradientUnits="userSpaceOnUse">
<stop stop-color="white" stop-opacity="0"/>
<stop offset="0.545" stop-color="white"/>
<stop offset="0.9999" stop-color="white"/>
<stop offset="1" stop-color="white" stop-opacity="0"/>
</linearGradient>
</defs>
</svg>
